G04 EAGLE Gerber RS-274X export*
G75*
%MOMM*%
%FSLAX34Y34*%
%LPD*%
%INTop Copper*%
%IPPOS*%
%AMOC8*
5,1,8,0,0,1.08239X$1,22.5*%
G01*
G04 Define Apertures*
%ADD10C,1.348000*%
%ADD11C,0.139500*%
%ADD12C,0.196500*%
%ADD13C,1.524000*%
%ADD14R,1.803400X3.302000*%
%ADD15R,4.000000X2.500000*%
%ADD16R,7.000000X4.000000*%
%ADD17R,1.031200X1.420200*%
%ADD18R,1.080000X0.430000*%
%ADD19R,0.644000X0.535100*%
%ADD20R,0.535100X0.644000*%
%ADD21R,0.970200X0.920900*%
%ADD22R,0.920900X0.970200*%
%ADD23R,1.100000X0.700000*%
%ADD24R,0.800000X1.000000*%
%ADD25R,1.400000X1.000000*%
%ADD26R,0.761800X1.361800*%
%ADD27C,0.254000*%
%ADD28C,0.152400*%
%ADD29C,1.016000*%
%ADD30C,0.508000*%
%ADD31C,0.406400*%
G36*
X675757Y152460D02*
X675460Y152400D01*
X48440Y152400D01*
X48080Y152490D01*
X47846Y152684D01*
X47707Y152953D01*
X47684Y153255D01*
X47780Y153543D01*
X48845Y155389D01*
X50560Y161788D01*
X50560Y168412D01*
X48845Y174811D01*
X45533Y180549D01*
X40849Y185233D01*
X35111Y188545D01*
X28712Y190260D01*
X22088Y190260D01*
X15689Y188545D01*
X13843Y187480D01*
X13486Y187378D01*
X13187Y187429D01*
X12932Y187592D01*
X12760Y187843D01*
X12700Y188140D01*
X12700Y501314D01*
X12751Y501589D01*
X12915Y501844D01*
X13165Y502016D01*
X13462Y502076D01*
X18791Y502076D01*
X19684Y502969D01*
X19684Y514231D01*
X18791Y515124D01*
X13462Y515124D01*
X13187Y515175D01*
X12932Y515339D01*
X12760Y515589D01*
X12700Y515886D01*
X12700Y521488D01*
X12747Y521751D01*
X12906Y522009D01*
X13154Y522185D01*
X13450Y522250D01*
X13748Y522194D01*
X14001Y522027D01*
X17356Y518672D01*
X22744Y516440D01*
X28576Y516440D01*
X33964Y518672D01*
X36819Y521527D01*
X37039Y521680D01*
X37334Y521750D01*
X37633Y521699D01*
X37888Y521535D01*
X38060Y521285D01*
X38120Y520988D01*
X38120Y519048D01*
X39608Y517560D01*
X45398Y517560D01*
X45398Y529640D01*
X41082Y529640D01*
X40807Y529691D01*
X40552Y529855D01*
X40380Y530105D01*
X40320Y530402D01*
X40320Y532814D01*
X40371Y533089D01*
X40535Y533344D01*
X40785Y533516D01*
X41082Y533576D01*
X52291Y533576D01*
X53028Y534313D01*
X53270Y534476D01*
X53567Y534536D01*
X56608Y534536D01*
X56894Y534480D01*
X57147Y534313D01*
X97313Y494147D01*
X97476Y493906D01*
X97534Y493619D01*
X112617Y478536D01*
X168423Y478536D01*
X168709Y478480D01*
X168961Y478313D01*
X169418Y477856D01*
X176032Y477856D01*
X176925Y478749D01*
X176925Y486451D01*
X176032Y487344D01*
X169418Y487344D01*
X168961Y486887D01*
X168720Y486724D01*
X168423Y486664D01*
X116299Y486664D01*
X116013Y486720D01*
X115760Y486887D01*
X105887Y496760D01*
X105724Y497002D01*
X105666Y497289D01*
X60291Y542664D01*
X53567Y542664D01*
X53281Y542720D01*
X53028Y542887D01*
X52291Y543624D01*
X40029Y543624D01*
X39136Y542731D01*
X39136Y540196D01*
X39089Y539933D01*
X38930Y539675D01*
X38682Y539499D01*
X38386Y539434D01*
X38088Y539490D01*
X37835Y539657D01*
X33964Y543528D01*
X29455Y545396D01*
X29230Y545540D01*
X29052Y545786D01*
X28985Y546082D01*
X29038Y546380D01*
X29203Y546635D01*
X29455Y546804D01*
X33964Y548672D01*
X38088Y552796D01*
X40320Y558184D01*
X40320Y562814D01*
X40371Y563089D01*
X40535Y563344D01*
X40785Y563516D01*
X41082Y563576D01*
X52291Y563576D01*
X53028Y564313D01*
X53270Y564476D01*
X53567Y564536D01*
X87016Y564536D01*
X87291Y564485D01*
X87546Y564321D01*
X87718Y564071D01*
X87778Y563774D01*
X87778Y547317D01*
X93059Y542036D01*
X104399Y542036D01*
X104674Y541985D01*
X104929Y541821D01*
X105101Y541571D01*
X105161Y541274D01*
X105161Y527837D01*
X105110Y527562D01*
X104946Y527307D01*
X104696Y527135D01*
X104399Y527075D01*
X101318Y527075D01*
X100426Y526182D01*
X100426Y515218D01*
X101318Y514325D01*
X111790Y514325D01*
X112683Y515218D01*
X112683Y520766D01*
X112738Y521051D01*
X112906Y521304D01*
X113289Y521688D01*
X113289Y541798D01*
X113345Y542084D01*
X113425Y542204D01*
X113425Y549951D01*
X112532Y550844D01*
X105918Y550844D01*
X105461Y550387D01*
X105220Y550224D01*
X104923Y550164D01*
X96741Y550164D01*
X96455Y550220D01*
X96202Y550387D01*
X96129Y550460D01*
X95966Y550702D01*
X95906Y550999D01*
X95906Y559157D01*
X95953Y559420D01*
X96112Y559678D01*
X96360Y559854D01*
X96656Y559919D01*
X96954Y559863D01*
X97207Y559696D01*
X97501Y559401D01*
X99928Y558396D01*
X119014Y558396D01*
X121441Y559401D01*
X121799Y559760D01*
X122019Y559913D01*
X122314Y559983D01*
X122613Y559932D01*
X122868Y559768D01*
X123040Y559518D01*
X123100Y559221D01*
X123100Y555170D01*
X123044Y554884D01*
X122877Y554631D01*
X119313Y551067D01*
X119072Y550904D01*
X118774Y550844D01*
X116068Y550844D01*
X115176Y549951D01*
X115176Y542206D01*
X115251Y542095D01*
X115311Y541798D01*
X115311Y521688D01*
X115694Y521304D01*
X115857Y521063D01*
X115918Y520766D01*
X115918Y515218D01*
X116810Y514325D01*
X127282Y514325D01*
X128175Y515218D01*
X128175Y515874D01*
X128226Y516149D01*
X128389Y516404D01*
X128639Y516576D01*
X128937Y516636D01*
X130323Y516636D01*
X130609Y516580D01*
X130861Y516413D01*
X131318Y515956D01*
X137932Y515956D01*
X138825Y516849D01*
X138825Y524551D01*
X137932Y525444D01*
X131318Y525444D01*
X130861Y524987D01*
X130620Y524824D01*
X130323Y524764D01*
X128937Y524764D01*
X128662Y524815D01*
X128406Y524979D01*
X128235Y525229D01*
X128175Y525526D01*
X128175Y526182D01*
X127282Y527075D01*
X124201Y527075D01*
X123926Y527126D01*
X123671Y527290D01*
X123499Y527540D01*
X123439Y527837D01*
X123439Y541274D01*
X123490Y541549D01*
X123654Y541804D01*
X123904Y541976D01*
X124201Y542036D01*
X154083Y542036D01*
X156464Y544417D01*
X156464Y558928D01*
X156515Y559203D01*
X156679Y559458D01*
X156929Y559630D01*
X157226Y559690D01*
X169238Y559690D01*
X169512Y559639D01*
X169768Y559475D01*
X169939Y559225D01*
X170000Y558928D01*
X170000Y558518D01*
X170892Y557626D01*
X181857Y557626D01*
X182750Y558518D01*
X182750Y568990D01*
X181857Y569883D01*
X170892Y569883D01*
X170000Y568990D01*
X170000Y568580D01*
X169948Y568305D01*
X169785Y568050D01*
X169535Y567878D01*
X169238Y567818D01*
X150717Y567818D01*
X148336Y565437D01*
X148336Y550926D01*
X148285Y550651D01*
X148121Y550396D01*
X147871Y550224D01*
X147574Y550164D01*
X130308Y550164D01*
X130044Y550211D01*
X129786Y550370D01*
X129611Y550618D01*
X129546Y550914D01*
X129601Y551212D01*
X129769Y551465D01*
X130212Y551908D01*
X130212Y566409D01*
X130259Y566672D01*
X130418Y566930D01*
X130666Y567106D01*
X130962Y567171D01*
X131260Y567115D01*
X131513Y566948D01*
X132559Y565901D01*
X134986Y564896D01*
X137614Y564896D01*
X140041Y565901D01*
X141742Y567603D01*
X141984Y567766D01*
X142281Y567826D01*
X142331Y567826D01*
X143224Y568719D01*
X143224Y569413D01*
X143282Y569705D01*
X143890Y571172D01*
X143890Y571221D01*
X143946Y571507D01*
X144113Y571759D01*
X144773Y572419D01*
X145014Y572582D01*
X145311Y572642D01*
X177688Y572642D01*
X178696Y573060D01*
X178988Y573118D01*
X181857Y573118D01*
X182750Y574010D01*
X182750Y577228D01*
X182808Y577520D01*
X182979Y577932D01*
X182979Y589534D01*
X183030Y589809D01*
X183193Y590064D01*
X183443Y590236D01*
X183741Y590296D01*
X195834Y590296D01*
X196109Y590245D01*
X196364Y590081D01*
X196536Y589831D01*
X196596Y589534D01*
X196596Y582886D01*
X197601Y580459D01*
X199459Y578601D01*
X201886Y577596D01*
X219364Y577596D01*
X221791Y578601D01*
X223492Y580303D01*
X223734Y580466D01*
X224031Y580526D01*
X227323Y580526D01*
X228624Y581827D01*
X228624Y591573D01*
X227323Y592874D01*
X223053Y592874D01*
X222762Y592932D01*
X221864Y593304D01*
X219236Y593304D01*
X218338Y592932D01*
X218047Y592874D01*
X213777Y592874D01*
X212476Y591573D01*
X212476Y591566D01*
X212425Y591291D01*
X212261Y591036D01*
X212011Y590864D01*
X211714Y590804D01*
X210566Y590804D01*
X210291Y590855D01*
X210036Y591019D01*
X209864Y591269D01*
X209804Y591566D01*
X209804Y598214D01*
X208799Y600641D01*
X206941Y602499D01*
X204514Y603504D01*
X197866Y603504D01*
X197591Y603555D01*
X197336Y603719D01*
X197164Y603969D01*
X197104Y604266D01*
X197104Y657984D01*
X197160Y658270D01*
X197327Y658523D01*
X253718Y714914D01*
X253960Y715077D01*
X254257Y715137D01*
X268097Y715137D01*
X268372Y715086D01*
X268627Y714922D01*
X268799Y714672D01*
X268859Y714375D01*
X268859Y688371D01*
X269752Y687478D01*
X289048Y687478D01*
X289941Y688371D01*
X289941Y706398D01*
X289997Y706684D01*
X290164Y706937D01*
X300300Y717073D01*
X300542Y717236D01*
X300839Y717296D01*
X475234Y717296D01*
X475509Y717245D01*
X475764Y717081D01*
X475936Y716831D01*
X475996Y716534D01*
X475996Y695706D01*
X475945Y695431D01*
X475781Y695176D01*
X475531Y695004D01*
X475234Y694944D01*
X473161Y694944D01*
X469800Y693552D01*
X467228Y690980D01*
X465836Y687619D01*
X465836Y683981D01*
X467228Y680620D01*
X469800Y678048D01*
X473161Y676656D01*
X492039Y676656D01*
X495400Y678048D01*
X497972Y680620D01*
X499364Y683981D01*
X499364Y687619D01*
X497972Y690980D01*
X495400Y693552D01*
X492039Y694944D01*
X489966Y694944D01*
X489691Y694995D01*
X489436Y695159D01*
X489264Y695409D01*
X489204Y695706D01*
X489204Y725214D01*
X488199Y727641D01*
X486341Y729499D01*
X483914Y730504D01*
X296474Y730504D01*
X294047Y729499D01*
X288318Y723769D01*
X288076Y723606D01*
X287779Y723546D01*
X286310Y723546D01*
X286029Y723599D01*
X285775Y723765D01*
X285606Y724016D01*
X284999Y725482D01*
X283141Y727340D01*
X280714Y728345D01*
X249892Y728345D01*
X247465Y727340D01*
X184901Y664776D01*
X183896Y662349D01*
X183896Y604266D01*
X183845Y603991D01*
X183681Y603736D01*
X183431Y603564D01*
X183134Y603504D01*
X176486Y603504D01*
X174059Y602499D01*
X170776Y599215D01*
X169771Y596788D01*
X169771Y586612D01*
X169719Y586337D01*
X169556Y586082D01*
X169306Y585910D01*
X169009Y585850D01*
X140947Y585850D01*
X138520Y584845D01*
X131687Y578013D01*
X130707Y575644D01*
X130550Y575406D01*
X130393Y575298D01*
X129376Y574281D01*
X129376Y572772D01*
X129329Y572508D01*
X129170Y572250D01*
X128922Y572075D01*
X128626Y572010D01*
X128328Y572065D01*
X128075Y572233D01*
X124847Y575461D01*
X124684Y575702D01*
X124624Y576000D01*
X124624Y580781D01*
X123731Y581674D01*
X111669Y581674D01*
X110776Y580781D01*
X110776Y575219D01*
X111669Y574326D01*
X115608Y574326D01*
X115894Y574270D01*
X116147Y574103D01*
X117345Y572905D01*
X117498Y572685D01*
X117568Y572390D01*
X117517Y572091D01*
X117354Y571836D01*
X117104Y571664D01*
X116806Y571604D01*
X104293Y571604D01*
X104007Y571660D01*
X103754Y571827D01*
X101569Y574012D01*
X101406Y574254D01*
X101346Y574551D01*
X101346Y577788D01*
X101402Y578074D01*
X101569Y578327D01*
X110611Y587369D01*
X110852Y587532D01*
X111150Y587592D01*
X124609Y587592D01*
X127036Y588597D01*
X145463Y607024D01*
X146468Y609451D01*
X146468Y656253D01*
X146524Y656539D01*
X146691Y656792D01*
X168152Y678253D01*
X168394Y678416D01*
X168691Y678476D01*
X193691Y678476D01*
X194584Y679369D01*
X194584Y705631D01*
X193691Y706524D01*
X152429Y706524D01*
X151536Y705631D01*
X151536Y680631D01*
X151480Y680345D01*
X151313Y680092D01*
X134265Y663045D01*
X133260Y660618D01*
X133260Y613816D01*
X133204Y613530D01*
X133037Y613277D01*
X120783Y601023D01*
X120542Y600860D01*
X120244Y600800D01*
X106785Y600800D01*
X104358Y599795D01*
X89143Y584580D01*
X88138Y582153D01*
X88138Y573426D01*
X88087Y573151D01*
X87923Y572896D01*
X87673Y572724D01*
X87376Y572664D01*
X53567Y572664D01*
X53281Y572720D01*
X53028Y572887D01*
X52291Y573624D01*
X40029Y573624D01*
X39136Y572731D01*
X39136Y570196D01*
X39089Y569933D01*
X38930Y569675D01*
X38682Y569499D01*
X38386Y569434D01*
X38088Y569490D01*
X37835Y569657D01*
X33964Y573528D01*
X28576Y575760D01*
X22744Y575760D01*
X17356Y573528D01*
X14001Y570173D01*
X13781Y570020D01*
X13486Y569950D01*
X13187Y570001D01*
X12932Y570165D01*
X12760Y570415D01*
X12700Y570712D01*
X12700Y576314D01*
X12751Y576589D01*
X12915Y576844D01*
X13165Y577016D01*
X13462Y577076D01*
X18791Y577076D01*
X19684Y577969D01*
X19684Y589231D01*
X18791Y590124D01*
X13462Y590124D01*
X13187Y590175D01*
X12932Y590339D01*
X12760Y590589D01*
X12700Y590886D01*
X12700Y751660D01*
X12790Y752020D01*
X12984Y752254D01*
X13253Y752393D01*
X13555Y752417D01*
X13843Y752320D01*
X15689Y751255D01*
X22088Y749540D01*
X28712Y749540D01*
X35111Y751255D01*
X40849Y754567D01*
X45533Y759251D01*
X46598Y761096D01*
X46694Y761228D01*
X46939Y761407D01*
X47234Y761477D01*
X47533Y761426D01*
X47788Y761263D01*
X47960Y761012D01*
X48020Y760715D01*
X48020Y742660D01*
X47967Y742380D01*
X47801Y742126D01*
X47550Y741956D01*
X42207Y739743D01*
X36817Y734353D01*
X33900Y727311D01*
X33900Y719689D01*
X36817Y712647D01*
X42207Y707257D01*
X49249Y704340D01*
X56871Y704340D01*
X63913Y707257D01*
X69303Y712647D01*
X72220Y719689D01*
X72220Y727311D01*
X69303Y734353D01*
X63997Y739659D01*
X63844Y739879D01*
X63774Y740174D01*
X63825Y740473D01*
X63989Y740728D01*
X64239Y740900D01*
X64536Y740960D01*
X84798Y740960D01*
X84798Y764262D01*
X123100Y764262D01*
X123100Y784552D01*
X121553Y786099D01*
X121400Y786319D01*
X121330Y786614D01*
X121381Y786913D01*
X121544Y787168D01*
X121795Y787340D01*
X122092Y787400D01*
X675460Y787400D01*
X675820Y787310D01*
X676054Y787116D01*
X676193Y786847D01*
X676217Y786545D01*
X676120Y786257D01*
X675055Y784411D01*
X673340Y778012D01*
X673340Y771388D01*
X675055Y764989D01*
X678367Y759251D01*
X683051Y754567D01*
X688789Y751255D01*
X695188Y749540D01*
X701812Y749540D01*
X708211Y751255D01*
X710057Y752320D01*
X710414Y752422D01*
X710713Y752371D01*
X710968Y752208D01*
X711140Y751957D01*
X711200Y751660D01*
X711200Y188140D01*
X711110Y187780D01*
X710916Y187546D01*
X710647Y187407D01*
X710345Y187384D01*
X710057Y187480D01*
X708211Y188545D01*
X701812Y190260D01*
X695188Y190260D01*
X688789Y188545D01*
X683051Y185233D01*
X678367Y180549D01*
X675055Y174811D01*
X673340Y168412D01*
X673340Y161788D01*
X675055Y155389D01*
X676120Y153543D01*
X676222Y153186D01*
X676171Y152887D01*
X676008Y152632D01*
X675757Y152460D01*
G37*
%LPC*%
G36*
X280162Y761392D02*
X290957Y761392D01*
X290957Y778192D01*
X289469Y779680D01*
X280162Y779680D01*
X280162Y761392D01*
G37*
G36*
X267843Y761392D02*
X278638Y761392D01*
X278638Y779680D01*
X269331Y779680D01*
X267843Y778192D01*
X267843Y761392D01*
G37*
G36*
X86322Y740960D02*
X121612Y740960D01*
X123100Y742448D01*
X123100Y762738D01*
X86322Y762738D01*
X86322Y740960D01*
G37*
G36*
X269331Y741580D02*
X278638Y741580D01*
X278638Y759868D01*
X267843Y759868D01*
X267843Y743068D01*
X269331Y741580D01*
G37*
G36*
X280162Y741580D02*
X289469Y741580D01*
X290957Y743068D01*
X290957Y759868D01*
X280162Y759868D01*
X280162Y741580D01*
G37*
G36*
X346161Y676656D02*
X365039Y676656D01*
X368400Y678048D01*
X370972Y680620D01*
X372364Y683981D01*
X372364Y687619D01*
X370972Y690980D01*
X368400Y693552D01*
X365039Y694944D01*
X346161Y694944D01*
X342800Y693552D01*
X340228Y690980D01*
X338836Y687619D01*
X338836Y683981D01*
X340228Y680620D01*
X342800Y678048D01*
X346161Y676656D01*
G37*
G36*
X48020Y634262D02*
X84798Y634262D01*
X84798Y656040D01*
X64536Y656040D01*
X64273Y656087D01*
X64015Y656246D01*
X63839Y656494D01*
X63774Y656790D01*
X63830Y657088D01*
X63997Y657341D01*
X69303Y662647D01*
X72220Y669689D01*
X72220Y677311D01*
X69303Y684353D01*
X63913Y689743D01*
X56871Y692660D01*
X49249Y692660D01*
X42207Y689743D01*
X36817Y684353D01*
X33900Y677311D01*
X33900Y669689D01*
X36817Y662647D01*
X42207Y657257D01*
X47550Y655044D01*
X47788Y654887D01*
X47960Y654637D01*
X48020Y654340D01*
X48020Y634262D01*
G37*
G36*
X483362Y661162D02*
X500380Y661162D01*
X500380Y662421D01*
X498833Y666155D01*
X495975Y669013D01*
X492241Y670560D01*
X483362Y670560D01*
X483362Y661162D01*
G37*
G36*
X464820Y661162D02*
X481838Y661162D01*
X481838Y670560D01*
X472959Y670560D01*
X469225Y669013D01*
X466367Y666155D01*
X464820Y662421D01*
X464820Y661162D01*
G37*
G36*
X315681Y211836D02*
X319319Y211836D01*
X322680Y213228D01*
X325252Y215800D01*
X326644Y219161D01*
X326644Y233477D01*
X326700Y233763D01*
X326867Y234016D01*
X333074Y240222D01*
X333288Y240373D01*
X333582Y240445D01*
X333881Y240396D01*
X334138Y240235D01*
X334312Y239986D01*
X334374Y239690D01*
X334316Y239392D01*
X333756Y238039D01*
X333756Y219161D01*
X335148Y215800D01*
X337720Y213228D01*
X341081Y211836D01*
X344719Y211836D01*
X348080Y213228D01*
X350652Y215800D01*
X352044Y219161D01*
X352044Y238039D01*
X350652Y241400D01*
X348080Y243972D01*
X344719Y245364D01*
X341081Y245364D01*
X339728Y244804D01*
X339473Y244746D01*
X339173Y244793D01*
X338915Y244952D01*
X338740Y245199D01*
X338675Y245495D01*
X338730Y245794D01*
X338898Y246046D01*
X420034Y327183D01*
X420276Y327346D01*
X420573Y327406D01*
X516531Y327406D01*
X516811Y327353D01*
X517065Y327187D01*
X517235Y326936D01*
X518028Y325020D01*
X520600Y322448D01*
X523961Y321056D01*
X542839Y321056D01*
X546200Y322448D01*
X548772Y325020D01*
X550164Y328381D01*
X550164Y332019D01*
X548772Y335380D01*
X546200Y337952D01*
X542839Y339344D01*
X523961Y339344D01*
X520600Y337952D01*
X518028Y335380D01*
X517235Y333464D01*
X517078Y333226D01*
X516828Y333054D01*
X516531Y332994D01*
X422656Y332994D01*
X422381Y333045D01*
X422126Y333209D01*
X421954Y333459D01*
X421894Y333756D01*
X421894Y559957D01*
X420257Y561594D01*
X372469Y561594D01*
X372189Y561647D01*
X371935Y561813D01*
X371765Y562064D01*
X370972Y563980D01*
X368400Y566552D01*
X365039Y567944D01*
X358648Y567944D01*
X358373Y567995D01*
X358118Y568159D01*
X357946Y568409D01*
X357886Y568706D01*
X357886Y574294D01*
X357937Y574569D01*
X358101Y574824D01*
X358351Y574996D01*
X358648Y575056D01*
X365039Y575056D01*
X368400Y576448D01*
X370972Y579020D01*
X372364Y582381D01*
X372364Y586019D01*
X370972Y589380D01*
X368400Y591952D01*
X365039Y593344D01*
X346161Y593344D01*
X343582Y592276D01*
X343327Y592218D01*
X343027Y592265D01*
X342769Y592424D01*
X342593Y592671D01*
X342528Y592967D01*
X342584Y593266D01*
X342751Y593518D01*
X349466Y600233D01*
X349707Y600396D01*
X350005Y600456D01*
X365039Y600456D01*
X368400Y601848D01*
X370972Y604420D01*
X372364Y607781D01*
X372364Y611419D01*
X370972Y614780D01*
X368400Y617352D01*
X365039Y618744D01*
X346161Y618744D01*
X343582Y617676D01*
X343327Y617618D01*
X343027Y617665D01*
X342769Y617824D01*
X342593Y618071D01*
X342528Y618367D01*
X342584Y618666D01*
X342751Y618918D01*
X349466Y625633D01*
X349707Y625796D01*
X350005Y625856D01*
X365039Y625856D01*
X368400Y627248D01*
X370972Y629820D01*
X372364Y633181D01*
X372364Y636819D01*
X370972Y640180D01*
X368400Y642752D01*
X365039Y644144D01*
X346161Y644144D01*
X343582Y643076D01*
X343327Y643018D01*
X343027Y643065D01*
X342769Y643224D01*
X342593Y643471D01*
X342528Y643767D01*
X342584Y644066D01*
X342751Y644318D01*
X349466Y651033D01*
X349707Y651196D01*
X350005Y651256D01*
X365039Y651256D01*
X368400Y652648D01*
X370972Y655220D01*
X372364Y658581D01*
X372364Y662219D01*
X370972Y665580D01*
X368400Y668152D01*
X365039Y669544D01*
X346161Y669544D01*
X342800Y668152D01*
X340228Y665580D01*
X338836Y662219D01*
X338836Y658581D01*
X340228Y655220D01*
X342800Y652648D01*
X343030Y652553D01*
X343260Y652405D01*
X343435Y652157D01*
X343500Y651861D01*
X343445Y651563D01*
X343277Y651310D01*
X302514Y610547D01*
X302514Y394963D01*
X302458Y394677D01*
X302291Y394424D01*
X301190Y393323D01*
X300965Y393167D01*
X300669Y393100D01*
X300371Y393153D01*
X300117Y393318D01*
X299947Y393570D01*
X299852Y393800D01*
X297280Y396372D01*
X293919Y397764D01*
X290281Y397764D01*
X286920Y396372D01*
X284348Y393800D01*
X282956Y390439D01*
X282956Y371561D01*
X284348Y368200D01*
X286920Y365628D01*
X290281Y364236D01*
X293919Y364236D01*
X297280Y365628D01*
X299852Y368200D01*
X301244Y371561D01*
X301244Y386595D01*
X301300Y386881D01*
X301467Y387134D01*
X307086Y392753D01*
X307086Y608337D01*
X307142Y608623D01*
X307309Y608876D01*
X338662Y640229D01*
X338876Y640379D01*
X339170Y640451D01*
X339469Y640403D01*
X339726Y640241D01*
X339900Y639993D01*
X339962Y639696D01*
X339904Y639398D01*
X338836Y636819D01*
X338836Y633181D01*
X340228Y629820D01*
X342800Y627248D01*
X343030Y627153D01*
X343260Y627005D01*
X343435Y626757D01*
X343500Y626461D01*
X343445Y626163D01*
X343277Y625910D01*
X315214Y597847D01*
X315214Y398080D01*
X315161Y397799D01*
X314995Y397545D01*
X314744Y397376D01*
X312320Y396372D01*
X309748Y393800D01*
X308356Y390439D01*
X308356Y371561D01*
X309748Y368200D01*
X312320Y365628D01*
X315681Y364236D01*
X319319Y364236D01*
X322680Y365628D01*
X325252Y368200D01*
X326644Y371561D01*
X326644Y390439D01*
X325252Y393800D01*
X322680Y396372D01*
X320256Y397376D01*
X320018Y397532D01*
X319846Y397782D01*
X319786Y398080D01*
X319786Y595637D01*
X319842Y595923D01*
X320009Y596176D01*
X338662Y614829D01*
X338876Y614979D01*
X339170Y615051D01*
X339469Y615003D01*
X339726Y614841D01*
X339900Y614593D01*
X339962Y614296D01*
X339904Y613998D01*
X338836Y611419D01*
X338836Y607781D01*
X340228Y604420D01*
X342800Y601848D01*
X343030Y601753D01*
X343260Y601605D01*
X343435Y601357D01*
X343500Y601061D01*
X343445Y600763D01*
X343277Y600510D01*
X327914Y585147D01*
X327914Y392753D01*
X333533Y387134D01*
X333696Y386893D01*
X333756Y386595D01*
X333756Y371561D01*
X335148Y368200D01*
X337720Y365628D01*
X341081Y364236D01*
X344719Y364236D01*
X348080Y365628D01*
X350652Y368200D01*
X352044Y371561D01*
X352044Y390439D01*
X350652Y393800D01*
X348080Y396372D01*
X344719Y397764D01*
X341081Y397764D01*
X337720Y396372D01*
X335148Y393800D01*
X335053Y393570D01*
X334905Y393340D01*
X334657Y393165D01*
X334361Y393100D01*
X334063Y393155D01*
X333810Y393323D01*
X332709Y394424D01*
X332546Y394665D01*
X332486Y394963D01*
X332486Y582937D01*
X332542Y583223D01*
X332709Y583476D01*
X338662Y589429D01*
X338876Y589579D01*
X339170Y589651D01*
X339469Y589603D01*
X339726Y589441D01*
X339900Y589193D01*
X339962Y588896D01*
X339904Y588598D01*
X338836Y586019D01*
X338836Y582381D01*
X340228Y579020D01*
X342800Y576448D01*
X346161Y575056D01*
X352552Y575056D01*
X352827Y575005D01*
X353082Y574841D01*
X353254Y574591D01*
X353314Y574294D01*
X353314Y568706D01*
X353263Y568431D01*
X353099Y568176D01*
X352849Y568004D01*
X352552Y567944D01*
X346161Y567944D01*
X342800Y566552D01*
X340228Y563980D01*
X338836Y560619D01*
X338836Y556981D01*
X340228Y553620D01*
X342800Y551048D01*
X346161Y549656D01*
X365039Y549656D01*
X368400Y551048D01*
X370972Y553620D01*
X371765Y555536D01*
X371922Y555774D01*
X372172Y555946D01*
X372469Y556006D01*
X415544Y556006D01*
X415819Y555955D01*
X416074Y555791D01*
X416246Y555541D01*
X416306Y555244D01*
X416306Y331673D01*
X416250Y331387D01*
X416083Y331134D01*
X326339Y241390D01*
X326109Y241232D01*
X325812Y241167D01*
X325514Y241223D01*
X325261Y241390D01*
X322680Y243972D01*
X320764Y244765D01*
X320526Y244922D01*
X320354Y245172D01*
X320294Y245469D01*
X320294Y258210D01*
X215569Y362935D01*
X215416Y363155D01*
X215346Y363450D01*
X215397Y363749D01*
X215560Y364004D01*
X215810Y364176D01*
X216107Y364236D01*
X217719Y364236D01*
X221080Y365628D01*
X223652Y368200D01*
X225044Y371561D01*
X225044Y390439D01*
X223652Y393800D01*
X221080Y396372D01*
X217719Y397764D01*
X214081Y397764D01*
X210720Y396372D01*
X209581Y395232D01*
X209361Y395079D01*
X209066Y395010D01*
X208767Y395060D01*
X208512Y395224D01*
X208340Y395474D01*
X208280Y395771D01*
X208280Y438078D01*
X195031Y451327D01*
X194873Y451558D01*
X194808Y451854D01*
X194864Y452152D01*
X195031Y452405D01*
X204175Y461549D01*
X204417Y461712D01*
X204714Y461772D01*
X206567Y461772D01*
X258088Y513293D01*
X258088Y609463D01*
X255157Y612394D01*
X229386Y612394D01*
X229111Y612445D01*
X228856Y612609D01*
X228684Y612859D01*
X228624Y613156D01*
X228624Y614473D01*
X227323Y615774D01*
X213777Y615774D01*
X212476Y614473D01*
X212476Y604727D01*
X213777Y603426D01*
X227323Y603426D01*
X228624Y604727D01*
X228624Y606044D01*
X228675Y606319D01*
X228839Y606574D01*
X229089Y606746D01*
X229386Y606806D01*
X251738Y606806D01*
X252013Y606755D01*
X252268Y606591D01*
X252440Y606341D01*
X252500Y606044D01*
X252500Y515924D01*
X252444Y515638D01*
X252277Y515385D01*
X204475Y467583D01*
X204234Y467420D01*
X203937Y467360D01*
X202084Y467360D01*
X189607Y454883D01*
X189365Y454720D01*
X189068Y454660D01*
X117004Y454660D01*
X115692Y453348D01*
X115450Y453185D01*
X115153Y453125D01*
X105008Y453125D01*
X104115Y452232D01*
X104115Y436768D01*
X105008Y435875D01*
X116582Y435875D01*
X117475Y436768D01*
X117475Y446913D01*
X117531Y447199D01*
X117698Y447452D01*
X119095Y448849D01*
X119337Y449012D01*
X119634Y449072D01*
X189068Y449072D01*
X189354Y449016D01*
X189607Y448849D01*
X202469Y435987D01*
X202632Y435745D01*
X202692Y435448D01*
X202692Y367909D01*
X314483Y256118D01*
X314646Y255877D01*
X314706Y255579D01*
X314706Y245469D01*
X314653Y245189D01*
X314487Y244935D01*
X314236Y244765D01*
X312320Y243972D01*
X309748Y241400D01*
X308356Y238039D01*
X308356Y219161D01*
X309748Y215800D01*
X312320Y213228D01*
X315681Y211836D01*
G37*
G36*
X646056Y550536D02*
X649344Y550536D01*
X652381Y551794D01*
X654706Y554119D01*
X655964Y557156D01*
X655964Y557409D01*
X656020Y557695D01*
X656187Y557948D01*
X678699Y580459D01*
X679704Y582886D01*
X679704Y661714D01*
X678699Y664141D01*
X676841Y665999D01*
X674414Y667004D01*
X582886Y667004D01*
X580459Y665999D01*
X556288Y641827D01*
X556046Y641664D01*
X555749Y641604D01*
X496863Y641604D01*
X496577Y641660D01*
X496324Y641827D01*
X495400Y642752D01*
X492039Y644144D01*
X473161Y644144D01*
X469800Y642752D01*
X467228Y640180D01*
X465836Y636819D01*
X465836Y633181D01*
X467228Y629820D01*
X469800Y627248D01*
X473161Y625856D01*
X492039Y625856D01*
X495400Y627248D01*
X496324Y628173D01*
X496566Y628336D01*
X496863Y628396D01*
X560114Y628396D01*
X562541Y629401D01*
X586712Y653573D01*
X586954Y653736D01*
X587251Y653796D01*
X665734Y653796D01*
X666009Y653745D01*
X666264Y653581D01*
X666436Y653331D01*
X666496Y653034D01*
X666496Y587251D01*
X666440Y586965D01*
X666273Y586712D01*
X646848Y567287D01*
X646606Y567124D01*
X646309Y567064D01*
X646056Y567064D01*
X643019Y565806D01*
X640694Y563481D01*
X639436Y560444D01*
X639436Y557156D01*
X640694Y554119D01*
X643019Y551794D01*
X646056Y550536D01*
G37*
G36*
X472959Y650240D02*
X481838Y650240D01*
X481838Y659638D01*
X464820Y659638D01*
X464820Y658379D01*
X466367Y654645D01*
X469225Y651787D01*
X472959Y650240D01*
G37*
G36*
X483362Y650240D02*
X492241Y650240D01*
X495975Y651787D01*
X498833Y654645D01*
X500380Y658379D01*
X500380Y659638D01*
X483362Y659638D01*
X483362Y650240D01*
G37*
G36*
X86322Y634262D02*
X123100Y634262D01*
X123100Y654552D01*
X121612Y656040D01*
X86322Y656040D01*
X86322Y634262D01*
G37*
G36*
X646056Y625536D02*
X649344Y625536D01*
X652381Y626794D01*
X654706Y629119D01*
X655964Y632156D01*
X655964Y635444D01*
X654706Y638481D01*
X652381Y640806D01*
X649344Y642064D01*
X646056Y642064D01*
X643019Y640806D01*
X640694Y638481D01*
X639436Y635444D01*
X639436Y632156D01*
X640694Y629119D01*
X643019Y626794D01*
X646056Y625536D01*
G37*
G36*
X221312Y633262D02*
X229640Y633262D01*
X229640Y637794D01*
X227744Y639690D01*
X221312Y639690D01*
X221312Y633262D01*
G37*
G36*
X211460Y633262D02*
X219788Y633262D01*
X219788Y639690D01*
X213356Y639690D01*
X211460Y637794D01*
X211460Y633262D01*
G37*
G36*
X49508Y610960D02*
X84798Y610960D01*
X84798Y632738D01*
X48020Y632738D01*
X48020Y612448D01*
X49508Y610960D01*
G37*
G36*
X86322Y610960D02*
X121612Y610960D01*
X123100Y612448D01*
X123100Y632738D01*
X86322Y632738D01*
X86322Y610960D01*
G37*
G36*
X221312Y625310D02*
X227744Y625310D01*
X229640Y627206D01*
X229640Y631738D01*
X221312Y631738D01*
X221312Y625310D01*
G37*
G36*
X213356Y625310D02*
X219788Y625310D01*
X219788Y631738D01*
X211460Y631738D01*
X211460Y627206D01*
X213356Y625310D01*
G37*
G36*
X280844Y591876D02*
X294056Y591876D01*
X295524Y593344D01*
X295524Y625856D01*
X294056Y627324D01*
X280844Y627324D01*
X279376Y625856D01*
X279376Y593344D01*
X280844Y591876D01*
G37*
G36*
X473161Y600456D02*
X492039Y600456D01*
X495400Y601848D01*
X496324Y602773D01*
X496566Y602936D01*
X496863Y602996D01*
X641501Y602996D01*
X641787Y602940D01*
X642040Y602773D01*
X643019Y601794D01*
X646056Y600536D01*
X649344Y600536D01*
X652381Y601794D01*
X654706Y604119D01*
X655964Y607156D01*
X655964Y610444D01*
X654706Y613481D01*
X652381Y615806D01*
X649344Y617064D01*
X646056Y617064D01*
X644120Y616262D01*
X643828Y616204D01*
X496863Y616204D01*
X496577Y616260D01*
X496324Y616427D01*
X495400Y617352D01*
X492039Y618744D01*
X473161Y618744D01*
X469800Y617352D01*
X467228Y614780D01*
X465836Y611419D01*
X465836Y607781D01*
X467228Y604420D01*
X469800Y601848D01*
X473161Y600456D01*
G37*
G36*
X473161Y575056D02*
X492039Y575056D01*
X495400Y576448D01*
X496324Y577373D01*
X496566Y577536D01*
X496863Y577596D01*
X641901Y577596D01*
X642187Y577540D01*
X642440Y577373D01*
X643019Y576794D01*
X646056Y575536D01*
X649344Y575536D01*
X652381Y576794D01*
X654706Y579119D01*
X655964Y582156D01*
X655964Y585444D01*
X654706Y588481D01*
X652381Y590806D01*
X649344Y592064D01*
X646056Y592064D01*
X643154Y590862D01*
X642863Y590804D01*
X496863Y590804D01*
X496577Y590860D01*
X496324Y591027D01*
X495400Y591952D01*
X492039Y593344D01*
X473161Y593344D01*
X469800Y591952D01*
X467228Y589380D01*
X465836Y586019D01*
X465836Y582381D01*
X467228Y579020D01*
X469800Y576448D01*
X473161Y575056D01*
G37*
G36*
X32529Y577076D02*
X41791Y577076D01*
X42684Y577969D01*
X42684Y589231D01*
X41791Y590124D01*
X32529Y590124D01*
X31636Y589231D01*
X31636Y577969D01*
X32529Y577076D01*
G37*
G36*
X473161Y549656D02*
X492039Y549656D01*
X495400Y551048D01*
X497972Y553620D01*
X499364Y556981D01*
X499364Y560619D01*
X497972Y563980D01*
X495400Y566552D01*
X492039Y567944D01*
X473161Y567944D01*
X469800Y566552D01*
X467228Y563980D01*
X465836Y560619D01*
X465836Y556981D01*
X467228Y553620D01*
X469800Y551048D01*
X473161Y549656D01*
G37*
G36*
X346161Y524256D02*
X365039Y524256D01*
X368400Y525648D01*
X370972Y528220D01*
X372364Y531581D01*
X372364Y535219D01*
X370972Y538580D01*
X368400Y541152D01*
X365039Y542544D01*
X346161Y542544D01*
X342800Y541152D01*
X340228Y538580D01*
X338836Y535219D01*
X338836Y531581D01*
X340228Y528220D01*
X342800Y525648D01*
X346161Y524256D01*
G37*
G36*
X473161Y524256D02*
X492039Y524256D01*
X495400Y525648D01*
X497972Y528220D01*
X499364Y531581D01*
X499364Y535219D01*
X497972Y538580D01*
X495400Y541152D01*
X492039Y542544D01*
X473161Y542544D01*
X469800Y541152D01*
X467228Y538580D01*
X465836Y535219D01*
X465836Y531581D01*
X467228Y528220D01*
X469800Y525648D01*
X473161Y524256D01*
G37*
G36*
X181135Y530962D02*
X189913Y530962D01*
X189913Y537740D01*
X182622Y537740D01*
X181135Y536252D01*
X181135Y530962D01*
G37*
G36*
X191437Y530962D02*
X200215Y530962D01*
X200215Y536252D01*
X198727Y537740D01*
X191437Y537740D01*
X191437Y530962D01*
G37*
G36*
X205746Y526537D02*
X210744Y526537D01*
X210744Y530991D01*
X207233Y530991D01*
X205746Y529503D01*
X205746Y526537D01*
G37*
G36*
X212268Y526537D02*
X217266Y526537D01*
X217266Y529503D01*
X215778Y530991D01*
X212268Y530991D01*
X212268Y526537D01*
G37*
G36*
X46922Y524362D02*
X54200Y524362D01*
X54200Y528152D01*
X52712Y529640D01*
X46922Y529640D01*
X46922Y524362D01*
G37*
G36*
X191437Y522660D02*
X198727Y522660D01*
X200215Y524148D01*
X200215Y529438D01*
X191437Y529438D01*
X191437Y522660D01*
G37*
G36*
X182622Y522660D02*
X189913Y522660D01*
X189913Y529438D01*
X181135Y529438D01*
X181135Y524148D01*
X182622Y522660D01*
G37*
G36*
X161043Y514176D02*
X176306Y514176D01*
X177199Y515069D01*
X177199Y526331D01*
X176306Y527224D01*
X161043Y527224D01*
X160151Y526331D01*
X160151Y525526D01*
X160099Y525251D01*
X159936Y524996D01*
X159686Y524824D01*
X159389Y524764D01*
X149077Y524764D01*
X148791Y524820D01*
X148539Y524987D01*
X148082Y525444D01*
X141468Y525444D01*
X140576Y524551D01*
X140576Y516849D01*
X141468Y515956D01*
X148082Y515956D01*
X148539Y516413D01*
X148780Y516576D01*
X149077Y516636D01*
X159389Y516636D01*
X159663Y516585D01*
X159919Y516421D01*
X160090Y516171D01*
X160151Y515874D01*
X160151Y515069D01*
X161043Y514176D01*
G37*
G36*
X179568Y477856D02*
X186182Y477856D01*
X187075Y478749D01*
X187075Y480737D01*
X187130Y481022D01*
X187298Y481275D01*
X194739Y488716D01*
X194739Y503914D01*
X194790Y504189D01*
X194953Y504444D01*
X195203Y504616D01*
X195501Y504676D01*
X198306Y504676D01*
X199199Y505569D01*
X199199Y506374D01*
X199250Y506649D01*
X199413Y506904D01*
X199663Y507076D01*
X199961Y507136D01*
X208764Y507136D01*
X212830Y511202D01*
X213072Y511365D01*
X213369Y511426D01*
X215357Y511426D01*
X216250Y512318D01*
X216250Y518932D01*
X215739Y519443D01*
X215581Y519673D01*
X215515Y519969D01*
X215571Y520268D01*
X215739Y520520D01*
X217266Y522047D01*
X217266Y525013D01*
X205746Y525013D01*
X205746Y522047D01*
X207273Y520520D01*
X207431Y520290D01*
X207496Y519994D01*
X207440Y519696D01*
X207273Y519443D01*
X206762Y518932D01*
X206762Y516944D01*
X206706Y516658D01*
X206538Y516405D01*
X205620Y515487D01*
X205379Y515324D01*
X205082Y515264D01*
X199961Y515264D01*
X199686Y515315D01*
X199430Y515479D01*
X199259Y515729D01*
X199199Y516026D01*
X199199Y516831D01*
X198306Y517724D01*
X183043Y517724D01*
X182151Y516831D01*
X182151Y505569D01*
X183043Y504676D01*
X185849Y504676D01*
X186123Y504625D01*
X186379Y504461D01*
X186550Y504211D01*
X186611Y503914D01*
X186611Y492399D01*
X186555Y492113D01*
X186387Y491860D01*
X182095Y487567D01*
X181853Y487404D01*
X181556Y487344D01*
X179568Y487344D01*
X178676Y486451D01*
X178676Y478749D01*
X179568Y477856D01*
G37*
G36*
X46922Y517560D02*
X52712Y517560D01*
X54200Y519048D01*
X54200Y522838D01*
X46922Y522838D01*
X46922Y517560D01*
G37*
G36*
X464820Y508762D02*
X481838Y508762D01*
X481838Y518160D01*
X472959Y518160D01*
X469225Y516613D01*
X466367Y513755D01*
X464820Y510021D01*
X464820Y508762D01*
G37*
G36*
X483362Y508762D02*
X500380Y508762D01*
X500380Y510021D01*
X498833Y513755D01*
X495975Y516613D01*
X492241Y518160D01*
X483362Y518160D01*
X483362Y508762D01*
G37*
G36*
X346161Y498856D02*
X365039Y498856D01*
X368400Y500248D01*
X370972Y502820D01*
X372364Y506181D01*
X372364Y509819D01*
X370972Y513180D01*
X368400Y515752D01*
X365039Y517144D01*
X346161Y517144D01*
X342800Y515752D01*
X340228Y513180D01*
X338836Y509819D01*
X338836Y506181D01*
X340228Y502820D01*
X342800Y500248D01*
X346161Y498856D01*
G37*
G36*
X32529Y502076D02*
X41791Y502076D01*
X42684Y502969D01*
X42684Y514231D01*
X41791Y515124D01*
X32529Y515124D01*
X31636Y514231D01*
X31636Y502969D01*
X32529Y502076D01*
G37*
G36*
X472959Y497840D02*
X481838Y497840D01*
X481838Y507238D01*
X464820Y507238D01*
X464820Y505979D01*
X466367Y502245D01*
X469225Y499387D01*
X472959Y497840D01*
G37*
G36*
X483362Y497840D02*
X492241Y497840D01*
X495975Y499387D01*
X498833Y502245D01*
X500380Y505979D01*
X500380Y507238D01*
X483362Y507238D01*
X483362Y497840D01*
G37*
G36*
X28612Y470662D02*
X34199Y470662D01*
X34199Y477761D01*
X32711Y479249D01*
X28612Y479249D01*
X28612Y470662D01*
G37*
G36*
X21501Y470662D02*
X27088Y470662D01*
X27088Y479249D01*
X22989Y479249D01*
X21501Y477761D01*
X21501Y470662D01*
G37*
G36*
X86618Y435875D02*
X98192Y435875D01*
X99085Y436768D01*
X99085Y452232D01*
X98192Y453125D01*
X88047Y453125D01*
X87761Y453181D01*
X87508Y453348D01*
X68162Y472694D01*
X54445Y472694D01*
X54170Y472745D01*
X53915Y472909D01*
X53743Y473159D01*
X53683Y473456D01*
X53683Y477340D01*
X52790Y478233D01*
X43910Y478233D01*
X43017Y477340D01*
X43017Y462460D01*
X43910Y461567D01*
X52790Y461567D01*
X53683Y462460D01*
X53683Y466344D01*
X53734Y466619D01*
X53898Y466874D01*
X54148Y467046D01*
X54445Y467106D01*
X65532Y467106D01*
X65818Y467050D01*
X66071Y466883D01*
X85502Y447452D01*
X85665Y447210D01*
X85725Y446913D01*
X85725Y436768D01*
X86618Y435875D01*
G37*
G36*
X22989Y460551D02*
X27088Y460551D01*
X27088Y469138D01*
X21501Y469138D01*
X21501Y462039D01*
X22989Y460551D01*
G37*
G36*
X28612Y460551D02*
X32711Y460551D01*
X34199Y462039D01*
X34199Y469138D01*
X28612Y469138D01*
X28612Y460551D01*
G37*
G36*
X115062Y381762D02*
X124460Y381762D01*
X124460Y390641D01*
X122913Y394375D01*
X120055Y397233D01*
X116321Y398780D01*
X115062Y398780D01*
X115062Y381762D01*
G37*
G36*
X104140Y381762D02*
X113538Y381762D01*
X113538Y398780D01*
X112279Y398780D01*
X108545Y397233D01*
X105687Y394375D01*
X104140Y390641D01*
X104140Y381762D01*
G37*
G36*
X61681Y364236D02*
X65319Y364236D01*
X68680Y365628D01*
X71252Y368200D01*
X72644Y371561D01*
X72644Y390439D01*
X71252Y393800D01*
X68680Y396372D01*
X65319Y397764D01*
X61681Y397764D01*
X58320Y396372D01*
X55748Y393800D01*
X54356Y390439D01*
X54356Y371561D01*
X55748Y368200D01*
X58320Y365628D01*
X61681Y364236D01*
G37*
G36*
X87081Y364236D02*
X90719Y364236D01*
X94080Y365628D01*
X96652Y368200D01*
X98044Y371561D01*
X98044Y390439D01*
X96652Y393800D01*
X94080Y396372D01*
X90719Y397764D01*
X87081Y397764D01*
X83720Y396372D01*
X81148Y393800D01*
X79756Y390439D01*
X79756Y371561D01*
X81148Y368200D01*
X83720Y365628D01*
X87081Y364236D01*
G37*
G36*
X137881Y364236D02*
X141519Y364236D01*
X144880Y365628D01*
X147452Y368200D01*
X148844Y371561D01*
X148844Y390439D01*
X147452Y393800D01*
X144880Y396372D01*
X141519Y397764D01*
X137881Y397764D01*
X134520Y396372D01*
X131948Y393800D01*
X130556Y390439D01*
X130556Y371561D01*
X131948Y368200D01*
X134520Y365628D01*
X137881Y364236D01*
G37*
G36*
X163281Y364236D02*
X166919Y364236D01*
X170280Y365628D01*
X172852Y368200D01*
X174244Y371561D01*
X174244Y390439D01*
X172852Y393800D01*
X170280Y396372D01*
X166919Y397764D01*
X163281Y397764D01*
X159920Y396372D01*
X157348Y393800D01*
X155956Y390439D01*
X155956Y371561D01*
X157348Y368200D01*
X159920Y365628D01*
X163281Y364236D01*
G37*
G36*
X239481Y364236D02*
X243119Y364236D01*
X246480Y365628D01*
X249052Y368200D01*
X250444Y371561D01*
X250444Y390439D01*
X249052Y393800D01*
X246480Y396372D01*
X243119Y397764D01*
X239481Y397764D01*
X236120Y396372D01*
X233548Y393800D01*
X232156Y390439D01*
X232156Y371561D01*
X233548Y368200D01*
X236120Y365628D01*
X239481Y364236D01*
G37*
G36*
X188681Y364236D02*
X192319Y364236D01*
X195680Y365628D01*
X198252Y368200D01*
X199644Y371561D01*
X199644Y390439D01*
X198252Y393800D01*
X195680Y396372D01*
X192319Y397764D01*
X188681Y397764D01*
X185320Y396372D01*
X182748Y393800D01*
X181356Y390439D01*
X181356Y371561D01*
X182748Y368200D01*
X185320Y365628D01*
X188681Y364236D01*
G37*
G36*
X36281Y364236D02*
X39919Y364236D01*
X43280Y365628D01*
X45852Y368200D01*
X47244Y371561D01*
X47244Y390439D01*
X45852Y393800D01*
X43280Y396372D01*
X39919Y397764D01*
X36281Y397764D01*
X32920Y396372D01*
X30348Y393800D01*
X28956Y390439D01*
X28956Y371561D01*
X30348Y368200D01*
X32920Y365628D01*
X36281Y364236D01*
G37*
G36*
X391881Y364236D02*
X395519Y364236D01*
X398880Y365628D01*
X401452Y368200D01*
X402844Y371561D01*
X402844Y390439D01*
X401452Y393800D01*
X398880Y396372D01*
X395519Y397764D01*
X391881Y397764D01*
X388520Y396372D01*
X385948Y393800D01*
X384556Y390439D01*
X384556Y371561D01*
X385948Y368200D01*
X388520Y365628D01*
X391881Y364236D01*
G37*
G36*
X366481Y364236D02*
X370119Y364236D01*
X373480Y365628D01*
X376052Y368200D01*
X377444Y371561D01*
X377444Y390439D01*
X376052Y393800D01*
X373480Y396372D01*
X370119Y397764D01*
X366481Y397764D01*
X363120Y396372D01*
X360548Y393800D01*
X359156Y390439D01*
X359156Y371561D01*
X360548Y368200D01*
X363120Y365628D01*
X366481Y364236D01*
G37*
G36*
X264881Y364236D02*
X268519Y364236D01*
X271880Y365628D01*
X274452Y368200D01*
X275844Y371561D01*
X275844Y390439D01*
X274452Y393800D01*
X271880Y396372D01*
X268519Y397764D01*
X264881Y397764D01*
X261520Y396372D01*
X258948Y393800D01*
X257556Y390439D01*
X257556Y371561D01*
X258948Y368200D01*
X261520Y365628D01*
X264881Y364236D01*
G37*
G36*
X112279Y363220D02*
X113538Y363220D01*
X113538Y380238D01*
X104140Y380238D01*
X104140Y371359D01*
X105687Y367625D01*
X108545Y364767D01*
X112279Y363220D01*
G37*
G36*
X115062Y363220D02*
X116321Y363220D01*
X120055Y364767D01*
X122913Y367625D01*
X124460Y371359D01*
X124460Y380238D01*
X115062Y380238D01*
X115062Y363220D01*
G37*
G36*
X523961Y295656D02*
X542839Y295656D01*
X546200Y297048D01*
X548772Y299620D01*
X550164Y302981D01*
X550164Y306619D01*
X548772Y309980D01*
X546200Y312552D01*
X542839Y313944D01*
X523961Y313944D01*
X520600Y312552D01*
X518028Y309980D01*
X516636Y306619D01*
X516636Y302981D01*
X518028Y299620D01*
X520600Y297048D01*
X523961Y295656D01*
G37*
G36*
X523961Y270256D02*
X542839Y270256D01*
X546200Y271648D01*
X548772Y274220D01*
X550164Y277581D01*
X550164Y281219D01*
X548772Y284580D01*
X546200Y287152D01*
X542839Y288544D01*
X523961Y288544D01*
X520600Y287152D01*
X518028Y284580D01*
X516636Y281219D01*
X516636Y277581D01*
X518028Y274220D01*
X520600Y271648D01*
X523961Y270256D01*
G37*
G36*
X515620Y254762D02*
X532638Y254762D01*
X532638Y264160D01*
X523759Y264160D01*
X520025Y262613D01*
X517167Y259755D01*
X515620Y256021D01*
X515620Y254762D01*
G37*
G36*
X534162Y254762D02*
X551180Y254762D01*
X551180Y256021D01*
X549633Y259755D01*
X546775Y262613D01*
X543041Y264160D01*
X534162Y264160D01*
X534162Y254762D01*
G37*
G36*
X534162Y243840D02*
X543041Y243840D01*
X546775Y245387D01*
X549633Y248245D01*
X551180Y251979D01*
X551180Y253238D01*
X534162Y253238D01*
X534162Y243840D01*
G37*
G36*
X523759Y243840D02*
X532638Y243840D01*
X532638Y253238D01*
X515620Y253238D01*
X515620Y251979D01*
X517167Y248245D01*
X520025Y245387D01*
X523759Y243840D01*
G37*
G36*
X358140Y229362D02*
X367538Y229362D01*
X367538Y246380D01*
X366279Y246380D01*
X362545Y244833D01*
X359687Y241975D01*
X358140Y238241D01*
X358140Y229362D01*
G37*
G36*
X369062Y229362D02*
X378460Y229362D01*
X378460Y238241D01*
X376913Y241975D01*
X374055Y244833D01*
X370321Y246380D01*
X369062Y246380D01*
X369062Y229362D01*
G37*
G36*
X36281Y211836D02*
X39919Y211836D01*
X43280Y213228D01*
X45852Y215800D01*
X47244Y219161D01*
X47244Y238039D01*
X45852Y241400D01*
X43280Y243972D01*
X39919Y245364D01*
X36281Y245364D01*
X32920Y243972D01*
X30348Y241400D01*
X28956Y238039D01*
X28956Y219161D01*
X30348Y215800D01*
X32920Y213228D01*
X36281Y211836D01*
G37*
G36*
X264881Y211836D02*
X268519Y211836D01*
X271880Y213228D01*
X274452Y215800D01*
X275844Y219161D01*
X275844Y238039D01*
X274452Y241400D01*
X271880Y243972D01*
X268519Y245364D01*
X264881Y245364D01*
X261520Y243972D01*
X258948Y241400D01*
X257556Y238039D01*
X257556Y219161D01*
X258948Y215800D01*
X261520Y213228D01*
X264881Y211836D01*
G37*
G36*
X112481Y211836D02*
X116119Y211836D01*
X119480Y213228D01*
X122052Y215800D01*
X123444Y219161D01*
X123444Y238039D01*
X122052Y241400D01*
X119480Y243972D01*
X116119Y245364D01*
X112481Y245364D01*
X109120Y243972D01*
X106548Y241400D01*
X105156Y238039D01*
X105156Y219161D01*
X106548Y215800D01*
X109120Y213228D01*
X112481Y211836D01*
G37*
G36*
X87081Y211836D02*
X90719Y211836D01*
X94080Y213228D01*
X96652Y215800D01*
X98044Y219161D01*
X98044Y238039D01*
X96652Y241400D01*
X94080Y243972D01*
X90719Y245364D01*
X87081Y245364D01*
X83720Y243972D01*
X81148Y241400D01*
X79756Y238039D01*
X79756Y219161D01*
X81148Y215800D01*
X83720Y213228D01*
X87081Y211836D01*
G37*
G36*
X61681Y211836D02*
X65319Y211836D01*
X68680Y213228D01*
X71252Y215800D01*
X72644Y219161D01*
X72644Y238039D01*
X71252Y241400D01*
X68680Y243972D01*
X65319Y245364D01*
X61681Y245364D01*
X58320Y243972D01*
X55748Y241400D01*
X54356Y238039D01*
X54356Y219161D01*
X55748Y215800D01*
X58320Y213228D01*
X61681Y211836D01*
G37*
G36*
X137881Y211836D02*
X141519Y211836D01*
X144880Y213228D01*
X147452Y215800D01*
X148844Y219161D01*
X148844Y238039D01*
X147452Y241400D01*
X144880Y243972D01*
X141519Y245364D01*
X137881Y245364D01*
X134520Y243972D01*
X131948Y241400D01*
X130556Y238039D01*
X130556Y219161D01*
X131948Y215800D01*
X134520Y213228D01*
X137881Y211836D01*
G37*
G36*
X163281Y211836D02*
X166919Y211836D01*
X170280Y213228D01*
X172852Y215800D01*
X174244Y219161D01*
X174244Y238039D01*
X172852Y241400D01*
X170280Y243972D01*
X166919Y245364D01*
X163281Y245364D01*
X159920Y243972D01*
X157348Y241400D01*
X155956Y238039D01*
X155956Y219161D01*
X157348Y215800D01*
X159920Y213228D01*
X163281Y211836D01*
G37*
G36*
X188681Y211836D02*
X192319Y211836D01*
X195680Y213228D01*
X198252Y215800D01*
X199644Y219161D01*
X199644Y238039D01*
X198252Y241400D01*
X195680Y243972D01*
X192319Y245364D01*
X188681Y245364D01*
X185320Y243972D01*
X182748Y241400D01*
X181356Y238039D01*
X181356Y219161D01*
X182748Y215800D01*
X185320Y213228D01*
X188681Y211836D01*
G37*
G36*
X214081Y211836D02*
X217719Y211836D01*
X221080Y213228D01*
X223652Y215800D01*
X225044Y219161D01*
X225044Y238039D01*
X223652Y241400D01*
X221080Y243972D01*
X217719Y245364D01*
X214081Y245364D01*
X210720Y243972D01*
X208148Y241400D01*
X206756Y238039D01*
X206756Y219161D01*
X208148Y215800D01*
X210720Y213228D01*
X214081Y211836D01*
G37*
G36*
X239481Y211836D02*
X243119Y211836D01*
X246480Y213228D01*
X249052Y215800D01*
X250444Y219161D01*
X250444Y238039D01*
X249052Y241400D01*
X246480Y243972D01*
X243119Y245364D01*
X239481Y245364D01*
X236120Y243972D01*
X233548Y241400D01*
X232156Y238039D01*
X232156Y219161D01*
X233548Y215800D01*
X236120Y213228D01*
X239481Y211836D01*
G37*
G36*
X290281Y211836D02*
X293919Y211836D01*
X297280Y213228D01*
X299852Y215800D01*
X301244Y219161D01*
X301244Y238039D01*
X299852Y241400D01*
X297280Y243972D01*
X293919Y245364D01*
X290281Y245364D01*
X286920Y243972D01*
X284348Y241400D01*
X282956Y238039D01*
X282956Y219161D01*
X284348Y215800D01*
X286920Y213228D01*
X290281Y211836D01*
G37*
G36*
X391881Y211836D02*
X395519Y211836D01*
X398880Y213228D01*
X401452Y215800D01*
X402844Y219161D01*
X402844Y238039D01*
X401452Y241400D01*
X398880Y243972D01*
X395519Y245364D01*
X391881Y245364D01*
X388520Y243972D01*
X385948Y241400D01*
X384556Y238039D01*
X384556Y219161D01*
X385948Y215800D01*
X388520Y213228D01*
X391881Y211836D01*
G37*
G36*
X366279Y210820D02*
X367538Y210820D01*
X367538Y227838D01*
X358140Y227838D01*
X358140Y218959D01*
X359687Y215225D01*
X362545Y212367D01*
X366279Y210820D01*
G37*
G36*
X369062Y210820D02*
X370321Y210820D01*
X374055Y212367D01*
X376913Y215225D01*
X378460Y218959D01*
X378460Y227838D01*
X369062Y227838D01*
X369062Y210820D01*
G37*
%LPD*%
D10*
X647700Y558800D03*
X647700Y583800D03*
X647700Y608800D03*
X647700Y633800D03*
D11*
X214697Y636453D02*
X214697Y628547D01*
X214697Y636453D02*
X226403Y636453D01*
X226403Y628547D01*
X214697Y628547D01*
X214697Y629872D02*
X226403Y629872D01*
X226403Y631197D02*
X214697Y631197D01*
X214697Y632522D02*
X226403Y632522D01*
X226403Y633847D02*
X214697Y633847D01*
X214697Y635172D02*
X226403Y635172D01*
X214697Y613553D02*
X214697Y605647D01*
X214697Y613553D02*
X226403Y613553D01*
X226403Y605647D01*
X214697Y605647D01*
X214697Y606972D02*
X226403Y606972D01*
X226403Y608297D02*
X214697Y608297D01*
X214697Y609622D02*
X226403Y609622D01*
X226403Y610947D02*
X214697Y610947D01*
X214697Y612272D02*
X226403Y612272D01*
X214697Y590653D02*
X214697Y582747D01*
X214697Y590653D02*
X226403Y590653D01*
X226403Y582747D01*
X214697Y582747D01*
X214697Y584072D02*
X226403Y584072D01*
X226403Y585397D02*
X214697Y585397D01*
X214697Y586722D02*
X226403Y586722D01*
X226403Y588047D02*
X214697Y588047D01*
X214697Y589372D02*
X226403Y589372D01*
D12*
X281882Y594382D02*
X281882Y624818D01*
X293018Y624818D01*
X293018Y594382D01*
X281882Y594382D01*
X281882Y596249D02*
X293018Y596249D01*
X293018Y598116D02*
X281882Y598116D01*
X281882Y599983D02*
X293018Y599983D01*
X293018Y601850D02*
X281882Y601850D01*
X281882Y603717D02*
X293018Y603717D01*
X293018Y605584D02*
X281882Y605584D01*
X281882Y607451D02*
X293018Y607451D01*
X293018Y609318D02*
X281882Y609318D01*
X281882Y611185D02*
X293018Y611185D01*
X293018Y613052D02*
X281882Y613052D01*
X281882Y614919D02*
X293018Y614919D01*
X293018Y616786D02*
X281882Y616786D01*
X281882Y618653D02*
X293018Y618653D01*
X293018Y620520D02*
X281882Y620520D01*
X281882Y622387D02*
X293018Y622387D01*
X293018Y624254D02*
X281882Y624254D01*
D13*
X38100Y236220D02*
X38100Y220980D01*
X63500Y220980D02*
X63500Y236220D01*
X88900Y236220D02*
X88900Y220980D01*
X114300Y220980D02*
X114300Y236220D01*
X139700Y236220D02*
X139700Y220980D01*
X165100Y220980D02*
X165100Y236220D01*
X190500Y236220D02*
X190500Y220980D01*
X215900Y220980D02*
X215900Y236220D01*
X241300Y236220D02*
X241300Y220980D01*
X266700Y220980D02*
X266700Y236220D01*
X292100Y236220D02*
X292100Y220980D01*
X317500Y220980D02*
X317500Y236220D01*
X342900Y236220D02*
X342900Y220980D01*
X368300Y220980D02*
X368300Y236220D01*
X393700Y236220D02*
X393700Y220980D01*
X38100Y373380D02*
X38100Y388620D01*
X63500Y388620D02*
X63500Y373380D01*
X88900Y373380D02*
X88900Y388620D01*
X114300Y388620D02*
X114300Y373380D01*
X139700Y373380D02*
X139700Y388620D01*
X165100Y388620D02*
X165100Y373380D01*
X190500Y373380D02*
X190500Y388620D01*
X215900Y388620D02*
X215900Y373380D01*
X241300Y373380D02*
X241300Y388620D01*
X266700Y388620D02*
X266700Y373380D01*
X292100Y373380D02*
X292100Y388620D01*
X317500Y388620D02*
X317500Y373380D01*
X342900Y373380D02*
X342900Y388620D01*
X368300Y388620D02*
X368300Y373380D01*
X393700Y373380D02*
X393700Y388620D01*
X525780Y254000D02*
X541020Y254000D01*
X541020Y279400D02*
X525780Y279400D01*
X525780Y304800D02*
X541020Y304800D01*
X541020Y330200D02*
X525780Y330200D01*
X363220Y685800D02*
X347980Y685800D01*
X347980Y660400D02*
X363220Y660400D01*
X363220Y635000D02*
X347980Y635000D01*
X347980Y609600D02*
X363220Y609600D01*
X363220Y584200D02*
X347980Y584200D01*
X347980Y558800D02*
X363220Y558800D01*
X363220Y533400D02*
X347980Y533400D01*
X347980Y508000D02*
X363220Y508000D01*
X474980Y508000D02*
X490220Y508000D01*
X490220Y533400D02*
X474980Y533400D01*
X474980Y558800D02*
X490220Y558800D01*
X490220Y584200D02*
X474980Y584200D01*
X474980Y609600D02*
X490220Y609600D01*
X490220Y635000D02*
X474980Y635000D01*
X474980Y660400D02*
X490220Y660400D01*
X490220Y685800D02*
X474980Y685800D01*
D14*
X279400Y705512D03*
X279400Y760630D03*
D15*
X173060Y692500D03*
D16*
X85560Y763500D03*
X85560Y633500D03*
D17*
X92405Y444500D03*
X110795Y444500D03*
D18*
X136300Y571500D03*
X117700Y578000D03*
X117700Y565000D03*
D19*
X211506Y525775D03*
X211506Y515625D03*
D20*
X182875Y482600D03*
X172725Y482600D03*
X109225Y546100D03*
X119375Y546100D03*
X144775Y520700D03*
X134625Y520700D03*
D21*
X176375Y579246D03*
X176375Y563754D03*
D22*
X122046Y520700D03*
X106554Y520700D03*
D23*
X46160Y568600D03*
X46160Y538600D03*
X46160Y523600D03*
D24*
X14160Y508600D03*
X14160Y583600D03*
X37160Y583600D03*
X37160Y508600D03*
D25*
X168675Y520700D03*
X190675Y511200D03*
X190675Y530200D03*
D26*
X27850Y469900D03*
X48350Y469900D03*
D27*
X67005Y469900D02*
X92405Y444500D01*
X67005Y469900D02*
X48350Y469900D01*
X317500Y257052D02*
X317500Y228600D01*
X317500Y257052D02*
X205486Y369066D01*
X317500Y228600D02*
X419100Y330200D01*
X533400Y330200D01*
X254000Y609600D02*
X220550Y609600D01*
X118161Y451866D02*
X110795Y444500D01*
X118161Y451866D02*
X190541Y451866D01*
X255294Y608306D02*
X254000Y609600D01*
X205486Y436921D02*
X205486Y369066D01*
X205486Y436921D02*
X190541Y451866D01*
X419100Y558800D02*
X419100Y330200D01*
X419100Y558800D02*
X355600Y558800D01*
D28*
X355600Y584200D01*
D27*
X203241Y464566D02*
X190541Y451866D01*
X203241Y464566D02*
X205409Y464566D01*
X255294Y514451D01*
X255294Y608306D01*
D29*
X647700Y558800D02*
X673100Y584200D01*
X673100Y660400D01*
X584200Y660400D01*
X558800Y635000D01*
X482600Y635000D01*
X482600Y609600D02*
X646900Y609600D01*
X647700Y608800D01*
X647300Y584200D02*
X482600Y584200D01*
X647300Y584200D02*
X647700Y583800D01*
D28*
X355600Y660400D02*
X304800Y609600D01*
X304800Y393700D01*
X292100Y381000D01*
X317500Y596900D02*
X355600Y635000D01*
X317500Y596900D02*
X317500Y381000D01*
X330200Y584200D02*
X355600Y609600D01*
X330200Y584200D02*
X330200Y393700D01*
X342900Y381000D01*
D30*
X190675Y490400D02*
X182875Y482600D01*
X190675Y490400D02*
X190675Y511200D01*
X207081Y511200D01*
X211506Y515625D01*
X168675Y520700D02*
X144775Y520700D01*
X152400Y563754D02*
X176375Y563754D01*
X174342Y563754D01*
X152400Y563754D02*
X152400Y546100D01*
D31*
X117700Y577579D02*
X117700Y578000D01*
X117700Y577579D02*
X126656Y568623D01*
X126656Y553381D01*
X119375Y546100D01*
D30*
X152400Y546100D01*
X134625Y520700D02*
X122046Y520700D01*
X119375Y523371D01*
X119375Y546100D01*
D29*
X279400Y705512D02*
X279400Y721741D01*
X251206Y721741D01*
X176375Y595475D02*
X176375Y579246D01*
X176375Y595475D02*
X177800Y596900D01*
X190500Y596900D01*
X203200Y596900D01*
X218050Y584200D02*
X220550Y586700D01*
X218050Y584200D02*
X203200Y584200D01*
X190500Y661035D02*
X251206Y721741D01*
X190500Y661035D02*
X190500Y596900D01*
X203200Y596900D02*
X203200Y584200D01*
X137286Y572486D02*
X136300Y571500D01*
X137286Y572486D02*
X137286Y574272D01*
X142260Y579246D01*
X176375Y579246D01*
X279400Y705512D02*
X297788Y723900D01*
X482600Y723900D01*
X482600Y685800D01*
X139864Y610765D02*
X123295Y594196D01*
X139864Y610765D02*
X139864Y659304D01*
X173060Y692500D01*
X123295Y594196D02*
X108099Y594196D01*
X94742Y580839D02*
X94742Y571500D01*
X94742Y580839D02*
X108099Y594196D01*
D30*
X91842Y568600D02*
X46160Y568600D01*
X91842Y568600D02*
X94742Y571500D01*
D29*
X101242Y565000D02*
X117700Y565000D01*
X101242Y565000D02*
X94742Y571500D01*
D30*
X91842Y549000D02*
X94742Y546100D01*
X91842Y549000D02*
X91842Y568600D01*
X94742Y546100D02*
X109225Y546100D01*
X109225Y523371D02*
X106554Y520700D01*
X109225Y523371D02*
X109225Y546100D01*
X58607Y538600D02*
X46160Y538600D01*
X58607Y538600D02*
X101600Y495607D01*
X101600Y495300D01*
X114300Y482600D01*
X172725Y482600D01*
M02*
