G04 EAGLE Gerber RS-274X export*
G75*
%MOMM*%
%FSLAX34Y34*%
%LPD*%
%INTop Copper*%
%IPPOS*%
%AMOC8*
5,1,8,0,0,1.08239X$1,22.5*%
G01*
G04 Define Apertures*
%ADD10C,0.130000*%
%ADD11C,1.348000*%
%ADD12C,0.139500*%
%ADD13C,0.196500*%
%ADD14C,1.524000*%
%ADD15R,1.803400X3.302000*%
%ADD16R,4.000000X2.500000*%
%ADD17R,7.000000X4.000000*%
%ADD18R,1.031200X1.420200*%
%ADD19R,1.080000X0.430000*%
%ADD20R,0.644000X0.535100*%
%ADD21R,0.535100X0.644000*%
%ADD22R,0.970200X0.920900*%
%ADD23R,0.920900X0.970200*%
%ADD24R,1.100000X0.700000*%
%ADD25R,0.800000X1.000000*%
%ADD26R,1.000000X1.400000*%
%ADD27R,0.761800X1.361800*%
%ADD28C,0.254000*%
%ADD29C,0.152400*%
%ADD30C,1.016000*%
%ADD31C,0.508000*%
%ADD32C,0.406400*%
G36*
X675757Y152460D02*
X675460Y152400D01*
X48440Y152400D01*
X48080Y152490D01*
X47846Y152684D01*
X47707Y152953D01*
X47684Y153255D01*
X47780Y153543D01*
X48845Y155389D01*
X50560Y161788D01*
X50560Y168412D01*
X48845Y174811D01*
X45533Y180549D01*
X40849Y185233D01*
X35111Y188545D01*
X28712Y190260D01*
X22088Y190260D01*
X15689Y188545D01*
X13843Y187480D01*
X13486Y187378D01*
X13187Y187429D01*
X12932Y187592D01*
X12760Y187843D01*
X12700Y188140D01*
X12700Y501314D01*
X12751Y501589D01*
X12915Y501844D01*
X13165Y502016D01*
X13462Y502076D01*
X18791Y502076D01*
X19684Y502969D01*
X19684Y514231D01*
X18791Y515124D01*
X13462Y515124D01*
X13187Y515175D01*
X12932Y515339D01*
X12760Y515589D01*
X12700Y515886D01*
X12700Y521488D01*
X12747Y521751D01*
X12906Y522009D01*
X13154Y522185D01*
X13450Y522250D01*
X13748Y522194D01*
X14001Y522027D01*
X17356Y518672D01*
X22744Y516440D01*
X28576Y516440D01*
X33964Y518672D01*
X36819Y521527D01*
X37039Y521680D01*
X37334Y521750D01*
X37633Y521699D01*
X37888Y521535D01*
X38060Y521285D01*
X38120Y520988D01*
X38120Y519048D01*
X39608Y517560D01*
X45398Y517560D01*
X45398Y529640D01*
X41082Y529640D01*
X40807Y529691D01*
X40552Y529855D01*
X40380Y530105D01*
X40320Y530402D01*
X40320Y532814D01*
X40371Y533089D01*
X40535Y533344D01*
X40785Y533516D01*
X41082Y533576D01*
X52291Y533576D01*
X53028Y534313D01*
X53270Y534476D01*
X53567Y534536D01*
X56608Y534536D01*
X56894Y534480D01*
X57147Y534313D01*
X125624Y465836D01*
X179483Y465836D01*
X208929Y495281D01*
X208929Y553294D01*
X208980Y553569D01*
X209143Y553824D01*
X209393Y553996D01*
X209691Y554056D01*
X211582Y554056D01*
X212475Y554949D01*
X212475Y562651D01*
X211582Y563544D01*
X204968Y563544D01*
X204076Y562651D01*
X204076Y560664D01*
X204020Y560378D01*
X203852Y560125D01*
X203625Y559898D01*
X203406Y559745D01*
X203111Y559675D01*
X202812Y559726D01*
X202556Y559889D01*
X202385Y560139D01*
X202325Y560437D01*
X202325Y562651D01*
X201432Y563544D01*
X194818Y563544D01*
X193926Y562651D01*
X193926Y560664D01*
X193870Y560378D01*
X193702Y560125D01*
X180466Y546889D01*
X180247Y546736D01*
X179952Y546666D01*
X179653Y546717D01*
X179397Y546880D01*
X179226Y547130D01*
X179166Y547428D01*
X179166Y550413D01*
X167646Y550413D01*
X167646Y547447D01*
X169173Y545920D01*
X169331Y545690D01*
X169396Y545394D01*
X169340Y545096D01*
X169173Y544843D01*
X168621Y544292D01*
X168606Y544211D01*
X168438Y543959D01*
X167053Y542573D01*
X167053Y539206D01*
X169433Y536826D01*
X171542Y536826D01*
X171828Y536770D01*
X172081Y536602D01*
X180553Y528130D01*
X180716Y527889D01*
X180776Y527592D01*
X180776Y513243D01*
X181669Y512351D01*
X192931Y512351D01*
X193824Y513243D01*
X193824Y528506D01*
X192931Y529399D01*
X191095Y529399D01*
X190809Y529454D01*
X190556Y529622D01*
X183164Y537014D01*
X183006Y537244D01*
X182941Y537541D01*
X182996Y537839D01*
X183164Y538092D01*
X198905Y553833D01*
X199147Y553996D01*
X199444Y554056D01*
X200039Y554056D01*
X200313Y554005D01*
X200569Y553841D01*
X200740Y553591D01*
X200801Y553294D01*
X200801Y498964D01*
X200745Y498678D01*
X200577Y498425D01*
X176340Y474187D01*
X176098Y474024D01*
X175801Y473964D01*
X129306Y473964D01*
X129020Y474020D01*
X128768Y474187D01*
X60291Y542664D01*
X53567Y542664D01*
X53281Y542720D01*
X53028Y542887D01*
X52291Y543624D01*
X40029Y543624D01*
X39136Y542731D01*
X39136Y540196D01*
X39089Y539933D01*
X38930Y539675D01*
X38682Y539499D01*
X38386Y539434D01*
X38088Y539490D01*
X37835Y539657D01*
X33964Y543528D01*
X29455Y545396D01*
X29230Y545540D01*
X29052Y545786D01*
X28985Y546082D01*
X29038Y546380D01*
X29203Y546635D01*
X29455Y546804D01*
X33964Y548672D01*
X38088Y552796D01*
X40320Y558184D01*
X40320Y562814D01*
X40371Y563089D01*
X40535Y563344D01*
X40785Y563516D01*
X41082Y563576D01*
X52291Y563576D01*
X53028Y564313D01*
X53270Y564476D01*
X53567Y564536D01*
X87016Y564536D01*
X87291Y564485D01*
X87546Y564321D01*
X87718Y564071D01*
X87778Y563774D01*
X87778Y547317D01*
X93059Y542036D01*
X104399Y542036D01*
X104674Y541985D01*
X104929Y541821D01*
X105101Y541571D01*
X105161Y541274D01*
X105161Y527837D01*
X105110Y527562D01*
X104946Y527307D01*
X104696Y527135D01*
X104399Y527075D01*
X101318Y527075D01*
X100426Y526182D01*
X100426Y515218D01*
X101318Y514325D01*
X111790Y514325D01*
X112683Y515218D01*
X112683Y520766D01*
X112738Y521051D01*
X112906Y521304D01*
X113289Y521688D01*
X113289Y541798D01*
X113345Y542084D01*
X113425Y542204D01*
X113425Y549951D01*
X112532Y550844D01*
X105918Y550844D01*
X105461Y550387D01*
X105220Y550224D01*
X104923Y550164D01*
X96741Y550164D01*
X96455Y550220D01*
X96202Y550387D01*
X96129Y550460D01*
X95966Y550702D01*
X95906Y550999D01*
X95906Y559157D01*
X95953Y559420D01*
X96112Y559678D01*
X96360Y559854D01*
X96656Y559919D01*
X96954Y559863D01*
X97207Y559696D01*
X97501Y559401D01*
X99928Y558396D01*
X119014Y558396D01*
X121441Y559401D01*
X121799Y559760D01*
X122019Y559913D01*
X122314Y559983D01*
X122613Y559932D01*
X122868Y559768D01*
X123040Y559518D01*
X123100Y559221D01*
X123100Y555170D01*
X123044Y554884D01*
X122877Y554631D01*
X119313Y551067D01*
X119072Y550904D01*
X118774Y550844D01*
X116068Y550844D01*
X115176Y549951D01*
X115176Y542206D01*
X115251Y542095D01*
X115311Y541798D01*
X115311Y521688D01*
X115694Y521304D01*
X115857Y521063D01*
X115918Y520766D01*
X115918Y515218D01*
X116810Y514325D01*
X127282Y514325D01*
X128175Y515218D01*
X128175Y515874D01*
X128226Y516149D01*
X128389Y516404D01*
X128639Y516576D01*
X128937Y516636D01*
X130323Y516636D01*
X130609Y516580D01*
X130861Y516413D01*
X131318Y515956D01*
X137932Y515956D01*
X138825Y516849D01*
X138825Y524551D01*
X137932Y525444D01*
X131318Y525444D01*
X130861Y524987D01*
X130620Y524824D01*
X130323Y524764D01*
X128937Y524764D01*
X128662Y524815D01*
X128406Y524979D01*
X128235Y525229D01*
X128175Y525526D01*
X128175Y526182D01*
X127282Y527075D01*
X124201Y527075D01*
X123926Y527126D01*
X123671Y527290D01*
X123499Y527540D01*
X123439Y527837D01*
X123439Y541274D01*
X123490Y541549D01*
X123654Y541804D01*
X123904Y541976D01*
X124201Y542036D01*
X154083Y542036D01*
X156464Y544417D01*
X156464Y571628D01*
X156515Y571903D01*
X156679Y572158D01*
X156929Y572330D01*
X157226Y572390D01*
X169238Y572390D01*
X169512Y572339D01*
X169768Y572175D01*
X169939Y571925D01*
X170000Y571628D01*
X170000Y571218D01*
X170892Y570326D01*
X181857Y570326D01*
X182750Y571218D01*
X182750Y581690D01*
X181857Y582583D01*
X170892Y582583D01*
X170000Y581690D01*
X170000Y581280D01*
X169948Y581005D01*
X169785Y580750D01*
X169535Y580578D01*
X169238Y580518D01*
X150717Y580518D01*
X148336Y578137D01*
X148336Y550926D01*
X148285Y550651D01*
X148121Y550396D01*
X147871Y550224D01*
X147574Y550164D01*
X130308Y550164D01*
X130044Y550211D01*
X129786Y550370D01*
X129611Y550618D01*
X129546Y550914D01*
X129601Y551212D01*
X129769Y551465D01*
X130212Y551908D01*
X130212Y566409D01*
X130259Y566672D01*
X130418Y566930D01*
X130666Y567106D01*
X130962Y567171D01*
X131260Y567115D01*
X131513Y566948D01*
X132559Y565901D01*
X134986Y564896D01*
X137614Y564896D01*
X140041Y565901D01*
X141742Y567603D01*
X141984Y567766D01*
X142281Y567826D01*
X142331Y567826D01*
X143224Y568719D01*
X143224Y569413D01*
X143282Y569705D01*
X143890Y571172D01*
X143890Y584580D01*
X143941Y584855D01*
X144105Y585110D01*
X144355Y585282D01*
X144652Y585342D01*
X177688Y585342D01*
X178696Y585760D01*
X178988Y585818D01*
X181857Y585818D01*
X182750Y586710D01*
X182750Y589534D01*
X182801Y589809D01*
X182964Y590064D01*
X183214Y590236D01*
X183512Y590296D01*
X195834Y590296D01*
X196109Y590245D01*
X196364Y590081D01*
X196536Y589831D01*
X196596Y589534D01*
X196596Y582886D01*
X197601Y580459D01*
X199459Y578601D01*
X201886Y577596D01*
X219364Y577596D01*
X221791Y578601D01*
X223492Y580303D01*
X223734Y580466D01*
X224031Y580526D01*
X227323Y580526D01*
X228624Y581827D01*
X228624Y591573D01*
X227323Y592874D01*
X223053Y592874D01*
X222762Y592932D01*
X221864Y593304D01*
X219236Y593304D01*
X218338Y592932D01*
X218047Y592874D01*
X213777Y592874D01*
X212476Y591573D01*
X212476Y591566D01*
X212425Y591291D01*
X212261Y591036D01*
X212011Y590864D01*
X211714Y590804D01*
X210566Y590804D01*
X210291Y590855D01*
X210036Y591019D01*
X209864Y591269D01*
X209804Y591566D01*
X209804Y598214D01*
X208799Y600641D01*
X206941Y602499D01*
X204514Y603504D01*
X197866Y603504D01*
X197591Y603555D01*
X197336Y603719D01*
X197164Y603969D01*
X197104Y604266D01*
X197104Y657984D01*
X197160Y658270D01*
X197327Y658523D01*
X253718Y714914D01*
X253960Y715077D01*
X254257Y715137D01*
X268097Y715137D01*
X268372Y715086D01*
X268627Y714922D01*
X268799Y714672D01*
X268859Y714375D01*
X268859Y688371D01*
X269752Y687478D01*
X289048Y687478D01*
X289941Y688371D01*
X289941Y698146D01*
X289992Y698421D01*
X290156Y698676D01*
X290406Y698848D01*
X290703Y698908D01*
X399034Y698908D01*
X399309Y698857D01*
X399564Y698693D01*
X399736Y698443D01*
X399796Y698146D01*
X399796Y580117D01*
X400801Y577690D01*
X466307Y512185D01*
X466467Y511949D01*
X466530Y511652D01*
X466472Y511354D01*
X465836Y509819D01*
X465836Y506181D01*
X467228Y502820D01*
X469800Y500248D01*
X473161Y498856D01*
X492039Y498856D01*
X495400Y500248D01*
X497972Y502820D01*
X499364Y506181D01*
X499364Y509819D01*
X497972Y513180D01*
X495400Y515752D01*
X492039Y517144D01*
X480342Y517144D01*
X480056Y517200D01*
X479803Y517367D01*
X475231Y521939D01*
X475078Y522159D01*
X475008Y522454D01*
X475059Y522753D01*
X475223Y523008D01*
X475473Y523180D01*
X475770Y523240D01*
X481838Y523240D01*
X481838Y543560D01*
X472959Y543560D01*
X469225Y542013D01*
X466367Y539155D01*
X464820Y535421D01*
X464820Y534190D01*
X464773Y533927D01*
X464614Y533668D01*
X464366Y533493D01*
X464070Y533428D01*
X463772Y533484D01*
X463519Y533651D01*
X413227Y583943D01*
X413064Y584185D01*
X413004Y584482D01*
X413004Y706826D01*
X411999Y709253D01*
X410141Y711111D01*
X407714Y712116D01*
X290703Y712116D01*
X290428Y712167D01*
X290173Y712331D01*
X290001Y712581D01*
X289941Y712878D01*
X289941Y722653D01*
X289048Y723546D01*
X286310Y723546D01*
X286029Y723599D01*
X285775Y723765D01*
X285606Y724016D01*
X284999Y725482D01*
X283141Y727340D01*
X280714Y728345D01*
X249892Y728345D01*
X247465Y727340D01*
X184901Y664776D01*
X183896Y662349D01*
X183896Y604266D01*
X183845Y603991D01*
X183681Y603736D01*
X183431Y603564D01*
X183134Y603504D01*
X176486Y603504D01*
X174059Y602499D01*
X170776Y599215D01*
X170695Y599020D01*
X170539Y598782D01*
X170288Y598610D01*
X169991Y598550D01*
X135972Y598550D01*
X133545Y597545D01*
X131687Y595687D01*
X130682Y593260D01*
X130682Y575903D01*
X130626Y575617D01*
X130459Y575364D01*
X129376Y574281D01*
X129376Y572772D01*
X129329Y572508D01*
X129170Y572250D01*
X128922Y572075D01*
X128626Y572010D01*
X128328Y572065D01*
X128075Y572233D01*
X124847Y575461D01*
X124684Y575702D01*
X124624Y576000D01*
X124624Y580781D01*
X123731Y581674D01*
X111669Y581674D01*
X110776Y580781D01*
X110776Y575219D01*
X111669Y574326D01*
X115608Y574326D01*
X115894Y574270D01*
X116147Y574103D01*
X117345Y572905D01*
X117498Y572685D01*
X117568Y572390D01*
X117517Y572091D01*
X117354Y571836D01*
X117104Y571664D01*
X116806Y571604D01*
X104293Y571604D01*
X104007Y571660D01*
X103754Y571827D01*
X101569Y574012D01*
X101406Y574254D01*
X101346Y574551D01*
X101346Y577788D01*
X101402Y578074D01*
X101569Y578327D01*
X123311Y600069D01*
X123552Y600232D01*
X123850Y600292D01*
X124609Y600292D01*
X127036Y601297D01*
X132763Y607024D01*
X133768Y609451D01*
X133768Y643553D01*
X133824Y643839D01*
X133991Y644092D01*
X168152Y678253D01*
X168394Y678416D01*
X168691Y678476D01*
X193691Y678476D01*
X194584Y679369D01*
X194584Y705631D01*
X193691Y706524D01*
X152429Y706524D01*
X151536Y705631D01*
X151536Y680631D01*
X151480Y680345D01*
X151313Y680092D01*
X124401Y653180D01*
X124181Y653027D01*
X123886Y652957D01*
X123587Y653008D01*
X123332Y653172D01*
X123160Y653422D01*
X123100Y653719D01*
X123100Y654552D01*
X121612Y656040D01*
X86322Y656040D01*
X86322Y610960D01*
X113683Y610960D01*
X113947Y610913D01*
X114205Y610754D01*
X114380Y610506D01*
X114445Y610210D01*
X114390Y609912D01*
X114222Y609659D01*
X89143Y584580D01*
X88138Y582153D01*
X88138Y573426D01*
X88087Y573151D01*
X87923Y572896D01*
X87673Y572724D01*
X87376Y572664D01*
X53567Y572664D01*
X53281Y572720D01*
X53028Y572887D01*
X52291Y573624D01*
X40029Y573624D01*
X39136Y572731D01*
X39136Y570196D01*
X39089Y569933D01*
X38930Y569675D01*
X38682Y569499D01*
X38386Y569434D01*
X38088Y569490D01*
X37835Y569657D01*
X33964Y573528D01*
X28576Y575760D01*
X22744Y575760D01*
X17356Y573528D01*
X14001Y570173D01*
X13781Y570020D01*
X13486Y569950D01*
X13187Y570001D01*
X12932Y570165D01*
X12760Y570415D01*
X12700Y570712D01*
X12700Y576314D01*
X12751Y576589D01*
X12915Y576844D01*
X13165Y577016D01*
X13462Y577076D01*
X18791Y577076D01*
X19684Y577969D01*
X19684Y589231D01*
X18791Y590124D01*
X13462Y590124D01*
X13187Y590175D01*
X12932Y590339D01*
X12760Y590589D01*
X12700Y590886D01*
X12700Y751660D01*
X12790Y752020D01*
X12984Y752254D01*
X13253Y752393D01*
X13555Y752417D01*
X13843Y752320D01*
X15689Y751255D01*
X22088Y749540D01*
X28712Y749540D01*
X35111Y751255D01*
X40849Y754567D01*
X45533Y759251D01*
X46598Y761096D01*
X46694Y761228D01*
X46939Y761407D01*
X47234Y761477D01*
X47533Y761426D01*
X47788Y761263D01*
X47960Y761012D01*
X48020Y760715D01*
X48020Y742660D01*
X47967Y742380D01*
X47801Y742126D01*
X47550Y741956D01*
X42207Y739743D01*
X36817Y734353D01*
X33900Y727311D01*
X33900Y719689D01*
X36817Y712647D01*
X42207Y707257D01*
X49249Y704340D01*
X56871Y704340D01*
X63913Y707257D01*
X69303Y712647D01*
X72220Y719689D01*
X72220Y727311D01*
X69303Y734353D01*
X63997Y739659D01*
X63844Y739879D01*
X63774Y740174D01*
X63825Y740473D01*
X63989Y740728D01*
X64239Y740900D01*
X64536Y740960D01*
X84798Y740960D01*
X84798Y764262D01*
X123100Y764262D01*
X123100Y784552D01*
X121553Y786099D01*
X121400Y786319D01*
X121330Y786614D01*
X121381Y786913D01*
X121544Y787168D01*
X121795Y787340D01*
X122092Y787400D01*
X675460Y787400D01*
X675820Y787310D01*
X676054Y787116D01*
X676193Y786847D01*
X676217Y786545D01*
X676120Y786257D01*
X675055Y784411D01*
X673340Y778012D01*
X673340Y771388D01*
X675055Y764989D01*
X678367Y759251D01*
X683051Y754567D01*
X688789Y751255D01*
X695188Y749540D01*
X701812Y749540D01*
X708211Y751255D01*
X710057Y752320D01*
X710414Y752422D01*
X710713Y752371D01*
X710968Y752208D01*
X711140Y751957D01*
X711200Y751660D01*
X711200Y188140D01*
X711110Y187780D01*
X710916Y187546D01*
X710647Y187407D01*
X710345Y187384D01*
X710057Y187480D01*
X708211Y188545D01*
X701812Y190260D01*
X695188Y190260D01*
X688789Y188545D01*
X683051Y185233D01*
X678367Y180549D01*
X675055Y174811D01*
X673340Y168412D01*
X673340Y161788D01*
X675055Y155389D01*
X676120Y153543D01*
X676222Y153186D01*
X676171Y152887D01*
X676008Y152632D01*
X675757Y152460D01*
G37*
%LPC*%
G36*
X267843Y761392D02*
X278638Y761392D01*
X278638Y779680D01*
X269331Y779680D01*
X267843Y778192D01*
X267843Y761392D01*
G37*
G36*
X280162Y761392D02*
X290957Y761392D01*
X290957Y778192D01*
X289469Y779680D01*
X280162Y779680D01*
X280162Y761392D01*
G37*
G36*
X86322Y740960D02*
X121612Y740960D01*
X123100Y742448D01*
X123100Y762738D01*
X86322Y762738D01*
X86322Y740960D01*
G37*
G36*
X269331Y741580D02*
X278638Y741580D01*
X278638Y759868D01*
X267843Y759868D01*
X267843Y743068D01*
X269331Y741580D01*
G37*
G36*
X280162Y741580D02*
X289469Y741580D01*
X290957Y743068D01*
X290957Y759868D01*
X280162Y759868D01*
X280162Y741580D01*
G37*
G36*
X483362Y686562D02*
X500380Y686562D01*
X500380Y687821D01*
X498833Y691555D01*
X495975Y694413D01*
X492241Y695960D01*
X483362Y695960D01*
X483362Y686562D01*
G37*
G36*
X464820Y686562D02*
X481838Y686562D01*
X481838Y695960D01*
X472959Y695960D01*
X469225Y694413D01*
X466367Y691555D01*
X464820Y687821D01*
X464820Y686562D01*
G37*
G36*
X320761Y676656D02*
X339639Y676656D01*
X343000Y678048D01*
X345572Y680620D01*
X346964Y683981D01*
X346964Y687619D01*
X345572Y690980D01*
X343000Y693552D01*
X339639Y694944D01*
X320761Y694944D01*
X317400Y693552D01*
X314828Y690980D01*
X313436Y687619D01*
X313436Y683981D01*
X314828Y680620D01*
X317400Y678048D01*
X320761Y676656D01*
G37*
G36*
X48020Y634262D02*
X84798Y634262D01*
X84798Y656040D01*
X64536Y656040D01*
X64273Y656087D01*
X64015Y656246D01*
X63839Y656494D01*
X63774Y656790D01*
X63830Y657088D01*
X63997Y657341D01*
X69303Y662647D01*
X72220Y669689D01*
X72220Y677311D01*
X69303Y684353D01*
X63913Y689743D01*
X56871Y692660D01*
X49249Y692660D01*
X42207Y689743D01*
X36817Y684353D01*
X33900Y677311D01*
X33900Y669689D01*
X36817Y662647D01*
X42207Y657257D01*
X47550Y655044D01*
X47788Y654887D01*
X47960Y654637D01*
X48020Y654340D01*
X48020Y634262D01*
G37*
G36*
X472959Y675640D02*
X481838Y675640D01*
X481838Y685038D01*
X464820Y685038D01*
X464820Y683779D01*
X466367Y680045D01*
X469225Y677187D01*
X472959Y675640D01*
G37*
G36*
X483362Y675640D02*
X492241Y675640D01*
X495975Y677187D01*
X498833Y680045D01*
X500380Y683779D01*
X500380Y685038D01*
X483362Y685038D01*
X483362Y675640D01*
G37*
G36*
X320761Y651256D02*
X339639Y651256D01*
X343000Y652648D01*
X345572Y655220D01*
X346964Y658581D01*
X346964Y662219D01*
X345572Y665580D01*
X343000Y668152D01*
X339639Y669544D01*
X320761Y669544D01*
X317400Y668152D01*
X314828Y665580D01*
X313436Y662219D01*
X313436Y658581D01*
X314828Y655220D01*
X317400Y652648D01*
X320761Y651256D01*
G37*
G36*
X473161Y651256D02*
X492039Y651256D01*
X495400Y652648D01*
X497972Y655220D01*
X499364Y658581D01*
X499364Y662219D01*
X497972Y665580D01*
X495400Y668152D01*
X492039Y669544D01*
X473161Y669544D01*
X469800Y668152D01*
X467228Y665580D01*
X465836Y662219D01*
X465836Y658581D01*
X467228Y655220D01*
X469800Y652648D01*
X473161Y651256D01*
G37*
G36*
X315681Y211836D02*
X319319Y211836D01*
X322680Y213228D01*
X325252Y215800D01*
X326644Y219161D01*
X326644Y233477D01*
X326700Y233763D01*
X326867Y234016D01*
X333074Y240222D01*
X333288Y240373D01*
X333582Y240445D01*
X333881Y240396D01*
X334138Y240235D01*
X334312Y239986D01*
X334374Y239690D01*
X334316Y239392D01*
X333756Y238039D01*
X333756Y219161D01*
X335148Y215800D01*
X337720Y213228D01*
X341081Y211836D01*
X344719Y211836D01*
X348080Y213228D01*
X350652Y215800D01*
X352044Y219161D01*
X352044Y238039D01*
X350652Y241400D01*
X348080Y243972D01*
X344719Y245364D01*
X341081Y245364D01*
X339728Y244804D01*
X339473Y244746D01*
X339173Y244793D01*
X338915Y244952D01*
X338740Y245199D01*
X338675Y245495D01*
X338730Y245794D01*
X338898Y246046D01*
X420034Y327183D01*
X420276Y327346D01*
X420573Y327406D01*
X516531Y327406D01*
X516811Y327353D01*
X517065Y327187D01*
X517235Y326936D01*
X518028Y325020D01*
X520600Y322448D01*
X523961Y321056D01*
X542839Y321056D01*
X546200Y322448D01*
X548772Y325020D01*
X550164Y328381D01*
X550164Y332019D01*
X548772Y335380D01*
X546200Y337952D01*
X542839Y339344D01*
X523961Y339344D01*
X520600Y337952D01*
X518028Y335380D01*
X517235Y333464D01*
X517078Y333226D01*
X516828Y333054D01*
X516531Y332994D01*
X417943Y332994D01*
X326339Y241390D01*
X326109Y241232D01*
X325812Y241167D01*
X325514Y241223D01*
X325261Y241390D01*
X322680Y243972D01*
X320764Y244765D01*
X320526Y244922D01*
X320354Y245172D01*
X320294Y245469D01*
X320294Y258210D01*
X215569Y362935D01*
X215416Y363155D01*
X215346Y363450D01*
X215397Y363749D01*
X215560Y364004D01*
X215810Y364176D01*
X216107Y364236D01*
X217719Y364236D01*
X221080Y365628D01*
X223652Y368200D01*
X225044Y371561D01*
X225044Y390439D01*
X223652Y393800D01*
X221080Y396372D01*
X217719Y397764D01*
X214081Y397764D01*
X210720Y396372D01*
X209581Y395232D01*
X209361Y395079D01*
X209066Y395010D01*
X208767Y395060D01*
X208512Y395224D01*
X208340Y395474D01*
X208280Y395771D01*
X208280Y438078D01*
X195031Y451327D01*
X194873Y451558D01*
X194808Y451854D01*
X194864Y452152D01*
X195031Y452405D01*
X258088Y515462D01*
X258088Y606044D01*
X258139Y606319D01*
X258303Y606574D01*
X258553Y606746D01*
X258850Y606806D01*
X259851Y606806D01*
X260137Y606750D01*
X260390Y606583D01*
X279161Y587812D01*
X295739Y587812D01*
X313295Y605368D01*
X313520Y605524D01*
X313816Y605591D01*
X314114Y605538D01*
X314368Y605372D01*
X314538Y605121D01*
X314828Y604420D01*
X317400Y601848D01*
X320761Y600456D01*
X339639Y600456D01*
X343000Y601848D01*
X345572Y604420D01*
X346964Y607781D01*
X346964Y611419D01*
X345572Y614780D01*
X343000Y617352D01*
X339639Y618744D01*
X326136Y618744D01*
X325861Y618795D01*
X325606Y618959D01*
X325434Y619209D01*
X325374Y619506D01*
X325374Y625094D01*
X325425Y625369D01*
X325589Y625624D01*
X325839Y625796D01*
X326136Y625856D01*
X339639Y625856D01*
X343000Y627248D01*
X345572Y629820D01*
X346964Y633181D01*
X346964Y636819D01*
X345572Y640180D01*
X343000Y642752D01*
X339639Y644144D01*
X320761Y644144D01*
X317400Y642752D01*
X314828Y640180D01*
X313436Y636819D01*
X313436Y633181D01*
X314828Y629820D01*
X317400Y627248D01*
X319316Y626455D01*
X319554Y626298D01*
X319726Y626048D01*
X319786Y625751D01*
X319786Y618849D01*
X319733Y618569D01*
X319567Y618315D01*
X319316Y618145D01*
X317400Y617352D01*
X314828Y614780D01*
X314035Y612864D01*
X313878Y612626D01*
X313628Y612454D01*
X313331Y612394D01*
X312418Y612394D01*
X296825Y596800D01*
X296605Y596647D01*
X296310Y596578D01*
X296011Y596628D01*
X295756Y596792D01*
X295584Y597042D01*
X295524Y597339D01*
X295524Y625856D01*
X294056Y627324D01*
X280844Y627324D01*
X279376Y625856D01*
X279376Y597339D01*
X279329Y597076D01*
X279170Y596818D01*
X278922Y596642D01*
X278626Y596577D01*
X278328Y596633D01*
X278075Y596800D01*
X262482Y612394D01*
X229386Y612394D01*
X229111Y612445D01*
X228856Y612609D01*
X228684Y612859D01*
X228624Y613156D01*
X228624Y614473D01*
X227323Y615774D01*
X213777Y615774D01*
X212476Y614473D01*
X212476Y604727D01*
X213777Y603426D01*
X227323Y603426D01*
X228624Y604727D01*
X228624Y606044D01*
X228675Y606319D01*
X228839Y606574D01*
X229089Y606746D01*
X229386Y606806D01*
X251738Y606806D01*
X252013Y606755D01*
X252268Y606591D01*
X252440Y606341D01*
X252500Y606044D01*
X252500Y518092D01*
X252444Y517806D01*
X252277Y517553D01*
X189607Y454883D01*
X189365Y454720D01*
X189068Y454660D01*
X117004Y454660D01*
X115692Y453348D01*
X115450Y453185D01*
X115153Y453125D01*
X105008Y453125D01*
X104115Y452232D01*
X104115Y436768D01*
X105008Y435875D01*
X116582Y435875D01*
X117475Y436768D01*
X117475Y446913D01*
X117531Y447199D01*
X117698Y447452D01*
X119095Y448849D01*
X119337Y449012D01*
X119634Y449072D01*
X189068Y449072D01*
X189354Y449016D01*
X189607Y448849D01*
X202469Y435987D01*
X202632Y435745D01*
X202692Y435448D01*
X202692Y367909D01*
X314483Y256118D01*
X314646Y255877D01*
X314706Y255579D01*
X314706Y245469D01*
X314653Y245189D01*
X314487Y244935D01*
X314236Y244765D01*
X312320Y243972D01*
X309748Y241400D01*
X308356Y238039D01*
X308356Y219161D01*
X309748Y215800D01*
X312320Y213228D01*
X315681Y211836D01*
G37*
G36*
X646056Y625536D02*
X649344Y625536D01*
X652381Y626794D01*
X654706Y629119D01*
X655964Y632156D01*
X655964Y635444D01*
X654706Y638481D01*
X652381Y640806D01*
X649344Y642064D01*
X646056Y642064D01*
X645086Y641662D01*
X644794Y641604D01*
X496863Y641604D01*
X496577Y641660D01*
X496324Y641827D01*
X495400Y642752D01*
X492039Y644144D01*
X473161Y644144D01*
X469800Y642752D01*
X467228Y640180D01*
X465836Y636819D01*
X465836Y633181D01*
X467228Y629820D01*
X469800Y627248D01*
X473161Y625856D01*
X492039Y625856D01*
X495400Y627248D01*
X496324Y628173D01*
X496566Y628336D01*
X496863Y628396D01*
X641101Y628396D01*
X641387Y628340D01*
X641640Y628173D01*
X643019Y626794D01*
X646056Y625536D01*
G37*
G36*
X221312Y633262D02*
X229640Y633262D01*
X229640Y637794D01*
X227744Y639690D01*
X221312Y639690D01*
X221312Y633262D01*
G37*
G36*
X211460Y633262D02*
X219788Y633262D01*
X219788Y639690D01*
X213356Y639690D01*
X211460Y637794D01*
X211460Y633262D01*
G37*
G36*
X49508Y610960D02*
X84798Y610960D01*
X84798Y632738D01*
X48020Y632738D01*
X48020Y612448D01*
X49508Y610960D01*
G37*
G36*
X213356Y625310D02*
X219788Y625310D01*
X219788Y631738D01*
X211460Y631738D01*
X211460Y627206D01*
X213356Y625310D01*
G37*
G36*
X221312Y625310D02*
X227744Y625310D01*
X229640Y627206D01*
X229640Y631738D01*
X221312Y631738D01*
X221312Y625310D01*
G37*
G36*
X473161Y575056D02*
X492039Y575056D01*
X495400Y576448D01*
X497972Y579020D01*
X499364Y582381D01*
X499364Y586019D01*
X498660Y587718D01*
X498602Y587986D01*
X498653Y588285D01*
X498817Y588540D01*
X499067Y588712D01*
X499364Y588772D01*
X535525Y588772D01*
X537953Y589777D01*
X550148Y601973D01*
X550390Y602136D01*
X550687Y602196D01*
X642301Y602196D01*
X642587Y602140D01*
X642840Y601973D01*
X643019Y601794D01*
X646056Y600536D01*
X649344Y600536D01*
X652381Y601794D01*
X654706Y604119D01*
X655964Y607156D01*
X655964Y610444D01*
X654706Y613481D01*
X652381Y615806D01*
X649344Y617064D01*
X646056Y617064D01*
X643019Y615806D01*
X642840Y615627D01*
X642599Y615464D01*
X642301Y615404D01*
X546322Y615404D01*
X543895Y614399D01*
X531700Y602203D01*
X531458Y602040D01*
X531161Y601980D01*
X497371Y601980D01*
X497108Y602027D01*
X496850Y602186D01*
X496674Y602434D01*
X496609Y602730D01*
X496665Y603028D01*
X496832Y603281D01*
X497972Y604420D01*
X499364Y607781D01*
X499364Y611419D01*
X497972Y614780D01*
X495400Y617352D01*
X492039Y618744D01*
X473161Y618744D01*
X469800Y617352D01*
X467228Y614780D01*
X465836Y611419D01*
X465836Y607781D01*
X467228Y604420D01*
X469800Y601848D01*
X473161Y600456D01*
X487677Y600456D01*
X487940Y600409D01*
X488198Y600250D01*
X488374Y600002D01*
X488439Y599706D01*
X488383Y599408D01*
X488216Y599155D01*
X482628Y593567D01*
X482386Y593404D01*
X482089Y593344D01*
X473161Y593344D01*
X469800Y591952D01*
X467228Y589380D01*
X465836Y586019D01*
X465836Y582381D01*
X467228Y579020D01*
X469800Y576448D01*
X473161Y575056D01*
G37*
G36*
X290281Y364236D02*
X293919Y364236D01*
X297280Y365628D01*
X299852Y368200D01*
X301244Y371561D01*
X301244Y390439D01*
X299852Y393800D01*
X297280Y396372D01*
X294856Y397376D01*
X294618Y397532D01*
X294446Y397782D01*
X294386Y398080D01*
X294386Y473488D01*
X294442Y473774D01*
X294609Y474027D01*
X314960Y494377D01*
X314960Y500849D01*
X315007Y501112D01*
X315166Y501370D01*
X315414Y501546D01*
X315710Y501611D01*
X316008Y501555D01*
X316261Y501388D01*
X317400Y500248D01*
X320761Y498856D01*
X337613Y498856D01*
X337876Y498809D01*
X338134Y498650D01*
X338310Y498402D01*
X338375Y498106D01*
X338319Y497808D01*
X338152Y497555D01*
X315214Y474618D01*
X315214Y398080D01*
X315161Y397799D01*
X314995Y397545D01*
X314744Y397376D01*
X312320Y396372D01*
X309748Y393800D01*
X308356Y390439D01*
X308356Y371561D01*
X309748Y368200D01*
X312320Y365628D01*
X315681Y364236D01*
X319319Y364236D01*
X322680Y365628D01*
X325252Y368200D01*
X326644Y371561D01*
X326644Y390439D01*
X325252Y393800D01*
X322680Y396372D01*
X320256Y397376D01*
X320018Y397532D01*
X319846Y397782D01*
X319786Y398080D01*
X319786Y472408D01*
X319842Y472694D01*
X320009Y472947D01*
X339313Y492251D01*
X339533Y492404D01*
X339828Y492474D01*
X340127Y492423D01*
X340382Y492260D01*
X340554Y492009D01*
X340614Y491712D01*
X340614Y398080D01*
X340561Y397799D01*
X340395Y397545D01*
X340144Y397376D01*
X337720Y396372D01*
X335148Y393800D01*
X333756Y390439D01*
X333756Y371561D01*
X335148Y368200D01*
X337720Y365628D01*
X341081Y364236D01*
X344719Y364236D01*
X348080Y365628D01*
X350652Y368200D01*
X352044Y371561D01*
X352044Y390439D01*
X350652Y393800D01*
X348080Y396372D01*
X345656Y397376D01*
X345418Y397532D01*
X345246Y397782D01*
X345186Y398080D01*
X345186Y493498D01*
X345242Y493784D01*
X345409Y494036D01*
X378460Y527087D01*
X378460Y560802D01*
X352776Y586486D01*
X347280Y586486D01*
X346999Y586539D01*
X346745Y586705D01*
X346576Y586956D01*
X345572Y589380D01*
X343000Y591952D01*
X339639Y593344D01*
X320761Y593344D01*
X317400Y591952D01*
X314828Y589380D01*
X313436Y586019D01*
X313436Y582381D01*
X314828Y579020D01*
X317400Y576448D01*
X320761Y575056D01*
X339639Y575056D01*
X343000Y576448D01*
X345572Y579020D01*
X346576Y581444D01*
X346732Y581682D01*
X346982Y581854D01*
X347280Y581914D01*
X350567Y581914D01*
X350853Y581858D01*
X351106Y581691D01*
X373665Y559132D01*
X373828Y558890D01*
X373888Y558593D01*
X373888Y541814D01*
X373841Y541550D01*
X373682Y541292D01*
X373434Y541117D01*
X373138Y541052D01*
X372840Y541107D01*
X372587Y541275D01*
X352776Y561086D01*
X347280Y561086D01*
X346999Y561139D01*
X346745Y561305D01*
X346576Y561556D01*
X345572Y563980D01*
X343000Y566552D01*
X339639Y567944D01*
X320761Y567944D01*
X317400Y566552D01*
X314828Y563980D01*
X313436Y560619D01*
X313436Y556981D01*
X314828Y553620D01*
X317400Y551048D01*
X320761Y549656D01*
X339639Y549656D01*
X343000Y551048D01*
X345572Y553620D01*
X346576Y556044D01*
X346732Y556282D01*
X346982Y556454D01*
X347280Y556514D01*
X350567Y556514D01*
X350853Y556458D01*
X351106Y556291D01*
X370617Y536780D01*
X370780Y536538D01*
X370840Y536241D01*
X370840Y530559D01*
X370784Y530273D01*
X370617Y530020D01*
X348265Y507668D01*
X348045Y507515D01*
X347750Y507446D01*
X347451Y507497D01*
X347196Y507660D01*
X347024Y507910D01*
X346964Y508207D01*
X346964Y509819D01*
X345572Y513180D01*
X343000Y515752D01*
X339639Y517144D01*
X322787Y517144D01*
X322524Y517191D01*
X322266Y517350D01*
X322090Y517598D01*
X322025Y517894D01*
X322081Y518192D01*
X322248Y518445D01*
X327836Y524033D01*
X328078Y524196D01*
X328375Y524256D01*
X339639Y524256D01*
X343000Y525648D01*
X345572Y528220D01*
X346964Y531581D01*
X346964Y535219D01*
X345572Y538580D01*
X343000Y541152D01*
X339639Y542544D01*
X320761Y542544D01*
X317400Y541152D01*
X314828Y538580D01*
X313436Y535219D01*
X313436Y531581D01*
X314828Y528220D01*
X317400Y525648D01*
X320296Y524449D01*
X320526Y524300D01*
X320702Y524053D01*
X320767Y523757D01*
X320711Y523459D01*
X320544Y523206D01*
X310388Y513050D01*
X310388Y496587D01*
X310332Y496301D01*
X310165Y496048D01*
X289814Y475697D01*
X289814Y398080D01*
X289761Y397799D01*
X289595Y397545D01*
X289344Y397376D01*
X286920Y396372D01*
X284348Y393800D01*
X282956Y390439D01*
X282956Y371561D01*
X284348Y368200D01*
X286920Y365628D01*
X290281Y364236D01*
G37*
G36*
X646056Y575536D02*
X649344Y575536D01*
X652381Y576794D01*
X654706Y579119D01*
X655964Y582156D01*
X655964Y585444D01*
X654706Y588481D01*
X652381Y590806D01*
X649344Y592064D01*
X646056Y592064D01*
X643019Y590806D01*
X640694Y588481D01*
X639436Y585444D01*
X639436Y582156D01*
X640694Y579119D01*
X643019Y576794D01*
X646056Y575536D01*
G37*
G36*
X32529Y577076D02*
X41791Y577076D01*
X42684Y577969D01*
X42684Y589231D01*
X41791Y590124D01*
X32529Y590124D01*
X31636Y589231D01*
X31636Y577969D01*
X32529Y577076D01*
G37*
G36*
X473161Y549656D02*
X492039Y549656D01*
X495400Y551048D01*
X496324Y551973D01*
X496566Y552136D01*
X496863Y552196D01*
X642301Y552196D01*
X642587Y552140D01*
X642840Y551973D01*
X643019Y551794D01*
X646056Y550536D01*
X649344Y550536D01*
X652381Y551794D01*
X654706Y554119D01*
X655964Y557156D01*
X655964Y560444D01*
X654706Y563481D01*
X652381Y565806D01*
X649344Y567064D01*
X646056Y567064D01*
X643019Y565806D01*
X642840Y565627D01*
X642599Y565464D01*
X642301Y565404D01*
X496863Y565404D01*
X496577Y565460D01*
X496324Y565627D01*
X495400Y566552D01*
X492039Y567944D01*
X473161Y567944D01*
X469800Y566552D01*
X467228Y563980D01*
X465836Y560619D01*
X465836Y556981D01*
X467228Y553620D01*
X469800Y551048D01*
X473161Y549656D01*
G37*
G36*
X174168Y551937D02*
X179166Y551937D01*
X179166Y554903D01*
X177678Y556391D01*
X174168Y556391D01*
X174168Y551937D01*
G37*
G36*
X167646Y551937D02*
X172644Y551937D01*
X172644Y556391D01*
X169133Y556391D01*
X167646Y554903D01*
X167646Y551937D01*
G37*
G36*
X483362Y534162D02*
X500380Y534162D01*
X500380Y535421D01*
X498833Y539155D01*
X495975Y542013D01*
X492241Y543560D01*
X483362Y543560D01*
X483362Y534162D01*
G37*
G36*
X483362Y523240D02*
X492241Y523240D01*
X495975Y524787D01*
X498833Y527645D01*
X500380Y531379D01*
X500380Y532638D01*
X483362Y532638D01*
X483362Y523240D01*
G37*
G36*
X160760Y521637D02*
X167538Y521637D01*
X167538Y530415D01*
X162248Y530415D01*
X160760Y528927D01*
X160760Y521637D01*
G37*
G36*
X169062Y521637D02*
X175840Y521637D01*
X175840Y528927D01*
X174352Y530415D01*
X169062Y530415D01*
X169062Y521637D01*
G37*
G36*
X46922Y524362D02*
X54200Y524362D01*
X54200Y528152D01*
X52712Y529640D01*
X46922Y529640D01*
X46922Y524362D01*
G37*
G36*
X156433Y485372D02*
X177167Y485372D01*
X181922Y490127D01*
X182164Y490290D01*
X182461Y490351D01*
X183431Y490351D01*
X184324Y491243D01*
X184324Y506506D01*
X183431Y507399D01*
X172169Y507399D01*
X171276Y506506D01*
X171276Y494262D01*
X171225Y493987D01*
X171061Y493732D01*
X170811Y493560D01*
X170514Y493500D01*
X160116Y493500D01*
X159830Y493556D01*
X159577Y493723D01*
X149062Y504238D01*
X148899Y504479D01*
X148839Y504777D01*
X148839Y516398D01*
X148895Y516684D01*
X148975Y516804D01*
X148975Y524551D01*
X148082Y525444D01*
X141468Y525444D01*
X140576Y524551D01*
X140576Y516806D01*
X140651Y516695D01*
X140711Y516398D01*
X140711Y501094D01*
X156433Y485372D01*
G37*
G36*
X46922Y517560D02*
X52712Y517560D01*
X54200Y519048D01*
X54200Y522838D01*
X46922Y522838D01*
X46922Y517560D01*
G37*
G36*
X169062Y511335D02*
X174352Y511335D01*
X175840Y512822D01*
X175840Y520113D01*
X169062Y520113D01*
X169062Y511335D01*
G37*
G36*
X162248Y511335D02*
X167538Y511335D01*
X167538Y520113D01*
X160760Y520113D01*
X160760Y512822D01*
X162248Y511335D01*
G37*
G36*
X32529Y502076D02*
X41791Y502076D01*
X42684Y502969D01*
X42684Y514231D01*
X41791Y515124D01*
X32529Y515124D01*
X31636Y514231D01*
X31636Y502969D01*
X32529Y502076D01*
G37*
G36*
X28612Y470662D02*
X34199Y470662D01*
X34199Y477761D01*
X32711Y479249D01*
X28612Y479249D01*
X28612Y470662D01*
G37*
G36*
X21501Y470662D02*
X27088Y470662D01*
X27088Y479249D01*
X22989Y479249D01*
X21501Y477761D01*
X21501Y470662D01*
G37*
G36*
X86618Y435875D02*
X98192Y435875D01*
X99085Y436768D01*
X99085Y452232D01*
X98192Y453125D01*
X88047Y453125D01*
X87761Y453181D01*
X87508Y453348D01*
X68162Y472694D01*
X54445Y472694D01*
X54170Y472745D01*
X53915Y472909D01*
X53743Y473159D01*
X53683Y473456D01*
X53683Y477340D01*
X52790Y478233D01*
X43910Y478233D01*
X43017Y477340D01*
X43017Y462460D01*
X43910Y461567D01*
X52790Y461567D01*
X53683Y462460D01*
X53683Y466344D01*
X53734Y466619D01*
X53898Y466874D01*
X54148Y467046D01*
X54445Y467106D01*
X65532Y467106D01*
X65818Y467050D01*
X66071Y466883D01*
X85502Y447452D01*
X85665Y447210D01*
X85725Y446913D01*
X85725Y436768D01*
X86618Y435875D01*
G37*
G36*
X22989Y460551D02*
X27088Y460551D01*
X27088Y469138D01*
X21501Y469138D01*
X21501Y462039D01*
X22989Y460551D01*
G37*
G36*
X28612Y460551D02*
X32711Y460551D01*
X34199Y462039D01*
X34199Y469138D01*
X28612Y469138D01*
X28612Y460551D01*
G37*
G36*
X115062Y381762D02*
X124460Y381762D01*
X124460Y390641D01*
X122913Y394375D01*
X120055Y397233D01*
X116321Y398780D01*
X115062Y398780D01*
X115062Y381762D01*
G37*
G36*
X104140Y381762D02*
X113538Y381762D01*
X113538Y398780D01*
X112279Y398780D01*
X108545Y397233D01*
X105687Y394375D01*
X104140Y390641D01*
X104140Y381762D01*
G37*
G36*
X163281Y364236D02*
X166919Y364236D01*
X170280Y365628D01*
X172852Y368200D01*
X174244Y371561D01*
X174244Y390439D01*
X172852Y393800D01*
X170280Y396372D01*
X166919Y397764D01*
X163281Y397764D01*
X159920Y396372D01*
X157348Y393800D01*
X155956Y390439D01*
X155956Y371561D01*
X157348Y368200D01*
X159920Y365628D01*
X163281Y364236D01*
G37*
G36*
X137881Y364236D02*
X141519Y364236D01*
X144880Y365628D01*
X147452Y368200D01*
X148844Y371561D01*
X148844Y390439D01*
X147452Y393800D01*
X144880Y396372D01*
X141519Y397764D01*
X137881Y397764D01*
X134520Y396372D01*
X131948Y393800D01*
X130556Y390439D01*
X130556Y371561D01*
X131948Y368200D01*
X134520Y365628D01*
X137881Y364236D01*
G37*
G36*
X36281Y364236D02*
X39919Y364236D01*
X43280Y365628D01*
X45852Y368200D01*
X47244Y371561D01*
X47244Y390439D01*
X45852Y393800D01*
X43280Y396372D01*
X39919Y397764D01*
X36281Y397764D01*
X32920Y396372D01*
X30348Y393800D01*
X28956Y390439D01*
X28956Y371561D01*
X30348Y368200D01*
X32920Y365628D01*
X36281Y364236D01*
G37*
G36*
X87081Y364236D02*
X90719Y364236D01*
X94080Y365628D01*
X96652Y368200D01*
X98044Y371561D01*
X98044Y390439D01*
X96652Y393800D01*
X94080Y396372D01*
X90719Y397764D01*
X87081Y397764D01*
X83720Y396372D01*
X81148Y393800D01*
X79756Y390439D01*
X79756Y371561D01*
X81148Y368200D01*
X83720Y365628D01*
X87081Y364236D01*
G37*
G36*
X61681Y364236D02*
X65319Y364236D01*
X68680Y365628D01*
X71252Y368200D01*
X72644Y371561D01*
X72644Y390439D01*
X71252Y393800D01*
X68680Y396372D01*
X65319Y397764D01*
X61681Y397764D01*
X58320Y396372D01*
X55748Y393800D01*
X54356Y390439D01*
X54356Y371561D01*
X55748Y368200D01*
X58320Y365628D01*
X61681Y364236D01*
G37*
G36*
X391881Y364236D02*
X395519Y364236D01*
X398880Y365628D01*
X401452Y368200D01*
X402844Y371561D01*
X402844Y390439D01*
X401452Y393800D01*
X398880Y396372D01*
X395519Y397764D01*
X391881Y397764D01*
X388520Y396372D01*
X385948Y393800D01*
X384556Y390439D01*
X384556Y371561D01*
X385948Y368200D01*
X388520Y365628D01*
X391881Y364236D01*
G37*
G36*
X366481Y364236D02*
X370119Y364236D01*
X373480Y365628D01*
X376052Y368200D01*
X377444Y371561D01*
X377444Y390439D01*
X376052Y393800D01*
X373480Y396372D01*
X370119Y397764D01*
X366481Y397764D01*
X363120Y396372D01*
X360548Y393800D01*
X359156Y390439D01*
X359156Y371561D01*
X360548Y368200D01*
X363120Y365628D01*
X366481Y364236D01*
G37*
G36*
X264881Y364236D02*
X268519Y364236D01*
X271880Y365628D01*
X274452Y368200D01*
X275844Y371561D01*
X275844Y390439D01*
X274452Y393800D01*
X271880Y396372D01*
X268519Y397764D01*
X264881Y397764D01*
X261520Y396372D01*
X258948Y393800D01*
X257556Y390439D01*
X257556Y371561D01*
X258948Y368200D01*
X261520Y365628D01*
X264881Y364236D01*
G37*
G36*
X239481Y364236D02*
X243119Y364236D01*
X246480Y365628D01*
X249052Y368200D01*
X250444Y371561D01*
X250444Y390439D01*
X249052Y393800D01*
X246480Y396372D01*
X243119Y397764D01*
X239481Y397764D01*
X236120Y396372D01*
X233548Y393800D01*
X232156Y390439D01*
X232156Y371561D01*
X233548Y368200D01*
X236120Y365628D01*
X239481Y364236D01*
G37*
G36*
X188681Y364236D02*
X192319Y364236D01*
X195680Y365628D01*
X198252Y368200D01*
X199644Y371561D01*
X199644Y390439D01*
X198252Y393800D01*
X195680Y396372D01*
X192319Y397764D01*
X188681Y397764D01*
X185320Y396372D01*
X182748Y393800D01*
X181356Y390439D01*
X181356Y371561D01*
X182748Y368200D01*
X185320Y365628D01*
X188681Y364236D01*
G37*
G36*
X112279Y363220D02*
X113538Y363220D01*
X113538Y380238D01*
X104140Y380238D01*
X104140Y371359D01*
X105687Y367625D01*
X108545Y364767D01*
X112279Y363220D01*
G37*
G36*
X115062Y363220D02*
X116321Y363220D01*
X120055Y364767D01*
X122913Y367625D01*
X124460Y371359D01*
X124460Y380238D01*
X115062Y380238D01*
X115062Y363220D01*
G37*
G36*
X523961Y295656D02*
X542839Y295656D01*
X546200Y297048D01*
X548772Y299620D01*
X550164Y302981D01*
X550164Y306619D01*
X548772Y309980D01*
X546200Y312552D01*
X542839Y313944D01*
X523961Y313944D01*
X520600Y312552D01*
X518028Y309980D01*
X516636Y306619D01*
X516636Y302981D01*
X518028Y299620D01*
X520600Y297048D01*
X523961Y295656D01*
G37*
G36*
X523961Y270256D02*
X542839Y270256D01*
X546200Y271648D01*
X548772Y274220D01*
X550164Y277581D01*
X550164Y281219D01*
X548772Y284580D01*
X546200Y287152D01*
X542839Y288544D01*
X523961Y288544D01*
X520600Y287152D01*
X518028Y284580D01*
X516636Y281219D01*
X516636Y277581D01*
X518028Y274220D01*
X520600Y271648D01*
X523961Y270256D01*
G37*
G36*
X515620Y254762D02*
X532638Y254762D01*
X532638Y264160D01*
X523759Y264160D01*
X520025Y262613D01*
X517167Y259755D01*
X515620Y256021D01*
X515620Y254762D01*
G37*
G36*
X534162Y254762D02*
X551180Y254762D01*
X551180Y256021D01*
X549633Y259755D01*
X546775Y262613D01*
X543041Y264160D01*
X534162Y264160D01*
X534162Y254762D01*
G37*
G36*
X534162Y243840D02*
X543041Y243840D01*
X546775Y245387D01*
X549633Y248245D01*
X551180Y251979D01*
X551180Y253238D01*
X534162Y253238D01*
X534162Y243840D01*
G37*
G36*
X523759Y243840D02*
X532638Y243840D01*
X532638Y253238D01*
X515620Y253238D01*
X515620Y251979D01*
X517167Y248245D01*
X520025Y245387D01*
X523759Y243840D01*
G37*
G36*
X358140Y229362D02*
X367538Y229362D01*
X367538Y246380D01*
X366279Y246380D01*
X362545Y244833D01*
X359687Y241975D01*
X358140Y238241D01*
X358140Y229362D01*
G37*
G36*
X369062Y229362D02*
X378460Y229362D01*
X378460Y238241D01*
X376913Y241975D01*
X374055Y244833D01*
X370321Y246380D01*
X369062Y246380D01*
X369062Y229362D01*
G37*
G36*
X188681Y211836D02*
X192319Y211836D01*
X195680Y213228D01*
X198252Y215800D01*
X199644Y219161D01*
X199644Y238039D01*
X198252Y241400D01*
X195680Y243972D01*
X192319Y245364D01*
X188681Y245364D01*
X185320Y243972D01*
X182748Y241400D01*
X181356Y238039D01*
X181356Y219161D01*
X182748Y215800D01*
X185320Y213228D01*
X188681Y211836D01*
G37*
G36*
X163281Y211836D02*
X166919Y211836D01*
X170280Y213228D01*
X172852Y215800D01*
X174244Y219161D01*
X174244Y238039D01*
X172852Y241400D01*
X170280Y243972D01*
X166919Y245364D01*
X163281Y245364D01*
X159920Y243972D01*
X157348Y241400D01*
X155956Y238039D01*
X155956Y219161D01*
X157348Y215800D01*
X159920Y213228D01*
X163281Y211836D01*
G37*
G36*
X137881Y211836D02*
X141519Y211836D01*
X144880Y213228D01*
X147452Y215800D01*
X148844Y219161D01*
X148844Y238039D01*
X147452Y241400D01*
X144880Y243972D01*
X141519Y245364D01*
X137881Y245364D01*
X134520Y243972D01*
X131948Y241400D01*
X130556Y238039D01*
X130556Y219161D01*
X131948Y215800D01*
X134520Y213228D01*
X137881Y211836D01*
G37*
G36*
X112481Y211836D02*
X116119Y211836D01*
X119480Y213228D01*
X122052Y215800D01*
X123444Y219161D01*
X123444Y238039D01*
X122052Y241400D01*
X119480Y243972D01*
X116119Y245364D01*
X112481Y245364D01*
X109120Y243972D01*
X106548Y241400D01*
X105156Y238039D01*
X105156Y219161D01*
X106548Y215800D01*
X109120Y213228D01*
X112481Y211836D01*
G37*
G36*
X87081Y211836D02*
X90719Y211836D01*
X94080Y213228D01*
X96652Y215800D01*
X98044Y219161D01*
X98044Y238039D01*
X96652Y241400D01*
X94080Y243972D01*
X90719Y245364D01*
X87081Y245364D01*
X83720Y243972D01*
X81148Y241400D01*
X79756Y238039D01*
X79756Y219161D01*
X81148Y215800D01*
X83720Y213228D01*
X87081Y211836D01*
G37*
G36*
X61681Y211836D02*
X65319Y211836D01*
X68680Y213228D01*
X71252Y215800D01*
X72644Y219161D01*
X72644Y238039D01*
X71252Y241400D01*
X68680Y243972D01*
X65319Y245364D01*
X61681Y245364D01*
X58320Y243972D01*
X55748Y241400D01*
X54356Y238039D01*
X54356Y219161D01*
X55748Y215800D01*
X58320Y213228D01*
X61681Y211836D01*
G37*
G36*
X36281Y211836D02*
X39919Y211836D01*
X43280Y213228D01*
X45852Y215800D01*
X47244Y219161D01*
X47244Y238039D01*
X45852Y241400D01*
X43280Y243972D01*
X39919Y245364D01*
X36281Y245364D01*
X32920Y243972D01*
X30348Y241400D01*
X28956Y238039D01*
X28956Y219161D01*
X30348Y215800D01*
X32920Y213228D01*
X36281Y211836D01*
G37*
G36*
X239481Y211836D02*
X243119Y211836D01*
X246480Y213228D01*
X249052Y215800D01*
X250444Y219161D01*
X250444Y238039D01*
X249052Y241400D01*
X246480Y243972D01*
X243119Y245364D01*
X239481Y245364D01*
X236120Y243972D01*
X233548Y241400D01*
X232156Y238039D01*
X232156Y219161D01*
X233548Y215800D01*
X236120Y213228D01*
X239481Y211836D01*
G37*
G36*
X264881Y211836D02*
X268519Y211836D01*
X271880Y213228D01*
X274452Y215800D01*
X275844Y219161D01*
X275844Y238039D01*
X274452Y241400D01*
X271880Y243972D01*
X268519Y245364D01*
X264881Y245364D01*
X261520Y243972D01*
X258948Y241400D01*
X257556Y238039D01*
X257556Y219161D01*
X258948Y215800D01*
X261520Y213228D01*
X264881Y211836D01*
G37*
G36*
X290281Y211836D02*
X293919Y211836D01*
X297280Y213228D01*
X299852Y215800D01*
X301244Y219161D01*
X301244Y238039D01*
X299852Y241400D01*
X297280Y243972D01*
X293919Y245364D01*
X290281Y245364D01*
X286920Y243972D01*
X284348Y241400D01*
X282956Y238039D01*
X282956Y219161D01*
X284348Y215800D01*
X286920Y213228D01*
X290281Y211836D01*
G37*
G36*
X391881Y211836D02*
X395519Y211836D01*
X398880Y213228D01*
X401452Y215800D01*
X402844Y219161D01*
X402844Y238039D01*
X401452Y241400D01*
X398880Y243972D01*
X395519Y245364D01*
X391881Y245364D01*
X388520Y243972D01*
X385948Y241400D01*
X384556Y238039D01*
X384556Y219161D01*
X385948Y215800D01*
X388520Y213228D01*
X391881Y211836D01*
G37*
G36*
X214081Y211836D02*
X217719Y211836D01*
X221080Y213228D01*
X223652Y215800D01*
X225044Y219161D01*
X225044Y238039D01*
X223652Y241400D01*
X221080Y243972D01*
X217719Y245364D01*
X214081Y245364D01*
X210720Y243972D01*
X208148Y241400D01*
X206756Y238039D01*
X206756Y219161D01*
X208148Y215800D01*
X210720Y213228D01*
X214081Y211836D01*
G37*
G36*
X369062Y210820D02*
X370321Y210820D01*
X374055Y212367D01*
X376913Y215225D01*
X378460Y218959D01*
X378460Y227838D01*
X369062Y227838D01*
X369062Y210820D01*
G37*
G36*
X366279Y210820D02*
X367538Y210820D01*
X367538Y227838D01*
X358140Y227838D01*
X358140Y218959D01*
X359687Y215225D01*
X362545Y212367D01*
X366279Y210820D01*
G37*
%LPD*%
G36*
X-47709Y287954D02*
X-47967Y290187D01*
X-47657Y290283D01*
X-47366Y290396D01*
X-47096Y290526D01*
X-46845Y290674D01*
X-46615Y290838D01*
X-46405Y291020D01*
X-46214Y291219D01*
X-46044Y291435D01*
X-45894Y291668D01*
X-45764Y291919D01*
X-45653Y292186D01*
X-45563Y292471D01*
X-45493Y292773D01*
X-45443Y293092D01*
X-45413Y293428D01*
X-45403Y293781D01*
X-45420Y294214D01*
X-45470Y294622D01*
X-45554Y295007D01*
X-45671Y295367D01*
X-45822Y295703D01*
X-46007Y296015D01*
X-46225Y296303D01*
X-46477Y296566D01*
X-46757Y296802D01*
X-47063Y297006D01*
X-47395Y297179D01*
X-47751Y297321D01*
X-48132Y297431D01*
X-48539Y297509D01*
X-48970Y297556D01*
X-49427Y297572D01*
X-49825Y297556D01*
X-50204Y297509D01*
X-50563Y297430D01*
X-50902Y297319D01*
X-51222Y297177D01*
X-51523Y297003D01*
X-51803Y296797D01*
X-52065Y296560D01*
X-52300Y296296D01*
X-52505Y296010D01*
X-52678Y295702D01*
X-52819Y295372D01*
X-52929Y295019D01*
X-53008Y294645D01*
X-53055Y294249D01*
X-53071Y293830D01*
X-53053Y293390D01*
X-53000Y292966D01*
X-52912Y292556D01*
X-52788Y292162D01*
X-52623Y291776D01*
X-52408Y291389D01*
X-52144Y291003D01*
X-51832Y290616D01*
X-51832Y288457D01*
X-61131Y289034D01*
X-61131Y298860D01*
X-59254Y298860D01*
X-59254Y291046D01*
X-53770Y290714D01*
X-54029Y291084D01*
X-54253Y291476D01*
X-54443Y291889D01*
X-54598Y292325D01*
X-54719Y292782D01*
X-54805Y293261D01*
X-54857Y293762D01*
X-54874Y294284D01*
X-54851Y294906D01*
X-54780Y295495D01*
X-54664Y296052D01*
X-54500Y296577D01*
X-54289Y297069D01*
X-54032Y297529D01*
X-53728Y297956D01*
X-53377Y298351D01*
X-52989Y298706D01*
X-52572Y299014D01*
X-52127Y299274D01*
X-51654Y299488D01*
X-51152Y299653D01*
X-50622Y299772D01*
X-50063Y299843D01*
X-49476Y299866D01*
X-49139Y299860D01*
X-48810Y299841D01*
X-48491Y299809D01*
X-48181Y299765D01*
X-47880Y299708D01*
X-47588Y299638D01*
X-47305Y299555D01*
X-47032Y299460D01*
X-46512Y299231D01*
X-46028Y298952D01*
X-45581Y298622D01*
X-45170Y298241D01*
X-44802Y297815D01*
X-44483Y297349D01*
X-44213Y296845D01*
X-43992Y296301D01*
X-43820Y295718D01*
X-43753Y295411D01*
X-43698Y295095D01*
X-43655Y294769D01*
X-43624Y294433D01*
X-43606Y294088D01*
X-43600Y293732D01*
X-43616Y293143D01*
X-43666Y292582D01*
X-43748Y292051D01*
X-43863Y291549D01*
X-44012Y291075D01*
X-44193Y290632D01*
X-44407Y290217D01*
X-44655Y289831D01*
X-44933Y289477D01*
X-45241Y289157D01*
X-45579Y288871D01*
X-45946Y288620D01*
X-46343Y288402D01*
X-46769Y288219D01*
X-47224Y288069D01*
X-47709Y287954D01*
G37*
G36*
X-43845Y309149D02*
X-45403Y309149D01*
X-46100Y309479D01*
X-46754Y309844D01*
X-47366Y310243D01*
X-47936Y310677D01*
X-48472Y311133D01*
X-48982Y311601D01*
X-49466Y312081D01*
X-49924Y312572D01*
X-50781Y313561D01*
X-51574Y314541D01*
X-52335Y315469D01*
X-53095Y316301D01*
X-53480Y316675D01*
X-53874Y317011D01*
X-54277Y317310D01*
X-54690Y317571D01*
X-54902Y317685D01*
X-55121Y317783D01*
X-55347Y317866D01*
X-55579Y317935D01*
X-55819Y317988D01*
X-56066Y318025D01*
X-56319Y318048D01*
X-56579Y318056D01*
X-56925Y318043D01*
X-57251Y318004D01*
X-57557Y317938D01*
X-57843Y317847D01*
X-58109Y317730D01*
X-58355Y317587D01*
X-58581Y317417D01*
X-58788Y317222D01*
X-58972Y317003D01*
X-59131Y316764D01*
X-59266Y316504D01*
X-59376Y316225D01*
X-59462Y315925D01*
X-59524Y315604D01*
X-59560Y315264D01*
X-59573Y314903D01*
X-59561Y314558D01*
X-59525Y314229D01*
X-59465Y313915D01*
X-59381Y313616D01*
X-59273Y313333D01*
X-59141Y313066D01*
X-58986Y312814D01*
X-58806Y312578D01*
X-58605Y312361D01*
X-58384Y312168D01*
X-58144Y311999D01*
X-57884Y311853D01*
X-57605Y311730D01*
X-57307Y311632D01*
X-56990Y311556D01*
X-56653Y311505D01*
X-56861Y309247D01*
X-57367Y309328D01*
X-57845Y309449D01*
X-58297Y309610D01*
X-58723Y309810D01*
X-59122Y310050D01*
X-59495Y310330D01*
X-59842Y310649D01*
X-60162Y311008D01*
X-60449Y311400D01*
X-60698Y311819D01*
X-60909Y312266D01*
X-61082Y312739D01*
X-61216Y313239D01*
X-61312Y313767D01*
X-61369Y314321D01*
X-61388Y314903D01*
X-61369Y315537D01*
X-61311Y316134D01*
X-61215Y316693D01*
X-61080Y317214D01*
X-60907Y317697D01*
X-60695Y318143D01*
X-60444Y318551D01*
X-60155Y318921D01*
X-59831Y319250D01*
X-59474Y319535D01*
X-59085Y319777D01*
X-58663Y319974D01*
X-58209Y320128D01*
X-57723Y320238D01*
X-57204Y320303D01*
X-56653Y320325D01*
X-56402Y320318D01*
X-56151Y320297D01*
X-55900Y320261D01*
X-55650Y320210D01*
X-55151Y320067D01*
X-54653Y319865D01*
X-54156Y319607D01*
X-53659Y319293D01*
X-53163Y318923D01*
X-52666Y318497D01*
X-52101Y317940D01*
X-51399Y317176D01*
X-50561Y316204D01*
X-49586Y315026D01*
X-49024Y314356D01*
X-48490Y313759D01*
X-47984Y313234D01*
X-47507Y312780D01*
X-47048Y312393D01*
X-46598Y312063D01*
X-46156Y311791D01*
X-45722Y311578D01*
X-45722Y320595D01*
X-43845Y320595D01*
X-43845Y309149D01*
G37*
G36*
X-43845Y274893D02*
X-45722Y274893D01*
X-45722Y279297D01*
X-59021Y279297D01*
X-56236Y275396D01*
X-58321Y275396D01*
X-61131Y279481D01*
X-61131Y281518D01*
X-45722Y281518D01*
X-45722Y285726D01*
X-43845Y285726D01*
X-43845Y274893D01*
G37*
G36*
X-43845Y303211D02*
X-46532Y303211D01*
X-46532Y305603D01*
X-43845Y305603D01*
X-43845Y303211D01*
G37*
G36*
X-47759Y322431D02*
X-49476Y322431D01*
X-61131Y330344D01*
X-61131Y332662D01*
X-49501Y332662D01*
X-49501Y335092D01*
X-47759Y335092D01*
X-47759Y332662D01*
X-43845Y332662D01*
X-43845Y330577D01*
X-47759Y330577D01*
X-47759Y322431D01*
G37*
%LPC*%
G36*
X-49501Y324467D02*
X-49501Y330577D01*
X-58640Y330577D01*
X-57990Y330233D01*
X-57499Y329954D01*
X-57180Y329755D01*
X-50654Y325326D01*
X-49746Y324664D01*
X-49501Y324467D01*
G37*
%LPD*%
G36*
X395332Y767500D02*
X394743Y767516D01*
X394182Y767566D01*
X393651Y767648D01*
X393149Y767763D01*
X392675Y767912D01*
X392232Y768093D01*
X391817Y768307D01*
X391431Y768555D01*
X391077Y768833D01*
X390757Y769141D01*
X390471Y769479D01*
X390220Y769846D01*
X390002Y770243D01*
X389819Y770669D01*
X389669Y771124D01*
X389554Y771609D01*
X391787Y771867D01*
X391883Y771557D01*
X391996Y771266D01*
X392126Y770996D01*
X392274Y770745D01*
X392438Y770515D01*
X392620Y770305D01*
X392819Y770114D01*
X393035Y769944D01*
X393268Y769794D01*
X393519Y769664D01*
X393786Y769553D01*
X394071Y769463D01*
X394373Y769393D01*
X394692Y769343D01*
X395028Y769313D01*
X395381Y769303D01*
X395814Y769320D01*
X396222Y769370D01*
X396607Y769454D01*
X396967Y769571D01*
X397303Y769722D01*
X397615Y769907D01*
X397903Y770125D01*
X398166Y770377D01*
X398402Y770657D01*
X398606Y770963D01*
X398779Y771295D01*
X398921Y771651D01*
X399031Y772032D01*
X399109Y772439D01*
X399156Y772870D01*
X399172Y773327D01*
X399156Y773725D01*
X399109Y774104D01*
X399030Y774463D01*
X398919Y774802D01*
X398777Y775122D01*
X398603Y775423D01*
X398397Y775703D01*
X398160Y775965D01*
X397896Y776200D01*
X397610Y776405D01*
X397302Y776578D01*
X396972Y776719D01*
X396619Y776829D01*
X396245Y776908D01*
X395849Y776955D01*
X395430Y776971D01*
X394990Y776953D01*
X394566Y776900D01*
X394156Y776812D01*
X393762Y776688D01*
X393376Y776523D01*
X392989Y776308D01*
X392603Y776044D01*
X392216Y775732D01*
X390057Y775732D01*
X390634Y785031D01*
X400460Y785031D01*
X400460Y783154D01*
X392646Y783154D01*
X392314Y777670D01*
X392684Y777929D01*
X393076Y778153D01*
X393489Y778343D01*
X393925Y778498D01*
X394382Y778619D01*
X394861Y778705D01*
X395362Y778757D01*
X395884Y778774D01*
X396506Y778751D01*
X397095Y778680D01*
X397652Y778564D01*
X398177Y778400D01*
X398669Y778189D01*
X399129Y777932D01*
X399556Y777628D01*
X399951Y777277D01*
X400306Y776889D01*
X400614Y776472D01*
X400874Y776027D01*
X401088Y775554D01*
X401253Y775052D01*
X401372Y774522D01*
X401443Y773963D01*
X401466Y773376D01*
X401460Y773039D01*
X401441Y772710D01*
X401409Y772391D01*
X401365Y772081D01*
X401308Y771780D01*
X401238Y771488D01*
X401155Y771205D01*
X401060Y770932D01*
X400831Y770412D01*
X400552Y769928D01*
X400222Y769481D01*
X399841Y769070D01*
X399415Y768702D01*
X398949Y768383D01*
X398445Y768113D01*
X397901Y767892D01*
X397318Y767720D01*
X397011Y767653D01*
X396695Y767598D01*
X396369Y767555D01*
X396033Y767524D01*
X395688Y767506D01*
X395332Y767500D01*
G37*
G36*
X422195Y767745D02*
X410749Y767745D01*
X410749Y769303D01*
X411079Y770000D01*
X411444Y770654D01*
X411843Y771266D01*
X412277Y771836D01*
X412733Y772372D01*
X413201Y772882D01*
X413681Y773366D01*
X414172Y773824D01*
X415161Y774681D01*
X416141Y775474D01*
X417069Y776235D01*
X417901Y776995D01*
X418275Y777380D01*
X418611Y777774D01*
X418910Y778177D01*
X419171Y778590D01*
X419285Y778802D01*
X419383Y779021D01*
X419466Y779247D01*
X419535Y779479D01*
X419588Y779719D01*
X419625Y779966D01*
X419648Y780219D01*
X419656Y780479D01*
X419643Y780825D01*
X419604Y781151D01*
X419538Y781457D01*
X419447Y781743D01*
X419330Y782009D01*
X419187Y782255D01*
X419017Y782481D01*
X418822Y782688D01*
X418603Y782872D01*
X418364Y783031D01*
X418104Y783166D01*
X417825Y783276D01*
X417525Y783362D01*
X417204Y783424D01*
X416864Y783460D01*
X416503Y783473D01*
X416158Y783461D01*
X415829Y783425D01*
X415515Y783365D01*
X415216Y783281D01*
X414933Y783173D01*
X414666Y783041D01*
X414414Y782886D01*
X414178Y782706D01*
X413961Y782505D01*
X413768Y782284D01*
X413599Y782044D01*
X413453Y781784D01*
X413330Y781505D01*
X413232Y781207D01*
X413156Y780890D01*
X413105Y780553D01*
X410847Y780761D01*
X410928Y781267D01*
X411049Y781745D01*
X411210Y782197D01*
X411410Y782623D01*
X411650Y783022D01*
X411930Y783395D01*
X412249Y783742D01*
X412608Y784062D01*
X413000Y784349D01*
X413419Y784598D01*
X413866Y784809D01*
X414339Y784982D01*
X414839Y785116D01*
X415367Y785212D01*
X415921Y785269D01*
X416503Y785288D01*
X417137Y785269D01*
X417734Y785211D01*
X418293Y785115D01*
X418814Y784980D01*
X419297Y784807D01*
X419743Y784595D01*
X420151Y784344D01*
X420521Y784055D01*
X420850Y783731D01*
X421135Y783374D01*
X421377Y782985D01*
X421574Y782563D01*
X421728Y782109D01*
X421838Y781623D01*
X421903Y781104D01*
X421925Y780553D01*
X421918Y780302D01*
X421897Y780051D01*
X421861Y779800D01*
X421810Y779550D01*
X421667Y779051D01*
X421465Y778553D01*
X421207Y778056D01*
X420893Y777559D01*
X420523Y777063D01*
X420097Y776566D01*
X419540Y776001D01*
X418776Y775299D01*
X417804Y774461D01*
X416626Y773486D01*
X415956Y772924D01*
X415359Y772390D01*
X414834Y771884D01*
X414380Y771407D01*
X413993Y770948D01*
X413663Y770498D01*
X413391Y770056D01*
X413178Y769622D01*
X422195Y769622D01*
X422195Y767745D01*
G37*
G36*
X387326Y767745D02*
X376493Y767745D01*
X376493Y769622D01*
X380897Y769622D01*
X380897Y782921D01*
X376996Y780136D01*
X376996Y782221D01*
X381081Y785031D01*
X383118Y785031D01*
X383118Y769622D01*
X387326Y769622D01*
X387326Y767745D01*
G37*
G36*
X407203Y767745D02*
X404811Y767745D01*
X404811Y770432D01*
X407203Y770432D01*
X407203Y767745D01*
G37*
G36*
X434262Y767745D02*
X432177Y767745D01*
X432177Y771659D01*
X424031Y771659D01*
X424031Y773376D01*
X431944Y785031D01*
X434262Y785031D01*
X434262Y773401D01*
X436692Y773401D01*
X436692Y771659D01*
X434262Y771659D01*
X434262Y767745D01*
G37*
%LPC*%
G36*
X432177Y773401D02*
X432177Y782540D01*
X431833Y781890D01*
X431554Y781399D01*
X431355Y781080D01*
X426926Y774554D01*
X426264Y773646D01*
X426067Y773401D01*
X432177Y773401D01*
G37*
%LPD*%
D10*
X38100Y381000D02*
X-57600Y381000D01*
X-57600Y228600D02*
X38100Y228600D01*
X-38100Y229250D02*
X-38100Y380350D01*
X-41292Y355000D01*
X-34908Y355000D01*
X-38100Y380350D01*
X-39400Y355000D01*
X-36800Y355000D02*
X-38100Y380350D01*
X-40700Y355000D01*
X-35500Y355000D02*
X-38100Y380350D01*
X-41292Y254600D02*
X-38100Y229250D01*
X-41292Y254600D02*
X-34908Y254600D01*
X-38100Y229250D01*
X-39400Y254600D01*
X-36800Y254600D02*
X-38100Y229250D01*
X-40700Y254600D01*
X-35500Y254600D02*
X-38100Y229250D01*
X482600Y685800D02*
X482600Y781500D01*
X330200Y781500D02*
X330200Y685800D01*
X330850Y762000D02*
X481950Y762000D01*
X456600Y765192D01*
X456600Y758808D01*
X481950Y762000D01*
X456600Y763300D01*
X456600Y760700D02*
X481950Y762000D01*
X456600Y764600D01*
X456600Y759400D02*
X481950Y762000D01*
X356200Y765192D02*
X330850Y762000D01*
X356200Y765192D02*
X356200Y758808D01*
X330850Y762000D01*
X356200Y763300D01*
X356200Y760700D02*
X330850Y762000D01*
X356200Y764600D01*
X356200Y759400D02*
X330850Y762000D01*
D11*
X647700Y558800D03*
X647700Y583800D03*
X647700Y608800D03*
X647700Y633800D03*
D12*
X214697Y636453D02*
X214697Y628547D01*
X214697Y636453D02*
X226403Y636453D01*
X226403Y628547D01*
X214697Y628547D01*
X214697Y629872D02*
X226403Y629872D01*
X226403Y631197D02*
X214697Y631197D01*
X214697Y632522D02*
X226403Y632522D01*
X226403Y633847D02*
X214697Y633847D01*
X214697Y635172D02*
X226403Y635172D01*
X214697Y613553D02*
X214697Y605647D01*
X214697Y613553D02*
X226403Y613553D01*
X226403Y605647D01*
X214697Y605647D01*
X214697Y606972D02*
X226403Y606972D01*
X226403Y608297D02*
X214697Y608297D01*
X214697Y609622D02*
X226403Y609622D01*
X226403Y610947D02*
X214697Y610947D01*
X214697Y612272D02*
X226403Y612272D01*
X214697Y590653D02*
X214697Y582747D01*
X214697Y590653D02*
X226403Y590653D01*
X226403Y582747D01*
X214697Y582747D01*
X214697Y584072D02*
X226403Y584072D01*
X226403Y585397D02*
X214697Y585397D01*
X214697Y586722D02*
X226403Y586722D01*
X226403Y588047D02*
X214697Y588047D01*
X214697Y589372D02*
X226403Y589372D01*
D13*
X281882Y594382D02*
X281882Y624818D01*
X293018Y624818D01*
X293018Y594382D01*
X281882Y594382D01*
X281882Y596249D02*
X293018Y596249D01*
X293018Y598116D02*
X281882Y598116D01*
X281882Y599983D02*
X293018Y599983D01*
X293018Y601850D02*
X281882Y601850D01*
X281882Y603717D02*
X293018Y603717D01*
X293018Y605584D02*
X281882Y605584D01*
X281882Y607451D02*
X293018Y607451D01*
X293018Y609318D02*
X281882Y609318D01*
X281882Y611185D02*
X293018Y611185D01*
X293018Y613052D02*
X281882Y613052D01*
X281882Y614919D02*
X293018Y614919D01*
X293018Y616786D02*
X281882Y616786D01*
X281882Y618653D02*
X293018Y618653D01*
X293018Y620520D02*
X281882Y620520D01*
X281882Y622387D02*
X293018Y622387D01*
X293018Y624254D02*
X281882Y624254D01*
D14*
X38100Y236220D02*
X38100Y220980D01*
X63500Y220980D02*
X63500Y236220D01*
X88900Y236220D02*
X88900Y220980D01*
X114300Y220980D02*
X114300Y236220D01*
X139700Y236220D02*
X139700Y220980D01*
X165100Y220980D02*
X165100Y236220D01*
X190500Y236220D02*
X190500Y220980D01*
X215900Y220980D02*
X215900Y236220D01*
X241300Y236220D02*
X241300Y220980D01*
X266700Y220980D02*
X266700Y236220D01*
X292100Y236220D02*
X292100Y220980D01*
X317500Y220980D02*
X317500Y236220D01*
X342900Y236220D02*
X342900Y220980D01*
X368300Y220980D02*
X368300Y236220D01*
X393700Y236220D02*
X393700Y220980D01*
X38100Y373380D02*
X38100Y388620D01*
X63500Y388620D02*
X63500Y373380D01*
X88900Y373380D02*
X88900Y388620D01*
X114300Y388620D02*
X114300Y373380D01*
X139700Y373380D02*
X139700Y388620D01*
X165100Y388620D02*
X165100Y373380D01*
X190500Y373380D02*
X190500Y388620D01*
X215900Y388620D02*
X215900Y373380D01*
X241300Y373380D02*
X241300Y388620D01*
X266700Y388620D02*
X266700Y373380D01*
X292100Y373380D02*
X292100Y388620D01*
X317500Y388620D02*
X317500Y373380D01*
X342900Y373380D02*
X342900Y388620D01*
X368300Y388620D02*
X368300Y373380D01*
X393700Y373380D02*
X393700Y388620D01*
X525780Y254000D02*
X541020Y254000D01*
X541020Y279400D02*
X525780Y279400D01*
X525780Y304800D02*
X541020Y304800D01*
X541020Y330200D02*
X525780Y330200D01*
X337820Y508000D02*
X322580Y508000D01*
X322580Y533400D02*
X337820Y533400D01*
X337820Y558800D02*
X322580Y558800D01*
X322580Y584200D02*
X337820Y584200D01*
X337820Y609600D02*
X322580Y609600D01*
X322580Y635000D02*
X337820Y635000D01*
X337820Y660400D02*
X322580Y660400D01*
X322580Y685800D02*
X337820Y685800D01*
X474980Y685800D02*
X490220Y685800D01*
X490220Y660400D02*
X474980Y660400D01*
X474980Y635000D02*
X490220Y635000D01*
X490220Y609600D02*
X474980Y609600D01*
X474980Y584200D02*
X490220Y584200D01*
X490220Y558800D02*
X474980Y558800D01*
X474980Y533400D02*
X490220Y533400D01*
X490220Y508000D02*
X474980Y508000D01*
D15*
X279400Y705512D03*
X279400Y760630D03*
D16*
X173060Y692500D03*
D17*
X85560Y763500D03*
X85560Y633500D03*
D18*
X92405Y444500D03*
X110795Y444500D03*
D19*
X136300Y571500D03*
X117700Y578000D03*
X117700Y565000D03*
D20*
X173406Y551175D03*
X173406Y541025D03*
D21*
X198125Y558800D03*
X208275Y558800D03*
X109225Y546100D03*
X119375Y546100D03*
X144775Y520700D03*
X134625Y520700D03*
D22*
X176375Y591946D03*
X176375Y576454D03*
D23*
X122046Y520700D03*
X106554Y520700D03*
D24*
X46160Y568600D03*
X46160Y538600D03*
X46160Y523600D03*
D25*
X14160Y508600D03*
X14160Y583600D03*
X37160Y583600D03*
X37160Y508600D03*
D26*
X177800Y498875D03*
X187300Y520875D03*
X168300Y520875D03*
D27*
X27850Y469900D03*
X48350Y469900D03*
D28*
X67005Y469900D02*
X92405Y444500D01*
X67005Y469900D02*
X48350Y469900D01*
X322580Y635000D02*
X330200Y635000D01*
X322580Y635000D02*
X322580Y609600D01*
X330200Y609600D01*
X317500Y257052D02*
X317500Y228600D01*
X317500Y257052D02*
X205486Y369066D01*
X317500Y228600D02*
X419100Y330200D01*
X533400Y330200D01*
X255294Y516619D02*
X255294Y608306D01*
X280318Y590606D02*
X294582Y590606D01*
X254000Y609600D02*
X220550Y609600D01*
X254000Y609600D02*
X261324Y609600D01*
X313576Y609600D02*
X322580Y609600D01*
X280318Y590606D02*
X261324Y609600D01*
X294582Y590606D02*
X313576Y609600D01*
X118161Y451866D02*
X110795Y444500D01*
X118161Y451866D02*
X190541Y451866D01*
X255294Y516619D01*
X255294Y608306D02*
X254000Y609600D01*
X205486Y436921D02*
X205486Y369066D01*
X205486Y436921D02*
X190541Y451866D01*
D29*
X647700Y558800D02*
X647700Y559308D01*
D30*
X647700Y558800D02*
X482600Y558800D01*
D29*
X647700Y608076D02*
X647700Y608800D01*
D30*
X547636Y608800D01*
X534212Y595376D02*
X493776Y595376D01*
X482600Y584200D01*
X534212Y595376D02*
X547636Y608800D01*
D29*
X647700Y633800D02*
X647700Y633984D01*
D30*
X646500Y635000D02*
X482600Y635000D01*
X646500Y635000D02*
X647700Y633800D01*
D29*
X292100Y474750D02*
X292100Y381000D01*
X330200Y529629D02*
X330200Y533400D01*
X312674Y495324D02*
X292100Y474750D01*
X312674Y512103D02*
X330200Y529629D01*
X312674Y512103D02*
X312674Y495324D01*
X317500Y473671D02*
X317500Y381000D01*
X373126Y529297D02*
X373126Y537503D01*
X351829Y558800D01*
X330200Y558800D01*
X373126Y529297D02*
X317500Y473671D01*
X330200Y584200D02*
X351829Y584200D01*
X376174Y559855D02*
X376174Y528034D01*
X376174Y559855D02*
X351829Y584200D01*
X342900Y494760D02*
X342900Y381000D01*
X342900Y494760D02*
X376174Y528034D01*
D31*
X198125Y558800D02*
X180350Y541025D01*
X173406Y541025D01*
X173270Y540890D01*
X171117Y540890D01*
X187300Y527131D02*
X187300Y520875D01*
X187300Y527131D02*
X173406Y541025D01*
X177864Y491817D02*
X175483Y489436D01*
X177864Y491817D02*
X177864Y497064D01*
X175483Y489436D02*
X158117Y489436D01*
X144775Y502778D01*
X144775Y520700D01*
X152400Y576454D02*
X176375Y576454D01*
X174342Y576454D01*
X152400Y576454D02*
X152400Y546100D01*
D32*
X117700Y577579D02*
X117700Y578000D01*
X117700Y577579D02*
X126656Y568623D01*
X126656Y553381D01*
X119375Y546100D01*
D31*
X152400Y546100D01*
X134625Y520700D02*
X122046Y520700D01*
X119375Y523371D01*
X119375Y546100D01*
D30*
X406400Y581431D02*
X479831Y508000D01*
X482600Y508000D01*
X279400Y705512D02*
X279400Y721741D01*
X251206Y721741D01*
X279400Y705512D02*
X406400Y705512D01*
X406400Y581431D01*
X176375Y591946D02*
X137286Y591946D01*
X176375Y591946D02*
X176375Y595475D01*
X177800Y596900D01*
X190500Y596900D01*
X203200Y596900D01*
X218050Y584200D02*
X220550Y586700D01*
X218050Y584200D02*
X203200Y584200D01*
X190500Y661035D02*
X251206Y721741D01*
X190500Y661035D02*
X190500Y596900D01*
X203200Y596900D02*
X203200Y584200D01*
X137286Y572486D02*
X136300Y571500D01*
X137286Y572486D02*
X137286Y591946D01*
X123295Y606896D02*
X127164Y610765D01*
X127164Y646604D01*
X173060Y692500D01*
X123295Y606896D02*
X120799Y606896D01*
X94742Y580839D02*
X94742Y571500D01*
X94742Y580839D02*
X120799Y606896D01*
D31*
X91842Y568600D02*
X46160Y568600D01*
X91842Y568600D02*
X94742Y571500D01*
D30*
X101242Y565000D02*
X117700Y565000D01*
X101242Y565000D02*
X94742Y571500D01*
D31*
X91842Y549000D02*
X94742Y546100D01*
X91842Y549000D02*
X91842Y568600D01*
X94742Y546100D02*
X109225Y546100D01*
X109225Y523371D02*
X106554Y520700D01*
X109225Y523371D02*
X109225Y546100D01*
X127307Y469900D02*
X177800Y469900D01*
X127307Y469900D02*
X58607Y538600D01*
X204865Y555390D02*
X208275Y558800D01*
X204865Y555390D02*
X204865Y496965D01*
X177800Y469900D01*
X58607Y538600D02*
X46160Y538600D01*
M02*
