M48
;GenerationSoftware,Autodesk,EAGLE,9.7.0*%
;CreationDate,2023-02-21T20:15:33Z*%
FMAT,2
ICI,OFF
METRIC,TZ,000.000
T5C0.840
T4C0.900
T3C1.016
T2C1.800
T1C3.000
%
G90
M71
T1
X2540Y16510
X69850Y16510
X2540Y77470
X69850Y77470
T2
X5306Y72350
X5306Y67350
T3
X29210Y38100
X21590Y38100
X48260Y66040
X48260Y63500
X48260Y60960
X48260Y58420
X3810Y22860
X6350Y22860
X8890Y22860
X11430Y22860
X13970Y22860
X16510Y22860
X19050Y22860
X21590Y22860
X24130Y22860
X26670Y22860
X29210Y22860
X31750Y22860
X34290Y22860
X36830Y22860
X39370Y22860
X39370Y38100
X36830Y38100
X34290Y38100
X31750Y38100
X48260Y55880
X26670Y38100
X24130Y38100
X48260Y68580
X19050Y38100
X16510Y38100
X13970Y38100
X11430Y38100
X8890Y38100
X6350Y38100
X3810Y38100
X53340Y25400
X53340Y27940
X53340Y30480
X53340Y33020
X35560Y68580
X35560Y66040
X35560Y63500
X35560Y60960
X35560Y58420
X35560Y55880
X35560Y53340
X35560Y50800
X48260Y50800
X48260Y53340
T4
X2566Y56110
X2566Y53110
T5
X64770Y63380
X64770Y60880
X64770Y58380
X64770Y55880
M30