G04 EAGLE Gerber RS-274X export*
G75*
%MOMM*%
%FSLAX34Y34*%
%LPD*%
%INSilkscreen Top*%
%IPPOS*%
%AMOC8*
5,1,8,0,0,1.08239X$1,22.5*%
G01*
G04 Define Apertures*
%ADD10C,0.152400*%
%ADD11C,0.127000*%
%ADD12C,0.200000*%
%ADD13C,0.300000*%
%ADD14C,0.120000*%
G36*
X542478Y191770D02*
X535461Y191770D01*
X535461Y209056D01*
X541742Y209056D01*
X542479Y209039D01*
X543168Y208990D01*
X543810Y208908D01*
X544404Y208793D01*
X544951Y208646D01*
X545450Y208466D01*
X545902Y208253D01*
X546306Y208007D01*
X546663Y207728D01*
X546972Y207417D01*
X547233Y207073D01*
X547447Y206696D01*
X547613Y206286D01*
X547732Y205843D01*
X547803Y205368D01*
X547821Y205118D01*
X547827Y204860D01*
X547814Y204484D01*
X547774Y204124D01*
X547706Y203779D01*
X547613Y203449D01*
X547492Y203135D01*
X547344Y202836D01*
X547170Y202552D01*
X546968Y202284D01*
X546743Y202034D01*
X546603Y201906D01*
X546495Y201805D01*
X546224Y201598D01*
X545932Y201413D01*
X545617Y201249D01*
X545280Y201106D01*
X544921Y200985D01*
X544539Y200885D01*
X545040Y200810D01*
X545511Y200707D01*
X545952Y200576D01*
X546364Y200417D01*
X546747Y200231D01*
X547100Y200017D01*
X547423Y199775D01*
X547559Y199650D01*
X547717Y199505D01*
X547978Y199212D01*
X548205Y198900D01*
X548397Y198570D01*
X548554Y198221D01*
X548676Y197854D01*
X548763Y197468D01*
X548816Y197064D01*
X548833Y196640D01*
X548827Y196356D01*
X548807Y196080D01*
X548774Y195812D01*
X548728Y195551D01*
X548669Y195299D01*
X548597Y195055D01*
X548413Y194590D01*
X548177Y194158D01*
X547888Y193757D01*
X547546Y193389D01*
X547153Y193052D01*
X546712Y192752D01*
X546230Y192491D01*
X545707Y192271D01*
X545144Y192091D01*
X544539Y191950D01*
X543893Y191850D01*
X543206Y191790D01*
X542478Y191770D01*
G37*
%LPC*%
G36*
X542356Y193647D02*
X542874Y193659D01*
X543356Y193697D01*
X543802Y193759D01*
X544211Y193846D01*
X544584Y193959D01*
X544920Y194096D01*
X545220Y194258D01*
X545484Y194444D01*
X545714Y194656D01*
X545913Y194892D01*
X546082Y195153D01*
X546220Y195438D01*
X546327Y195748D01*
X546404Y196082D01*
X546450Y196441D01*
X546465Y196824D01*
X546449Y197194D01*
X546398Y197540D01*
X546315Y197863D01*
X546197Y198161D01*
X546046Y198435D01*
X545862Y198686D01*
X545644Y198913D01*
X545392Y199116D01*
X545107Y199294D01*
X544788Y199450D01*
X544436Y199581D01*
X544050Y199688D01*
X543631Y199772D01*
X543178Y199831D01*
X542692Y199867D01*
X542172Y199879D01*
X537804Y199879D01*
X537804Y193647D01*
X542356Y193647D01*
G37*
G36*
X541742Y201707D02*
X542197Y201718D01*
X542621Y201751D01*
X543016Y201806D01*
X543382Y201883D01*
X543717Y201983D01*
X544023Y202104D01*
X544299Y202247D01*
X544546Y202413D01*
X544763Y202601D01*
X544951Y202812D01*
X545110Y203048D01*
X545240Y203307D01*
X545342Y203589D01*
X545414Y203895D01*
X545457Y204225D01*
X545472Y204578D01*
X545457Y204915D01*
X545412Y205227D01*
X545337Y205515D01*
X545233Y205777D01*
X545098Y206015D01*
X544934Y206227D01*
X544739Y206415D01*
X544515Y206578D01*
X544262Y206718D01*
X543983Y206841D01*
X543676Y206944D01*
X543343Y207028D01*
X542983Y207094D01*
X542596Y207141D01*
X542183Y207169D01*
X541742Y207179D01*
X537804Y207179D01*
X537804Y201707D01*
X541742Y201707D01*
G37*
%LPD*%
G36*
X615072Y191770D02*
X608055Y191770D01*
X608055Y209056D01*
X614336Y209056D01*
X615073Y209039D01*
X615762Y208990D01*
X616404Y208908D01*
X616998Y208793D01*
X617545Y208646D01*
X618044Y208466D01*
X618496Y208253D01*
X618900Y208007D01*
X619256Y207728D01*
X619565Y207417D01*
X619827Y207073D01*
X620041Y206696D01*
X620207Y206286D01*
X620326Y205843D01*
X620397Y205368D01*
X620415Y205118D01*
X620421Y204860D01*
X620408Y204484D01*
X620367Y204124D01*
X620300Y203779D01*
X620206Y203449D01*
X620086Y203135D01*
X619938Y202836D01*
X619764Y202552D01*
X619562Y202284D01*
X619336Y202034D01*
X619197Y201906D01*
X619088Y201805D01*
X618818Y201598D01*
X618526Y201413D01*
X618211Y201249D01*
X617874Y201106D01*
X617515Y200985D01*
X617133Y200885D01*
X617634Y200810D01*
X618105Y200707D01*
X618546Y200576D01*
X618958Y200417D01*
X619340Y200231D01*
X619693Y200017D01*
X620017Y199775D01*
X620152Y199650D01*
X620311Y199505D01*
X620572Y199212D01*
X620799Y198900D01*
X620991Y198570D01*
X621148Y198221D01*
X621270Y197854D01*
X621357Y197468D01*
X621410Y197064D01*
X621427Y196640D01*
X621420Y196356D01*
X621401Y196080D01*
X621368Y195812D01*
X621322Y195551D01*
X621263Y195299D01*
X621191Y195055D01*
X621007Y194590D01*
X620770Y194158D01*
X620482Y193757D01*
X620140Y193389D01*
X619746Y193052D01*
X619306Y192752D01*
X618824Y192491D01*
X618301Y192271D01*
X617737Y192091D01*
X617133Y191950D01*
X616487Y191850D01*
X615800Y191790D01*
X615072Y191770D01*
G37*
%LPC*%
G36*
X614949Y193647D02*
X615468Y193659D01*
X615950Y193697D01*
X616396Y193759D01*
X616805Y193846D01*
X617178Y193959D01*
X617514Y194096D01*
X617814Y194258D01*
X618078Y194444D01*
X618308Y194656D01*
X618507Y194892D01*
X618676Y195153D01*
X618814Y195438D01*
X618921Y195748D01*
X618998Y196082D01*
X619044Y196441D01*
X619059Y196824D01*
X619042Y197194D01*
X618992Y197540D01*
X618908Y197863D01*
X618791Y198161D01*
X618640Y198435D01*
X618455Y198686D01*
X618237Y198913D01*
X617986Y199116D01*
X617701Y199294D01*
X617382Y199450D01*
X617030Y199581D01*
X616644Y199688D01*
X616225Y199772D01*
X615772Y199831D01*
X615285Y199867D01*
X614765Y199879D01*
X610398Y199879D01*
X610398Y193647D01*
X614949Y193647D01*
G37*
G36*
X614336Y201707D02*
X614790Y201718D01*
X615215Y201751D01*
X615610Y201806D01*
X615975Y201883D01*
X616311Y201983D01*
X616617Y202104D01*
X616893Y202247D01*
X617139Y202413D01*
X617356Y202601D01*
X617545Y202812D01*
X617704Y203048D01*
X617834Y203307D01*
X617935Y203589D01*
X618008Y203895D01*
X618051Y204225D01*
X618066Y204578D01*
X618051Y204915D01*
X618006Y205227D01*
X617931Y205515D01*
X617826Y205777D01*
X617692Y206015D01*
X617527Y206227D01*
X617333Y206415D01*
X617109Y206578D01*
X616856Y206718D01*
X616576Y206841D01*
X616270Y206944D01*
X615937Y207028D01*
X615577Y207094D01*
X615190Y207141D01*
X614777Y207169D01*
X614336Y207179D01*
X610398Y207179D01*
X610398Y201707D01*
X614336Y201707D01*
G37*
%LPD*%
G36*
X588660Y191525D02*
X588019Y191545D01*
X587416Y191604D01*
X586849Y191703D01*
X586320Y191842D01*
X585828Y192021D01*
X585373Y192239D01*
X584955Y192497D01*
X584575Y192794D01*
X584235Y193127D01*
X583941Y193491D01*
X583693Y193886D01*
X583489Y194311D01*
X583331Y194767D01*
X583218Y195255D01*
X583150Y195773D01*
X583127Y196321D01*
X583143Y196742D01*
X583193Y197150D01*
X583275Y197546D01*
X583390Y197929D01*
X583538Y198301D01*
X583719Y198660D01*
X583932Y199007D01*
X584179Y199342D01*
X584458Y199665D01*
X584771Y199976D01*
X585116Y200275D01*
X585494Y200561D01*
X585905Y200835D01*
X586349Y201097D01*
X586825Y201347D01*
X587335Y201584D01*
X587139Y201982D01*
X586958Y202416D01*
X586790Y202884D01*
X586636Y203388D01*
X586507Y203898D01*
X586415Y204385D01*
X586360Y204849D01*
X586341Y205289D01*
X586359Y205737D01*
X586411Y206158D01*
X586499Y206553D01*
X586622Y206923D01*
X586780Y207266D01*
X586973Y207584D01*
X587201Y207876D01*
X587464Y208142D01*
X587759Y208379D01*
X588084Y208585D01*
X588438Y208758D01*
X588821Y208901D01*
X589234Y209012D01*
X589676Y209091D01*
X590147Y209138D01*
X590647Y209154D01*
X591099Y209139D01*
X591529Y209096D01*
X591936Y209023D01*
X592320Y208921D01*
X592683Y208790D01*
X593022Y208629D01*
X593340Y208440D01*
X593635Y208221D01*
X593901Y207978D01*
X594131Y207712D01*
X594326Y207426D01*
X594486Y207117D01*
X594610Y206788D01*
X594699Y206436D01*
X594752Y206064D01*
X594769Y205670D01*
X594752Y205313D01*
X594699Y204966D01*
X594612Y204629D01*
X594489Y204302D01*
X594331Y203985D01*
X594138Y203678D01*
X593910Y203381D01*
X593647Y203093D01*
X593636Y203084D01*
X593341Y202812D01*
X592983Y202531D01*
X592573Y202250D01*
X592112Y201971D01*
X591599Y201692D01*
X591035Y201414D01*
X590419Y201137D01*
X589752Y200861D01*
X590106Y200232D01*
X590487Y199602D01*
X590896Y198971D01*
X591331Y198340D01*
X591794Y197707D01*
X592284Y197074D01*
X592802Y196441D01*
X593346Y195806D01*
X593682Y196330D01*
X593997Y196884D01*
X594291Y197468D01*
X594564Y198082D01*
X594816Y198726D01*
X594845Y198812D01*
X595046Y199399D01*
X595256Y200103D01*
X595444Y200836D01*
X597223Y200309D01*
X597013Y199550D01*
X596771Y198803D01*
X596495Y198068D01*
X596186Y197343D01*
X595845Y196629D01*
X595595Y196161D01*
X595470Y195927D01*
X595063Y195235D01*
X594622Y194555D01*
X594920Y194273D01*
X595223Y194029D01*
X595533Y193822D01*
X595849Y193653D01*
X596171Y193522D01*
X596357Y193468D01*
X596499Y193428D01*
X596834Y193371D01*
X597174Y193353D01*
X597590Y193365D01*
X597968Y193402D01*
X598308Y193463D01*
X598609Y193549D01*
X598609Y191893D01*
X598244Y191775D01*
X597833Y191690D01*
X597379Y191640D01*
X596880Y191623D01*
X596611Y191629D01*
X596347Y191647D01*
X595837Y191720D01*
X595348Y191842D01*
X594880Y192012D01*
X594434Y192231D01*
X594009Y192499D01*
X593606Y192816D01*
X593224Y193181D01*
X592748Y192805D01*
X592239Y192475D01*
X591699Y192192D01*
X591126Y191954D01*
X590530Y191766D01*
X589920Y191632D01*
X589611Y191585D01*
X589297Y191552D01*
X588980Y191531D01*
X588660Y191525D01*
G37*
%LPC*%
G36*
X588734Y193132D02*
X589169Y193153D01*
X589605Y193216D01*
X590040Y193322D01*
X590476Y193469D01*
X590897Y193656D01*
X591291Y193879D01*
X591658Y194137D01*
X591997Y194432D01*
X591404Y195148D01*
X590841Y195859D01*
X590308Y196566D01*
X589804Y197269D01*
X589330Y197968D01*
X588885Y198662D01*
X588469Y199353D01*
X588083Y200039D01*
X587733Y199880D01*
X587405Y199713D01*
X587099Y199535D01*
X586817Y199348D01*
X586557Y199151D01*
X586319Y198944D01*
X586104Y198728D01*
X585912Y198502D01*
X585742Y198266D01*
X585595Y198021D01*
X585471Y197766D01*
X585369Y197501D01*
X585290Y197227D01*
X585233Y196943D01*
X585199Y196649D01*
X585188Y196346D01*
X585203Y195985D01*
X585248Y195642D01*
X585322Y195320D01*
X585426Y195016D01*
X585559Y194732D01*
X585723Y194468D01*
X585916Y194223D01*
X586139Y193997D01*
X586387Y193794D01*
X586658Y193618D01*
X586949Y193470D01*
X587263Y193348D01*
X587598Y193253D01*
X587955Y193186D01*
X588333Y193145D01*
X588734Y193132D01*
G37*
G36*
X589016Y202296D02*
X589766Y202610D01*
X590410Y202903D01*
X590947Y203175D01*
X591377Y203425D01*
X591732Y203668D01*
X592040Y203922D01*
X592302Y204184D01*
X592518Y204455D01*
X592687Y204738D01*
X592808Y205035D01*
X592881Y205345D01*
X592905Y205670D01*
X592895Y205885D01*
X592866Y206091D01*
X592818Y206286D01*
X592751Y206472D01*
X592665Y206647D01*
X592560Y206812D01*
X592435Y206967D01*
X592291Y207111D01*
X592131Y207242D01*
X591957Y207355D01*
X591769Y207451D01*
X591567Y207530D01*
X591352Y207591D01*
X591123Y207635D01*
X590880Y207661D01*
X590623Y207669D01*
X590337Y207660D01*
X590069Y207630D01*
X589819Y207581D01*
X589586Y207511D01*
X589371Y207423D01*
X589174Y207314D01*
X588994Y207186D01*
X588832Y207038D01*
X588688Y206872D01*
X588563Y206691D01*
X588458Y206496D01*
X588372Y206285D01*
X588305Y206059D01*
X588257Y205817D01*
X588228Y205561D01*
X588218Y205289D01*
X588231Y204937D01*
X588268Y204578D01*
X588330Y204213D01*
X588418Y203842D01*
X588530Y203465D01*
X588667Y203081D01*
X588829Y202692D01*
X589016Y202296D01*
G37*
%LPD*%
G36*
X545448Y164855D02*
X544963Y164871D01*
X544510Y164921D01*
X544088Y165003D01*
X543696Y165118D01*
X543336Y165267D01*
X543007Y165448D01*
X542709Y165662D01*
X542442Y165910D01*
X542206Y166186D01*
X542002Y166486D01*
X541829Y166811D01*
X541688Y167161D01*
X541578Y167535D01*
X541499Y167934D01*
X541452Y168357D01*
X541436Y168805D01*
X541457Y169305D01*
X541521Y169776D01*
X541627Y170216D01*
X541775Y170627D01*
X541966Y171007D01*
X542199Y171358D01*
X542474Y171679D01*
X542792Y171970D01*
X543157Y172230D01*
X543573Y172458D01*
X544042Y172653D01*
X544563Y172817D01*
X545136Y172948D01*
X545760Y173047D01*
X546437Y173113D01*
X547165Y173148D01*
X550146Y173197D01*
X550146Y173921D01*
X550136Y174311D01*
X550103Y174673D01*
X550050Y175006D01*
X549975Y175310D01*
X549878Y175586D01*
X549760Y175832D01*
X549620Y176050D01*
X549459Y176239D01*
X549275Y176403D01*
X549067Y176545D01*
X548834Y176666D01*
X548576Y176764D01*
X548294Y176840D01*
X547987Y176895D01*
X547656Y176928D01*
X547300Y176939D01*
X546942Y176931D01*
X546609Y176907D01*
X546301Y176868D01*
X546018Y176813D01*
X545761Y176742D01*
X545529Y176656D01*
X545322Y176554D01*
X545141Y176436D01*
X544981Y176301D01*
X544837Y176147D01*
X544711Y175974D01*
X544601Y175782D01*
X544508Y175572D01*
X544433Y175343D01*
X544374Y175095D01*
X544331Y174829D01*
X542025Y175037D01*
X542112Y175471D01*
X542232Y175877D01*
X542384Y176255D01*
X542569Y176604D01*
X542787Y176926D01*
X543038Y177220D01*
X543322Y177486D01*
X543638Y177724D01*
X543987Y177934D01*
X544369Y178116D01*
X544784Y178270D01*
X545232Y178396D01*
X545712Y178493D01*
X546225Y178563D01*
X546771Y178605D01*
X547349Y178619D01*
X547956Y178601D01*
X548523Y178548D01*
X549052Y178458D01*
X549542Y178333D01*
X549994Y178171D01*
X550406Y177974D01*
X550780Y177741D01*
X551116Y177472D01*
X551412Y177170D01*
X551668Y176835D01*
X551886Y176468D01*
X552063Y176069D01*
X552201Y175638D01*
X552300Y175176D01*
X552359Y174681D01*
X552379Y174154D01*
X552379Y168437D01*
X552395Y167976D01*
X552444Y167577D01*
X552524Y167237D01*
X552637Y166959D01*
X552709Y166842D01*
X552795Y166741D01*
X552896Y166656D01*
X553011Y166586D01*
X553141Y166532D01*
X553285Y166493D01*
X553445Y166470D01*
X553618Y166462D01*
X553959Y166483D01*
X554342Y166548D01*
X554342Y165174D01*
X553923Y165088D01*
X553499Y165026D01*
X553070Y164990D01*
X552637Y164977D01*
X552341Y164987D01*
X552065Y165018D01*
X551811Y165068D01*
X551577Y165138D01*
X551364Y165229D01*
X551173Y165340D01*
X551002Y165470D01*
X550852Y165621D01*
X550720Y165794D01*
X550603Y165989D01*
X550501Y166207D01*
X550415Y166448D01*
X550343Y166712D01*
X550287Y166998D01*
X550246Y167307D01*
X550220Y167639D01*
X550146Y167639D01*
X549930Y167273D01*
X549706Y166934D01*
X549473Y166624D01*
X549231Y166341D01*
X548980Y166085D01*
X548721Y165858D01*
X548454Y165658D01*
X548177Y165486D01*
X547889Y165338D01*
X547586Y165210D01*
X547267Y165101D01*
X546934Y165013D01*
X546585Y164944D01*
X546221Y164894D01*
X545842Y164865D01*
X545448Y164855D01*
G37*
%LPC*%
G36*
X545951Y166511D02*
X546250Y166519D01*
X546541Y166545D01*
X546824Y166588D01*
X547098Y166649D01*
X547363Y166726D01*
X547621Y166821D01*
X547870Y166934D01*
X548110Y167063D01*
X548340Y167207D01*
X548557Y167365D01*
X548762Y167535D01*
X548955Y167718D01*
X549135Y167914D01*
X549303Y168122D01*
X549458Y168344D01*
X549600Y168578D01*
X549728Y168820D01*
X549839Y169063D01*
X549933Y169308D01*
X550010Y169555D01*
X550070Y169803D01*
X550112Y170054D01*
X550138Y170306D01*
X550146Y170559D01*
X550146Y171651D01*
X547730Y171602D01*
X546998Y171573D01*
X546360Y171510D01*
X545817Y171413D01*
X545581Y171352D01*
X545368Y171283D01*
X544990Y171116D01*
X544658Y170909D01*
X544373Y170662D01*
X544135Y170375D01*
X544034Y170216D01*
X543947Y170045D01*
X543873Y169862D01*
X543813Y169667D01*
X543766Y169460D01*
X543733Y169241D01*
X543712Y169011D01*
X543706Y168768D01*
X543715Y168506D01*
X543742Y168259D01*
X543788Y168027D01*
X543851Y167811D01*
X543933Y167610D01*
X544033Y167425D01*
X544152Y167255D01*
X544288Y167100D01*
X544442Y166962D01*
X544611Y166842D01*
X544795Y166741D01*
X544995Y166658D01*
X545211Y166594D01*
X545442Y166548D01*
X545689Y166520D01*
X545951Y166511D01*
G37*
%LPD*%
G36*
X555229Y191525D02*
X554745Y191541D01*
X554291Y191591D01*
X553869Y191673D01*
X553478Y191788D01*
X553118Y191937D01*
X552788Y192118D01*
X552490Y192332D01*
X552223Y192580D01*
X551988Y192856D01*
X551783Y193156D01*
X551610Y193481D01*
X551469Y193831D01*
X551359Y194205D01*
X551280Y194604D01*
X551233Y195027D01*
X551217Y195475D01*
X551239Y195975D01*
X551302Y196446D01*
X551408Y196886D01*
X551556Y197297D01*
X551747Y197677D01*
X551980Y198028D01*
X552255Y198349D01*
X552573Y198640D01*
X552938Y198900D01*
X553355Y199128D01*
X553823Y199323D01*
X554344Y199487D01*
X554917Y199618D01*
X555541Y199717D01*
X556218Y199783D01*
X556947Y199818D01*
X559928Y199867D01*
X559928Y200591D01*
X559917Y200981D01*
X559885Y201343D01*
X559831Y201676D01*
X559756Y201980D01*
X559659Y202256D01*
X559541Y202502D01*
X559402Y202720D01*
X559241Y202909D01*
X559057Y203073D01*
X558848Y203215D01*
X558615Y203336D01*
X558357Y203434D01*
X558075Y203510D01*
X557768Y203565D01*
X557437Y203598D01*
X557081Y203609D01*
X556723Y203601D01*
X556390Y203577D01*
X556082Y203538D01*
X555799Y203483D01*
X555542Y203412D01*
X555310Y203326D01*
X555104Y203224D01*
X554922Y203106D01*
X554762Y202971D01*
X554619Y202817D01*
X554492Y202644D01*
X554382Y202452D01*
X554290Y202242D01*
X554214Y202013D01*
X554155Y201765D01*
X554113Y201499D01*
X551806Y201707D01*
X551893Y202141D01*
X552013Y202547D01*
X552165Y202925D01*
X552351Y203274D01*
X552569Y203596D01*
X552819Y203890D01*
X553103Y204156D01*
X553419Y204394D01*
X553769Y204604D01*
X554151Y204786D01*
X554565Y204940D01*
X555013Y205066D01*
X555493Y205163D01*
X556006Y205233D01*
X556552Y205275D01*
X557131Y205289D01*
X557737Y205271D01*
X558304Y205218D01*
X558833Y205128D01*
X559323Y205003D01*
X559775Y204841D01*
X560188Y204644D01*
X560562Y204411D01*
X560897Y204142D01*
X561193Y203840D01*
X561450Y203505D01*
X561667Y203138D01*
X561845Y202739D01*
X561983Y202308D01*
X562081Y201846D01*
X562141Y201351D01*
X562160Y200824D01*
X562160Y195107D01*
X562177Y194646D01*
X562225Y194247D01*
X562305Y193907D01*
X562418Y193629D01*
X562490Y193512D01*
X562576Y193411D01*
X562677Y193326D01*
X562792Y193256D01*
X562922Y193202D01*
X563067Y193163D01*
X563226Y193140D01*
X563400Y193132D01*
X563740Y193153D01*
X564123Y193218D01*
X564123Y191844D01*
X563704Y191758D01*
X563280Y191696D01*
X562851Y191660D01*
X562418Y191647D01*
X562122Y191657D01*
X561846Y191688D01*
X561592Y191738D01*
X561358Y191808D01*
X561146Y191899D01*
X560954Y192010D01*
X560783Y192140D01*
X560633Y192291D01*
X560501Y192464D01*
X560384Y192659D01*
X560283Y192877D01*
X560196Y193118D01*
X560125Y193382D01*
X560068Y193668D01*
X560027Y193977D01*
X560001Y194309D01*
X559928Y194309D01*
X559712Y193943D01*
X559487Y193604D01*
X559254Y193294D01*
X559012Y193011D01*
X558762Y192755D01*
X558503Y192528D01*
X558235Y192328D01*
X557959Y192156D01*
X557670Y192008D01*
X557367Y191880D01*
X557049Y191771D01*
X556715Y191683D01*
X556366Y191614D01*
X556002Y191564D01*
X555623Y191535D01*
X555229Y191525D01*
G37*
%LPC*%
G36*
X555732Y193181D02*
X556031Y193189D01*
X556322Y193215D01*
X556605Y193258D01*
X556879Y193319D01*
X557145Y193396D01*
X557402Y193491D01*
X557651Y193604D01*
X557891Y193733D01*
X558121Y193877D01*
X558339Y194035D01*
X558544Y194205D01*
X558736Y194388D01*
X558916Y194584D01*
X559084Y194792D01*
X559239Y195014D01*
X559382Y195248D01*
X559510Y195490D01*
X559621Y195733D01*
X559714Y195978D01*
X559791Y196225D01*
X559851Y196473D01*
X559894Y196724D01*
X559919Y196976D01*
X559928Y197229D01*
X559928Y198321D01*
X557511Y198272D01*
X556779Y198243D01*
X556141Y198180D01*
X555598Y198083D01*
X555362Y198022D01*
X555149Y197953D01*
X554771Y197786D01*
X554439Y197579D01*
X554154Y197332D01*
X553916Y197045D01*
X553816Y196886D01*
X553728Y196715D01*
X553655Y196532D01*
X553594Y196337D01*
X553547Y196130D01*
X553514Y195911D01*
X553494Y195681D01*
X553487Y195438D01*
X553496Y195176D01*
X553523Y194929D01*
X553569Y194697D01*
X553633Y194481D01*
X553715Y194280D01*
X553815Y194095D01*
X553933Y193925D01*
X554070Y193770D01*
X554223Y193632D01*
X554392Y193512D01*
X554577Y193411D01*
X554777Y193328D01*
X554992Y193264D01*
X555223Y193218D01*
X555470Y193190D01*
X555732Y193181D01*
G37*
%LPD*%
G36*
X598510Y164855D02*
X598026Y164871D01*
X597572Y164921D01*
X597150Y165003D01*
X596759Y165118D01*
X596399Y165267D01*
X596070Y165448D01*
X595772Y165662D01*
X595505Y165910D01*
X595269Y166186D01*
X595064Y166486D01*
X594892Y166811D01*
X594750Y167161D01*
X594640Y167535D01*
X594561Y167934D01*
X594514Y168357D01*
X594499Y168805D01*
X594520Y169305D01*
X594583Y169776D01*
X594689Y170216D01*
X594837Y170627D01*
X595028Y171007D01*
X595261Y171358D01*
X595536Y171679D01*
X595854Y171970D01*
X596219Y172230D01*
X596636Y172458D01*
X597105Y172653D01*
X597625Y172817D01*
X598198Y172948D01*
X598823Y173047D01*
X599499Y173113D01*
X600228Y173148D01*
X603209Y173197D01*
X603209Y173921D01*
X603198Y174311D01*
X603166Y174673D01*
X603112Y175006D01*
X603037Y175310D01*
X602941Y175586D01*
X602822Y175832D01*
X602683Y176050D01*
X602522Y176239D01*
X602338Y176403D01*
X602129Y176545D01*
X601896Y176666D01*
X601639Y176764D01*
X601356Y176840D01*
X601050Y176895D01*
X600718Y176928D01*
X600363Y176939D01*
X600004Y176931D01*
X599671Y176907D01*
X599363Y176868D01*
X599081Y176813D01*
X598823Y176742D01*
X598592Y176656D01*
X598385Y176554D01*
X598204Y176436D01*
X598043Y176301D01*
X597900Y176147D01*
X597773Y175974D01*
X597664Y175782D01*
X597571Y175572D01*
X597495Y175343D01*
X597436Y175095D01*
X597394Y174829D01*
X595087Y175037D01*
X595174Y175471D01*
X595294Y175877D01*
X595447Y176255D01*
X595632Y176604D01*
X595850Y176926D01*
X596101Y177220D01*
X596384Y177486D01*
X596701Y177724D01*
X597050Y177934D01*
X597432Y178116D01*
X597847Y178270D01*
X598294Y178396D01*
X598774Y178493D01*
X599287Y178563D01*
X599833Y178605D01*
X600412Y178619D01*
X601018Y178601D01*
X601586Y178548D01*
X602115Y178458D01*
X602605Y178333D01*
X603056Y178171D01*
X603469Y177974D01*
X603843Y177741D01*
X604178Y177472D01*
X604474Y177170D01*
X604731Y176835D01*
X604948Y176468D01*
X605126Y176069D01*
X605264Y175638D01*
X605363Y175176D01*
X605422Y174681D01*
X605442Y174154D01*
X605442Y168437D01*
X605458Y167976D01*
X605506Y167577D01*
X605587Y167237D01*
X605699Y166959D01*
X605771Y166842D01*
X605857Y166741D01*
X605958Y166656D01*
X606073Y166586D01*
X606203Y166532D01*
X606348Y166493D01*
X606507Y166470D01*
X606681Y166462D01*
X607021Y166483D01*
X607405Y166548D01*
X607405Y165174D01*
X606985Y165088D01*
X606561Y165026D01*
X606133Y164990D01*
X605699Y164977D01*
X605403Y164987D01*
X605128Y165018D01*
X604873Y165068D01*
X604640Y165138D01*
X604427Y165229D01*
X604235Y165340D01*
X604064Y165470D01*
X603914Y165621D01*
X603782Y165794D01*
X603666Y165989D01*
X603564Y166207D01*
X603477Y166448D01*
X603406Y166712D01*
X603350Y166998D01*
X603308Y167307D01*
X603283Y167639D01*
X603209Y167639D01*
X602993Y167273D01*
X602768Y166934D01*
X602535Y166624D01*
X602293Y166341D01*
X602043Y166085D01*
X601784Y165858D01*
X601516Y165658D01*
X601240Y165486D01*
X600952Y165338D01*
X600648Y165210D01*
X600330Y165101D01*
X599996Y165013D01*
X599647Y164944D01*
X599284Y164894D01*
X598904Y164865D01*
X598510Y164855D01*
G37*
%LPC*%
G36*
X599013Y166511D02*
X599313Y166519D01*
X599604Y166545D01*
X599886Y166588D01*
X600160Y166649D01*
X600426Y166726D01*
X600683Y166821D01*
X600932Y166934D01*
X601172Y167063D01*
X601402Y167207D01*
X601620Y167365D01*
X601825Y167535D01*
X602017Y167718D01*
X602197Y167914D01*
X602365Y168122D01*
X602520Y168344D01*
X602663Y168578D01*
X602791Y168820D01*
X602902Y169063D01*
X602996Y169308D01*
X603072Y169555D01*
X603132Y169803D01*
X603175Y170054D01*
X603200Y170306D01*
X603209Y170559D01*
X603209Y171651D01*
X600792Y171602D01*
X600060Y171573D01*
X599423Y171510D01*
X598879Y171413D01*
X598643Y171352D01*
X598430Y171283D01*
X598052Y171116D01*
X597720Y170909D01*
X597436Y170662D01*
X597198Y170375D01*
X597097Y170216D01*
X597010Y170045D01*
X596936Y169862D01*
X596876Y169667D01*
X596829Y169460D01*
X596795Y169241D01*
X596775Y169011D01*
X596768Y168768D01*
X596777Y168506D01*
X596805Y168259D01*
X596850Y168027D01*
X596914Y167811D01*
X596996Y167610D01*
X597096Y167425D01*
X597214Y167255D01*
X597351Y167100D01*
X597504Y166962D01*
X597673Y166842D01*
X597858Y166741D01*
X598058Y166658D01*
X598273Y166594D01*
X598504Y166548D01*
X598751Y166520D01*
X599013Y166511D01*
G37*
%LPD*%
G36*
X641823Y191525D02*
X641338Y191541D01*
X640885Y191591D01*
X640463Y191673D01*
X640071Y191788D01*
X639711Y191937D01*
X639382Y192118D01*
X639084Y192332D01*
X638817Y192580D01*
X638581Y192856D01*
X638377Y193156D01*
X638204Y193481D01*
X638063Y193831D01*
X637953Y194205D01*
X637874Y194604D01*
X637827Y195027D01*
X637811Y195475D01*
X637832Y195975D01*
X637896Y196446D01*
X638002Y196886D01*
X638150Y197297D01*
X638341Y197677D01*
X638574Y198028D01*
X638849Y198349D01*
X639167Y198640D01*
X639532Y198900D01*
X639948Y199128D01*
X640417Y199323D01*
X640938Y199487D01*
X641511Y199618D01*
X642135Y199717D01*
X642812Y199783D01*
X643540Y199818D01*
X646521Y199867D01*
X646521Y200591D01*
X646511Y200981D01*
X646478Y201343D01*
X646425Y201676D01*
X646350Y201980D01*
X646253Y202256D01*
X646135Y202502D01*
X645995Y202720D01*
X645834Y202909D01*
X645650Y203073D01*
X645442Y203215D01*
X645209Y203336D01*
X644951Y203434D01*
X644669Y203510D01*
X644362Y203565D01*
X644031Y203598D01*
X643675Y203609D01*
X643317Y203601D01*
X642984Y203577D01*
X642676Y203538D01*
X642393Y203483D01*
X642136Y203412D01*
X641904Y203326D01*
X641697Y203224D01*
X641516Y203106D01*
X641356Y202971D01*
X641212Y202817D01*
X641086Y202644D01*
X640976Y202452D01*
X640883Y202242D01*
X640808Y202013D01*
X640749Y201765D01*
X640706Y201499D01*
X638400Y201707D01*
X638487Y202141D01*
X638607Y202547D01*
X638759Y202925D01*
X638944Y203274D01*
X639162Y203596D01*
X639413Y203890D01*
X639697Y204156D01*
X640013Y204394D01*
X640362Y204604D01*
X640744Y204786D01*
X641159Y204940D01*
X641607Y205066D01*
X642087Y205163D01*
X642600Y205233D01*
X643146Y205275D01*
X643724Y205289D01*
X644331Y205271D01*
X644898Y205218D01*
X645427Y205128D01*
X645917Y205003D01*
X646369Y204841D01*
X646781Y204644D01*
X647155Y204411D01*
X647491Y204142D01*
X647787Y203840D01*
X648043Y203505D01*
X648261Y203138D01*
X648438Y202739D01*
X648576Y202308D01*
X648675Y201846D01*
X648734Y201351D01*
X648754Y200824D01*
X648754Y195107D01*
X648770Y194646D01*
X648819Y194247D01*
X648899Y193907D01*
X649012Y193629D01*
X649084Y193512D01*
X649170Y193411D01*
X649271Y193326D01*
X649386Y193256D01*
X649516Y193202D01*
X649660Y193163D01*
X649820Y193140D01*
X649993Y193132D01*
X650334Y193153D01*
X650717Y193218D01*
X650717Y191844D01*
X650298Y191758D01*
X649874Y191696D01*
X649445Y191660D01*
X649012Y191647D01*
X648716Y191657D01*
X648440Y191688D01*
X648186Y191738D01*
X647952Y191808D01*
X647739Y191899D01*
X647548Y192010D01*
X647377Y192140D01*
X647227Y192291D01*
X647095Y192464D01*
X646978Y192659D01*
X646876Y192877D01*
X646790Y193118D01*
X646718Y193382D01*
X646662Y193668D01*
X646621Y193977D01*
X646595Y194309D01*
X646521Y194309D01*
X646305Y193943D01*
X646081Y193604D01*
X645848Y193294D01*
X645606Y193011D01*
X645355Y192755D01*
X645096Y192528D01*
X644829Y192328D01*
X644552Y192156D01*
X644264Y192008D01*
X643961Y191880D01*
X643642Y191771D01*
X643309Y191683D01*
X642960Y191614D01*
X642596Y191564D01*
X642217Y191535D01*
X641823Y191525D01*
G37*
%LPC*%
G36*
X642326Y193181D02*
X642625Y193189D01*
X642916Y193215D01*
X643199Y193258D01*
X643473Y193319D01*
X643738Y193396D01*
X643996Y193491D01*
X644245Y193604D01*
X644485Y193733D01*
X644715Y193877D01*
X644932Y194035D01*
X645137Y194205D01*
X645330Y194388D01*
X645510Y194584D01*
X645678Y194792D01*
X645833Y195014D01*
X645975Y195248D01*
X646103Y195490D01*
X646214Y195733D01*
X646308Y195978D01*
X646385Y196225D01*
X646445Y196473D01*
X646487Y196724D01*
X646513Y196976D01*
X646521Y197229D01*
X646521Y198321D01*
X644105Y198272D01*
X643373Y198243D01*
X642735Y198180D01*
X642192Y198083D01*
X641956Y198022D01*
X641743Y197953D01*
X641365Y197786D01*
X641033Y197579D01*
X640748Y197332D01*
X640510Y197045D01*
X640409Y196886D01*
X640322Y196715D01*
X640248Y196532D01*
X640188Y196337D01*
X640141Y196130D01*
X640108Y195911D01*
X640087Y195681D01*
X640081Y195438D01*
X640090Y195176D01*
X640117Y194929D01*
X640163Y194697D01*
X640226Y194481D01*
X640308Y194280D01*
X640408Y194095D01*
X640527Y193925D01*
X640663Y193770D01*
X640817Y193632D01*
X640986Y193512D01*
X641170Y193411D01*
X641370Y193328D01*
X641586Y193264D01*
X641817Y193218D01*
X642064Y193190D01*
X642326Y193181D01*
G37*
%LPD*%
G36*
X654651Y191770D02*
X652455Y191770D01*
X652455Y202210D01*
X652436Y204078D01*
X652413Y204674D01*
X652381Y205044D01*
X654467Y205044D01*
X654491Y204713D01*
X654522Y204093D01*
X654565Y202774D01*
X654601Y202774D01*
X654783Y203114D01*
X654970Y203426D01*
X655164Y203712D01*
X655365Y203971D01*
X655572Y204203D01*
X655786Y204408D01*
X656006Y204586D01*
X656233Y204737D01*
X656469Y204867D01*
X656718Y204979D01*
X656980Y205074D01*
X657254Y205151D01*
X657541Y205212D01*
X657841Y205255D01*
X658153Y205281D01*
X658478Y205289D01*
X658846Y205280D01*
X659193Y205252D01*
X659521Y205205D01*
X659829Y205139D01*
X660118Y205055D01*
X660386Y204951D01*
X660635Y204829D01*
X660864Y204688D01*
X661075Y204527D01*
X661270Y204343D01*
X661447Y204137D01*
X661608Y203909D01*
X661752Y203659D01*
X661880Y203386D01*
X661991Y203092D01*
X662085Y202774D01*
X662122Y202774D01*
X662298Y203097D01*
X662483Y203396D01*
X662678Y203672D01*
X662881Y203925D01*
X663093Y204154D01*
X663314Y204359D01*
X663545Y204542D01*
X663784Y204701D01*
X664034Y204839D01*
X664297Y204958D01*
X664573Y205059D01*
X664862Y205142D01*
X665164Y205207D01*
X665478Y205253D01*
X665806Y205280D01*
X666146Y205289D01*
X666632Y205272D01*
X667083Y205221D01*
X667500Y205136D01*
X667883Y205016D01*
X668232Y204863D01*
X668546Y204675D01*
X668826Y204453D01*
X669072Y204198D01*
X669286Y203903D01*
X669472Y203564D01*
X669629Y203182D01*
X669757Y202756D01*
X669857Y202286D01*
X669929Y201773D01*
X669971Y201216D01*
X669986Y200615D01*
X669986Y191770D01*
X667802Y191770D01*
X667802Y200186D01*
X667794Y200649D01*
X667769Y201075D01*
X667728Y201463D01*
X667670Y201814D01*
X667596Y202129D01*
X667505Y202406D01*
X667398Y202645D01*
X667274Y202848D01*
X667129Y203021D01*
X666958Y203170D01*
X666760Y203297D01*
X666535Y203400D01*
X666284Y203481D01*
X666007Y203538D01*
X665703Y203573D01*
X665373Y203584D01*
X665021Y203567D01*
X664689Y203517D01*
X664378Y203433D01*
X664086Y203316D01*
X663815Y203165D01*
X663564Y202980D01*
X663333Y202762D01*
X663122Y202511D01*
X662933Y202228D01*
X662770Y201918D01*
X662632Y201579D01*
X662519Y201212D01*
X662431Y200817D01*
X662368Y200393D01*
X662331Y199942D01*
X662318Y199462D01*
X662318Y191770D01*
X660134Y191770D01*
X660134Y200186D01*
X660126Y200649D01*
X660101Y201075D01*
X660060Y201463D01*
X660002Y201814D01*
X659928Y202129D01*
X659838Y202406D01*
X659730Y202645D01*
X659607Y202848D01*
X659462Y203021D01*
X659290Y203170D01*
X659092Y203297D01*
X658868Y203400D01*
X658617Y203481D01*
X658339Y203538D01*
X658036Y203573D01*
X657705Y203584D01*
X657362Y203567D01*
X657037Y203517D01*
X656730Y203432D01*
X656442Y203314D01*
X656172Y203162D01*
X655920Y202977D01*
X655687Y202758D01*
X655473Y202505D01*
X655280Y202221D01*
X655113Y201910D01*
X654972Y201571D01*
X654856Y201204D01*
X654766Y200810D01*
X654702Y200388D01*
X654663Y199939D01*
X654651Y199462D01*
X654651Y191770D01*
G37*
G36*
X622866Y164855D02*
X622503Y164862D01*
X622152Y164882D01*
X621811Y164916D01*
X621482Y164964D01*
X621163Y165026D01*
X620855Y165101D01*
X620559Y165190D01*
X620273Y165293D01*
X619998Y165410D01*
X619734Y165540D01*
X619481Y165684D01*
X619240Y165841D01*
X619009Y166013D01*
X618789Y166198D01*
X618580Y166397D01*
X618382Y166609D01*
X618196Y166835D01*
X618021Y167074D01*
X617859Y167327D01*
X617708Y167593D01*
X617570Y167872D01*
X617444Y168165D01*
X617329Y168470D01*
X617227Y168790D01*
X617137Y169122D01*
X617059Y169468D01*
X616993Y169827D01*
X616939Y170200D01*
X616896Y170586D01*
X616866Y170985D01*
X616848Y171397D01*
X616842Y171823D01*
X616848Y172228D01*
X616866Y172621D01*
X616896Y173002D01*
X616939Y173371D01*
X616993Y173728D01*
X617059Y174073D01*
X617137Y174406D01*
X617227Y174727D01*
X617329Y175037D01*
X617444Y175334D01*
X617570Y175619D01*
X617708Y175892D01*
X617859Y176153D01*
X618021Y176403D01*
X618196Y176640D01*
X618382Y176865D01*
X618580Y177078D01*
X618787Y177276D01*
X619006Y177461D01*
X619234Y177633D01*
X619473Y177790D01*
X619722Y177934D01*
X619982Y178064D01*
X620251Y178181D01*
X620531Y178284D01*
X620822Y178373D01*
X621122Y178448D01*
X621433Y178510D01*
X621755Y178558D01*
X622086Y178592D01*
X622428Y178613D01*
X622780Y178619D01*
X623140Y178613D01*
X623489Y178592D01*
X623826Y178557D01*
X624152Y178509D01*
X624466Y178447D01*
X624769Y178371D01*
X625060Y178282D01*
X625340Y178179D01*
X625609Y178061D01*
X625866Y177931D01*
X626112Y177786D01*
X626346Y177627D01*
X626569Y177455D01*
X626780Y177269D01*
X626980Y177069D01*
X627169Y176856D01*
X627346Y176629D01*
X627512Y176387D01*
X627666Y176133D01*
X627809Y175864D01*
X627940Y175581D01*
X628060Y175285D01*
X628169Y174975D01*
X628266Y174651D01*
X628352Y174314D01*
X628426Y173963D01*
X628489Y173597D01*
X628540Y173219D01*
X628609Y172419D01*
X628632Y171565D01*
X628632Y171271D01*
X619161Y171271D01*
X619176Y170717D01*
X619220Y170195D01*
X619294Y169706D01*
X619397Y169250D01*
X619530Y168826D01*
X619692Y168435D01*
X619884Y168076D01*
X620106Y167750D01*
X620355Y167459D01*
X620632Y167208D01*
X620937Y166995D01*
X621268Y166821D01*
X621627Y166685D01*
X622013Y166588D01*
X622426Y166530D01*
X622866Y166511D01*
X623216Y166520D01*
X623548Y166547D01*
X623862Y166592D01*
X624159Y166655D01*
X624437Y166736D01*
X624698Y166835D01*
X624941Y166952D01*
X625166Y167087D01*
X625374Y167236D01*
X625564Y167395D01*
X625736Y167563D01*
X625892Y167741D01*
X626029Y167928D01*
X626150Y168125D01*
X626252Y168331D01*
X626338Y168547D01*
X628276Y167995D01*
X628116Y167615D01*
X627931Y167259D01*
X627723Y166928D01*
X627492Y166621D01*
X627236Y166339D01*
X626958Y166081D01*
X626655Y165848D01*
X626329Y165640D01*
X625979Y165456D01*
X625605Y165296D01*
X625208Y165161D01*
X624787Y165051D01*
X624342Y164965D01*
X623874Y164904D01*
X623382Y164867D01*
X622866Y164855D01*
G37*
%LPC*%
G36*
X626350Y172964D02*
X626293Y173471D01*
X626214Y173942D01*
X626114Y174378D01*
X625991Y174778D01*
X625847Y175143D01*
X625681Y175472D01*
X625493Y175766D01*
X625283Y176025D01*
X625050Y176250D01*
X624793Y176446D01*
X624512Y176612D01*
X624206Y176747D01*
X623877Y176852D01*
X623523Y176928D01*
X623145Y176973D01*
X622743Y176988D01*
X622352Y176971D01*
X621981Y176921D01*
X621632Y176837D01*
X621303Y176719D01*
X620996Y176568D01*
X620709Y176384D01*
X620443Y176166D01*
X620198Y175914D01*
X619977Y175633D01*
X619782Y175327D01*
X619615Y174996D01*
X619475Y174640D01*
X619362Y174259D01*
X619276Y173852D01*
X619217Y173421D01*
X619186Y172964D01*
X626350Y172964D01*
G37*
%LPD*%
G36*
X629835Y191525D02*
X629472Y191532D01*
X629121Y191552D01*
X628780Y191586D01*
X628450Y191634D01*
X628132Y191696D01*
X627824Y191771D01*
X627527Y191860D01*
X627242Y191963D01*
X626967Y192080D01*
X626703Y192210D01*
X626450Y192354D01*
X626208Y192511D01*
X625977Y192683D01*
X625758Y192868D01*
X625549Y193067D01*
X625351Y193279D01*
X625164Y193505D01*
X624990Y193744D01*
X624827Y193997D01*
X624677Y194263D01*
X624539Y194542D01*
X624412Y194835D01*
X624298Y195140D01*
X624196Y195460D01*
X624106Y195792D01*
X624028Y196138D01*
X623961Y196497D01*
X623907Y196870D01*
X623865Y197256D01*
X623835Y197655D01*
X623817Y198067D01*
X623811Y198493D01*
X623817Y198898D01*
X623835Y199291D01*
X623865Y199672D01*
X623907Y200041D01*
X623961Y200398D01*
X624028Y200743D01*
X624106Y201076D01*
X624196Y201397D01*
X624298Y201707D01*
X624412Y202004D01*
X624539Y202289D01*
X624677Y202562D01*
X624827Y202823D01*
X624990Y203073D01*
X625164Y203310D01*
X625351Y203535D01*
X625548Y203748D01*
X625756Y203946D01*
X625974Y204131D01*
X626203Y204303D01*
X626442Y204460D01*
X626691Y204604D01*
X626950Y204734D01*
X627220Y204851D01*
X627500Y204954D01*
X627790Y205043D01*
X628091Y205118D01*
X628402Y205180D01*
X628723Y205228D01*
X629055Y205262D01*
X629397Y205283D01*
X629749Y205289D01*
X630109Y205283D01*
X630457Y205262D01*
X630795Y205227D01*
X631120Y205179D01*
X631435Y205117D01*
X631738Y205041D01*
X632029Y204952D01*
X632309Y204849D01*
X632578Y204731D01*
X632835Y204601D01*
X633080Y204456D01*
X633315Y204297D01*
X633538Y204125D01*
X633749Y203939D01*
X633949Y203739D01*
X634138Y203526D01*
X634315Y203299D01*
X634481Y203057D01*
X634635Y202803D01*
X634778Y202534D01*
X634909Y202251D01*
X635029Y201955D01*
X635138Y201645D01*
X635235Y201321D01*
X635321Y200984D01*
X635395Y200633D01*
X635458Y200267D01*
X635509Y199889D01*
X635578Y199089D01*
X635601Y198235D01*
X635601Y197941D01*
X626130Y197941D01*
X626144Y197387D01*
X626189Y196865D01*
X626263Y196376D01*
X626366Y195920D01*
X626499Y195496D01*
X626661Y195105D01*
X626853Y194746D01*
X627074Y194420D01*
X627324Y194129D01*
X627601Y193878D01*
X627905Y193665D01*
X628237Y193491D01*
X628595Y193355D01*
X628981Y193258D01*
X629394Y193200D01*
X629835Y193181D01*
X630185Y193190D01*
X630517Y193217D01*
X630831Y193262D01*
X631127Y193325D01*
X631406Y193406D01*
X631667Y193505D01*
X631910Y193622D01*
X632135Y193757D01*
X632342Y193906D01*
X632533Y194065D01*
X632705Y194233D01*
X632860Y194411D01*
X632998Y194598D01*
X633118Y194795D01*
X633221Y195001D01*
X633307Y195217D01*
X635245Y194665D01*
X635084Y194285D01*
X634900Y193929D01*
X634692Y193598D01*
X634461Y193291D01*
X634205Y193009D01*
X633926Y192751D01*
X633624Y192518D01*
X633297Y192310D01*
X632947Y192126D01*
X632574Y191966D01*
X632176Y191831D01*
X631755Y191721D01*
X631311Y191635D01*
X630842Y191574D01*
X630350Y191537D01*
X629835Y191525D01*
G37*
%LPC*%
G36*
X633319Y199634D02*
X633262Y200141D01*
X633183Y200612D01*
X633082Y201048D01*
X632960Y201448D01*
X632816Y201813D01*
X632649Y202142D01*
X632461Y202436D01*
X632252Y202695D01*
X632019Y202920D01*
X631762Y203116D01*
X631480Y203282D01*
X631175Y203417D01*
X630845Y203522D01*
X630492Y203598D01*
X630114Y203643D01*
X629712Y203658D01*
X629321Y203641D01*
X628950Y203591D01*
X628601Y203507D01*
X628272Y203389D01*
X627964Y203238D01*
X627677Y203054D01*
X627411Y202836D01*
X627166Y202584D01*
X626945Y202303D01*
X626751Y201997D01*
X626584Y201666D01*
X626444Y201310D01*
X626331Y200929D01*
X626245Y200522D01*
X626186Y200091D01*
X626154Y199634D01*
X633319Y199634D01*
G37*
%LPD*%
G36*
X585010Y164855D02*
X584368Y164872D01*
X583748Y164923D01*
X583150Y165007D01*
X582574Y165126D01*
X582019Y165279D01*
X581487Y165465D01*
X580977Y165686D01*
X580490Y165940D01*
X580027Y166226D01*
X579592Y166541D01*
X579186Y166886D01*
X578809Y167259D01*
X578460Y167662D01*
X578139Y168093D01*
X577846Y168554D01*
X577582Y169044D01*
X577348Y169560D01*
X577145Y170100D01*
X576973Y170662D01*
X576832Y171248D01*
X576723Y171857D01*
X576645Y172489D01*
X576598Y173144D01*
X576582Y173823D01*
X576591Y174332D01*
X576617Y174828D01*
X576661Y175310D01*
X576722Y175778D01*
X576800Y176232D01*
X576896Y176671D01*
X577009Y177097D01*
X577140Y177509D01*
X577289Y177907D01*
X577454Y178291D01*
X577637Y178661D01*
X577838Y179017D01*
X578056Y179358D01*
X578292Y179686D01*
X578545Y180000D01*
X578815Y180300D01*
X579101Y180584D01*
X579400Y180849D01*
X579713Y181096D01*
X580039Y181325D01*
X580378Y181536D01*
X580731Y181728D01*
X581097Y181902D01*
X581477Y182058D01*
X581870Y182195D01*
X582277Y182314D01*
X582697Y182415D01*
X583130Y182497D01*
X583577Y182561D01*
X584037Y182607D01*
X584511Y182634D01*
X584998Y182643D01*
X585674Y182626D01*
X586321Y182576D01*
X586941Y182492D01*
X587531Y182373D01*
X588094Y182222D01*
X588628Y182036D01*
X589134Y181817D01*
X589611Y181564D01*
X590059Y181278D01*
X590476Y180959D01*
X590862Y180607D01*
X591218Y180223D01*
X591543Y179807D01*
X591837Y179358D01*
X592101Y178876D01*
X592334Y178362D01*
X590114Y177626D01*
X589952Y177992D01*
X589768Y178336D01*
X589560Y178657D01*
X589330Y178957D01*
X589077Y179234D01*
X588802Y179489D01*
X588503Y179722D01*
X588182Y179932D01*
X587841Y180119D01*
X587485Y180281D01*
X587113Y180418D01*
X586726Y180530D01*
X586324Y180617D01*
X585905Y180680D01*
X585472Y180717D01*
X585023Y180730D01*
X584669Y180722D01*
X584325Y180701D01*
X583991Y180665D01*
X583667Y180614D01*
X583353Y180549D01*
X583049Y180470D01*
X582755Y180376D01*
X582471Y180268D01*
X582197Y180145D01*
X581933Y180008D01*
X581678Y179857D01*
X581434Y179691D01*
X581200Y179511D01*
X580976Y179316D01*
X580761Y179107D01*
X580557Y178883D01*
X580183Y178400D01*
X580015Y178143D01*
X579859Y177875D01*
X579716Y177596D01*
X579585Y177306D01*
X579467Y177006D01*
X579361Y176695D01*
X579267Y176373D01*
X579186Y176041D01*
X579118Y175698D01*
X579062Y175344D01*
X579018Y174980D01*
X578987Y174605D01*
X578968Y174219D01*
X578962Y173823D01*
X578969Y173430D01*
X578988Y173048D01*
X579021Y172675D01*
X579066Y172312D01*
X579124Y171958D01*
X579196Y171615D01*
X579280Y171281D01*
X579378Y170956D01*
X579488Y170642D01*
X579611Y170337D01*
X579748Y170042D01*
X579897Y169757D01*
X580060Y169481D01*
X580235Y169215D01*
X580624Y168713D01*
X580837Y168479D01*
X581058Y168260D01*
X581289Y168056D01*
X581529Y167868D01*
X581778Y167694D01*
X582036Y167535D01*
X582303Y167392D01*
X582580Y167264D01*
X582865Y167151D01*
X583160Y167052D01*
X583464Y166969D01*
X583777Y166901D01*
X584099Y166849D01*
X584431Y166811D01*
X584771Y166788D01*
X585121Y166781D01*
X585568Y166795D01*
X586000Y166837D01*
X586419Y166907D01*
X586824Y167005D01*
X587214Y167132D01*
X587591Y167286D01*
X587953Y167469D01*
X588301Y167679D01*
X588635Y167918D01*
X588955Y168185D01*
X589261Y168480D01*
X589553Y168803D01*
X589831Y169154D01*
X590095Y169533D01*
X590344Y169940D01*
X590580Y170375D01*
X592494Y169418D01*
X592213Y168877D01*
X591906Y168369D01*
X591572Y167894D01*
X591210Y167452D01*
X590822Y167044D01*
X590406Y166670D01*
X589964Y166328D01*
X589494Y166020D01*
X589002Y165747D01*
X588489Y165510D01*
X587958Y165310D01*
X587407Y165146D01*
X586837Y165019D01*
X586247Y164928D01*
X585639Y164873D01*
X585010Y164855D01*
G37*
G36*
X688212Y191770D02*
X685783Y191770D01*
X678729Y209056D01*
X681195Y209056D01*
X685980Y196886D01*
X687010Y193831D01*
X688041Y196886D01*
X692801Y209056D01*
X695267Y209056D01*
X688212Y191770D01*
G37*
G36*
X632087Y159886D02*
X631651Y159895D01*
X631253Y159920D01*
X630891Y159962D01*
X630566Y160021D01*
X630566Y161677D01*
X631056Y161622D01*
X631596Y161604D01*
X631851Y161615D01*
X632098Y161651D01*
X632339Y161710D01*
X632573Y161793D01*
X632801Y161900D01*
X633021Y162030D01*
X633235Y162184D01*
X633443Y162361D01*
X633643Y162562D01*
X633837Y162787D01*
X634024Y163036D01*
X634205Y163308D01*
X634378Y163604D01*
X634546Y163924D01*
X634706Y164267D01*
X634860Y164634D01*
X635068Y165161D01*
X629805Y178374D01*
X632161Y178374D01*
X634958Y171038D01*
X635105Y170627D01*
X635657Y169026D01*
X636016Y167965D01*
X636160Y167505D01*
X637019Y169921D01*
X639926Y178374D01*
X642257Y178374D01*
X637154Y165100D01*
X636750Y164107D01*
X636359Y163249D01*
X635983Y162527D01*
X635620Y161941D01*
X635255Y161456D01*
X634870Y161036D01*
X634467Y160683D01*
X634258Y160531D01*
X634044Y160395D01*
X633824Y160276D01*
X633597Y160172D01*
X633363Y160085D01*
X633122Y160013D01*
X632874Y159958D01*
X632619Y159918D01*
X632356Y159894D01*
X632087Y159886D01*
G37*
G36*
X558288Y165100D02*
X556080Y165100D01*
X556080Y175540D01*
X556061Y177408D01*
X556038Y178004D01*
X556006Y178374D01*
X558092Y178374D01*
X558116Y178043D01*
X558147Y177423D01*
X558190Y176104D01*
X558226Y176104D01*
X558420Y176435D01*
X558622Y176741D01*
X558831Y177022D01*
X559047Y177278D01*
X559271Y177508D01*
X559502Y177713D01*
X559741Y177894D01*
X559987Y178049D01*
X560244Y178183D01*
X560517Y178299D01*
X560805Y178397D01*
X561108Y178477D01*
X561426Y178539D01*
X561759Y178584D01*
X562108Y178610D01*
X562471Y178619D01*
X562999Y178602D01*
X563490Y178552D01*
X563944Y178467D01*
X564362Y178348D01*
X564743Y178195D01*
X565088Y178009D01*
X565396Y177788D01*
X565667Y177534D01*
X565904Y177240D01*
X566110Y176902D01*
X566284Y176520D01*
X566426Y176094D01*
X566537Y175623D01*
X566616Y175108D01*
X566663Y174549D01*
X566679Y173945D01*
X566679Y165100D01*
X564459Y165100D01*
X564459Y173516D01*
X564443Y174135D01*
X564394Y174681D01*
X564314Y175154D01*
X564201Y175552D01*
X564053Y175889D01*
X563867Y176175D01*
X563642Y176410D01*
X563379Y176595D01*
X563230Y176670D01*
X563064Y176735D01*
X562683Y176834D01*
X562236Y176894D01*
X561723Y176914D01*
X561335Y176897D01*
X560968Y176846D01*
X560622Y176761D01*
X560297Y176641D01*
X559993Y176488D01*
X559710Y176300D01*
X559448Y176078D01*
X559208Y175822D01*
X558992Y175536D01*
X558805Y175223D01*
X558647Y174884D01*
X558518Y174519D01*
X558417Y174127D01*
X558345Y173708D01*
X558302Y173263D01*
X558288Y172792D01*
X558288Y165100D01*
G37*
G36*
X708115Y191770D02*
X697283Y191770D01*
X697283Y193647D01*
X701687Y193647D01*
X701687Y206946D01*
X697786Y204161D01*
X697786Y206246D01*
X701871Y209056D01*
X703907Y209056D01*
X703907Y193647D01*
X708115Y193647D01*
X708115Y191770D01*
G37*
G36*
X538062Y165100D02*
X535719Y165100D01*
X535719Y182386D01*
X538062Y182386D01*
X538062Y165100D01*
G37*
G36*
X568020Y191770D02*
X565812Y191770D01*
X565812Y209976D01*
X568020Y209976D01*
X568020Y191770D01*
G37*
G36*
X573614Y191770D02*
X571405Y191770D01*
X571405Y209976D01*
X573614Y209976D01*
X573614Y191770D01*
G37*
G36*
X611350Y165100D02*
X609142Y165100D01*
X609142Y175282D01*
X609124Y176755D01*
X609068Y178374D01*
X611154Y178374D01*
X611228Y176568D01*
X611252Y175663D01*
X611301Y175663D01*
X611436Y176072D01*
X611575Y176448D01*
X611719Y176790D01*
X611869Y177098D01*
X612023Y177373D01*
X612182Y177613D01*
X612347Y177820D01*
X612516Y177994D01*
X612696Y178140D01*
X612895Y178267D01*
X613110Y178375D01*
X613344Y178463D01*
X613595Y178531D01*
X613864Y178580D01*
X614150Y178610D01*
X614454Y178619D01*
X614676Y178612D01*
X614899Y178589D01*
X615124Y178550D01*
X615350Y178497D01*
X615350Y176472D01*
X615110Y176526D01*
X614834Y176565D01*
X614522Y176588D01*
X614172Y176595D01*
X613839Y176577D01*
X613526Y176521D01*
X613233Y176429D01*
X612961Y176299D01*
X612708Y176133D01*
X612477Y175929D01*
X612265Y175689D01*
X612074Y175411D01*
X611904Y175099D01*
X611757Y174755D01*
X611633Y174379D01*
X611531Y173971D01*
X611452Y173531D01*
X611396Y173059D01*
X611362Y172555D01*
X611350Y172019D01*
X611350Y165100D01*
G37*
G36*
X207178Y253755D02*
X206524Y253772D01*
X205893Y253822D01*
X205284Y253906D01*
X204698Y254025D01*
X204136Y254176D01*
X203595Y254362D01*
X203078Y254581D01*
X202584Y254834D01*
X202115Y255119D01*
X201675Y255434D01*
X201263Y255779D01*
X200880Y256155D01*
X200525Y256560D01*
X200199Y256995D01*
X199902Y257461D01*
X199633Y257956D01*
X199395Y258478D01*
X199188Y259020D01*
X199013Y259584D01*
X198870Y260169D01*
X198758Y260776D01*
X198679Y261403D01*
X198631Y262052D01*
X198615Y262723D01*
X198624Y263234D01*
X198650Y263731D01*
X198695Y264214D01*
X198757Y264683D01*
X198837Y265138D01*
X198934Y265578D01*
X199049Y266005D01*
X199182Y266417D01*
X199333Y266815D01*
X199502Y267199D01*
X199688Y267569D01*
X199892Y267925D01*
X200113Y268266D01*
X200353Y268594D01*
X200610Y268907D01*
X200885Y269206D01*
X201175Y269489D01*
X201480Y269754D01*
X201798Y270001D01*
X202131Y270229D01*
X202477Y270439D01*
X202837Y270630D01*
X203211Y270804D01*
X203599Y270959D01*
X204001Y271096D01*
X204416Y271215D01*
X204846Y271315D01*
X205290Y271397D01*
X205747Y271461D01*
X206218Y271507D01*
X206704Y271534D01*
X207203Y271543D01*
X207851Y271527D01*
X208478Y271478D01*
X209083Y271396D01*
X209665Y271281D01*
X210227Y271134D01*
X210766Y270953D01*
X211283Y270740D01*
X211779Y270494D01*
X212249Y270217D01*
X212691Y269911D01*
X213104Y269574D01*
X213488Y269208D01*
X213845Y268812D01*
X214172Y268386D01*
X214471Y267931D01*
X214741Y267446D01*
X214981Y266935D01*
X215190Y266401D01*
X215366Y265844D01*
X215510Y265265D01*
X215622Y264663D01*
X215702Y264039D01*
X215750Y263392D01*
X215766Y262723D01*
X215750Y262055D01*
X215701Y261409D01*
X215620Y260784D01*
X215507Y260180D01*
X215361Y259597D01*
X215183Y259035D01*
X214972Y258495D01*
X214729Y257975D01*
X214456Y257480D01*
X214154Y257016D01*
X213825Y256580D01*
X213467Y256175D01*
X213081Y255798D01*
X212667Y255451D01*
X212225Y255134D01*
X211754Y254846D01*
X211259Y254591D01*
X210741Y254369D01*
X210202Y254181D01*
X209641Y254028D01*
X209058Y253908D01*
X208453Y253823D01*
X207827Y253772D01*
X207178Y253755D01*
G37*
%LPC*%
G36*
X207178Y255656D02*
X207547Y255663D01*
X207905Y255685D01*
X208252Y255721D01*
X208588Y255772D01*
X208913Y255836D01*
X209227Y255916D01*
X209531Y256010D01*
X209823Y256118D01*
X210105Y256240D01*
X210376Y256377D01*
X210636Y256529D01*
X210885Y256695D01*
X211123Y256875D01*
X211351Y257070D01*
X211567Y257279D01*
X211773Y257503D01*
X211966Y257739D01*
X212148Y257988D01*
X212317Y258249D01*
X212473Y258521D01*
X212617Y258806D01*
X212748Y259102D01*
X212867Y259410D01*
X212973Y259731D01*
X213067Y260063D01*
X213148Y260407D01*
X213217Y260763D01*
X213273Y261131D01*
X213317Y261511D01*
X213348Y261903D01*
X213367Y262307D01*
X213373Y262723D01*
X213367Y263120D01*
X213348Y263508D01*
X213317Y263884D01*
X213273Y264249D01*
X213216Y264604D01*
X213147Y264948D01*
X213065Y265280D01*
X212970Y265603D01*
X212863Y265914D01*
X212743Y266214D01*
X212611Y266504D01*
X212466Y266783D01*
X212308Y267050D01*
X212138Y267308D01*
X211956Y267554D01*
X211760Y267789D01*
X211553Y268012D01*
X211336Y268221D01*
X211108Y268415D01*
X210870Y268594D01*
X210622Y268760D01*
X210363Y268911D01*
X210094Y269047D01*
X209814Y269169D01*
X209524Y269277D01*
X209224Y269371D01*
X208913Y269450D01*
X208592Y269515D01*
X208260Y269565D01*
X207918Y269601D01*
X207565Y269622D01*
X207203Y269630D01*
X206837Y269622D01*
X206482Y269601D01*
X206137Y269566D01*
X205803Y269516D01*
X205479Y269452D01*
X205166Y269374D01*
X204863Y269282D01*
X204571Y269176D01*
X204290Y269055D01*
X204019Y268920D01*
X203758Y268771D01*
X203508Y268608D01*
X203269Y268431D01*
X203040Y268239D01*
X202822Y268034D01*
X202614Y267814D01*
X202418Y267581D01*
X202235Y267337D01*
X202064Y267082D01*
X201906Y266815D01*
X201760Y266536D01*
X201628Y266247D01*
X201507Y265946D01*
X201400Y265633D01*
X201305Y265309D01*
X201223Y264974D01*
X201153Y264627D01*
X201096Y264269D01*
X201052Y263900D01*
X201020Y263519D01*
X201001Y263126D01*
X200995Y262723D01*
X201001Y262321D01*
X201021Y261931D01*
X201053Y261551D01*
X201097Y261181D01*
X201155Y260822D01*
X201225Y260473D01*
X201308Y260135D01*
X201404Y259807D01*
X201513Y259490D01*
X201635Y259184D01*
X201769Y258887D01*
X201916Y258602D01*
X202076Y258326D01*
X202249Y258062D01*
X202434Y257808D01*
X202633Y257564D01*
X202842Y257333D01*
X203062Y257117D01*
X203292Y256916D01*
X203531Y256729D01*
X203780Y256558D01*
X204040Y256401D01*
X204309Y256260D01*
X204588Y256133D01*
X204877Y256021D01*
X205176Y255924D01*
X205485Y255842D01*
X205804Y255775D01*
X206132Y255723D01*
X206471Y255686D01*
X206820Y255664D01*
X207178Y255656D01*
G37*
%LPD*%
G36*
X81831Y253755D02*
X81522Y253761D01*
X81224Y253781D01*
X80935Y253814D01*
X80657Y253860D01*
X80390Y253920D01*
X80132Y253993D01*
X79886Y254079D01*
X79649Y254178D01*
X79423Y254290D01*
X79208Y254416D01*
X79003Y254555D01*
X78808Y254707D01*
X78623Y254872D01*
X78449Y255051D01*
X78133Y255448D01*
X77855Y255898D01*
X77615Y256403D01*
X77411Y256962D01*
X77245Y257576D01*
X77115Y258244D01*
X77023Y258967D01*
X76967Y259744D01*
X76949Y260576D01*
X76968Y261417D01*
X77025Y262203D01*
X77120Y262935D01*
X77254Y263614D01*
X77426Y264237D01*
X77635Y264807D01*
X77883Y265322D01*
X78169Y265783D01*
X78494Y266190D01*
X78856Y266543D01*
X79052Y266699D01*
X79257Y266841D01*
X79471Y266970D01*
X79695Y267085D01*
X79929Y267187D01*
X80172Y267275D01*
X80425Y267350D01*
X80687Y267411D01*
X80959Y267458D01*
X81240Y267492D01*
X81531Y267513D01*
X81831Y267519D01*
X82201Y267511D01*
X82555Y267485D01*
X82892Y267442D01*
X83215Y267381D01*
X83521Y267304D01*
X83812Y267209D01*
X84087Y267097D01*
X84346Y266967D01*
X84592Y266819D01*
X84825Y266651D01*
X85046Y266462D01*
X85254Y266253D01*
X85451Y266023D01*
X85635Y265774D01*
X85806Y265503D01*
X85966Y265213D01*
X85990Y265213D01*
X85966Y266697D01*
X85966Y272206D01*
X88174Y272206D01*
X88174Y256736D01*
X88192Y255015D01*
X88215Y254419D01*
X88248Y254000D01*
X86138Y254000D01*
X86099Y254325D01*
X86058Y254908D01*
X86026Y255570D01*
X86015Y256135D01*
X85966Y256135D01*
X85806Y255827D01*
X85634Y255542D01*
X85450Y255280D01*
X85253Y255040D01*
X85043Y254823D01*
X84821Y254628D01*
X84587Y254456D01*
X84340Y254307D01*
X84080Y254177D01*
X83804Y254065D01*
X83513Y253970D01*
X83207Y253893D01*
X82886Y253832D01*
X82550Y253789D01*
X82198Y253763D01*
X81831Y253755D01*
G37*
%LPC*%
G36*
X82396Y255460D02*
X82849Y255480D01*
X83270Y255541D01*
X83659Y255643D01*
X84015Y255785D01*
X84340Y255968D01*
X84632Y256191D01*
X84892Y256456D01*
X85092Y256724D01*
X85119Y256760D01*
X85318Y257108D01*
X85490Y257500D01*
X85635Y257937D01*
X85754Y258420D01*
X85847Y258947D01*
X85913Y259518D01*
X85953Y260135D01*
X85966Y260797D01*
X85953Y261434D01*
X85913Y262027D01*
X85847Y262576D01*
X85754Y263081D01*
X85635Y263542D01*
X85490Y263959D01*
X85318Y264332D01*
X85119Y264661D01*
X84892Y264948D01*
X84633Y265198D01*
X84343Y265409D01*
X84021Y265581D01*
X83668Y265715D01*
X83284Y265811D01*
X82868Y265869D01*
X82420Y265888D01*
X82018Y265868D01*
X81644Y265811D01*
X81299Y265714D01*
X80983Y265580D01*
X80697Y265406D01*
X80439Y265194D01*
X80210Y264944D01*
X80010Y264655D01*
X79836Y264323D01*
X79685Y263942D01*
X79557Y263514D01*
X79453Y263037D01*
X79372Y262512D01*
X79314Y261939D01*
X79279Y261318D01*
X79267Y260649D01*
X79279Y259978D01*
X79313Y259356D01*
X79371Y258783D01*
X79451Y258260D01*
X79555Y257786D01*
X79682Y257362D01*
X79831Y256987D01*
X80004Y256662D01*
X80202Y256380D01*
X80429Y256136D01*
X80685Y255930D01*
X80970Y255760D01*
X81283Y255629D01*
X81625Y255535D01*
X81996Y255479D01*
X82396Y255460D01*
G37*
%LPD*%
G36*
X130356Y253755D02*
X129999Y253762D01*
X129652Y253782D01*
X129316Y253817D01*
X128992Y253865D01*
X128678Y253928D01*
X128376Y254004D01*
X128085Y254094D01*
X127805Y254198D01*
X127536Y254316D01*
X127278Y254447D01*
X127031Y254593D01*
X126796Y254752D01*
X126571Y254925D01*
X126358Y255112D01*
X126156Y255313D01*
X125964Y255527D01*
X125785Y255755D01*
X125617Y255995D01*
X125460Y256248D01*
X125315Y256512D01*
X125182Y256789D01*
X125060Y257079D01*
X124950Y257380D01*
X124851Y257694D01*
X124764Y258020D01*
X124689Y258359D01*
X124573Y259073D01*
X124503Y259837D01*
X124480Y260649D01*
X124503Y261481D01*
X124532Y261877D01*
X124573Y262259D01*
X124625Y262628D01*
X124689Y262984D01*
X124765Y263326D01*
X124852Y263655D01*
X124951Y263970D01*
X125061Y264272D01*
X125183Y264561D01*
X125317Y264836D01*
X125462Y265097D01*
X125619Y265346D01*
X125787Y265580D01*
X125968Y265802D01*
X126159Y266010D01*
X126363Y266204D01*
X126578Y266386D01*
X126804Y266553D01*
X127043Y266708D01*
X127292Y266848D01*
X127554Y266976D01*
X127827Y267090D01*
X128112Y267191D01*
X128408Y267278D01*
X128716Y267352D01*
X129036Y267412D01*
X129367Y267459D01*
X129710Y267493D01*
X130064Y267513D01*
X130430Y267519D01*
X130804Y267513D01*
X131166Y267493D01*
X131514Y267461D01*
X131851Y267415D01*
X132175Y267356D01*
X132486Y267284D01*
X132785Y267199D01*
X133071Y267101D01*
X133344Y266990D01*
X133605Y266865D01*
X133854Y266728D01*
X134090Y266577D01*
X134313Y266414D01*
X134524Y266237D01*
X134722Y266048D01*
X134908Y265845D01*
X135082Y265628D01*
X135244Y265397D01*
X135396Y265152D01*
X135536Y264892D01*
X135665Y264618D01*
X135783Y264329D01*
X135889Y264026D01*
X135984Y263709D01*
X136069Y263377D01*
X136141Y263030D01*
X136254Y262294D01*
X136321Y261501D01*
X136343Y260649D01*
X136337Y260221D01*
X136319Y259806D01*
X136289Y259405D01*
X136247Y259018D01*
X136194Y258645D01*
X136128Y258286D01*
X136050Y257941D01*
X135960Y257610D01*
X135858Y257292D01*
X135744Y256989D01*
X135618Y256699D01*
X135481Y256424D01*
X135331Y256162D01*
X135169Y255914D01*
X134995Y255680D01*
X134810Y255460D01*
X134613Y255253D01*
X134405Y255060D01*
X134186Y254880D01*
X133956Y254714D01*
X133716Y254561D01*
X133465Y254421D01*
X133203Y254294D01*
X132930Y254181D01*
X132646Y254081D01*
X132351Y253994D01*
X132046Y253921D01*
X131730Y253861D01*
X131403Y253815D01*
X131065Y253781D01*
X130716Y253761D01*
X130356Y253755D01*
G37*
%LPC*%
G36*
X130332Y255386D02*
X130811Y255406D01*
X131255Y255466D01*
X131663Y255566D01*
X132036Y255705D01*
X132373Y255885D01*
X132675Y256104D01*
X132941Y256363D01*
X133172Y256662D01*
X133372Y257004D01*
X133545Y257390D01*
X133692Y257821D01*
X133811Y258297D01*
X133905Y258818D01*
X133971Y259383D01*
X134011Y259994D01*
X134025Y260649D01*
X134012Y261313D01*
X133974Y261929D01*
X133910Y262499D01*
X133821Y263022D01*
X133706Y263497D01*
X133566Y263926D01*
X133400Y264308D01*
X133209Y264643D01*
X132987Y264934D01*
X132731Y265187D01*
X132441Y265401D01*
X132115Y265576D01*
X131755Y265713D01*
X131361Y265810D01*
X130931Y265868D01*
X130467Y265888D01*
X129999Y265868D01*
X129565Y265808D01*
X129164Y265709D01*
X128797Y265570D01*
X128463Y265392D01*
X128163Y265174D01*
X127897Y264916D01*
X127664Y264618D01*
X127461Y264278D01*
X127285Y263894D01*
X127137Y263465D01*
X127015Y262991D01*
X126920Y262473D01*
X126853Y261909D01*
X126812Y261302D01*
X126799Y260649D01*
X126812Y260013D01*
X126852Y259418D01*
X126919Y258864D01*
X127012Y258351D01*
X127132Y257878D01*
X127278Y257446D01*
X127452Y257055D01*
X127651Y256705D01*
X127880Y256396D01*
X128139Y256128D01*
X128428Y255901D01*
X128748Y255716D01*
X129098Y255572D01*
X129479Y255469D01*
X129890Y255407D01*
X130332Y255386D01*
G37*
%LPD*%
G36*
X53278Y254000D02*
X50849Y254000D01*
X57903Y271286D01*
X60565Y271286D01*
X67509Y254000D01*
X65117Y254000D01*
X63142Y259054D01*
X55266Y259054D01*
X53278Y254000D01*
G37*
%LPC*%
G36*
X62442Y260882D02*
X60222Y266587D01*
X59878Y267489D01*
X59535Y268501D01*
X59204Y269519D01*
X59093Y269176D01*
X58713Y268013D01*
X58185Y266563D01*
X55977Y260882D01*
X62442Y260882D01*
G37*
%LPD*%
G36*
X164997Y254000D02*
X162568Y254000D01*
X169622Y271286D01*
X172284Y271286D01*
X179228Y254000D01*
X176836Y254000D01*
X174860Y259054D01*
X166984Y259054D01*
X164997Y254000D01*
G37*
%LPC*%
G36*
X174161Y260882D02*
X171941Y266587D01*
X171597Y267489D01*
X171254Y268501D01*
X170922Y269519D01*
X170812Y269176D01*
X170432Y268013D01*
X169904Y266563D01*
X167696Y260882D01*
X174161Y260882D01*
G37*
%LPD*%
G36*
X148509Y254000D02*
X146424Y254000D01*
X146424Y271286D01*
X149147Y271286D01*
X158495Y256466D01*
X158385Y258539D01*
X158357Y259327D01*
X158348Y259950D01*
X158348Y271286D01*
X160458Y271286D01*
X160458Y254000D01*
X157637Y254000D01*
X148386Y268722D01*
X148448Y267532D01*
X148509Y265483D01*
X148509Y254000D01*
G37*
G36*
X183415Y254000D02*
X181330Y254000D01*
X181330Y271286D01*
X184053Y271286D01*
X193402Y256466D01*
X193291Y258539D01*
X193264Y259327D01*
X193254Y259950D01*
X193254Y271286D01*
X195364Y271286D01*
X195364Y254000D01*
X192543Y254000D01*
X183293Y268722D01*
X183354Y267532D01*
X183415Y265483D01*
X183415Y254000D01*
G37*
G36*
X95733Y253755D02*
X95206Y253772D01*
X94715Y253823D01*
X94260Y253907D01*
X93843Y254026D01*
X93461Y254179D01*
X93117Y254365D01*
X92809Y254586D01*
X92538Y254840D01*
X92300Y255134D01*
X92095Y255472D01*
X91921Y255854D01*
X91778Y256280D01*
X91668Y256751D01*
X91589Y257266D01*
X91541Y257825D01*
X91525Y258429D01*
X91525Y267274D01*
X93746Y267274D01*
X93746Y258858D01*
X93762Y258239D01*
X93810Y257693D01*
X93891Y257220D01*
X94004Y256822D01*
X94152Y256485D01*
X94338Y256199D01*
X94563Y255964D01*
X94826Y255779D01*
X94975Y255704D01*
X95141Y255639D01*
X95522Y255540D01*
X95969Y255480D01*
X96482Y255460D01*
X96870Y255477D01*
X97237Y255528D01*
X97583Y255613D01*
X97908Y255733D01*
X98212Y255886D01*
X98494Y256074D01*
X98756Y256296D01*
X98997Y256552D01*
X99212Y256838D01*
X99399Y257151D01*
X99557Y257490D01*
X99687Y257855D01*
X99787Y258247D01*
X99859Y258666D01*
X99902Y259111D01*
X99917Y259582D01*
X99917Y267274D01*
X102125Y267274D01*
X102125Y256834D01*
X102143Y254966D01*
X102166Y254370D01*
X102199Y254000D01*
X100113Y254000D01*
X100089Y254331D01*
X100058Y254951D01*
X100015Y256270D01*
X99978Y256270D01*
X99784Y255939D01*
X99583Y255633D01*
X99374Y255352D01*
X99158Y255096D01*
X98934Y254866D01*
X98703Y254661D01*
X98464Y254480D01*
X98218Y254325D01*
X97960Y254191D01*
X97687Y254076D01*
X97400Y253978D01*
X97097Y253897D01*
X96779Y253835D01*
X96445Y253790D01*
X96097Y253764D01*
X95733Y253755D01*
G37*
G36*
X113375Y254000D02*
X111167Y254000D01*
X111167Y264440D01*
X111149Y266308D01*
X111126Y266904D01*
X111093Y267274D01*
X113179Y267274D01*
X113204Y266943D01*
X113234Y266323D01*
X113277Y265004D01*
X113314Y265004D01*
X113508Y265335D01*
X113709Y265641D01*
X113918Y265922D01*
X114134Y266178D01*
X114358Y266408D01*
X114589Y266613D01*
X114828Y266794D01*
X115074Y266949D01*
X115332Y267083D01*
X115605Y267199D01*
X115892Y267297D01*
X116195Y267377D01*
X116514Y267439D01*
X116847Y267484D01*
X117195Y267510D01*
X117559Y267519D01*
X118086Y267502D01*
X118577Y267452D01*
X119032Y267367D01*
X119450Y267248D01*
X119831Y267095D01*
X120175Y266909D01*
X120483Y266688D01*
X120755Y266434D01*
X120992Y266140D01*
X121197Y265802D01*
X121371Y265420D01*
X121514Y264994D01*
X121624Y264523D01*
X121703Y264008D01*
X121751Y263449D01*
X121767Y262845D01*
X121767Y254000D01*
X119546Y254000D01*
X119546Y262416D01*
X119530Y263035D01*
X119482Y263581D01*
X119401Y264054D01*
X119289Y264452D01*
X119141Y264789D01*
X118954Y265075D01*
X118730Y265310D01*
X118467Y265495D01*
X118317Y265570D01*
X118151Y265635D01*
X117770Y265734D01*
X117323Y265794D01*
X116810Y265814D01*
X116422Y265797D01*
X116055Y265746D01*
X115709Y265661D01*
X115384Y265541D01*
X115080Y265388D01*
X114798Y265200D01*
X114536Y264978D01*
X114295Y264722D01*
X114080Y264436D01*
X113893Y264123D01*
X113735Y263784D01*
X113605Y263419D01*
X113505Y263027D01*
X113433Y262608D01*
X113390Y262163D01*
X113375Y261692D01*
X113375Y254000D01*
G37*
G36*
X71500Y254000D02*
X69292Y254000D01*
X69292Y264182D01*
X69274Y265655D01*
X69218Y267274D01*
X71304Y267274D01*
X71378Y265468D01*
X71402Y264563D01*
X71451Y264563D01*
X71586Y264972D01*
X71725Y265348D01*
X71869Y265690D01*
X72019Y265998D01*
X72173Y266273D01*
X72332Y266513D01*
X72497Y266720D01*
X72666Y266894D01*
X72846Y267040D01*
X73045Y267167D01*
X73260Y267275D01*
X73494Y267363D01*
X73745Y267431D01*
X74014Y267480D01*
X74300Y267510D01*
X74604Y267519D01*
X74826Y267512D01*
X75049Y267489D01*
X75274Y267450D01*
X75500Y267397D01*
X75500Y265372D01*
X75260Y265426D01*
X74984Y265465D01*
X74672Y265488D01*
X74322Y265495D01*
X73989Y265477D01*
X73676Y265421D01*
X73383Y265329D01*
X73111Y265199D01*
X72858Y265033D01*
X72627Y264829D01*
X72415Y264589D01*
X72224Y264311D01*
X72054Y263999D01*
X71907Y263655D01*
X71783Y263279D01*
X71681Y262871D01*
X71602Y262431D01*
X71546Y261959D01*
X71512Y261455D01*
X71500Y260919D01*
X71500Y254000D01*
G37*
G36*
X107751Y254000D02*
X105543Y254000D01*
X105543Y267274D01*
X107751Y267274D01*
X107751Y254000D01*
G37*
G36*
X107751Y270096D02*
X105543Y270096D01*
X105543Y272206D01*
X107751Y272206D01*
X107751Y270096D01*
G37*
G36*
X457200Y586261D02*
X439914Y586261D01*
X439914Y591978D01*
X439923Y592519D01*
X439949Y593045D01*
X439992Y593554D01*
X440052Y594049D01*
X440129Y594527D01*
X440224Y594990D01*
X440336Y595437D01*
X440465Y595868D01*
X440611Y596284D01*
X440775Y596684D01*
X440955Y597069D01*
X441153Y597438D01*
X441368Y597791D01*
X441600Y598128D01*
X441850Y598450D01*
X442116Y598756D01*
X442399Y599045D01*
X442696Y599315D01*
X443008Y599567D01*
X443334Y599800D01*
X443674Y600014D01*
X444029Y600210D01*
X444399Y600387D01*
X444783Y600546D01*
X445182Y600685D01*
X445595Y600807D01*
X446023Y600909D01*
X446465Y600993D01*
X446922Y601058D01*
X447393Y601105D01*
X447879Y601133D01*
X448379Y601142D01*
X449037Y601126D01*
X449675Y601077D01*
X450291Y600996D01*
X450887Y600882D01*
X451461Y600735D01*
X452015Y600556D01*
X452548Y600344D01*
X453060Y600099D01*
X453546Y599825D01*
X454004Y599524D01*
X454432Y599195D01*
X454831Y598839D01*
X455200Y598456D01*
X455540Y598045D01*
X455851Y597608D01*
X456133Y597143D01*
X456383Y596655D01*
X456600Y596149D01*
X456783Y595625D01*
X456933Y595082D01*
X457050Y594521D01*
X457133Y593941D01*
X457183Y593343D01*
X457200Y592726D01*
X457200Y586261D01*
G37*
%LPC*%
G36*
X455323Y588604D02*
X455323Y592456D01*
X455310Y592925D01*
X455271Y593378D01*
X455206Y593818D01*
X455114Y594243D01*
X454997Y594654D01*
X454854Y595050D01*
X454684Y595432D01*
X454489Y595799D01*
X454269Y596149D01*
X454026Y596478D01*
X453760Y596787D01*
X453471Y597074D01*
X453158Y597340D01*
X452823Y597586D01*
X452465Y597810D01*
X452084Y598014D01*
X451683Y598195D01*
X451264Y598352D01*
X450827Y598485D01*
X450373Y598594D01*
X449901Y598678D01*
X449411Y598738D01*
X448904Y598775D01*
X448379Y598787D01*
X447983Y598780D01*
X447600Y598759D01*
X447228Y598725D01*
X446868Y598677D01*
X446520Y598615D01*
X446183Y598539D01*
X445859Y598450D01*
X445547Y598347D01*
X445247Y598230D01*
X444958Y598099D01*
X444682Y597955D01*
X444417Y597796D01*
X444164Y597625D01*
X443924Y597439D01*
X443695Y597239D01*
X443478Y597026D01*
X443274Y596800D01*
X443083Y596562D01*
X442905Y596311D01*
X442740Y596048D01*
X442589Y595772D01*
X442450Y595484D01*
X442325Y595184D01*
X442213Y594872D01*
X442114Y594547D01*
X442029Y594210D01*
X441956Y593861D01*
X441897Y593499D01*
X441851Y593125D01*
X441818Y592738D01*
X441798Y592340D01*
X441791Y591929D01*
X441791Y588604D01*
X455323Y588604D01*
G37*
%LPD*%
G36*
X452403Y637854D02*
X451988Y637870D01*
X451590Y637915D01*
X451209Y637991D01*
X450845Y638097D01*
X450498Y638233D01*
X450167Y638400D01*
X449854Y638596D01*
X449557Y638824D01*
X449283Y639074D01*
X449037Y639342D01*
X448820Y639626D01*
X448631Y639928D01*
X448470Y640246D01*
X448338Y640581D01*
X448234Y640933D01*
X448158Y641302D01*
X448109Y641302D01*
X448015Y640958D01*
X447895Y640633D01*
X447752Y640327D01*
X447585Y640040D01*
X447393Y639771D01*
X447178Y639520D01*
X446938Y639288D01*
X446674Y639075D01*
X446392Y638884D01*
X446098Y638718D01*
X445792Y638578D01*
X445475Y638463D01*
X445145Y638374D01*
X444804Y638310D01*
X444451Y638272D01*
X444085Y638259D01*
X443603Y638282D01*
X443145Y638352D01*
X442709Y638467D01*
X442297Y638629D01*
X441909Y638837D01*
X441544Y639091D01*
X441202Y639391D01*
X440884Y639738D01*
X440596Y640123D01*
X440347Y640540D01*
X440136Y640989D01*
X439963Y641469D01*
X439829Y641981D01*
X439733Y642524D01*
X439676Y643099D01*
X439657Y643706D01*
X439675Y644327D01*
X439732Y644915D01*
X439826Y645469D01*
X439957Y645990D01*
X440126Y646477D01*
X440333Y646930D01*
X440577Y647350D01*
X440859Y647736D01*
X441173Y648083D01*
X441513Y648383D01*
X441880Y648637D01*
X442273Y648845D01*
X442692Y649007D01*
X443139Y649122D01*
X443611Y649191D01*
X444110Y649215D01*
X444475Y649202D01*
X444828Y649163D01*
X445170Y649099D01*
X445499Y649009D01*
X445817Y648894D01*
X446123Y648752D01*
X446417Y648585D01*
X446699Y648393D01*
X446962Y648178D01*
X447199Y647944D01*
X447220Y647919D01*
X447411Y647692D01*
X447597Y647420D01*
X447758Y647130D01*
X447892Y646822D01*
X448001Y646494D01*
X448085Y646148D01*
X448134Y646148D01*
X448215Y646550D01*
X448323Y646930D01*
X448458Y647286D01*
X448620Y647620D01*
X448809Y647930D01*
X449025Y648218D01*
X449268Y648482D01*
X449486Y648677D01*
X449539Y648724D01*
X449831Y648940D01*
X450142Y649126D01*
X450470Y649285D01*
X450816Y649414D01*
X451180Y649515D01*
X451562Y649586D01*
X451961Y649630D01*
X452379Y649644D01*
X452674Y649638D01*
X452960Y649620D01*
X453509Y649549D01*
X454025Y649430D01*
X454507Y649264D01*
X454957Y649050D01*
X455374Y648788D01*
X455757Y648479D01*
X456108Y648123D01*
X456422Y647722D01*
X456693Y647279D01*
X456923Y646795D01*
X457111Y646270D01*
X457257Y645704D01*
X457362Y645096D01*
X457424Y644446D01*
X457445Y643755D01*
X457425Y643081D01*
X457363Y642445D01*
X457261Y641846D01*
X457117Y641285D01*
X456933Y640762D01*
X456707Y640276D01*
X456440Y639828D01*
X456133Y639419D01*
X455787Y639052D01*
X455407Y638734D01*
X454993Y638465D01*
X454544Y638245D01*
X454061Y638074D01*
X453543Y637952D01*
X453271Y637909D01*
X452990Y637879D01*
X452701Y637860D01*
X452403Y637854D01*
G37*
%LPC*%
G36*
X452219Y640136D02*
X452652Y640150D01*
X453056Y640193D01*
X453432Y640264D01*
X453781Y640364D01*
X454102Y640492D01*
X454395Y640649D01*
X454660Y640834D01*
X454897Y641047D01*
X455106Y641289D01*
X455287Y641560D01*
X455441Y641858D01*
X455566Y642186D01*
X455664Y642542D01*
X455733Y642926D01*
X455775Y643339D01*
X455789Y643780D01*
X455776Y644216D01*
X455735Y644624D01*
X455668Y645003D01*
X455573Y645353D01*
X455451Y645675D01*
X455303Y645967D01*
X455127Y646231D01*
X454924Y646467D01*
X454692Y646674D01*
X454428Y646853D01*
X454132Y647005D01*
X453803Y647129D01*
X453443Y647226D01*
X453051Y647295D01*
X452626Y647336D01*
X452170Y647350D01*
X451781Y647335D01*
X451416Y647290D01*
X451076Y647215D01*
X450761Y647111D01*
X450470Y646976D01*
X450205Y646812D01*
X449964Y646617D01*
X449747Y646393D01*
X449556Y646142D01*
X449390Y645866D01*
X449250Y645567D01*
X449135Y645243D01*
X449046Y644895D01*
X448982Y644523D01*
X448944Y644127D01*
X448931Y643706D01*
X448945Y643298D01*
X448986Y642912D01*
X449055Y642549D01*
X449151Y642210D01*
X449274Y641893D01*
X449425Y641599D01*
X449603Y641329D01*
X449809Y641081D01*
X450038Y640859D01*
X450288Y640668D01*
X450559Y640505D01*
X450850Y640372D01*
X451161Y640269D01*
X451493Y640195D01*
X451846Y640151D01*
X452219Y640136D01*
G37*
G36*
X444233Y640517D02*
X444593Y640530D01*
X444931Y640569D01*
X445247Y640635D01*
X445541Y640727D01*
X445813Y640845D01*
X446063Y640989D01*
X446290Y641160D01*
X446496Y641357D01*
X446679Y641578D01*
X446837Y641820D01*
X446971Y642085D01*
X447080Y642371D01*
X447166Y642678D01*
X447226Y643007D01*
X447263Y643358D01*
X447275Y643731D01*
X447264Y644109D01*
X447230Y644463D01*
X447174Y644795D01*
X447096Y645103D01*
X446995Y645388D01*
X446871Y645650D01*
X446726Y645889D01*
X446557Y646105D01*
X446364Y646296D01*
X446143Y646462D01*
X445894Y646602D01*
X445617Y646717D01*
X445313Y646806D01*
X444981Y646869D01*
X444621Y646908D01*
X444233Y646920D01*
X443878Y646908D01*
X443545Y646870D01*
X443236Y646807D01*
X442950Y646720D01*
X442686Y646607D01*
X442446Y646468D01*
X442228Y646305D01*
X442034Y646117D01*
X441862Y645903D01*
X441713Y645665D01*
X441587Y645401D01*
X441484Y645112D01*
X441404Y644799D01*
X441346Y644460D01*
X441312Y644095D01*
X441301Y643706D01*
X441312Y643328D01*
X441347Y642974D01*
X441404Y642642D01*
X441485Y642334D01*
X441588Y642049D01*
X441715Y641787D01*
X441864Y641548D01*
X442037Y641332D01*
X442232Y641141D01*
X442450Y640975D01*
X442691Y640835D01*
X442954Y640720D01*
X443240Y640631D01*
X443548Y640568D01*
X443879Y640529D01*
X444233Y640517D01*
G37*
%LPD*%
G36*
X452403Y651854D02*
X451988Y651870D01*
X451590Y651915D01*
X451209Y651991D01*
X450845Y652097D01*
X450498Y652233D01*
X450167Y652400D01*
X449854Y652596D01*
X449557Y652824D01*
X449283Y653074D01*
X449037Y653342D01*
X448820Y653626D01*
X448631Y653928D01*
X448470Y654246D01*
X448338Y654581D01*
X448234Y654933D01*
X448158Y655302D01*
X448109Y655302D01*
X448015Y654958D01*
X447895Y654633D01*
X447752Y654327D01*
X447585Y654040D01*
X447393Y653771D01*
X447178Y653520D01*
X446938Y653288D01*
X446674Y653075D01*
X446392Y652884D01*
X446098Y652718D01*
X445792Y652578D01*
X445475Y652463D01*
X445145Y652374D01*
X444804Y652310D01*
X444451Y652272D01*
X444085Y652259D01*
X443603Y652282D01*
X443145Y652352D01*
X442709Y652467D01*
X442297Y652629D01*
X441909Y652837D01*
X441544Y653091D01*
X441202Y653391D01*
X440884Y653738D01*
X440596Y654123D01*
X440347Y654540D01*
X440136Y654989D01*
X439963Y655469D01*
X439829Y655981D01*
X439733Y656524D01*
X439676Y657099D01*
X439657Y657706D01*
X439675Y658327D01*
X439732Y658915D01*
X439826Y659469D01*
X439957Y659990D01*
X440126Y660477D01*
X440333Y660930D01*
X440577Y661350D01*
X440859Y661736D01*
X441173Y662083D01*
X441513Y662383D01*
X441880Y662637D01*
X442273Y662845D01*
X442692Y663007D01*
X443139Y663122D01*
X443611Y663191D01*
X444110Y663215D01*
X444475Y663202D01*
X444828Y663163D01*
X445170Y663099D01*
X445499Y663009D01*
X445817Y662894D01*
X446123Y662752D01*
X446417Y662585D01*
X446699Y662393D01*
X446962Y662178D01*
X447199Y661944D01*
X447220Y661919D01*
X447411Y661692D01*
X447597Y661420D01*
X447758Y661130D01*
X447892Y660822D01*
X448001Y660494D01*
X448085Y660148D01*
X448134Y660148D01*
X448215Y660550D01*
X448323Y660930D01*
X448458Y661286D01*
X448620Y661620D01*
X448809Y661930D01*
X449025Y662218D01*
X449268Y662482D01*
X449486Y662677D01*
X449539Y662724D01*
X449831Y662940D01*
X450142Y663126D01*
X450470Y663285D01*
X450816Y663414D01*
X451180Y663515D01*
X451562Y663586D01*
X451961Y663630D01*
X452379Y663644D01*
X452674Y663638D01*
X452960Y663620D01*
X453509Y663549D01*
X454025Y663430D01*
X454507Y663264D01*
X454957Y663050D01*
X455374Y662788D01*
X455757Y662479D01*
X456108Y662123D01*
X456422Y661722D01*
X456693Y661279D01*
X456923Y660795D01*
X457111Y660270D01*
X457257Y659704D01*
X457362Y659096D01*
X457424Y658446D01*
X457445Y657755D01*
X457425Y657081D01*
X457363Y656445D01*
X457261Y655846D01*
X457117Y655285D01*
X456933Y654762D01*
X456707Y654276D01*
X456440Y653828D01*
X456133Y653419D01*
X455787Y653052D01*
X455407Y652734D01*
X454993Y652465D01*
X454544Y652245D01*
X454061Y652074D01*
X453543Y651952D01*
X453271Y651909D01*
X452990Y651879D01*
X452701Y651860D01*
X452403Y651854D01*
G37*
%LPC*%
G36*
X452219Y654136D02*
X452652Y654150D01*
X453056Y654193D01*
X453432Y654264D01*
X453781Y654364D01*
X454102Y654492D01*
X454395Y654649D01*
X454660Y654834D01*
X454897Y655047D01*
X455106Y655289D01*
X455287Y655560D01*
X455441Y655858D01*
X455566Y656186D01*
X455664Y656542D01*
X455733Y656926D01*
X455775Y657339D01*
X455789Y657780D01*
X455776Y658216D01*
X455735Y658624D01*
X455668Y659003D01*
X455573Y659353D01*
X455451Y659675D01*
X455303Y659967D01*
X455127Y660231D01*
X454924Y660467D01*
X454692Y660674D01*
X454428Y660853D01*
X454132Y661005D01*
X453803Y661129D01*
X453443Y661226D01*
X453051Y661295D01*
X452626Y661336D01*
X452170Y661350D01*
X451781Y661335D01*
X451416Y661290D01*
X451076Y661215D01*
X450761Y661111D01*
X450470Y660976D01*
X450205Y660812D01*
X449964Y660617D01*
X449747Y660393D01*
X449556Y660142D01*
X449390Y659866D01*
X449250Y659567D01*
X449135Y659243D01*
X449046Y658895D01*
X448982Y658523D01*
X448944Y658127D01*
X448931Y657706D01*
X448945Y657298D01*
X448986Y656912D01*
X449055Y656549D01*
X449151Y656210D01*
X449274Y655893D01*
X449425Y655599D01*
X449603Y655329D01*
X449809Y655081D01*
X450038Y654859D01*
X450288Y654668D01*
X450559Y654505D01*
X450850Y654372D01*
X451161Y654269D01*
X451493Y654195D01*
X451846Y654151D01*
X452219Y654136D01*
G37*
G36*
X444233Y654517D02*
X444593Y654530D01*
X444931Y654569D01*
X445247Y654635D01*
X445541Y654727D01*
X445813Y654845D01*
X446063Y654989D01*
X446290Y655160D01*
X446496Y655357D01*
X446679Y655578D01*
X446837Y655820D01*
X446971Y656085D01*
X447080Y656371D01*
X447166Y656678D01*
X447226Y657007D01*
X447263Y657358D01*
X447275Y657731D01*
X447264Y658109D01*
X447230Y658463D01*
X447174Y658795D01*
X447096Y659103D01*
X446995Y659388D01*
X446871Y659650D01*
X446726Y659889D01*
X446557Y660105D01*
X446364Y660296D01*
X446143Y660462D01*
X445894Y660602D01*
X445617Y660717D01*
X445313Y660806D01*
X444981Y660869D01*
X444621Y660908D01*
X444233Y660920D01*
X443878Y660908D01*
X443545Y660870D01*
X443236Y660807D01*
X442950Y660720D01*
X442686Y660607D01*
X442446Y660468D01*
X442228Y660305D01*
X442034Y660117D01*
X441862Y659903D01*
X441713Y659665D01*
X441587Y659401D01*
X441484Y659112D01*
X441404Y658799D01*
X441346Y658460D01*
X441312Y658095D01*
X441301Y657706D01*
X441312Y657328D01*
X441347Y656974D01*
X441404Y656642D01*
X441485Y656334D01*
X441588Y656049D01*
X441715Y655787D01*
X441864Y655548D01*
X442037Y655332D01*
X442232Y655141D01*
X442450Y654975D01*
X442691Y654835D01*
X442954Y654720D01*
X443240Y654631D01*
X443548Y654568D01*
X443879Y654529D01*
X444233Y654517D01*
G37*
%LPD*%
G36*
X457200Y604386D02*
X439914Y604386D01*
X439914Y612520D01*
X439935Y613229D01*
X439996Y613896D01*
X440098Y614522D01*
X440241Y615107D01*
X440425Y615650D01*
X440649Y616151D01*
X440915Y616610D01*
X441221Y617028D01*
X441564Y617401D01*
X441938Y617723D01*
X442345Y617996D01*
X442784Y618220D01*
X443254Y618394D01*
X443757Y618518D01*
X444020Y618561D01*
X444292Y618592D01*
X444571Y618611D01*
X444858Y618617D01*
X445330Y618599D01*
X445783Y618547D01*
X446217Y618459D01*
X446631Y618336D01*
X447026Y618179D01*
X447402Y617986D01*
X447759Y617758D01*
X448097Y617494D01*
X448410Y617201D01*
X448693Y616880D01*
X448945Y616533D01*
X449038Y616377D01*
X449168Y616159D01*
X449359Y615758D01*
X449521Y615331D01*
X449652Y614877D01*
X449753Y614397D01*
X452923Y616486D01*
X457200Y619304D01*
X457200Y616605D01*
X450023Y612115D01*
X450023Y606729D01*
X457200Y606729D01*
X457200Y604386D01*
G37*
%LPC*%
G36*
X448171Y606729D02*
X448171Y612385D01*
X448157Y612835D01*
X448117Y613259D01*
X448049Y613656D01*
X447955Y614027D01*
X447833Y614372D01*
X447684Y614691D01*
X447509Y614983D01*
X447306Y615249D01*
X447079Y615487D01*
X446830Y615692D01*
X446560Y615866D01*
X446268Y616008D01*
X445954Y616119D01*
X445619Y616198D01*
X445262Y616246D01*
X444883Y616262D01*
X444517Y616246D01*
X444173Y616197D01*
X443852Y616117D01*
X443553Y616005D01*
X443277Y615861D01*
X443023Y615685D01*
X442792Y615477D01*
X442583Y615237D01*
X442397Y614967D01*
X442236Y614669D01*
X442100Y614342D01*
X441989Y613987D01*
X441903Y613604D01*
X441841Y613193D01*
X441804Y612754D01*
X441791Y612287D01*
X441791Y606729D01*
X448171Y606729D01*
G37*
%LPD*%
G36*
X453336Y679706D02*
X453078Y681939D01*
X453388Y682035D01*
X453679Y682148D01*
X453949Y682278D01*
X454200Y682426D01*
X454430Y682590D01*
X454640Y682772D01*
X454831Y682971D01*
X455001Y683187D01*
X455151Y683420D01*
X455281Y683671D01*
X455392Y683938D01*
X455482Y684223D01*
X455552Y684525D01*
X455602Y684844D01*
X455632Y685180D01*
X455642Y685533D01*
X455625Y685966D01*
X455575Y686374D01*
X455491Y686759D01*
X455374Y687119D01*
X455223Y687455D01*
X455038Y687767D01*
X454820Y688055D01*
X454569Y688318D01*
X454288Y688554D01*
X453982Y688758D01*
X453650Y688931D01*
X453294Y689073D01*
X452913Y689183D01*
X452506Y689261D01*
X452075Y689308D01*
X451618Y689324D01*
X451220Y689308D01*
X450841Y689261D01*
X450482Y689182D01*
X450143Y689071D01*
X449823Y688929D01*
X449523Y688755D01*
X449242Y688549D01*
X448980Y688312D01*
X448745Y688048D01*
X448540Y687762D01*
X448367Y687454D01*
X448226Y687124D01*
X448116Y686771D01*
X448037Y686397D01*
X447990Y686001D01*
X447974Y685582D01*
X447992Y685142D01*
X448045Y684717D01*
X448133Y684308D01*
X448257Y683914D01*
X448422Y683527D01*
X448637Y683141D01*
X448901Y682755D01*
X449214Y682368D01*
X449214Y680209D01*
X439914Y680786D01*
X439914Y690612D01*
X441791Y690612D01*
X441791Y682798D01*
X447275Y682466D01*
X447016Y682836D01*
X446792Y683228D01*
X446602Y683641D01*
X446447Y684076D01*
X446326Y684534D01*
X446240Y685013D01*
X446188Y685514D01*
X446171Y686036D01*
X446194Y686658D01*
X446265Y687247D01*
X446382Y687804D01*
X446545Y688329D01*
X446756Y688821D01*
X447013Y689281D01*
X447317Y689708D01*
X447668Y690103D01*
X448056Y690458D01*
X448473Y690766D01*
X448918Y691026D01*
X449391Y691239D01*
X449893Y691405D01*
X450423Y691524D01*
X450982Y691595D01*
X451569Y691618D01*
X451906Y691612D01*
X452235Y691593D01*
X452554Y691561D01*
X452864Y691517D01*
X453165Y691460D01*
X453457Y691390D01*
X453740Y691307D01*
X454013Y691212D01*
X454533Y690983D01*
X455017Y690704D01*
X455464Y690374D01*
X455875Y689993D01*
X456243Y689567D01*
X456562Y689101D01*
X456832Y688597D01*
X457053Y688053D01*
X457225Y687470D01*
X457292Y687163D01*
X457347Y686847D01*
X457390Y686521D01*
X457421Y686185D01*
X457439Y685840D01*
X457445Y685484D01*
X457429Y684895D01*
X457379Y684334D01*
X457297Y683803D01*
X457182Y683301D01*
X457033Y682827D01*
X456852Y682383D01*
X456638Y681969D01*
X456390Y681583D01*
X456112Y681229D01*
X455804Y680909D01*
X455466Y680623D01*
X455099Y680372D01*
X454703Y680154D01*
X454276Y679971D01*
X453821Y679821D01*
X453336Y679706D01*
G37*
G36*
X439914Y620123D02*
X439914Y622589D01*
X452084Y627373D01*
X455139Y628404D01*
X452084Y629434D01*
X439914Y634194D01*
X439914Y636660D01*
X457200Y629606D01*
X457200Y627177D01*
X439914Y620123D01*
G37*
G36*
X457200Y665995D02*
X455642Y665995D01*
X454945Y666325D01*
X454291Y666690D01*
X453679Y667089D01*
X453109Y667522D01*
X452573Y667979D01*
X452063Y668447D01*
X451579Y668927D01*
X451121Y669418D01*
X450264Y670407D01*
X449471Y671387D01*
X448711Y672314D01*
X447950Y673147D01*
X447565Y673521D01*
X447171Y673857D01*
X446768Y674156D01*
X446355Y674417D01*
X446143Y674530D01*
X445924Y674629D01*
X445698Y674712D01*
X445466Y674780D01*
X445226Y674833D01*
X444980Y674871D01*
X444726Y674894D01*
X444466Y674901D01*
X444120Y674888D01*
X443794Y674849D01*
X443488Y674784D01*
X443202Y674693D01*
X442936Y674576D01*
X442690Y674432D01*
X442464Y674263D01*
X442258Y674067D01*
X442074Y673849D01*
X441914Y673609D01*
X441779Y673350D01*
X441669Y673070D01*
X441583Y672770D01*
X441521Y672450D01*
X441485Y672110D01*
X441472Y671749D01*
X441484Y671404D01*
X441520Y671074D01*
X441580Y670760D01*
X441664Y670462D01*
X441772Y670179D01*
X441904Y669912D01*
X442059Y669660D01*
X442239Y669424D01*
X442440Y669207D01*
X442661Y669014D01*
X442901Y668844D01*
X443161Y668698D01*
X443440Y668576D01*
X443738Y668477D01*
X444055Y668402D01*
X444392Y668350D01*
X444184Y666093D01*
X443679Y666174D01*
X443200Y666295D01*
X442748Y666456D01*
X442322Y666656D01*
X441923Y666896D01*
X441550Y667175D01*
X441203Y667495D01*
X440884Y667853D01*
X440596Y668246D01*
X440347Y668665D01*
X440136Y669111D01*
X439963Y669585D01*
X439829Y670085D01*
X439733Y670613D01*
X439676Y671167D01*
X439657Y671749D01*
X439676Y672383D01*
X439734Y672980D01*
X439830Y673538D01*
X439965Y674060D01*
X440138Y674543D01*
X440350Y674989D01*
X440601Y675396D01*
X440890Y675766D01*
X441214Y676096D01*
X441571Y676381D01*
X441960Y676622D01*
X442382Y676820D01*
X442836Y676974D01*
X443322Y677083D01*
X443841Y677149D01*
X444392Y677171D01*
X444643Y677164D01*
X444894Y677142D01*
X445145Y677106D01*
X445395Y677056D01*
X445894Y676912D01*
X446392Y676711D01*
X446889Y676453D01*
X447386Y676139D01*
X447882Y675769D01*
X448379Y675343D01*
X448944Y674786D01*
X449646Y674021D01*
X450484Y673050D01*
X451459Y671871D01*
X452021Y671202D01*
X452555Y670605D01*
X453061Y670079D01*
X453538Y669626D01*
X453997Y669238D01*
X454447Y668909D01*
X454889Y668637D01*
X455323Y668424D01*
X455323Y677441D01*
X457200Y677441D01*
X457200Y665995D01*
G37*
G36*
X457257Y507860D02*
X456855Y507876D01*
X456478Y507923D01*
X456126Y508002D01*
X455800Y508113D01*
X455500Y508255D01*
X455224Y508429D01*
X454974Y508635D01*
X454750Y508872D01*
X454551Y509139D01*
X454379Y509434D01*
X454233Y509758D01*
X454114Y510109D01*
X454021Y510489D01*
X453955Y510896D01*
X453916Y511332D01*
X453902Y511796D01*
X453916Y512271D01*
X453955Y512715D01*
X454022Y513129D01*
X454115Y513512D01*
X454234Y513864D01*
X454380Y514186D01*
X454553Y514477D01*
X454752Y514738D01*
X454977Y514967D01*
X455229Y515167D01*
X455508Y515335D01*
X455813Y515473D01*
X456145Y515580D01*
X456503Y515657D01*
X456888Y515703D01*
X457299Y515718D01*
X457719Y515703D01*
X458110Y515658D01*
X458473Y515584D01*
X458807Y515479D01*
X459112Y515345D01*
X459388Y515180D01*
X459636Y514986D01*
X459856Y514762D01*
X460048Y514507D01*
X460214Y514218D01*
X460355Y513897D01*
X460470Y513543D01*
X460560Y513155D01*
X460624Y512735D01*
X460662Y512282D01*
X460675Y511796D01*
X460661Y511315D01*
X460620Y510865D01*
X460552Y510447D01*
X460456Y510061D01*
X460333Y509706D01*
X460183Y509384D01*
X460005Y509093D01*
X459800Y508833D01*
X459568Y508605D01*
X459312Y508408D01*
X459032Y508240D01*
X458726Y508103D01*
X458396Y507997D01*
X458041Y507921D01*
X457661Y507875D01*
X457257Y507860D01*
G37*
%LPC*%
G36*
X457243Y508791D02*
X457517Y508803D01*
X457770Y508837D01*
X458003Y508894D01*
X458216Y508974D01*
X458408Y509076D01*
X458581Y509201D01*
X458733Y509349D01*
X458865Y509520D01*
X458979Y509715D01*
X459077Y509935D01*
X459161Y510181D01*
X459230Y510453D01*
X459283Y510750D01*
X459321Y511073D01*
X459344Y511422D01*
X459351Y511796D01*
X459344Y512175D01*
X459322Y512527D01*
X459286Y512852D01*
X459235Y513150D01*
X459169Y513422D01*
X459089Y513667D01*
X458995Y513885D01*
X458886Y514076D01*
X458759Y514242D01*
X458613Y514387D01*
X458447Y514509D01*
X458261Y514609D01*
X458056Y514687D01*
X457830Y514742D01*
X457585Y514776D01*
X457320Y514787D01*
X457053Y514775D01*
X456805Y514741D01*
X456576Y514685D01*
X456367Y514605D01*
X456176Y514504D01*
X456005Y514379D01*
X455853Y514232D01*
X455720Y514062D01*
X455604Y513868D01*
X455504Y513648D01*
X455419Y513403D01*
X455349Y513133D01*
X455295Y512837D01*
X455257Y512515D01*
X455234Y512169D01*
X455226Y511796D01*
X455234Y511433D01*
X455256Y511093D01*
X455294Y510777D01*
X455348Y510484D01*
X455416Y510214D01*
X455500Y509967D01*
X455599Y509744D01*
X455713Y509544D01*
X455843Y509368D01*
X455991Y509215D01*
X456156Y509086D01*
X456339Y508980D01*
X456539Y508897D01*
X456756Y508838D01*
X456991Y508803D01*
X457243Y508791D01*
G37*
%LPD*%
G36*
X443611Y508000D02*
X442357Y508000D01*
X442357Y513960D01*
X442347Y515027D01*
X442333Y515367D01*
X442315Y515578D01*
X443506Y515578D01*
X443520Y515389D01*
X443537Y515035D01*
X443562Y514282D01*
X443583Y514282D01*
X443793Y514654D01*
X444019Y514965D01*
X444259Y515215D01*
X444514Y515403D01*
X444791Y515541D01*
X445097Y515639D01*
X445432Y515698D01*
X445796Y515718D01*
X446204Y515697D01*
X446567Y515632D01*
X446885Y515525D01*
X447158Y515375D01*
X447389Y515178D01*
X447583Y514930D01*
X447738Y514632D01*
X447855Y514282D01*
X447876Y514282D01*
X448082Y514637D01*
X448309Y514939D01*
X448557Y515187D01*
X448825Y515382D01*
X449118Y515529D01*
X449440Y515634D01*
X449792Y515697D01*
X450173Y515718D01*
X450451Y515708D01*
X450708Y515679D01*
X450947Y515631D01*
X451165Y515562D01*
X451364Y515475D01*
X451544Y515368D01*
X451703Y515241D01*
X451844Y515095D01*
X451966Y514927D01*
X452072Y514733D01*
X452162Y514515D01*
X452235Y514272D01*
X452292Y514004D01*
X452333Y513711D01*
X452357Y513393D01*
X452365Y513050D01*
X452365Y508000D01*
X451119Y508000D01*
X451119Y512805D01*
X451100Y513312D01*
X451043Y513734D01*
X451001Y513914D01*
X450949Y514072D01*
X450888Y514209D01*
X450818Y514324D01*
X450735Y514423D01*
X450637Y514508D01*
X450524Y514580D01*
X450396Y514640D01*
X450252Y514686D01*
X450094Y514718D01*
X449921Y514738D01*
X449732Y514745D01*
X449531Y514735D01*
X449342Y514706D01*
X449164Y514658D01*
X448998Y514591D01*
X448843Y514505D01*
X448699Y514400D01*
X448567Y514275D01*
X448447Y514132D01*
X448339Y513971D01*
X448246Y513793D01*
X448167Y513600D01*
X448103Y513390D01*
X448053Y513165D01*
X448017Y512923D01*
X447995Y512665D01*
X447988Y512391D01*
X447988Y508000D01*
X446741Y508000D01*
X446741Y512805D01*
X446723Y513312D01*
X446666Y513734D01*
X446624Y513914D01*
X446572Y514072D01*
X446511Y514209D01*
X446440Y514324D01*
X446357Y514423D01*
X446259Y514508D01*
X446146Y514580D01*
X446018Y514640D01*
X445875Y514686D01*
X445717Y514718D01*
X445543Y514738D01*
X445355Y514745D01*
X445159Y514735D01*
X444973Y514706D01*
X444798Y514658D01*
X444633Y514591D01*
X444479Y514504D01*
X444336Y514398D01*
X444203Y514273D01*
X444080Y514128D01*
X443970Y513966D01*
X443875Y513789D01*
X443794Y513595D01*
X443728Y513386D01*
X443677Y513161D01*
X443640Y512920D01*
X443618Y512664D01*
X443611Y512391D01*
X443611Y508000D01*
G37*
G36*
X437277Y508000D02*
X435890Y508000D01*
X431863Y517868D01*
X433271Y517868D01*
X436002Y510921D01*
X436591Y509177D01*
X437179Y510921D01*
X439896Y517868D01*
X441304Y517868D01*
X437277Y508000D01*
G37*
G36*
X463874Y507888D02*
X463691Y507895D01*
X463520Y507915D01*
X463360Y507948D01*
X463212Y507995D01*
X463076Y508056D01*
X462952Y508129D01*
X462840Y508216D01*
X462740Y508317D01*
X462651Y508431D01*
X462574Y508558D01*
X462509Y508699D01*
X462456Y508853D01*
X462415Y509021D01*
X462385Y509202D01*
X462367Y509396D01*
X462361Y509604D01*
X462361Y514661D01*
X461486Y514661D01*
X461486Y515578D01*
X462410Y515578D01*
X462782Y517273D01*
X463622Y517273D01*
X463622Y515578D01*
X465023Y515578D01*
X465023Y514661D01*
X463622Y514661D01*
X463622Y509877D01*
X463633Y509624D01*
X463667Y509412D01*
X463722Y509241D01*
X463801Y509110D01*
X463906Y509014D01*
X464045Y508945D01*
X464216Y508903D01*
X464420Y508889D01*
X464729Y508914D01*
X465149Y508988D01*
X465149Y508056D01*
X464835Y507983D01*
X464519Y507930D01*
X464198Y507898D01*
X463874Y507888D01*
G37*
G36*
X315294Y254574D02*
X315147Y255849D01*
X315490Y255968D01*
X315787Y256127D01*
X316039Y256325D01*
X316245Y256562D01*
X316405Y256838D01*
X316519Y257153D01*
X316588Y257507D01*
X316611Y257901D01*
X316601Y258148D01*
X316572Y258381D01*
X316524Y258601D01*
X316457Y258806D01*
X316371Y258998D01*
X316266Y259176D01*
X316141Y259340D01*
X315998Y259491D01*
X315837Y259626D01*
X315663Y259742D01*
X315474Y259841D01*
X315270Y259922D01*
X315052Y259985D01*
X314820Y260029D01*
X314574Y260056D01*
X314313Y260065D01*
X314086Y260056D01*
X313870Y260029D01*
X313665Y259984D01*
X313471Y259921D01*
X313288Y259840D01*
X313117Y259740D01*
X312957Y259623D01*
X312807Y259487D01*
X312673Y259337D01*
X312556Y259173D01*
X312458Y258997D01*
X312377Y258809D01*
X312314Y258608D01*
X312269Y258394D01*
X312242Y258168D01*
X312233Y257929D01*
X312243Y257678D01*
X312273Y257435D01*
X312324Y257202D01*
X312394Y256977D01*
X312489Y256756D01*
X312611Y256535D01*
X312762Y256315D01*
X312941Y256094D01*
X312941Y254861D01*
X307632Y255191D01*
X307632Y260801D01*
X308703Y260801D01*
X308703Y256339D01*
X311834Y256150D01*
X311686Y256361D01*
X311558Y256585D01*
X311450Y256821D01*
X311361Y257069D01*
X311292Y257330D01*
X311243Y257604D01*
X311213Y257890D01*
X311204Y258188D01*
X311217Y258543D01*
X311257Y258880D01*
X311324Y259198D01*
X311417Y259497D01*
X311537Y259778D01*
X311684Y260041D01*
X311858Y260285D01*
X312058Y260510D01*
X312280Y260713D01*
X312518Y260888D01*
X312772Y261037D01*
X313042Y261159D01*
X313329Y261253D01*
X313631Y261321D01*
X313950Y261361D01*
X314285Y261375D01*
X314665Y261360D01*
X315025Y261317D01*
X315363Y261244D01*
X315681Y261143D01*
X315978Y261012D01*
X316254Y260853D01*
X316509Y260664D01*
X316744Y260447D01*
X316954Y260204D01*
X317136Y259938D01*
X317290Y259650D01*
X317416Y259340D01*
X317514Y259007D01*
X317584Y258651D01*
X317626Y258273D01*
X317640Y257873D01*
X317631Y257536D01*
X317602Y257216D01*
X317555Y256913D01*
X317490Y256626D01*
X317405Y256356D01*
X317301Y256103D01*
X317179Y255866D01*
X317038Y255646D01*
X316879Y255444D01*
X316703Y255261D01*
X316510Y255098D01*
X316301Y254954D01*
X316074Y254830D01*
X315831Y254725D01*
X315571Y254640D01*
X315294Y254574D01*
G37*
G36*
X309922Y262018D02*
X309922Y263363D01*
X314853Y265029D01*
X316512Y265513D01*
X315693Y265758D01*
X314867Y266031D01*
X309922Y267754D01*
X309922Y269092D01*
X317500Y266262D01*
X317500Y264770D01*
X309922Y262018D01*
G37*
G36*
X419795Y393700D02*
X412957Y393700D01*
X412957Y401379D01*
X419795Y401379D01*
X419795Y393700D01*
G37*
G36*
X317500Y489157D02*
X309821Y489157D01*
X309821Y495995D01*
X317500Y495995D01*
X317500Y489157D01*
G37*
G36*
X685896Y583163D02*
X685329Y583183D01*
X684794Y583243D01*
X684291Y583342D01*
X683819Y583482D01*
X683380Y583661D01*
X682972Y583880D01*
X682596Y584140D01*
X682251Y584439D01*
X681943Y584773D01*
X681676Y585139D01*
X681451Y585536D01*
X681266Y585965D01*
X681122Y586424D01*
X681019Y586915D01*
X680958Y587437D01*
X680937Y587991D01*
X680947Y588355D01*
X680974Y588707D01*
X681020Y589047D01*
X681085Y589375D01*
X681168Y589691D01*
X681269Y589994D01*
X681389Y590285D01*
X681527Y590563D01*
X681683Y590828D01*
X681855Y591076D01*
X682044Y591308D01*
X682250Y591524D01*
X682473Y591725D01*
X682712Y591909D01*
X682968Y592077D01*
X683241Y592229D01*
X683528Y592364D01*
X683828Y592481D01*
X684141Y592580D01*
X684467Y592661D01*
X684805Y592724D01*
X685156Y592769D01*
X685520Y592796D01*
X685896Y592805D01*
X686271Y592796D01*
X686635Y592768D01*
X686986Y592723D01*
X687326Y592659D01*
X687653Y592577D01*
X687969Y592477D01*
X688273Y592359D01*
X688565Y592222D01*
X688843Y592068D01*
X689105Y591899D01*
X689349Y591714D01*
X689578Y591512D01*
X689789Y591295D01*
X689984Y591063D01*
X690162Y590814D01*
X690324Y590549D01*
X690468Y590271D01*
X690593Y589980D01*
X690698Y589677D01*
X690785Y589361D01*
X690852Y589034D01*
X690900Y588694D01*
X690928Y588341D01*
X690938Y587977D01*
X690928Y587609D01*
X690900Y587254D01*
X690853Y586912D01*
X690786Y586583D01*
X690701Y586266D01*
X690597Y585963D01*
X690473Y585672D01*
X690331Y585394D01*
X690171Y585130D01*
X689994Y584883D01*
X689800Y584651D01*
X689589Y584436D01*
X689361Y584237D01*
X689116Y584054D01*
X688854Y583886D01*
X688576Y583735D01*
X688283Y583601D01*
X687978Y583485D01*
X687661Y583386D01*
X687332Y583306D01*
X686991Y583243D01*
X686638Y583199D01*
X686273Y583172D01*
X685896Y583163D01*
G37*
%LPC*%
G36*
X685896Y584501D02*
X686341Y584515D01*
X686763Y584558D01*
X687161Y584630D01*
X687535Y584731D01*
X687886Y584860D01*
X688213Y585019D01*
X688517Y585206D01*
X688796Y585422D01*
X689048Y585663D01*
X689266Y585927D01*
X689450Y586212D01*
X689601Y586521D01*
X689718Y586851D01*
X689802Y587204D01*
X689852Y587579D01*
X689869Y587977D01*
X689853Y588385D01*
X689804Y588769D01*
X689723Y589129D01*
X689609Y589464D01*
X689463Y589775D01*
X689285Y590061D01*
X689074Y590323D01*
X688831Y590560D01*
X688558Y590771D01*
X688258Y590954D01*
X687932Y591108D01*
X687578Y591235D01*
X687198Y591333D01*
X686791Y591404D01*
X686357Y591446D01*
X685896Y591460D01*
X685455Y591446D01*
X685038Y591403D01*
X684645Y591332D01*
X684277Y591233D01*
X683933Y591106D01*
X683614Y590950D01*
X683319Y590765D01*
X683048Y590553D01*
X682805Y590314D01*
X682595Y590053D01*
X682417Y589767D01*
X682272Y589459D01*
X682159Y589127D01*
X682078Y588772D01*
X682029Y588393D01*
X682013Y587991D01*
X682029Y587585D01*
X682077Y587204D01*
X682157Y586846D01*
X682268Y586511D01*
X682412Y586201D01*
X682587Y585914D01*
X682795Y585651D01*
X683034Y585411D01*
X683302Y585198D01*
X683596Y585013D01*
X683915Y584856D01*
X684260Y584728D01*
X684631Y584629D01*
X685027Y584558D01*
X685449Y584515D01*
X685896Y584501D01*
G37*
%LPD*%
G36*
X685896Y602538D02*
X685329Y602558D01*
X684794Y602618D01*
X684291Y602717D01*
X683819Y602857D01*
X683380Y603036D01*
X682972Y603255D01*
X682596Y603515D01*
X682251Y603814D01*
X681943Y604148D01*
X681676Y604514D01*
X681451Y604911D01*
X681266Y605340D01*
X681122Y605799D01*
X681019Y606290D01*
X680958Y606812D01*
X680937Y607366D01*
X680947Y607730D01*
X680974Y608082D01*
X681020Y608422D01*
X681085Y608750D01*
X681168Y609066D01*
X681269Y609369D01*
X681389Y609660D01*
X681527Y609938D01*
X681683Y610203D01*
X681855Y610451D01*
X682044Y610683D01*
X682250Y610899D01*
X682473Y611100D01*
X682712Y611284D01*
X682968Y611452D01*
X683241Y611604D01*
X683528Y611739D01*
X683828Y611856D01*
X684141Y611955D01*
X684467Y612036D01*
X684805Y612099D01*
X685156Y612144D01*
X685520Y612171D01*
X685896Y612180D01*
X686271Y612171D01*
X686635Y612143D01*
X686986Y612098D01*
X687326Y612034D01*
X687653Y611952D01*
X687969Y611852D01*
X688273Y611734D01*
X688565Y611597D01*
X688843Y611443D01*
X689105Y611274D01*
X689349Y611089D01*
X689578Y610887D01*
X689789Y610670D01*
X689984Y610438D01*
X690162Y610189D01*
X690324Y609924D01*
X690468Y609646D01*
X690593Y609355D01*
X690698Y609052D01*
X690785Y608736D01*
X690852Y608409D01*
X690900Y608069D01*
X690928Y607716D01*
X690938Y607352D01*
X690928Y606984D01*
X690900Y606629D01*
X690853Y606287D01*
X690786Y605958D01*
X690701Y605641D01*
X690597Y605338D01*
X690473Y605047D01*
X690331Y604769D01*
X690171Y604505D01*
X689994Y604258D01*
X689800Y604026D01*
X689589Y603811D01*
X689361Y603612D01*
X689116Y603429D01*
X688854Y603261D01*
X688576Y603110D01*
X688283Y602976D01*
X687978Y602860D01*
X687661Y602761D01*
X687332Y602681D01*
X686991Y602618D01*
X686638Y602574D01*
X686273Y602547D01*
X685896Y602538D01*
G37*
%LPC*%
G36*
X685896Y603876D02*
X686341Y603890D01*
X686763Y603933D01*
X687161Y604005D01*
X687535Y604106D01*
X687886Y604235D01*
X688213Y604394D01*
X688517Y604581D01*
X688796Y604797D01*
X689048Y605038D01*
X689266Y605302D01*
X689450Y605587D01*
X689601Y605896D01*
X689718Y606226D01*
X689802Y606579D01*
X689852Y606954D01*
X689869Y607352D01*
X689853Y607760D01*
X689804Y608144D01*
X689723Y608504D01*
X689609Y608839D01*
X689463Y609150D01*
X689285Y609436D01*
X689074Y609698D01*
X688831Y609935D01*
X688558Y610146D01*
X688258Y610329D01*
X687932Y610483D01*
X687578Y610610D01*
X687198Y610708D01*
X686791Y610779D01*
X686357Y610821D01*
X685896Y610835D01*
X685455Y610821D01*
X685038Y610778D01*
X684645Y610707D01*
X684277Y610608D01*
X683933Y610481D01*
X683614Y610325D01*
X683319Y610140D01*
X683048Y609928D01*
X682805Y609689D01*
X682595Y609428D01*
X682417Y609142D01*
X682272Y608834D01*
X682159Y608502D01*
X682078Y608147D01*
X682029Y607768D01*
X682013Y607366D01*
X682029Y606960D01*
X682077Y606579D01*
X682157Y606221D01*
X682268Y605886D01*
X682412Y605576D01*
X682587Y605289D01*
X682795Y605026D01*
X683034Y604786D01*
X683302Y604573D01*
X683596Y604388D01*
X683915Y604231D01*
X684260Y604103D01*
X684631Y604004D01*
X685027Y603933D01*
X685449Y603890D01*
X685896Y603876D01*
G37*
%LPD*%
G36*
X690800Y613996D02*
X681082Y613996D01*
X681082Y618569D01*
X681094Y618968D01*
X681128Y619343D01*
X681185Y619695D01*
X681266Y620023D01*
X681369Y620328D01*
X681495Y620610D01*
X681645Y620869D01*
X681817Y621104D01*
X682009Y621313D01*
X682220Y621494D01*
X682449Y621648D01*
X682695Y621773D01*
X682960Y621871D01*
X683242Y621941D01*
X683543Y621983D01*
X683862Y621997D01*
X684127Y621987D01*
X684382Y621957D01*
X684625Y621908D01*
X684858Y621839D01*
X685081Y621750D01*
X685292Y621642D01*
X685493Y621514D01*
X685682Y621366D01*
X685858Y621200D01*
X686017Y621020D01*
X686159Y620825D01*
X686211Y620738D01*
X686284Y620615D01*
X686392Y620390D01*
X686483Y620149D01*
X686557Y619894D01*
X686614Y619624D01*
X688396Y620799D01*
X690800Y622383D01*
X690800Y620866D01*
X686765Y618341D01*
X686765Y615314D01*
X690800Y615314D01*
X690800Y613996D01*
G37*
%LPC*%
G36*
X685724Y615314D02*
X685724Y618493D01*
X685716Y618746D01*
X685693Y618984D01*
X685655Y619208D01*
X685602Y619416D01*
X685534Y619610D01*
X685450Y619789D01*
X685352Y619954D01*
X685238Y620103D01*
X685110Y620237D01*
X684970Y620352D01*
X684818Y620450D01*
X684654Y620530D01*
X684478Y620592D01*
X684289Y620637D01*
X684088Y620664D01*
X683875Y620672D01*
X683670Y620663D01*
X683477Y620636D01*
X683296Y620591D01*
X683128Y620528D01*
X682973Y620448D01*
X682830Y620349D01*
X682700Y620232D01*
X682582Y620097D01*
X682478Y619945D01*
X682388Y619777D01*
X682311Y619593D01*
X682249Y619394D01*
X682200Y619179D01*
X682165Y618948D01*
X682144Y618701D01*
X682137Y618438D01*
X682137Y615314D01*
X685724Y615314D01*
G37*
%LPD*%
G36*
X690800Y571902D02*
X681082Y571902D01*
X681082Y573634D01*
X687821Y576220D01*
X688693Y576485D01*
X689365Y576654D01*
X689018Y576740D01*
X688527Y576886D01*
X687821Y577123D01*
X681082Y579662D01*
X681082Y581351D01*
X690800Y581351D01*
X690800Y580165D01*
X684317Y580165D01*
X683262Y580181D01*
X682248Y580227D01*
X683348Y579906D01*
X684179Y579620D01*
X690800Y577110D01*
X690800Y576185D01*
X684179Y573640D01*
X683006Y573254D01*
X682248Y573027D01*
X683013Y573047D01*
X684317Y573075D01*
X690800Y573075D01*
X690800Y571902D01*
G37*
G36*
X682158Y593811D02*
X681082Y593811D01*
X681082Y601798D01*
X682158Y601798D01*
X682158Y598460D01*
X690800Y598460D01*
X690800Y597149D01*
X682158Y597149D01*
X682158Y593811D01*
G37*
G36*
X559737Y298020D02*
X558967Y298036D01*
X558247Y298085D01*
X557577Y298166D01*
X556956Y298279D01*
X556386Y298425D01*
X555865Y298604D01*
X555394Y298815D01*
X554973Y299058D01*
X554601Y299336D01*
X554279Y299652D01*
X554007Y300006D01*
X553784Y300397D01*
X553610Y300826D01*
X553542Y301054D01*
X553486Y301292D01*
X553443Y301539D01*
X553412Y301796D01*
X553394Y302062D01*
X553387Y302338D01*
X553394Y302606D01*
X553412Y302865D01*
X553444Y303116D01*
X553487Y303357D01*
X553544Y303589D01*
X553613Y303813D01*
X553788Y304233D01*
X554013Y304618D01*
X554289Y304966D01*
X554614Y305279D01*
X554990Y305557D01*
X555415Y305800D01*
X555888Y306011D01*
X556409Y306189D01*
X556978Y306335D01*
X557596Y306449D01*
X558261Y306530D01*
X558975Y306578D01*
X559737Y306595D01*
X560487Y306578D01*
X561192Y306526D01*
X561850Y306441D01*
X562463Y306322D01*
X563031Y306169D01*
X563552Y305981D01*
X564028Y305760D01*
X564458Y305504D01*
X564840Y305215D01*
X565171Y304894D01*
X565451Y304540D01*
X565680Y304154D01*
X565858Y303736D01*
X565985Y303285D01*
X566030Y303047D01*
X566062Y302801D01*
X566081Y302547D01*
X566087Y302285D01*
X566081Y302023D01*
X566062Y301770D01*
X566030Y301524D01*
X565986Y301287D01*
X565859Y300838D01*
X565682Y300422D01*
X565454Y300039D01*
X565176Y299689D01*
X564847Y299372D01*
X564467Y299088D01*
X564039Y298838D01*
X563564Y298621D01*
X563042Y298437D01*
X562474Y298287D01*
X561860Y298170D01*
X561199Y298087D01*
X560491Y298037D01*
X559737Y298020D01*
G37*
%LPC*%
G36*
X559737Y299614D02*
X560372Y299624D01*
X560963Y299654D01*
X561510Y299705D01*
X562012Y299775D01*
X562471Y299865D01*
X562885Y299976D01*
X563256Y300107D01*
X563582Y300258D01*
X563868Y300431D01*
X564115Y300627D01*
X564324Y300847D01*
X564495Y301091D01*
X564628Y301358D01*
X564724Y301650D01*
X564781Y301964D01*
X564800Y302303D01*
X564780Y302639D01*
X564722Y302953D01*
X564625Y303243D01*
X564489Y303509D01*
X564314Y303753D01*
X564100Y303973D01*
X563847Y304170D01*
X563556Y304344D01*
X563224Y304496D01*
X562851Y304627D01*
X562436Y304739D01*
X561979Y304830D01*
X561481Y304901D01*
X560942Y304951D01*
X560360Y304982D01*
X559737Y304992D01*
X559092Y304982D01*
X558494Y304953D01*
X557941Y304905D01*
X557434Y304837D01*
X556973Y304751D01*
X556558Y304644D01*
X556189Y304519D01*
X555866Y304374D01*
X555585Y304207D01*
X555341Y304015D01*
X555135Y303798D01*
X554966Y303556D01*
X554835Y303289D01*
X554741Y302997D01*
X554685Y302680D01*
X554666Y302338D01*
X554685Y301987D01*
X554740Y301662D01*
X554832Y301363D01*
X554962Y301089D01*
X555128Y300840D01*
X555331Y300618D01*
X555571Y300421D01*
X555848Y300249D01*
X556168Y300100D01*
X556535Y299971D01*
X556950Y299862D01*
X557412Y299773D01*
X557922Y299703D01*
X558479Y299654D01*
X559084Y299624D01*
X559737Y299614D01*
G37*
%LPD*%
G36*
X565912Y285853D02*
X553571Y285853D01*
X553571Y291660D01*
X553586Y292166D01*
X553630Y292643D01*
X553702Y293090D01*
X553804Y293507D01*
X553936Y293895D01*
X554096Y294252D01*
X554285Y294580D01*
X554504Y294879D01*
X554749Y295145D01*
X555016Y295375D01*
X555306Y295570D01*
X555620Y295730D01*
X555956Y295854D01*
X556315Y295942D01*
X556696Y295995D01*
X557101Y296013D01*
X557438Y296001D01*
X557761Y295963D01*
X558071Y295900D01*
X558367Y295813D01*
X558649Y295700D01*
X558917Y295562D01*
X559172Y295400D01*
X559413Y295212D01*
X559637Y295002D01*
X559839Y294773D01*
X560019Y294525D01*
X560085Y294414D01*
X560177Y294258D01*
X560314Y293972D01*
X560430Y293667D01*
X560523Y293343D01*
X560596Y293000D01*
X562859Y294492D01*
X565912Y296504D01*
X565912Y294577D01*
X560788Y291371D01*
X560788Y287526D01*
X565912Y287526D01*
X565912Y285853D01*
G37*
%LPC*%
G36*
X559466Y287526D02*
X559466Y291564D01*
X559456Y291885D01*
X559427Y292188D01*
X559379Y292471D01*
X559311Y292736D01*
X559225Y292983D01*
X559118Y293210D01*
X558993Y293419D01*
X558848Y293609D01*
X558686Y293778D01*
X558509Y293925D01*
X558316Y294049D01*
X558107Y294151D01*
X557883Y294230D01*
X557644Y294286D01*
X557389Y294320D01*
X557118Y294331D01*
X556857Y294320D01*
X556612Y294286D01*
X556383Y294229D01*
X556169Y294149D01*
X555972Y294046D01*
X555791Y293920D01*
X555625Y293772D01*
X555476Y293600D01*
X555344Y293407D01*
X555229Y293194D01*
X555132Y292961D01*
X555053Y292708D01*
X554991Y292434D01*
X554947Y292141D01*
X554920Y291827D01*
X554911Y291494D01*
X554911Y287526D01*
X559466Y287526D01*
G37*
%LPD*%
G36*
X563118Y307700D02*
X561892Y307700D01*
X553571Y313349D01*
X553571Y315004D01*
X561874Y315004D01*
X561874Y316738D01*
X563118Y316738D01*
X563118Y315004D01*
X565912Y315004D01*
X565912Y313515D01*
X563118Y313515D01*
X563118Y307700D01*
G37*
%LPC*%
G36*
X561874Y309154D02*
X561874Y313515D01*
X555349Y313515D01*
X555813Y313270D01*
X556391Y312929D01*
X561051Y309767D01*
X561699Y309294D01*
X561874Y309154D01*
G37*
%LPD*%
G36*
X565912Y242009D02*
X553571Y242009D01*
X553571Y243682D01*
X558791Y243682D01*
X558791Y250356D01*
X553571Y250356D01*
X553571Y252029D01*
X565912Y252029D01*
X565912Y250356D01*
X560193Y250356D01*
X560193Y243682D01*
X565912Y243682D01*
X565912Y242009D01*
G37*
G36*
X562952Y273228D02*
X562628Y274848D01*
X562896Y274928D01*
X563147Y275027D01*
X563379Y275147D01*
X563592Y275286D01*
X563787Y275445D01*
X563964Y275623D01*
X564122Y275821D01*
X564261Y276039D01*
X564383Y276277D01*
X564489Y276536D01*
X564579Y276815D01*
X564652Y277114D01*
X564709Y277434D01*
X564750Y277775D01*
X564774Y278136D01*
X564782Y278518D01*
X564773Y278911D01*
X564747Y279282D01*
X564704Y279629D01*
X564643Y279953D01*
X564565Y280254D01*
X564469Y280532D01*
X564356Y280787D01*
X564226Y281018D01*
X564079Y281225D01*
X563915Y281403D01*
X563736Y281555D01*
X563540Y281678D01*
X563327Y281775D01*
X563099Y281843D01*
X562854Y281885D01*
X562593Y281899D01*
X562305Y281881D01*
X562045Y281830D01*
X561814Y281743D01*
X561612Y281623D01*
X561431Y281471D01*
X561268Y281291D01*
X561121Y281083D01*
X560990Y280847D01*
X560872Y280586D01*
X560764Y280300D01*
X560666Y279990D01*
X560578Y279656D01*
X560219Y278124D01*
X560057Y277436D01*
X559895Y276837D01*
X559733Y276326D01*
X559571Y275903D01*
X559404Y275544D01*
X559228Y275226D01*
X559043Y274947D01*
X558848Y274708D01*
X558641Y274502D01*
X558416Y274321D01*
X558174Y274167D01*
X557915Y274038D01*
X557638Y273936D01*
X557342Y273864D01*
X557025Y273820D01*
X556689Y273806D01*
X556304Y273825D01*
X555942Y273881D01*
X555603Y273976D01*
X555286Y274109D01*
X554992Y274279D01*
X554720Y274488D01*
X554472Y274734D01*
X554246Y275019D01*
X554044Y275338D01*
X553870Y275691D01*
X553723Y276076D01*
X553602Y276493D01*
X553508Y276944D01*
X553441Y277427D01*
X553401Y277943D01*
X553387Y278491D01*
X553397Y279001D01*
X553428Y279481D01*
X553478Y279929D01*
X553548Y280346D01*
X553639Y280732D01*
X553749Y281088D01*
X553880Y281412D01*
X554031Y281706D01*
X554206Y281973D01*
X554410Y282220D01*
X554641Y282446D01*
X554901Y282652D01*
X555190Y282836D01*
X555507Y283000D01*
X555852Y283143D01*
X556225Y283265D01*
X556514Y281618D01*
X556277Y281543D01*
X556057Y281452D01*
X555854Y281346D01*
X555668Y281224D01*
X555498Y281087D01*
X555346Y280935D01*
X555210Y280768D01*
X555091Y280585D01*
X554987Y280385D01*
X554897Y280167D01*
X554821Y279931D01*
X554759Y279676D01*
X554711Y279403D01*
X554676Y279112D01*
X554655Y278802D01*
X554649Y278474D01*
X554656Y278115D01*
X554679Y277778D01*
X554718Y277462D01*
X554771Y277169D01*
X554840Y276897D01*
X554924Y276648D01*
X555024Y276420D01*
X555139Y276214D01*
X555269Y276032D01*
X555414Y275873D01*
X555575Y275739D01*
X555750Y275630D01*
X555940Y275544D01*
X556146Y275483D01*
X556366Y275447D01*
X556602Y275435D01*
X556874Y275454D01*
X557122Y275510D01*
X557345Y275605D01*
X557543Y275737D01*
X557722Y275905D01*
X557887Y276106D01*
X558038Y276340D01*
X558174Y276608D01*
X558310Y276964D01*
X558462Y277460D01*
X558628Y278098D01*
X558809Y278877D01*
X559076Y280011D01*
X559225Y280564D01*
X559400Y281093D01*
X559605Y281593D01*
X559842Y282061D01*
X559976Y282279D01*
X560125Y282482D01*
X560287Y282671D01*
X560464Y282844D01*
X560656Y283002D01*
X560865Y283141D01*
X561090Y283262D01*
X561331Y283366D01*
X561592Y283448D01*
X561874Y283507D01*
X562179Y283542D01*
X562505Y283554D01*
X562920Y283533D01*
X563311Y283470D01*
X563678Y283366D01*
X564020Y283220D01*
X564339Y283032D01*
X564633Y282803D01*
X564904Y282531D01*
X565150Y282218D01*
X565370Y281867D01*
X565560Y281482D01*
X565721Y281063D01*
X565853Y280610D01*
X565955Y280123D01*
X566029Y279601D01*
X566073Y279046D01*
X566087Y278456D01*
X566075Y277907D01*
X566038Y277388D01*
X565977Y276898D01*
X565891Y276438D01*
X565781Y276008D01*
X565646Y275607D01*
X565487Y275235D01*
X565303Y274894D01*
X565095Y274582D01*
X564862Y274300D01*
X564605Y274047D01*
X564323Y273824D01*
X564017Y273630D01*
X563687Y273466D01*
X563331Y273332D01*
X562952Y273228D01*
G37*
G36*
X559685Y254386D02*
X559321Y254393D01*
X558967Y254411D01*
X558623Y254442D01*
X558289Y254486D01*
X557965Y254542D01*
X557651Y254611D01*
X557347Y254692D01*
X557053Y254785D01*
X556769Y254891D01*
X556495Y255009D01*
X555977Y255283D01*
X555498Y255607D01*
X555060Y255980D01*
X554668Y256398D01*
X554328Y256854D01*
X554178Y257096D01*
X554041Y257348D01*
X553917Y257610D01*
X553806Y257881D01*
X553708Y258162D01*
X553623Y258452D01*
X553551Y258752D01*
X553492Y259061D01*
X553446Y259380D01*
X553413Y259709D01*
X553394Y260047D01*
X553387Y260395D01*
X553399Y260877D01*
X553435Y261340D01*
X553496Y261782D01*
X553580Y262203D01*
X553688Y262605D01*
X553821Y262986D01*
X553977Y263347D01*
X554158Y263688D01*
X554362Y264008D01*
X554590Y264305D01*
X554841Y264581D01*
X555115Y264835D01*
X555412Y265067D01*
X555733Y265278D01*
X556077Y265466D01*
X556444Y265632D01*
X556970Y264047D01*
X556708Y263932D01*
X556463Y263800D01*
X556233Y263652D01*
X556019Y263488D01*
X555821Y263307D01*
X555639Y263110D01*
X555473Y262897D01*
X555323Y262668D01*
X555190Y262424D01*
X555074Y262170D01*
X554976Y261905D01*
X554896Y261629D01*
X554834Y261341D01*
X554789Y261043D01*
X554763Y260733D01*
X554754Y260412D01*
X554774Y259914D01*
X554836Y259444D01*
X554939Y259003D01*
X555083Y258590D01*
X555269Y258206D01*
X555495Y257850D01*
X555763Y257523D01*
X556072Y257224D01*
X556417Y256957D01*
X556792Y256726D01*
X557198Y256530D01*
X557634Y256370D01*
X558101Y256246D01*
X558598Y256157D01*
X559126Y256103D01*
X559685Y256086D01*
X560238Y256104D01*
X560763Y256160D01*
X561261Y256252D01*
X561731Y256382D01*
X562173Y256549D01*
X562587Y256753D01*
X562974Y256994D01*
X563333Y257272D01*
X563656Y257582D01*
X563936Y257918D01*
X564173Y258280D01*
X564367Y258668D01*
X564518Y259083D01*
X564626Y259523D01*
X564691Y259990D01*
X564712Y260482D01*
X564702Y260801D01*
X564672Y261110D01*
X564622Y261409D01*
X564552Y261698D01*
X564461Y261977D01*
X564351Y262246D01*
X564221Y262504D01*
X564071Y262753D01*
X563900Y262992D01*
X563710Y263220D01*
X563499Y263439D01*
X563269Y263647D01*
X563018Y263845D01*
X562747Y264034D01*
X562457Y264212D01*
X562146Y264380D01*
X562829Y265746D01*
X563216Y265546D01*
X563578Y265327D01*
X563917Y265088D01*
X564233Y264830D01*
X564524Y264553D01*
X564791Y264256D01*
X565035Y263940D01*
X565255Y263605D01*
X565450Y263253D01*
X565619Y262887D01*
X565762Y262508D01*
X565879Y262115D01*
X565970Y261708D01*
X566035Y261287D01*
X566074Y260852D01*
X566087Y260404D01*
X566075Y259945D01*
X566039Y259502D01*
X565978Y259075D01*
X565893Y258664D01*
X565784Y258268D01*
X565651Y257888D01*
X565494Y257524D01*
X565312Y257176D01*
X565108Y256846D01*
X564883Y256536D01*
X564637Y256246D01*
X564371Y255976D01*
X564083Y255727D01*
X563775Y255498D01*
X563446Y255289D01*
X563096Y255100D01*
X562728Y254933D01*
X562343Y254788D01*
X561941Y254665D01*
X561523Y254565D01*
X561088Y254487D01*
X560637Y254431D01*
X560169Y254398D01*
X559685Y254386D01*
G37*
G36*
X561848Y267241D02*
X560447Y267241D01*
X560447Y271621D01*
X561848Y271621D01*
X561848Y267241D01*
G37*
G36*
X279523Y701216D02*
X279159Y701222D01*
X278805Y701241D01*
X278461Y701272D01*
X278127Y701316D01*
X277803Y701372D01*
X277489Y701440D01*
X277185Y701521D01*
X276891Y701614D01*
X276607Y701720D01*
X276333Y701839D01*
X275815Y702113D01*
X275336Y702436D01*
X274898Y702810D01*
X274506Y703228D01*
X274166Y703684D01*
X274016Y703926D01*
X273879Y704178D01*
X273755Y704439D01*
X273644Y704711D01*
X273546Y704991D01*
X273461Y705281D01*
X273389Y705581D01*
X273330Y705891D01*
X273284Y706210D01*
X273251Y706538D01*
X273232Y706877D01*
X273225Y707224D01*
X273237Y707707D01*
X273273Y708169D01*
X273334Y708611D01*
X273418Y709033D01*
X273526Y709434D01*
X273659Y709816D01*
X273815Y710177D01*
X273996Y710517D01*
X274200Y710837D01*
X274428Y711135D01*
X274679Y711411D01*
X274953Y711665D01*
X275250Y711897D01*
X275571Y712107D01*
X275915Y712295D01*
X276282Y712462D01*
X276808Y710877D01*
X276546Y710761D01*
X276301Y710629D01*
X276071Y710481D01*
X275857Y710317D01*
X275659Y710137D01*
X275477Y709940D01*
X275311Y709727D01*
X275161Y709497D01*
X275028Y709254D01*
X274912Y709000D01*
X274814Y708734D01*
X274734Y708458D01*
X274672Y708171D01*
X274627Y707872D01*
X274601Y707562D01*
X274592Y707242D01*
X274612Y706744D01*
X274674Y706274D01*
X274777Y705833D01*
X274921Y705420D01*
X275107Y705036D01*
X275333Y704680D01*
X275601Y704353D01*
X275910Y704054D01*
X276255Y703787D01*
X276630Y703556D01*
X277036Y703360D01*
X277472Y703200D01*
X277939Y703075D01*
X278436Y702986D01*
X278964Y702933D01*
X279523Y702915D01*
X280076Y702934D01*
X280601Y702989D01*
X281099Y703082D01*
X281569Y703212D01*
X282011Y703379D01*
X282425Y703583D01*
X282812Y703824D01*
X283171Y704102D01*
X283494Y704412D01*
X283774Y704747D01*
X284011Y705110D01*
X284205Y705498D01*
X284356Y705912D01*
X284464Y706353D01*
X284529Y706819D01*
X284550Y707312D01*
X284540Y707631D01*
X284510Y707940D01*
X284460Y708239D01*
X284390Y708528D01*
X284299Y708806D01*
X284189Y709075D01*
X284059Y709334D01*
X283909Y709582D01*
X283738Y709821D01*
X283548Y710050D01*
X283337Y710268D01*
X283107Y710476D01*
X282856Y710675D01*
X282585Y710863D01*
X282295Y711041D01*
X281984Y711209D01*
X282667Y712576D01*
X283054Y712376D01*
X283416Y712156D01*
X283755Y711917D01*
X284071Y711659D01*
X284362Y711382D01*
X284629Y711085D01*
X284873Y710769D01*
X285093Y710434D01*
X285288Y710082D01*
X285457Y709717D01*
X285600Y709337D01*
X285717Y708944D01*
X285808Y708537D01*
X285873Y708116D01*
X285912Y707682D01*
X285925Y707233D01*
X285913Y706774D01*
X285877Y706332D01*
X285816Y705905D01*
X285731Y705493D01*
X285622Y705098D01*
X285489Y704718D01*
X285332Y704354D01*
X285150Y704005D01*
X284946Y703675D01*
X284721Y703365D01*
X284475Y703075D01*
X284209Y702806D01*
X283921Y702556D01*
X283613Y702327D01*
X283284Y702118D01*
X282934Y701930D01*
X282566Y701762D01*
X282181Y701617D01*
X281779Y701495D01*
X281361Y701394D01*
X280926Y701316D01*
X280475Y701261D01*
X280007Y701227D01*
X279523Y701216D01*
G37*
G36*
X285750Y714609D02*
X284410Y714609D01*
X284410Y717753D01*
X274916Y717753D01*
X276904Y714968D01*
X275415Y714968D01*
X273409Y717885D01*
X273409Y719338D01*
X284410Y719338D01*
X284410Y722343D01*
X285750Y722343D01*
X285750Y714609D01*
G37*
G36*
X87134Y726000D02*
X78962Y726000D01*
X78962Y727112D01*
X79198Y727610D01*
X79458Y728077D01*
X79743Y728514D01*
X80053Y728921D01*
X80379Y729304D01*
X80713Y729668D01*
X81055Y730013D01*
X81406Y730340D01*
X82112Y730952D01*
X82812Y731518D01*
X83474Y732061D01*
X84068Y732604D01*
X84335Y732879D01*
X84575Y733160D01*
X84788Y733448D01*
X84975Y733743D01*
X85126Y734050D01*
X85234Y734378D01*
X85299Y734725D01*
X85321Y735091D01*
X85312Y735338D01*
X85284Y735571D01*
X85237Y735789D01*
X85172Y735993D01*
X85088Y736183D01*
X84986Y736359D01*
X84865Y736521D01*
X84725Y736668D01*
X84569Y736799D01*
X84398Y736913D01*
X84213Y737009D01*
X84014Y737088D01*
X83799Y737150D01*
X83571Y737193D01*
X83328Y737220D01*
X83070Y737228D01*
X82824Y737220D01*
X82588Y737194D01*
X82364Y737151D01*
X82151Y737092D01*
X81949Y737015D01*
X81759Y736921D01*
X81579Y736809D01*
X81410Y736681D01*
X81255Y736537D01*
X81118Y736380D01*
X80997Y736208D01*
X80892Y736023D01*
X80805Y735824D01*
X80734Y735611D01*
X80681Y735384D01*
X80644Y735144D01*
X79032Y735293D01*
X79090Y735653D01*
X79176Y735995D01*
X79291Y736318D01*
X79434Y736622D01*
X79605Y736907D01*
X79805Y737173D01*
X80033Y737420D01*
X80289Y737649D01*
X80569Y737854D01*
X80868Y738032D01*
X81187Y738183D01*
X81525Y738306D01*
X81882Y738402D01*
X82259Y738470D01*
X82655Y738511D01*
X83070Y738525D01*
X83523Y738511D01*
X83949Y738470D01*
X84348Y738401D01*
X84720Y738305D01*
X85065Y738181D01*
X85383Y738030D01*
X85674Y737851D01*
X85938Y737644D01*
X86173Y737413D01*
X86377Y737158D01*
X86549Y736880D01*
X86690Y736579D01*
X86800Y736255D01*
X86878Y735908D01*
X86925Y735537D01*
X86941Y735144D01*
X86921Y734785D01*
X86859Y734428D01*
X86756Y734072D01*
X86613Y733716D01*
X86429Y733362D01*
X86204Y733007D01*
X85940Y732652D01*
X85636Y732297D01*
X85238Y731894D01*
X84692Y731393D01*
X83999Y730795D01*
X83157Y730099D01*
X82680Y729697D01*
X82253Y729316D01*
X81878Y728955D01*
X81555Y728614D01*
X81278Y728287D01*
X81042Y727965D01*
X80849Y727650D01*
X80696Y727340D01*
X87134Y727340D01*
X87134Y726000D01*
G37*
G36*
X147160Y686000D02*
X139426Y686000D01*
X139426Y687340D01*
X142571Y687340D01*
X142571Y696834D01*
X139785Y694846D01*
X139785Y696335D01*
X142702Y698341D01*
X144156Y698341D01*
X144156Y687340D01*
X147160Y687340D01*
X147160Y686000D01*
G37*
G36*
X85561Y660825D02*
X85104Y660838D01*
X84671Y660878D01*
X84262Y660944D01*
X83876Y661036D01*
X83514Y661155D01*
X83176Y661300D01*
X82861Y661472D01*
X82570Y661670D01*
X82305Y661894D01*
X82068Y662143D01*
X81860Y662418D01*
X81680Y662718D01*
X81528Y663043D01*
X81405Y663394D01*
X81310Y663769D01*
X81243Y664171D01*
X82872Y664319D01*
X82920Y664054D01*
X82983Y663806D01*
X83063Y663575D01*
X83159Y663362D01*
X83270Y663165D01*
X83398Y662985D01*
X83542Y662823D01*
X83702Y662677D01*
X83878Y662549D01*
X84070Y662438D01*
X84279Y662344D01*
X84503Y662267D01*
X84743Y662207D01*
X85000Y662164D01*
X85272Y662138D01*
X85561Y662130D01*
X85851Y662139D01*
X86125Y662167D01*
X86382Y662212D01*
X86624Y662277D01*
X86850Y662359D01*
X87060Y662460D01*
X87253Y662579D01*
X87431Y662717D01*
X87590Y662872D01*
X87728Y663046D01*
X87845Y663237D01*
X87940Y663446D01*
X88014Y663673D01*
X88067Y663917D01*
X88099Y664179D01*
X88110Y664460D01*
X88098Y664705D01*
X88061Y664936D01*
X88001Y665153D01*
X87916Y665356D01*
X87807Y665546D01*
X87674Y665722D01*
X87516Y665884D01*
X87335Y666032D01*
X87130Y666164D01*
X86904Y666279D01*
X86657Y666376D01*
X86388Y666455D01*
X86097Y666517D01*
X85785Y666561D01*
X85452Y666588D01*
X85097Y666597D01*
X84204Y666597D01*
X84204Y667963D01*
X85062Y667963D01*
X85377Y667972D01*
X85674Y667998D01*
X85952Y668042D01*
X86213Y668104D01*
X86455Y668184D01*
X86679Y668281D01*
X86884Y668396D01*
X87072Y668528D01*
X87239Y668676D01*
X87384Y668838D01*
X87507Y669013D01*
X87607Y669201D01*
X87685Y669403D01*
X87741Y669619D01*
X87775Y669849D01*
X87786Y670091D01*
X87777Y670332D01*
X87749Y670560D01*
X87704Y670775D01*
X87640Y670977D01*
X87558Y671166D01*
X87458Y671342D01*
X87340Y671505D01*
X87203Y671655D01*
X87049Y671789D01*
X86877Y671906D01*
X86687Y672004D01*
X86480Y672085D01*
X86255Y672148D01*
X86012Y672193D01*
X85752Y672219D01*
X85474Y672228D01*
X85219Y672220D01*
X84977Y672195D01*
X84748Y672153D01*
X84531Y672095D01*
X84326Y672020D01*
X84134Y671928D01*
X83955Y671819D01*
X83788Y671694D01*
X83635Y671554D01*
X83499Y671400D01*
X83380Y671232D01*
X83278Y671050D01*
X83193Y670855D01*
X83125Y670646D01*
X83073Y670424D01*
X83039Y670188D01*
X81453Y670310D01*
X81511Y670679D01*
X81598Y671026D01*
X81712Y671353D01*
X81855Y671659D01*
X82026Y671944D01*
X82226Y672209D01*
X82454Y672452D01*
X82710Y672675D01*
X82990Y672874D01*
X83290Y673047D01*
X83608Y673193D01*
X83946Y673312D01*
X84304Y673405D01*
X84680Y673472D01*
X85076Y673511D01*
X85491Y673525D01*
X85942Y673511D01*
X86368Y673471D01*
X86767Y673403D01*
X87141Y673309D01*
X87489Y673188D01*
X87811Y673039D01*
X88107Y672864D01*
X88377Y672662D01*
X88618Y672436D01*
X88827Y672188D01*
X89004Y671920D01*
X89149Y671630D01*
X89261Y671318D01*
X89342Y670986D01*
X89390Y670633D01*
X89406Y670258D01*
X89396Y669969D01*
X89365Y669694D01*
X89313Y669433D01*
X89241Y669186D01*
X89148Y668953D01*
X89034Y668733D01*
X88900Y668527D01*
X88745Y668335D01*
X88570Y668158D01*
X88377Y667995D01*
X88165Y667847D01*
X87934Y667715D01*
X87684Y667597D01*
X87415Y667494D01*
X87128Y667406D01*
X86822Y667332D01*
X86822Y667297D01*
X87159Y667250D01*
X87476Y667184D01*
X87774Y667097D01*
X88053Y666991D01*
X88313Y666865D01*
X88553Y666719D01*
X88775Y666554D01*
X88977Y666369D01*
X89158Y666168D01*
X89314Y665954D01*
X89447Y665728D01*
X89555Y665489D01*
X89639Y665237D01*
X89700Y664973D01*
X89736Y664696D01*
X89748Y664407D01*
X89731Y663992D01*
X89680Y663601D01*
X89595Y663235D01*
X89476Y662892D01*
X89323Y662573D01*
X89137Y662279D01*
X88916Y662008D01*
X88662Y661762D01*
X88376Y661542D01*
X88061Y661352D01*
X87717Y661191D01*
X87343Y661059D01*
X86941Y660957D01*
X86510Y660883D01*
X86050Y660840D01*
X85561Y660825D01*
G37*
G36*
X197065Y758956D02*
X189675Y758956D01*
X189675Y778714D01*
X196209Y778714D01*
X196828Y778704D01*
X197429Y778675D01*
X198011Y778626D01*
X198576Y778557D01*
X199123Y778468D01*
X199652Y778360D01*
X200163Y778232D01*
X200656Y778085D01*
X201132Y777918D01*
X201589Y777731D01*
X202028Y777524D01*
X202450Y777298D01*
X202854Y777052D01*
X203239Y776787D01*
X203607Y776502D01*
X203957Y776197D01*
X204287Y775874D01*
X204596Y775535D01*
X204884Y775178D01*
X205150Y774806D01*
X205395Y774416D01*
X205619Y774010D01*
X205821Y773588D01*
X206003Y773149D01*
X206162Y772693D01*
X206301Y772221D01*
X206418Y771732D01*
X206514Y771226D01*
X206589Y770704D01*
X206642Y770166D01*
X206674Y769610D01*
X206684Y769038D01*
X206666Y768286D01*
X206610Y767558D01*
X206517Y766853D01*
X206386Y766172D01*
X206219Y765516D01*
X206014Y764883D01*
X205772Y764274D01*
X205492Y763689D01*
X205179Y763132D01*
X204834Y762609D01*
X204459Y762120D01*
X204052Y761664D01*
X203614Y761242D01*
X203145Y760853D01*
X202644Y760498D01*
X202113Y760176D01*
X201556Y759890D01*
X200977Y759642D01*
X200378Y759433D01*
X199757Y759261D01*
X199116Y759128D01*
X198453Y759032D01*
X197769Y758975D01*
X197065Y758956D01*
G37*
%LPC*%
G36*
X196756Y761101D02*
X197291Y761116D01*
X197810Y761161D01*
X198312Y761236D01*
X198798Y761340D01*
X199268Y761474D01*
X199721Y761638D01*
X200157Y761832D01*
X200577Y762055D01*
X200977Y762307D01*
X201354Y762584D01*
X201706Y762889D01*
X202034Y763219D01*
X202339Y763576D01*
X202619Y763959D01*
X202876Y764368D01*
X203109Y764804D01*
X203316Y765262D01*
X203495Y765741D01*
X203647Y766240D01*
X203771Y766760D01*
X203868Y767299D01*
X203937Y767859D01*
X203978Y768438D01*
X203992Y769038D01*
X203984Y769491D01*
X203961Y769930D01*
X203921Y770355D01*
X203866Y770766D01*
X203796Y771164D01*
X203709Y771548D01*
X203607Y771919D01*
X203489Y772276D01*
X203355Y772619D01*
X203206Y772949D01*
X203041Y773265D01*
X202860Y773567D01*
X202664Y773856D01*
X202451Y774131D01*
X202223Y774393D01*
X201980Y774641D01*
X201721Y774874D01*
X201449Y775092D01*
X201162Y775296D01*
X200861Y775484D01*
X200546Y775657D01*
X200217Y775815D01*
X199874Y775959D01*
X199517Y776087D01*
X199146Y776200D01*
X198761Y776298D01*
X198361Y776380D01*
X197948Y776448D01*
X197520Y776501D01*
X197079Y776539D01*
X196623Y776561D01*
X196153Y776569D01*
X192353Y776569D01*
X192353Y761101D01*
X196756Y761101D01*
G37*
%LPD*%
G36*
X219161Y758676D02*
X218427Y758695D01*
X217718Y758753D01*
X217034Y758850D01*
X216376Y758986D01*
X215742Y759160D01*
X215134Y759374D01*
X214551Y759626D01*
X213994Y759917D01*
X213465Y760243D01*
X212968Y760604D01*
X212504Y760997D01*
X212072Y761424D01*
X211673Y761884D01*
X211306Y762378D01*
X210972Y762904D01*
X210670Y763464D01*
X210402Y764054D01*
X210170Y764671D01*
X209974Y765314D01*
X209813Y765983D01*
X209688Y766679D01*
X209599Y767402D01*
X209545Y768151D01*
X209527Y768926D01*
X209537Y769509D01*
X209567Y770076D01*
X209617Y770626D01*
X209687Y771161D01*
X209777Y771680D01*
X209886Y772183D01*
X210016Y772669D01*
X210165Y773140D01*
X210335Y773595D01*
X210524Y774034D01*
X210734Y774456D01*
X210963Y774863D01*
X211212Y775254D01*
X211481Y775629D01*
X211770Y775987D01*
X212079Y776330D01*
X212406Y776655D01*
X212748Y776958D01*
X213106Y777241D01*
X213478Y777502D01*
X213866Y777743D01*
X214270Y777962D01*
X214688Y778161D01*
X215122Y778339D01*
X215572Y778496D01*
X216037Y778632D01*
X216517Y778747D01*
X217012Y778841D01*
X217523Y778914D01*
X218049Y778967D01*
X218590Y778998D01*
X219147Y779009D01*
X219920Y778989D01*
X220660Y778932D01*
X221367Y778835D01*
X222043Y778700D01*
X222686Y778527D01*
X223296Y778315D01*
X223874Y778064D01*
X224420Y777775D01*
X224931Y777448D01*
X225408Y777083D01*
X225850Y776682D01*
X226257Y776243D01*
X226628Y775767D01*
X226965Y775253D01*
X227266Y774703D01*
X227533Y774115D01*
X224994Y773273D01*
X224810Y773692D01*
X224599Y774085D01*
X224362Y774453D01*
X224099Y774795D01*
X223810Y775112D01*
X223494Y775403D01*
X223153Y775669D01*
X222786Y775910D01*
X222397Y776123D01*
X221990Y776308D01*
X221565Y776465D01*
X221122Y776593D01*
X220662Y776693D01*
X220184Y776764D01*
X219688Y776807D01*
X219175Y776821D01*
X218771Y776813D01*
X218377Y776788D01*
X217996Y776747D01*
X217625Y776689D01*
X217267Y776615D01*
X216919Y776524D01*
X216583Y776417D01*
X216258Y776293D01*
X215945Y776153D01*
X215643Y775997D01*
X215352Y775824D01*
X215073Y775634D01*
X214806Y775428D01*
X214549Y775205D01*
X214304Y774966D01*
X214071Y774711D01*
X213850Y774441D01*
X213643Y774159D01*
X213451Y773864D01*
X213273Y773558D01*
X213109Y773239D01*
X212960Y772908D01*
X212825Y772565D01*
X212703Y772209D01*
X212597Y771842D01*
X212504Y771462D01*
X212426Y771070D01*
X212362Y770665D01*
X212312Y770249D01*
X212276Y769820D01*
X212255Y769379D01*
X212248Y768926D01*
X212255Y768478D01*
X212277Y768040D01*
X212315Y767614D01*
X212366Y767199D01*
X212433Y766795D01*
X212515Y766402D01*
X212611Y766021D01*
X212723Y765650D01*
X212849Y765291D01*
X212990Y764942D01*
X213146Y764605D01*
X213317Y764279D01*
X213502Y763964D01*
X213702Y763660D01*
X213918Y763367D01*
X214148Y763086D01*
X214391Y762818D01*
X214644Y762568D01*
X214907Y762335D01*
X215182Y762119D01*
X215466Y761921D01*
X215761Y761740D01*
X216067Y761576D01*
X216383Y761429D01*
X216709Y761300D01*
X217046Y761188D01*
X217393Y761093D01*
X217751Y761015D01*
X218120Y760955D01*
X218498Y760912D01*
X218887Y760886D01*
X219287Y760877D01*
X219798Y760893D01*
X220293Y760941D01*
X220771Y761022D01*
X221234Y761134D01*
X221680Y761278D01*
X222110Y761455D01*
X222525Y761664D01*
X222923Y761904D01*
X223305Y762177D01*
X223670Y762482D01*
X224020Y762819D01*
X224354Y763188D01*
X224671Y763590D01*
X224973Y764023D01*
X225258Y764488D01*
X225527Y764986D01*
X227715Y763892D01*
X227394Y763273D01*
X227043Y762692D01*
X226661Y762149D01*
X226248Y761645D01*
X225804Y761178D01*
X225329Y760750D01*
X224823Y760360D01*
X224286Y760008D01*
X223723Y759695D01*
X223138Y759425D01*
X222530Y759196D01*
X221901Y759009D01*
X221249Y758863D01*
X220575Y758759D01*
X219879Y758696D01*
X219161Y758676D01*
G37*
G36*
X171160Y758956D02*
X168383Y758956D01*
X160320Y778714D01*
X163139Y778714D01*
X168608Y764804D01*
X169786Y761312D01*
X170963Y764804D01*
X176404Y778714D01*
X179223Y778714D01*
X171160Y758956D01*
G37*
G36*
X158753Y758956D02*
X145670Y758956D01*
X145670Y760737D01*
X146047Y761533D01*
X146464Y762281D01*
X146920Y762981D01*
X147415Y763633D01*
X147937Y764245D01*
X148472Y764828D01*
X149021Y765381D01*
X149582Y765904D01*
X150712Y766884D01*
X151833Y767790D01*
X152376Y768225D01*
X152893Y768660D01*
X153383Y769095D01*
X153845Y769529D01*
X154272Y769969D01*
X154656Y770420D01*
X154998Y770881D01*
X155296Y771352D01*
X155426Y771595D01*
X155539Y771845D01*
X155634Y772103D01*
X155712Y772369D01*
X155772Y772643D01*
X155815Y772924D01*
X155841Y773214D01*
X155850Y773512D01*
X155835Y773907D01*
X155790Y774279D01*
X155716Y774629D01*
X155612Y774956D01*
X155478Y775260D01*
X155314Y775541D01*
X155120Y775800D01*
X154897Y776036D01*
X154647Y776246D01*
X154373Y776428D01*
X154077Y776583D01*
X153757Y776709D01*
X153414Y776807D01*
X153048Y776877D01*
X152659Y776919D01*
X152246Y776933D01*
X151852Y776920D01*
X151475Y776878D01*
X151117Y776810D01*
X150776Y776714D01*
X150452Y776591D01*
X150147Y776440D01*
X149859Y776262D01*
X149589Y776057D01*
X149341Y775827D01*
X149120Y775574D01*
X148927Y775300D01*
X148760Y775003D01*
X148620Y774685D01*
X148507Y774344D01*
X148421Y773981D01*
X148362Y773596D01*
X145782Y773834D01*
X145874Y774412D01*
X146013Y774959D01*
X146196Y775476D01*
X146425Y775962D01*
X146699Y776419D01*
X147019Y776845D01*
X147384Y777241D01*
X147794Y777606D01*
X148242Y777935D01*
X148722Y778220D01*
X149232Y778461D01*
X149773Y778658D01*
X150345Y778811D01*
X150948Y778921D01*
X151582Y778987D01*
X152246Y779009D01*
X152971Y778987D01*
X153653Y778921D01*
X154292Y778810D01*
X154888Y778656D01*
X155440Y778458D01*
X155950Y778216D01*
X156416Y777930D01*
X156839Y777599D01*
X157215Y777229D01*
X157541Y776821D01*
X157817Y776376D01*
X158043Y775894D01*
X158219Y775375D01*
X158288Y775102D01*
X158344Y774819D01*
X158388Y774527D01*
X158419Y774226D01*
X158438Y773915D01*
X158444Y773596D01*
X158436Y773309D01*
X158411Y773022D01*
X158370Y772735D01*
X158313Y772449D01*
X158239Y772164D01*
X158149Y771879D01*
X158042Y771594D01*
X157918Y771310D01*
X157624Y770742D01*
X157265Y770174D01*
X156842Y769606D01*
X156355Y769038D01*
X155718Y768392D01*
X154844Y767591D01*
X153734Y766633D01*
X152386Y765519D01*
X151621Y764876D01*
X150939Y764265D01*
X150338Y763687D01*
X149820Y763142D01*
X149377Y762617D01*
X149000Y762102D01*
X148690Y761597D01*
X148446Y761101D01*
X158753Y761101D01*
X158753Y758956D01*
G37*
G36*
X142826Y758956D02*
X130444Y758956D01*
X130444Y761101D01*
X135478Y761101D01*
X135478Y776302D01*
X131019Y773119D01*
X131019Y775503D01*
X135689Y778714D01*
X138016Y778714D01*
X138016Y761101D01*
X142826Y761101D01*
X142826Y758956D01*
G37*
G36*
X186044Y765463D02*
X179032Y765463D01*
X179032Y767706D01*
X186044Y767706D01*
X186044Y765463D01*
G37*
G36*
X34549Y435224D02*
X34082Y435236D01*
X33631Y435272D01*
X33197Y435332D01*
X32778Y435417D01*
X32377Y435525D01*
X31991Y435657D01*
X31622Y435814D01*
X31269Y435995D01*
X30934Y436198D01*
X30620Y436423D01*
X30326Y436669D01*
X30052Y436937D01*
X29799Y437227D01*
X29566Y437537D01*
X29354Y437870D01*
X29162Y438224D01*
X28992Y438596D01*
X28844Y438983D01*
X28719Y439386D01*
X28617Y439803D01*
X28537Y440236D01*
X28481Y440685D01*
X28447Y441148D01*
X28435Y441626D01*
X28442Y441991D01*
X28461Y442346D01*
X28492Y442691D01*
X28537Y443026D01*
X28594Y443350D01*
X28663Y443665D01*
X28745Y443969D01*
X28840Y444264D01*
X28948Y444548D01*
X29068Y444822D01*
X29201Y445086D01*
X29347Y445340D01*
X29676Y445818D01*
X30056Y446255D01*
X30481Y446646D01*
X30708Y446822D01*
X30945Y446985D01*
X31192Y447135D01*
X31449Y447272D01*
X31716Y447396D01*
X31993Y447507D01*
X32280Y447604D01*
X32577Y447689D01*
X32884Y447761D01*
X33200Y447819D01*
X33527Y447865D01*
X33864Y447898D01*
X34210Y447917D01*
X34566Y447924D01*
X35029Y447912D01*
X35477Y447877D01*
X35908Y447818D01*
X36325Y447737D01*
X36725Y447631D01*
X37110Y447502D01*
X37479Y447350D01*
X37833Y447175D01*
X38169Y446977D01*
X38484Y446758D01*
X38779Y446518D01*
X39054Y446256D01*
X39308Y445974D01*
X39542Y445670D01*
X39755Y445345D01*
X39948Y444998D01*
X40120Y444633D01*
X40268Y444252D01*
X40394Y443855D01*
X40497Y443442D01*
X40577Y443012D01*
X40634Y442566D01*
X40668Y442104D01*
X40680Y441626D01*
X40668Y441150D01*
X40633Y440689D01*
X40576Y440242D01*
X40495Y439811D01*
X40391Y439395D01*
X40263Y438994D01*
X40113Y438608D01*
X39940Y438237D01*
X39745Y437884D01*
X39529Y437552D01*
X39294Y437241D01*
X39039Y436951D01*
X38763Y436683D01*
X38467Y436435D01*
X38152Y436209D01*
X37816Y436003D01*
X37462Y435821D01*
X37093Y435662D01*
X36708Y435528D01*
X36307Y435419D01*
X35891Y435333D01*
X35459Y435273D01*
X35012Y435236D01*
X34549Y435224D01*
G37*
%LPC*%
G36*
X34549Y436581D02*
X35067Y436602D01*
X35555Y436664D01*
X36012Y436767D01*
X36437Y436911D01*
X36832Y437096D01*
X37195Y437323D01*
X37528Y437591D01*
X37829Y437900D01*
X38097Y438246D01*
X38329Y438627D01*
X38525Y439042D01*
X38686Y439490D01*
X38811Y439973D01*
X38900Y440490D01*
X38954Y441041D01*
X38972Y441626D01*
X38954Y442187D01*
X38900Y442716D01*
X38810Y443215D01*
X38684Y443682D01*
X38522Y444119D01*
X38324Y444525D01*
X38090Y444900D01*
X37820Y445244D01*
X37517Y445552D01*
X37185Y445818D01*
X36823Y446044D01*
X36431Y446229D01*
X36009Y446373D01*
X35558Y446475D01*
X35077Y446537D01*
X34566Y446557D01*
X34051Y446537D01*
X33567Y446476D01*
X33112Y446375D01*
X32688Y446233D01*
X32293Y446051D01*
X31929Y445828D01*
X31595Y445565D01*
X31291Y445261D01*
X31020Y444921D01*
X30785Y444548D01*
X30586Y444142D01*
X30423Y443704D01*
X30297Y443234D01*
X30207Y442730D01*
X30152Y442195D01*
X30134Y441626D01*
X30153Y441061D01*
X30208Y440526D01*
X30299Y440020D01*
X30427Y439545D01*
X30591Y439100D01*
X30792Y438684D01*
X31030Y438299D01*
X31304Y437943D01*
X31610Y437624D01*
X31945Y437348D01*
X32308Y437113D01*
X32700Y436922D01*
X33119Y436773D01*
X33567Y436667D01*
X34044Y436603D01*
X34549Y436581D01*
G37*
%LPD*%
G36*
X73574Y435399D02*
X71901Y435399D01*
X71901Y447740D01*
X77708Y447740D01*
X78214Y447725D01*
X78691Y447681D01*
X79138Y447609D01*
X79555Y447507D01*
X79942Y447375D01*
X80300Y447215D01*
X80628Y447026D01*
X80927Y446807D01*
X81192Y446562D01*
X81423Y446295D01*
X81618Y446005D01*
X81777Y445691D01*
X81901Y445355D01*
X81990Y444996D01*
X82043Y444615D01*
X82061Y444210D01*
X82048Y443873D01*
X82011Y443550D01*
X81948Y443240D01*
X81860Y442944D01*
X81748Y442662D01*
X81610Y442394D01*
X81447Y442139D01*
X81259Y441898D01*
X81050Y441674D01*
X80821Y441473D01*
X80573Y441292D01*
X80462Y441226D01*
X80306Y441134D01*
X80020Y440997D01*
X79715Y440881D01*
X79391Y440788D01*
X79048Y440715D01*
X80539Y438452D01*
X82551Y435399D01*
X80624Y435399D01*
X77419Y440523D01*
X73574Y440523D01*
X73574Y435399D01*
G37*
%LPC*%
G36*
X77611Y441845D02*
X77933Y441855D01*
X78235Y441884D01*
X78519Y441932D01*
X78784Y442000D01*
X79030Y442086D01*
X79258Y442193D01*
X79467Y442318D01*
X79657Y442463D01*
X79826Y442625D01*
X79973Y442802D01*
X80097Y442995D01*
X80198Y443204D01*
X80278Y443428D01*
X80334Y443667D01*
X80368Y443922D01*
X80379Y444193D01*
X80368Y444454D01*
X80333Y444699D01*
X80276Y444929D01*
X80196Y445142D01*
X80093Y445339D01*
X79968Y445520D01*
X79819Y445686D01*
X79648Y445835D01*
X79455Y445967D01*
X79242Y446082D01*
X79009Y446179D01*
X78756Y446259D01*
X78482Y446320D01*
X78189Y446364D01*
X77875Y446391D01*
X77541Y446400D01*
X73574Y446400D01*
X73574Y441845D01*
X77611Y441845D01*
G37*
%LPD*%
G36*
X18793Y435399D02*
X17120Y435399D01*
X17120Y447740D01*
X22313Y447740D01*
X22818Y447725D01*
X23293Y447679D01*
X23738Y447603D01*
X24155Y447497D01*
X24542Y447360D01*
X24900Y447193D01*
X25229Y446995D01*
X25528Y446768D01*
X25795Y446512D01*
X26026Y446232D01*
X26222Y445926D01*
X26382Y445596D01*
X26506Y445241D01*
X26595Y444861D01*
X26649Y444456D01*
X26666Y444026D01*
X26649Y443599D01*
X26595Y443195D01*
X26506Y442813D01*
X26381Y442454D01*
X26220Y442117D01*
X26024Y441803D01*
X25791Y441511D01*
X25523Y441241D01*
X25225Y440999D01*
X24901Y440789D01*
X24551Y440611D01*
X24176Y440466D01*
X23775Y440353D01*
X23348Y440272D01*
X22896Y440224D01*
X22419Y440207D01*
X18793Y440207D01*
X18793Y435399D01*
G37*
%LPC*%
G36*
X22182Y441530D02*
X22521Y441540D01*
X22839Y441569D01*
X23135Y441617D01*
X23408Y441685D01*
X23660Y441772D01*
X23890Y441879D01*
X24098Y442004D01*
X24284Y442150D01*
X24448Y442314D01*
X24591Y442498D01*
X24711Y442702D01*
X24810Y442924D01*
X24886Y443166D01*
X24941Y443428D01*
X24974Y443708D01*
X24985Y444009D01*
X24974Y444298D01*
X24940Y444569D01*
X24884Y444821D01*
X24805Y445055D01*
X24704Y445270D01*
X24581Y445466D01*
X24435Y445643D01*
X24267Y445802D01*
X24076Y445942D01*
X23863Y446063D01*
X23627Y446166D01*
X23369Y446250D01*
X23088Y446316D01*
X22785Y446362D01*
X22460Y446390D01*
X22112Y446400D01*
X18793Y446400D01*
X18793Y441530D01*
X22182Y441530D01*
G37*
%LPD*%
G36*
X47265Y435399D02*
X45268Y435399D01*
X41633Y447740D01*
X43376Y447740D01*
X45592Y439901D01*
X45971Y438408D01*
X46319Y436870D01*
X46805Y438972D01*
X47061Y439947D01*
X47551Y441734D01*
X49236Y447740D01*
X50838Y447740D01*
X52984Y440059D01*
X53422Y438320D01*
X53755Y436870D01*
X53834Y437177D01*
X54219Y438819D01*
X54909Y441367D01*
X56680Y447740D01*
X58423Y447740D01*
X54789Y435399D01*
X52792Y435399D01*
X50655Y443238D01*
X50396Y444265D01*
X50041Y445874D01*
X49656Y444175D01*
X48979Y441639D01*
X47265Y435399D01*
G37*
G36*
X69685Y435399D02*
X59963Y435399D01*
X59963Y447740D01*
X69326Y447740D01*
X69326Y446373D01*
X61636Y446373D01*
X61636Y442415D01*
X68801Y442415D01*
X68801Y441066D01*
X61636Y441066D01*
X61636Y436765D01*
X69685Y436765D01*
X69685Y435399D01*
G37*
D10*
X25400Y393700D02*
X25400Y215900D01*
X406400Y215900D01*
X406400Y393700D01*
X25400Y393700D01*
X317500Y698729D02*
X496112Y698729D01*
X317500Y698729D02*
X317500Y496824D01*
X495300Y496824D01*
X495300Y685217D01*
X496112Y698729D01*
X613200Y658300D02*
X613200Y534300D01*
X670700Y534300D02*
X670700Y658300D01*
X670700Y534300D02*
X613200Y534300D01*
X613200Y658300D02*
X670700Y658300D01*
D11*
X271525Y642125D02*
X236475Y642125D01*
X271525Y642125D02*
X271525Y577075D01*
X236475Y577075D01*
X236475Y642125D01*
D12*
X220000Y649500D02*
X220002Y649563D01*
X220008Y649625D01*
X220018Y649687D01*
X220031Y649749D01*
X220049Y649809D01*
X220070Y649868D01*
X220095Y649926D01*
X220124Y649982D01*
X220156Y650036D01*
X220191Y650088D01*
X220229Y650137D01*
X220271Y650185D01*
X220315Y650229D01*
X220363Y650271D01*
X220412Y650309D01*
X220464Y650344D01*
X220518Y650376D01*
X220574Y650405D01*
X220632Y650430D01*
X220691Y650451D01*
X220751Y650469D01*
X220813Y650482D01*
X220875Y650492D01*
X220937Y650498D01*
X221000Y650500D01*
X221063Y650498D01*
X221125Y650492D01*
X221187Y650482D01*
X221249Y650469D01*
X221309Y650451D01*
X221368Y650430D01*
X221426Y650405D01*
X221482Y650376D01*
X221536Y650344D01*
X221588Y650309D01*
X221637Y650271D01*
X221685Y650229D01*
X221729Y650185D01*
X221771Y650137D01*
X221809Y650088D01*
X221844Y650036D01*
X221876Y649982D01*
X221905Y649926D01*
X221930Y649868D01*
X221951Y649809D01*
X221969Y649749D01*
X221982Y649687D01*
X221992Y649625D01*
X221998Y649563D01*
X222000Y649500D01*
X221998Y649437D01*
X221992Y649375D01*
X221982Y649313D01*
X221969Y649251D01*
X221951Y649191D01*
X221930Y649132D01*
X221905Y649074D01*
X221876Y649018D01*
X221844Y648964D01*
X221809Y648912D01*
X221771Y648863D01*
X221729Y648815D01*
X221685Y648771D01*
X221637Y648729D01*
X221588Y648691D01*
X221536Y648656D01*
X221482Y648624D01*
X221426Y648595D01*
X221368Y648570D01*
X221309Y648549D01*
X221249Y648531D01*
X221187Y648518D01*
X221125Y648508D01*
X221063Y648502D01*
X221000Y648500D01*
X220937Y648502D01*
X220875Y648508D01*
X220813Y648518D01*
X220751Y648531D01*
X220691Y648549D01*
X220632Y648570D01*
X220574Y648595D01*
X220518Y648624D01*
X220464Y648656D01*
X220412Y648691D01*
X220363Y648729D01*
X220315Y648771D01*
X220271Y648815D01*
X220229Y648863D01*
X220191Y648912D01*
X220156Y648964D01*
X220124Y649018D01*
X220095Y649074D01*
X220070Y649132D01*
X220049Y649191D01*
X220031Y649251D01*
X220018Y649313D01*
X220008Y649375D01*
X220002Y649437D01*
X220000Y649500D01*
D10*
X336550Y241300D02*
X349250Y241300D01*
X355600Y234950D01*
X355600Y222250D01*
X349250Y215900D01*
X355600Y234950D02*
X361950Y241300D01*
X374650Y241300D01*
X381000Y234950D01*
X381000Y222250D01*
X374650Y215900D01*
X361950Y215900D01*
X355600Y222250D01*
X311150Y241300D02*
X304800Y234950D01*
X311150Y241300D02*
X323850Y241300D01*
X330200Y234950D01*
X330200Y222250D01*
X323850Y215900D01*
X311150Y215900D01*
X304800Y222250D01*
X330200Y234950D02*
X336550Y241300D01*
X330200Y222250D02*
X336550Y215900D01*
X349250Y215900D01*
X273050Y241300D02*
X260350Y241300D01*
X273050Y241300D02*
X279400Y234950D01*
X279400Y222250D01*
X273050Y215900D01*
X279400Y234950D02*
X285750Y241300D01*
X298450Y241300D01*
X304800Y234950D01*
X304800Y222250D01*
X298450Y215900D01*
X285750Y215900D01*
X279400Y222250D01*
X234950Y241300D02*
X228600Y234950D01*
X234950Y241300D02*
X247650Y241300D01*
X254000Y234950D01*
X254000Y222250D01*
X247650Y215900D01*
X234950Y215900D01*
X228600Y222250D01*
X254000Y234950D02*
X260350Y241300D01*
X254000Y222250D02*
X260350Y215900D01*
X273050Y215900D01*
X196850Y241300D02*
X184150Y241300D01*
X196850Y241300D02*
X203200Y234950D01*
X203200Y222250D01*
X196850Y215900D01*
X203200Y234950D02*
X209550Y241300D01*
X222250Y241300D01*
X228600Y234950D01*
X228600Y222250D01*
X222250Y215900D01*
X209550Y215900D01*
X203200Y222250D01*
X158750Y241300D02*
X152400Y234950D01*
X158750Y241300D02*
X171450Y241300D01*
X177800Y234950D01*
X177800Y222250D01*
X171450Y215900D01*
X158750Y215900D01*
X152400Y222250D01*
X177800Y234950D02*
X184150Y241300D01*
X177800Y222250D02*
X184150Y215900D01*
X196850Y215900D01*
X120650Y241300D02*
X107950Y241300D01*
X120650Y241300D02*
X127000Y234950D01*
X127000Y222250D01*
X120650Y215900D01*
X127000Y234950D02*
X133350Y241300D01*
X146050Y241300D01*
X152400Y234950D01*
X152400Y222250D01*
X146050Y215900D01*
X133350Y215900D01*
X127000Y222250D01*
X82550Y241300D02*
X76200Y234950D01*
X82550Y241300D02*
X95250Y241300D01*
X101600Y234950D01*
X101600Y222250D01*
X95250Y215900D01*
X82550Y215900D01*
X76200Y222250D01*
X101600Y234950D02*
X107950Y241300D01*
X101600Y222250D02*
X107950Y215900D01*
X120650Y215900D01*
X44450Y241300D02*
X31750Y241300D01*
X44450Y241300D02*
X50800Y234950D01*
X50800Y222250D01*
X44450Y215900D01*
X50800Y234950D02*
X57150Y241300D01*
X69850Y241300D01*
X76200Y234950D01*
X76200Y222250D01*
X69850Y215900D01*
X57150Y215900D01*
X50800Y222250D01*
X25400Y222250D02*
X25400Y234950D01*
X31750Y241300D01*
X25400Y222250D02*
X31750Y215900D01*
X44450Y215900D01*
X381000Y234950D02*
X387350Y241300D01*
X400050Y241300D01*
X406400Y234950D01*
X406400Y222250D01*
X400050Y215900D01*
X387350Y215900D01*
X381000Y222250D01*
X349250Y393700D02*
X336550Y393700D01*
X349250Y393700D02*
X355600Y387350D01*
X355600Y374650D01*
X349250Y368300D01*
X355600Y387350D02*
X361950Y393700D01*
X374650Y393700D01*
X381000Y387350D01*
X381000Y374650D01*
X374650Y368300D01*
X361950Y368300D01*
X355600Y374650D01*
X311150Y393700D02*
X304800Y387350D01*
X311150Y393700D02*
X323850Y393700D01*
X330200Y387350D01*
X330200Y374650D01*
X323850Y368300D01*
X311150Y368300D01*
X304800Y374650D01*
X330200Y387350D02*
X336550Y393700D01*
X330200Y374650D02*
X336550Y368300D01*
X349250Y368300D01*
X273050Y393700D02*
X260350Y393700D01*
X273050Y393700D02*
X279400Y387350D01*
X279400Y374650D01*
X273050Y368300D01*
X279400Y387350D02*
X285750Y393700D01*
X298450Y393700D01*
X304800Y387350D01*
X304800Y374650D01*
X298450Y368300D01*
X285750Y368300D01*
X279400Y374650D01*
X234950Y393700D02*
X228600Y387350D01*
X234950Y393700D02*
X247650Y393700D01*
X254000Y387350D01*
X254000Y374650D01*
X247650Y368300D01*
X234950Y368300D01*
X228600Y374650D01*
X254000Y387350D02*
X260350Y393700D01*
X254000Y374650D02*
X260350Y368300D01*
X273050Y368300D01*
X196850Y393700D02*
X184150Y393700D01*
X196850Y393700D02*
X203200Y387350D01*
X203200Y374650D01*
X196850Y368300D01*
X203200Y387350D02*
X209550Y393700D01*
X222250Y393700D01*
X228600Y387350D01*
X228600Y374650D01*
X222250Y368300D01*
X209550Y368300D01*
X203200Y374650D01*
X158750Y393700D02*
X152400Y387350D01*
X158750Y393700D02*
X171450Y393700D01*
X177800Y387350D01*
X177800Y374650D01*
X171450Y368300D01*
X158750Y368300D01*
X152400Y374650D01*
X177800Y387350D02*
X184150Y393700D01*
X177800Y374650D02*
X184150Y368300D01*
X196850Y368300D01*
X120650Y393700D02*
X107950Y393700D01*
X120650Y393700D02*
X127000Y387350D01*
X127000Y374650D01*
X120650Y368300D01*
X127000Y387350D02*
X133350Y393700D01*
X146050Y393700D01*
X152400Y387350D01*
X152400Y374650D01*
X146050Y368300D01*
X133350Y368300D01*
X127000Y374650D01*
X82550Y393700D02*
X76200Y387350D01*
X82550Y393700D02*
X95250Y393700D01*
X101600Y387350D01*
X101600Y374650D01*
X95250Y368300D01*
X82550Y368300D01*
X76200Y374650D01*
X101600Y387350D02*
X107950Y393700D01*
X101600Y374650D02*
X107950Y368300D01*
X120650Y368300D01*
X44450Y393700D02*
X31750Y393700D01*
X44450Y393700D02*
X50800Y387350D01*
X50800Y374650D01*
X44450Y368300D01*
X50800Y387350D02*
X57150Y393700D01*
X69850Y393700D01*
X76200Y387350D01*
X76200Y374650D01*
X69850Y368300D01*
X57150Y368300D01*
X50800Y374650D01*
X25400Y374650D02*
X25400Y387350D01*
X31750Y393700D01*
X25400Y374650D02*
X31750Y368300D01*
X44450Y368300D01*
X381000Y387350D02*
X387350Y393700D01*
X400050Y393700D01*
X406400Y387350D01*
X406400Y374650D01*
X400050Y368300D01*
X387350Y368300D01*
X381000Y374650D01*
X520700Y298450D02*
X527050Y292100D01*
X520700Y298450D02*
X520700Y311150D01*
X527050Y317500D01*
X539750Y317500D01*
X546100Y311150D01*
X546100Y298450D01*
X539750Y292100D01*
X520700Y260350D02*
X520700Y247650D01*
X520700Y260350D02*
X527050Y266700D01*
X539750Y266700D01*
X546100Y260350D01*
X527050Y266700D02*
X520700Y273050D01*
X520700Y285750D01*
X527050Y292100D01*
X539750Y292100D01*
X546100Y285750D01*
X546100Y273050D01*
X539750Y266700D01*
X539750Y241300D02*
X527050Y241300D01*
X520700Y247650D01*
X539750Y241300D02*
X546100Y247650D01*
X546100Y260350D01*
X520700Y323850D02*
X520700Y336550D01*
X527050Y342900D01*
X539750Y342900D01*
X546100Y336550D01*
X527050Y317500D02*
X520700Y323850D01*
X539750Y317500D02*
X546100Y323850D01*
X546100Y336550D01*
X317500Y654050D02*
X317500Y666750D01*
X323850Y673100D01*
X336550Y673100D01*
X342900Y666750D01*
X317500Y628650D02*
X323850Y622300D01*
X317500Y628650D02*
X317500Y641350D01*
X323850Y647700D01*
X336550Y647700D01*
X342900Y641350D01*
X342900Y628650D01*
X336550Y622300D01*
X323850Y647700D02*
X317500Y654050D01*
X336550Y647700D02*
X342900Y654050D01*
X342900Y666750D01*
X317500Y590550D02*
X317500Y577850D01*
X317500Y590550D02*
X323850Y596900D01*
X336550Y596900D01*
X342900Y590550D01*
X323850Y596900D02*
X317500Y603250D01*
X317500Y615950D01*
X323850Y622300D01*
X336550Y622300D01*
X342900Y615950D01*
X342900Y603250D01*
X336550Y596900D01*
X317500Y552450D02*
X323850Y546100D01*
X317500Y552450D02*
X317500Y565150D01*
X323850Y571500D01*
X336550Y571500D01*
X342900Y565150D01*
X342900Y552450D01*
X336550Y546100D01*
X323850Y571500D02*
X317500Y577850D01*
X336550Y571500D02*
X342900Y577850D01*
X342900Y590550D01*
X317500Y514350D02*
X317500Y501650D01*
X317500Y514350D02*
X323850Y520700D01*
X336550Y520700D01*
X342900Y514350D01*
X323850Y520700D02*
X317500Y527050D01*
X317500Y539750D01*
X323850Y546100D01*
X336550Y546100D01*
X342900Y539750D01*
X342900Y527050D01*
X336550Y520700D01*
X336550Y495300D02*
X323850Y495300D01*
X317500Y501650D01*
X336550Y495300D02*
X342900Y501650D01*
X342900Y514350D01*
X317500Y679450D02*
X317500Y692150D01*
X323850Y698500D01*
X336550Y698500D01*
X342900Y692150D01*
X323850Y673100D02*
X317500Y679450D01*
X336550Y673100D02*
X342900Y679450D01*
X342900Y692150D01*
X495300Y539750D02*
X495300Y527050D01*
X488950Y520700D01*
X476250Y520700D01*
X469900Y527050D01*
X495300Y565150D02*
X488950Y571500D01*
X495300Y565150D02*
X495300Y552450D01*
X488950Y546100D01*
X476250Y546100D01*
X469900Y552450D01*
X469900Y565150D01*
X476250Y571500D01*
X488950Y546100D02*
X495300Y539750D01*
X476250Y546100D02*
X469900Y539750D01*
X469900Y527050D01*
X495300Y603250D02*
X495300Y615950D01*
X495300Y603250D02*
X488950Y596900D01*
X476250Y596900D01*
X469900Y603250D01*
X488950Y596900D02*
X495300Y590550D01*
X495300Y577850D01*
X488950Y571500D01*
X476250Y571500D01*
X469900Y577850D01*
X469900Y590550D01*
X476250Y596900D01*
X495300Y641350D02*
X488950Y647700D01*
X495300Y641350D02*
X495300Y628650D01*
X488950Y622300D01*
X476250Y622300D01*
X469900Y628650D01*
X469900Y641350D01*
X476250Y647700D01*
X488950Y622300D02*
X495300Y615950D01*
X476250Y622300D02*
X469900Y615950D01*
X469900Y603250D01*
X495300Y679450D02*
X495300Y692150D01*
X495300Y679450D02*
X488950Y673100D01*
X476250Y673100D01*
X469900Y679450D01*
X488950Y673100D02*
X495300Y666750D01*
X495300Y654050D01*
X488950Y647700D01*
X476250Y647700D01*
X469900Y654050D01*
X469900Y666750D01*
X476250Y673100D01*
X476250Y698500D02*
X488950Y698500D01*
X495300Y692150D01*
X476250Y698500D02*
X469900Y692150D01*
X469900Y679450D01*
X495300Y514350D02*
X495300Y501650D01*
X488950Y495300D01*
X476250Y495300D01*
X469900Y501650D01*
X488950Y520700D02*
X495300Y514350D01*
X476250Y520700D02*
X469900Y514350D01*
X469900Y501650D01*
X279400Y674143D02*
X279400Y681763D01*
X275590Y677699D02*
X283210Y677699D01*
X314706Y697765D02*
X314706Y768377D01*
X291846Y768377D01*
X244094Y768377D02*
X244094Y697765D01*
X266954Y697765D01*
X291846Y697765D02*
X314706Y697765D01*
X266954Y768377D02*
X244094Y768377D01*
D11*
X20061Y653500D02*
X19975Y653496D01*
X19889Y653497D01*
X19802Y653501D01*
X19716Y653510D01*
X19631Y653522D01*
X19546Y653538D01*
X19462Y653558D01*
X19379Y653582D01*
X19297Y653610D01*
X19216Y653641D01*
X19138Y653677D01*
X19060Y653715D01*
X18985Y653757D01*
X18911Y653803D01*
X18840Y653852D01*
X18771Y653904D01*
X18705Y653959D01*
X18641Y654017D01*
X18580Y654078D01*
X18521Y654142D01*
X18466Y654209D01*
X18414Y654277D01*
X18365Y654349D01*
X18319Y654422D01*
X18277Y654497D01*
X18238Y654575D01*
X18203Y654653D01*
X18171Y654734D01*
X18143Y654816D01*
X18119Y654899D01*
X18099Y654983D01*
X18083Y655068D01*
X18070Y655153D01*
X18061Y655239D01*
X18057Y655325D01*
X18056Y655412D01*
X18060Y655498D01*
X18060Y741499D02*
X18056Y741585D01*
X18057Y741671D01*
X18061Y741758D01*
X18070Y741844D01*
X18082Y741929D01*
X18098Y742014D01*
X18118Y742098D01*
X18142Y742181D01*
X18170Y742263D01*
X18201Y742343D01*
X18237Y742422D01*
X18275Y742500D01*
X18317Y742575D01*
X18363Y742649D01*
X18412Y742720D01*
X18464Y742789D01*
X18519Y742855D01*
X18577Y742919D01*
X18638Y742980D01*
X18702Y743039D01*
X18769Y743094D01*
X18837Y743146D01*
X18909Y743195D01*
X18982Y743241D01*
X19057Y743283D01*
X19135Y743322D01*
X19213Y743357D01*
X19294Y743389D01*
X19376Y743417D01*
X19459Y743441D01*
X19543Y743461D01*
X19628Y743477D01*
X19713Y743490D01*
X19799Y743499D01*
X19885Y743503D01*
X19972Y743504D01*
X20058Y743500D01*
X18060Y741600D02*
X18060Y655100D01*
X19960Y743500D02*
X48060Y743500D01*
X123060Y743500D02*
X163060Y743500D01*
X48060Y653500D02*
X19960Y653500D01*
X123060Y653500D02*
X163060Y653500D01*
X163060Y707500D02*
X163060Y743500D01*
X163060Y677500D02*
X163060Y653500D01*
X112350Y454741D02*
X90850Y454741D01*
X90850Y434259D02*
X112350Y434259D01*
X120500Y582300D02*
X133500Y582300D01*
X133500Y560700D02*
X120500Y560700D01*
X133500Y575800D02*
X133500Y582300D01*
X133500Y567300D02*
X133500Y560700D01*
D13*
X106200Y579500D02*
X106202Y579556D01*
X106208Y579613D01*
X106218Y579668D01*
X106232Y579723D01*
X106249Y579777D01*
X106271Y579829D01*
X106296Y579879D01*
X106324Y579928D01*
X106356Y579975D01*
X106391Y580019D01*
X106429Y580061D01*
X106470Y580100D01*
X106514Y580135D01*
X106560Y580168D01*
X106608Y580197D01*
X106658Y580223D01*
X106710Y580246D01*
X106764Y580264D01*
X106818Y580279D01*
X106873Y580290D01*
X106929Y580297D01*
X106986Y580300D01*
X107042Y580299D01*
X107099Y580294D01*
X107154Y580285D01*
X107209Y580272D01*
X107263Y580255D01*
X107316Y580235D01*
X107367Y580211D01*
X107416Y580183D01*
X107463Y580152D01*
X107508Y580118D01*
X107551Y580080D01*
X107590Y580040D01*
X107627Y579997D01*
X107660Y579952D01*
X107690Y579904D01*
X107717Y579854D01*
X107740Y579803D01*
X107760Y579750D01*
X107776Y579696D01*
X107788Y579640D01*
X107796Y579585D01*
X107800Y579528D01*
X107800Y579472D01*
X107796Y579415D01*
X107788Y579360D01*
X107776Y579304D01*
X107760Y579250D01*
X107740Y579197D01*
X107717Y579146D01*
X107690Y579096D01*
X107660Y579048D01*
X107627Y579003D01*
X107590Y578960D01*
X107551Y578920D01*
X107508Y578882D01*
X107463Y578848D01*
X107416Y578817D01*
X107367Y578789D01*
X107316Y578765D01*
X107263Y578745D01*
X107209Y578728D01*
X107154Y578715D01*
X107099Y578706D01*
X107042Y578701D01*
X106986Y578700D01*
X106929Y578703D01*
X106873Y578710D01*
X106818Y578721D01*
X106764Y578736D01*
X106710Y578754D01*
X106658Y578777D01*
X106608Y578803D01*
X106560Y578832D01*
X106514Y578865D01*
X106470Y578900D01*
X106429Y578939D01*
X106391Y578981D01*
X106356Y579025D01*
X106324Y579072D01*
X106296Y579121D01*
X106271Y579171D01*
X106249Y579223D01*
X106232Y579277D01*
X106218Y579332D01*
X106208Y579387D01*
X106202Y579444D01*
X106200Y579500D01*
D11*
X179766Y551600D02*
X179766Y540600D01*
X167046Y540600D02*
X167046Y551600D01*
X197700Y565160D02*
X208700Y565160D01*
X208700Y552440D02*
X197700Y552440D01*
X119800Y552460D02*
X108800Y552460D01*
X108800Y539740D02*
X119800Y539740D01*
X134200Y514340D02*
X145200Y514340D01*
X145200Y527060D02*
X134200Y527060D01*
X184366Y575450D02*
X184366Y592950D01*
X168384Y592950D02*
X168384Y575450D01*
X123050Y512709D02*
X105550Y512709D01*
X105550Y528691D02*
X123050Y528691D01*
D12*
X11160Y517100D02*
X11160Y546000D01*
X-3840Y546000D01*
X-3840Y561000D01*
X11160Y561000D01*
X11160Y575100D01*
X21660Y511600D02*
X29660Y511600D01*
X29660Y580600D02*
X21660Y580600D01*
X40160Y562100D02*
X40160Y545100D01*
X33660Y563100D02*
X33662Y563163D01*
X33668Y563225D01*
X33678Y563287D01*
X33691Y563349D01*
X33709Y563409D01*
X33730Y563468D01*
X33755Y563526D01*
X33784Y563582D01*
X33816Y563636D01*
X33851Y563688D01*
X33889Y563737D01*
X33931Y563785D01*
X33975Y563829D01*
X34023Y563871D01*
X34072Y563909D01*
X34124Y563944D01*
X34178Y563976D01*
X34234Y564005D01*
X34292Y564030D01*
X34351Y564051D01*
X34411Y564069D01*
X34473Y564082D01*
X34535Y564092D01*
X34597Y564098D01*
X34660Y564100D01*
X34723Y564098D01*
X34785Y564092D01*
X34847Y564082D01*
X34909Y564069D01*
X34969Y564051D01*
X35028Y564030D01*
X35086Y564005D01*
X35142Y563976D01*
X35196Y563944D01*
X35248Y563909D01*
X35297Y563871D01*
X35345Y563829D01*
X35389Y563785D01*
X35431Y563737D01*
X35469Y563688D01*
X35504Y563636D01*
X35536Y563582D01*
X35565Y563526D01*
X35590Y563468D01*
X35611Y563409D01*
X35629Y563349D01*
X35642Y563287D01*
X35652Y563225D01*
X35658Y563163D01*
X35660Y563100D01*
X35658Y563037D01*
X35652Y562975D01*
X35642Y562913D01*
X35629Y562851D01*
X35611Y562791D01*
X35590Y562732D01*
X35565Y562674D01*
X35536Y562618D01*
X35504Y562564D01*
X35469Y562512D01*
X35431Y562463D01*
X35389Y562415D01*
X35345Y562371D01*
X35297Y562329D01*
X35248Y562291D01*
X35196Y562256D01*
X35142Y562224D01*
X35086Y562195D01*
X35028Y562170D01*
X34969Y562149D01*
X34909Y562131D01*
X34847Y562118D01*
X34785Y562108D01*
X34723Y562102D01*
X34660Y562100D01*
X34597Y562102D01*
X34535Y562108D01*
X34473Y562118D01*
X34411Y562131D01*
X34351Y562149D01*
X34292Y562170D01*
X34234Y562195D01*
X34178Y562224D01*
X34124Y562256D01*
X34072Y562291D01*
X34023Y562329D01*
X33975Y562371D01*
X33931Y562415D01*
X33889Y562463D01*
X33851Y562512D01*
X33816Y562564D01*
X33784Y562618D01*
X33755Y562674D01*
X33730Y562732D01*
X33709Y562791D01*
X33691Y562851D01*
X33678Y562913D01*
X33668Y562975D01*
X33662Y563037D01*
X33660Y563100D01*
D11*
X163300Y516375D02*
X163300Y503375D01*
X192300Y503375D01*
X192300Y516375D01*
X163300Y516375D01*
D14*
X48100Y479849D02*
X21501Y479849D01*
X21501Y459951D01*
X48100Y459951D01*
M02*
