G04 EAGLE Gerber RS-274X export*
G75*
%MOMM*%
%FSLAX34Y34*%
%LPD*%
%INSilkscreen Top*%
%IPPOS*%
%AMOC8*
5,1,8,0,0,1.08239X$1,22.5*%
G01*
G04 Define Apertures*
%ADD10C,0.152400*%
%ADD11C,0.127000*%
%ADD12C,0.200000*%
%ADD13C,0.300000*%
%ADD14C,0.120000*%
G36*
X517078Y191770D02*
X510061Y191770D01*
X510061Y209056D01*
X516342Y209056D01*
X517079Y209039D01*
X517768Y208990D01*
X518410Y208908D01*
X519004Y208793D01*
X519551Y208646D01*
X520050Y208466D01*
X520502Y208253D01*
X520906Y208007D01*
X521263Y207728D01*
X521572Y207417D01*
X521833Y207073D01*
X522047Y206696D01*
X522213Y206286D01*
X522332Y205843D01*
X522403Y205368D01*
X522421Y205118D01*
X522427Y204860D01*
X522414Y204484D01*
X522374Y204124D01*
X522306Y203779D01*
X522213Y203449D01*
X522092Y203135D01*
X521944Y202836D01*
X521770Y202552D01*
X521568Y202284D01*
X521343Y202034D01*
X521203Y201906D01*
X521095Y201805D01*
X520824Y201598D01*
X520532Y201413D01*
X520217Y201249D01*
X519880Y201106D01*
X519521Y200985D01*
X519139Y200885D01*
X519640Y200810D01*
X520111Y200707D01*
X520552Y200576D01*
X520964Y200417D01*
X521347Y200231D01*
X521700Y200017D01*
X522023Y199775D01*
X522159Y199650D01*
X522317Y199505D01*
X522578Y199212D01*
X522805Y198900D01*
X522997Y198570D01*
X523154Y198221D01*
X523276Y197854D01*
X523363Y197468D01*
X523416Y197064D01*
X523433Y196640D01*
X523427Y196356D01*
X523407Y196080D01*
X523374Y195812D01*
X523328Y195551D01*
X523269Y195299D01*
X523197Y195055D01*
X523013Y194590D01*
X522777Y194158D01*
X522488Y193757D01*
X522146Y193389D01*
X521753Y193052D01*
X521312Y192752D01*
X520830Y192491D01*
X520307Y192271D01*
X519744Y192091D01*
X519139Y191950D01*
X518493Y191850D01*
X517806Y191790D01*
X517078Y191770D01*
G37*
%LPC*%
G36*
X516956Y193647D02*
X517474Y193659D01*
X517956Y193697D01*
X518402Y193759D01*
X518811Y193846D01*
X519184Y193959D01*
X519520Y194096D01*
X519820Y194258D01*
X520084Y194444D01*
X520314Y194656D01*
X520513Y194892D01*
X520682Y195153D01*
X520820Y195438D01*
X520927Y195748D01*
X521004Y196082D01*
X521050Y196441D01*
X521065Y196824D01*
X521049Y197194D01*
X520998Y197540D01*
X520915Y197863D01*
X520797Y198161D01*
X520646Y198435D01*
X520462Y198686D01*
X520244Y198913D01*
X519992Y199116D01*
X519707Y199294D01*
X519388Y199450D01*
X519036Y199581D01*
X518650Y199688D01*
X518231Y199772D01*
X517778Y199831D01*
X517292Y199867D01*
X516772Y199879D01*
X512404Y199879D01*
X512404Y193647D01*
X516956Y193647D01*
G37*
G36*
X516342Y201707D02*
X516797Y201718D01*
X517221Y201751D01*
X517616Y201806D01*
X517982Y201883D01*
X518317Y201983D01*
X518623Y202104D01*
X518899Y202247D01*
X519146Y202413D01*
X519363Y202601D01*
X519551Y202812D01*
X519710Y203048D01*
X519840Y203307D01*
X519942Y203589D01*
X520014Y203895D01*
X520057Y204225D01*
X520072Y204578D01*
X520057Y204915D01*
X520012Y205227D01*
X519937Y205515D01*
X519833Y205777D01*
X519698Y206015D01*
X519534Y206227D01*
X519339Y206415D01*
X519115Y206578D01*
X518862Y206718D01*
X518583Y206841D01*
X518276Y206944D01*
X517943Y207028D01*
X517583Y207094D01*
X517196Y207141D01*
X516783Y207169D01*
X516342Y207179D01*
X512404Y207179D01*
X512404Y201707D01*
X516342Y201707D01*
G37*
%LPD*%
G36*
X589672Y191770D02*
X582655Y191770D01*
X582655Y209056D01*
X588936Y209056D01*
X589673Y209039D01*
X590362Y208990D01*
X591004Y208908D01*
X591598Y208793D01*
X592145Y208646D01*
X592644Y208466D01*
X593096Y208253D01*
X593500Y208007D01*
X593856Y207728D01*
X594165Y207417D01*
X594427Y207073D01*
X594641Y206696D01*
X594807Y206286D01*
X594926Y205843D01*
X594997Y205368D01*
X595015Y205118D01*
X595021Y204860D01*
X595008Y204484D01*
X594967Y204124D01*
X594900Y203779D01*
X594806Y203449D01*
X594686Y203135D01*
X594538Y202836D01*
X594364Y202552D01*
X594162Y202284D01*
X593936Y202034D01*
X593797Y201906D01*
X593688Y201805D01*
X593418Y201598D01*
X593126Y201413D01*
X592811Y201249D01*
X592474Y201106D01*
X592115Y200985D01*
X591733Y200885D01*
X592234Y200810D01*
X592705Y200707D01*
X593146Y200576D01*
X593558Y200417D01*
X593940Y200231D01*
X594293Y200017D01*
X594617Y199775D01*
X594752Y199650D01*
X594911Y199505D01*
X595172Y199212D01*
X595399Y198900D01*
X595591Y198570D01*
X595748Y198221D01*
X595870Y197854D01*
X595957Y197468D01*
X596010Y197064D01*
X596027Y196640D01*
X596020Y196356D01*
X596001Y196080D01*
X595968Y195812D01*
X595922Y195551D01*
X595863Y195299D01*
X595791Y195055D01*
X595607Y194590D01*
X595370Y194158D01*
X595082Y193757D01*
X594740Y193389D01*
X594346Y193052D01*
X593906Y192752D01*
X593424Y192491D01*
X592901Y192271D01*
X592337Y192091D01*
X591733Y191950D01*
X591087Y191850D01*
X590400Y191790D01*
X589672Y191770D01*
G37*
%LPC*%
G36*
X589549Y193647D02*
X590068Y193659D01*
X590550Y193697D01*
X590996Y193759D01*
X591405Y193846D01*
X591778Y193959D01*
X592114Y194096D01*
X592414Y194258D01*
X592678Y194444D01*
X592908Y194656D01*
X593107Y194892D01*
X593276Y195153D01*
X593414Y195438D01*
X593521Y195748D01*
X593598Y196082D01*
X593644Y196441D01*
X593659Y196824D01*
X593642Y197194D01*
X593592Y197540D01*
X593508Y197863D01*
X593391Y198161D01*
X593240Y198435D01*
X593055Y198686D01*
X592837Y198913D01*
X592586Y199116D01*
X592301Y199294D01*
X591982Y199450D01*
X591630Y199581D01*
X591244Y199688D01*
X590825Y199772D01*
X590372Y199831D01*
X589885Y199867D01*
X589365Y199879D01*
X584998Y199879D01*
X584998Y193647D01*
X589549Y193647D01*
G37*
G36*
X588936Y201707D02*
X589390Y201718D01*
X589815Y201751D01*
X590210Y201806D01*
X590575Y201883D01*
X590911Y201983D01*
X591217Y202104D01*
X591493Y202247D01*
X591739Y202413D01*
X591956Y202601D01*
X592145Y202812D01*
X592304Y203048D01*
X592434Y203307D01*
X592535Y203589D01*
X592608Y203895D01*
X592651Y204225D01*
X592666Y204578D01*
X592651Y204915D01*
X592606Y205227D01*
X592531Y205515D01*
X592426Y205777D01*
X592292Y206015D01*
X592127Y206227D01*
X591933Y206415D01*
X591709Y206578D01*
X591456Y206718D01*
X591176Y206841D01*
X590870Y206944D01*
X590537Y207028D01*
X590177Y207094D01*
X589790Y207141D01*
X589377Y207169D01*
X588936Y207179D01*
X584998Y207179D01*
X584998Y201707D01*
X588936Y201707D01*
G37*
%LPD*%
G36*
X563260Y191525D02*
X562619Y191545D01*
X562016Y191604D01*
X561449Y191703D01*
X560920Y191842D01*
X560428Y192021D01*
X559973Y192239D01*
X559555Y192497D01*
X559175Y192794D01*
X558835Y193127D01*
X558541Y193491D01*
X558293Y193886D01*
X558089Y194311D01*
X557931Y194767D01*
X557818Y195255D01*
X557750Y195773D01*
X557727Y196321D01*
X557743Y196742D01*
X557793Y197150D01*
X557875Y197546D01*
X557990Y197929D01*
X558138Y198301D01*
X558319Y198660D01*
X558532Y199007D01*
X558779Y199342D01*
X559058Y199665D01*
X559371Y199976D01*
X559716Y200275D01*
X560094Y200561D01*
X560505Y200835D01*
X560949Y201097D01*
X561425Y201347D01*
X561935Y201584D01*
X561739Y201982D01*
X561558Y202416D01*
X561390Y202884D01*
X561236Y203388D01*
X561107Y203898D01*
X561015Y204385D01*
X560960Y204849D01*
X560941Y205289D01*
X560959Y205737D01*
X561011Y206158D01*
X561099Y206553D01*
X561222Y206923D01*
X561380Y207266D01*
X561573Y207584D01*
X561801Y207876D01*
X562064Y208142D01*
X562359Y208379D01*
X562684Y208585D01*
X563038Y208758D01*
X563421Y208901D01*
X563834Y209012D01*
X564276Y209091D01*
X564747Y209138D01*
X565247Y209154D01*
X565699Y209139D01*
X566129Y209096D01*
X566536Y209023D01*
X566920Y208921D01*
X567283Y208790D01*
X567622Y208629D01*
X567940Y208440D01*
X568235Y208221D01*
X568501Y207978D01*
X568731Y207712D01*
X568926Y207426D01*
X569086Y207117D01*
X569210Y206788D01*
X569299Y206436D01*
X569352Y206064D01*
X569369Y205670D01*
X569352Y205313D01*
X569299Y204966D01*
X569212Y204629D01*
X569089Y204302D01*
X568931Y203985D01*
X568738Y203678D01*
X568510Y203381D01*
X568247Y203093D01*
X568236Y203084D01*
X567941Y202812D01*
X567583Y202531D01*
X567173Y202250D01*
X566712Y201971D01*
X566199Y201692D01*
X565635Y201414D01*
X565019Y201137D01*
X564352Y200861D01*
X564706Y200232D01*
X565087Y199602D01*
X565496Y198971D01*
X565931Y198340D01*
X566394Y197707D01*
X566884Y197074D01*
X567402Y196441D01*
X567946Y195806D01*
X568282Y196330D01*
X568597Y196884D01*
X568891Y197468D01*
X569164Y198082D01*
X569416Y198726D01*
X569445Y198812D01*
X569646Y199399D01*
X569856Y200103D01*
X570044Y200836D01*
X571823Y200309D01*
X571613Y199550D01*
X571371Y198803D01*
X571095Y198068D01*
X570786Y197343D01*
X570445Y196629D01*
X570195Y196161D01*
X570070Y195927D01*
X569663Y195235D01*
X569222Y194555D01*
X569520Y194273D01*
X569823Y194029D01*
X570133Y193822D01*
X570449Y193653D01*
X570771Y193522D01*
X570957Y193468D01*
X571099Y193428D01*
X571434Y193371D01*
X571774Y193353D01*
X572190Y193365D01*
X572568Y193402D01*
X572908Y193463D01*
X573209Y193549D01*
X573209Y191893D01*
X572844Y191775D01*
X572433Y191690D01*
X571979Y191640D01*
X571480Y191623D01*
X571211Y191629D01*
X570947Y191647D01*
X570437Y191720D01*
X569948Y191842D01*
X569480Y192012D01*
X569034Y192231D01*
X568609Y192499D01*
X568206Y192816D01*
X567824Y193181D01*
X567348Y192805D01*
X566839Y192475D01*
X566299Y192192D01*
X565726Y191954D01*
X565130Y191766D01*
X564520Y191632D01*
X564211Y191585D01*
X563897Y191552D01*
X563580Y191531D01*
X563260Y191525D01*
G37*
%LPC*%
G36*
X563334Y193132D02*
X563769Y193153D01*
X564205Y193216D01*
X564640Y193322D01*
X565076Y193469D01*
X565497Y193656D01*
X565891Y193879D01*
X566258Y194137D01*
X566597Y194432D01*
X566004Y195148D01*
X565441Y195859D01*
X564908Y196566D01*
X564404Y197269D01*
X563930Y197968D01*
X563485Y198662D01*
X563069Y199353D01*
X562683Y200039D01*
X562333Y199880D01*
X562005Y199713D01*
X561699Y199535D01*
X561417Y199348D01*
X561157Y199151D01*
X560919Y198944D01*
X560704Y198728D01*
X560512Y198502D01*
X560342Y198266D01*
X560195Y198021D01*
X560071Y197766D01*
X559969Y197501D01*
X559890Y197227D01*
X559833Y196943D01*
X559799Y196649D01*
X559788Y196346D01*
X559803Y195985D01*
X559848Y195642D01*
X559922Y195320D01*
X560026Y195016D01*
X560159Y194732D01*
X560323Y194468D01*
X560516Y194223D01*
X560739Y193997D01*
X560987Y193794D01*
X561258Y193618D01*
X561549Y193470D01*
X561863Y193348D01*
X562198Y193253D01*
X562555Y193186D01*
X562933Y193145D01*
X563334Y193132D01*
G37*
G36*
X563616Y202296D02*
X564366Y202610D01*
X565010Y202903D01*
X565547Y203175D01*
X565977Y203425D01*
X566332Y203668D01*
X566640Y203922D01*
X566902Y204184D01*
X567118Y204455D01*
X567287Y204738D01*
X567408Y205035D01*
X567481Y205345D01*
X567505Y205670D01*
X567495Y205885D01*
X567466Y206091D01*
X567418Y206286D01*
X567351Y206472D01*
X567265Y206647D01*
X567160Y206812D01*
X567035Y206967D01*
X566891Y207111D01*
X566731Y207242D01*
X566557Y207355D01*
X566369Y207451D01*
X566167Y207530D01*
X565952Y207591D01*
X565723Y207635D01*
X565480Y207661D01*
X565223Y207669D01*
X564937Y207660D01*
X564669Y207630D01*
X564419Y207581D01*
X564186Y207511D01*
X563971Y207423D01*
X563774Y207314D01*
X563594Y207186D01*
X563432Y207038D01*
X563288Y206872D01*
X563163Y206691D01*
X563058Y206496D01*
X562972Y206285D01*
X562905Y206059D01*
X562857Y205817D01*
X562828Y205561D01*
X562818Y205289D01*
X562831Y204937D01*
X562868Y204578D01*
X562930Y204213D01*
X563018Y203842D01*
X563130Y203465D01*
X563267Y203081D01*
X563429Y202692D01*
X563616Y202296D01*
G37*
%LPD*%
G36*
X520048Y164855D02*
X519563Y164871D01*
X519110Y164921D01*
X518688Y165003D01*
X518296Y165118D01*
X517936Y165267D01*
X517607Y165448D01*
X517309Y165662D01*
X517042Y165910D01*
X516806Y166186D01*
X516602Y166486D01*
X516429Y166811D01*
X516288Y167161D01*
X516178Y167535D01*
X516099Y167934D01*
X516052Y168357D01*
X516036Y168805D01*
X516057Y169305D01*
X516121Y169776D01*
X516227Y170216D01*
X516375Y170627D01*
X516566Y171007D01*
X516799Y171358D01*
X517074Y171679D01*
X517392Y171970D01*
X517757Y172230D01*
X518173Y172458D01*
X518642Y172653D01*
X519163Y172817D01*
X519736Y172948D01*
X520360Y173047D01*
X521037Y173113D01*
X521765Y173148D01*
X524746Y173197D01*
X524746Y173921D01*
X524736Y174311D01*
X524703Y174673D01*
X524650Y175006D01*
X524575Y175310D01*
X524478Y175586D01*
X524360Y175832D01*
X524220Y176050D01*
X524059Y176239D01*
X523875Y176403D01*
X523667Y176545D01*
X523434Y176666D01*
X523176Y176764D01*
X522894Y176840D01*
X522587Y176895D01*
X522256Y176928D01*
X521900Y176939D01*
X521542Y176931D01*
X521209Y176907D01*
X520901Y176868D01*
X520618Y176813D01*
X520361Y176742D01*
X520129Y176656D01*
X519922Y176554D01*
X519741Y176436D01*
X519581Y176301D01*
X519437Y176147D01*
X519311Y175974D01*
X519201Y175782D01*
X519108Y175572D01*
X519033Y175343D01*
X518974Y175095D01*
X518931Y174829D01*
X516625Y175037D01*
X516712Y175471D01*
X516832Y175877D01*
X516984Y176255D01*
X517169Y176604D01*
X517387Y176926D01*
X517638Y177220D01*
X517922Y177486D01*
X518238Y177724D01*
X518587Y177934D01*
X518969Y178116D01*
X519384Y178270D01*
X519832Y178396D01*
X520312Y178493D01*
X520825Y178563D01*
X521371Y178605D01*
X521949Y178619D01*
X522556Y178601D01*
X523123Y178548D01*
X523652Y178458D01*
X524142Y178333D01*
X524594Y178171D01*
X525006Y177974D01*
X525380Y177741D01*
X525716Y177472D01*
X526012Y177170D01*
X526268Y176835D01*
X526486Y176468D01*
X526663Y176069D01*
X526801Y175638D01*
X526900Y175176D01*
X526959Y174681D01*
X526979Y174154D01*
X526979Y168437D01*
X526995Y167976D01*
X527044Y167577D01*
X527124Y167237D01*
X527237Y166959D01*
X527309Y166842D01*
X527395Y166741D01*
X527496Y166656D01*
X527611Y166586D01*
X527741Y166532D01*
X527885Y166493D01*
X528045Y166470D01*
X528218Y166462D01*
X528559Y166483D01*
X528942Y166548D01*
X528942Y165174D01*
X528523Y165088D01*
X528099Y165026D01*
X527670Y164990D01*
X527237Y164977D01*
X526941Y164987D01*
X526665Y165018D01*
X526411Y165068D01*
X526177Y165138D01*
X525964Y165229D01*
X525773Y165340D01*
X525602Y165470D01*
X525452Y165621D01*
X525320Y165794D01*
X525203Y165989D01*
X525101Y166207D01*
X525015Y166448D01*
X524943Y166712D01*
X524887Y166998D01*
X524846Y167307D01*
X524820Y167639D01*
X524746Y167639D01*
X524530Y167273D01*
X524306Y166934D01*
X524073Y166624D01*
X523831Y166341D01*
X523580Y166085D01*
X523321Y165858D01*
X523054Y165658D01*
X522777Y165486D01*
X522489Y165338D01*
X522186Y165210D01*
X521867Y165101D01*
X521534Y165013D01*
X521185Y164944D01*
X520821Y164894D01*
X520442Y164865D01*
X520048Y164855D01*
G37*
%LPC*%
G36*
X520551Y166511D02*
X520850Y166519D01*
X521141Y166545D01*
X521424Y166588D01*
X521698Y166649D01*
X521963Y166726D01*
X522221Y166821D01*
X522470Y166934D01*
X522710Y167063D01*
X522940Y167207D01*
X523157Y167365D01*
X523362Y167535D01*
X523555Y167718D01*
X523735Y167914D01*
X523903Y168122D01*
X524058Y168344D01*
X524200Y168578D01*
X524328Y168820D01*
X524439Y169063D01*
X524533Y169308D01*
X524610Y169555D01*
X524670Y169803D01*
X524712Y170054D01*
X524738Y170306D01*
X524746Y170559D01*
X524746Y171651D01*
X522330Y171602D01*
X521598Y171573D01*
X520960Y171510D01*
X520417Y171413D01*
X520181Y171352D01*
X519968Y171283D01*
X519590Y171116D01*
X519258Y170909D01*
X518973Y170662D01*
X518735Y170375D01*
X518634Y170216D01*
X518547Y170045D01*
X518473Y169862D01*
X518413Y169667D01*
X518366Y169460D01*
X518333Y169241D01*
X518312Y169011D01*
X518306Y168768D01*
X518315Y168506D01*
X518342Y168259D01*
X518388Y168027D01*
X518451Y167811D01*
X518533Y167610D01*
X518633Y167425D01*
X518752Y167255D01*
X518888Y167100D01*
X519042Y166962D01*
X519211Y166842D01*
X519395Y166741D01*
X519595Y166658D01*
X519811Y166594D01*
X520042Y166548D01*
X520289Y166520D01*
X520551Y166511D01*
G37*
%LPD*%
G36*
X529829Y191525D02*
X529345Y191541D01*
X528891Y191591D01*
X528469Y191673D01*
X528078Y191788D01*
X527718Y191937D01*
X527388Y192118D01*
X527090Y192332D01*
X526823Y192580D01*
X526588Y192856D01*
X526383Y193156D01*
X526210Y193481D01*
X526069Y193831D01*
X525959Y194205D01*
X525880Y194604D01*
X525833Y195027D01*
X525817Y195475D01*
X525839Y195975D01*
X525902Y196446D01*
X526008Y196886D01*
X526156Y197297D01*
X526347Y197677D01*
X526580Y198028D01*
X526855Y198349D01*
X527173Y198640D01*
X527538Y198900D01*
X527955Y199128D01*
X528423Y199323D01*
X528944Y199487D01*
X529517Y199618D01*
X530141Y199717D01*
X530818Y199783D01*
X531547Y199818D01*
X534528Y199867D01*
X534528Y200591D01*
X534517Y200981D01*
X534485Y201343D01*
X534431Y201676D01*
X534356Y201980D01*
X534259Y202256D01*
X534141Y202502D01*
X534002Y202720D01*
X533841Y202909D01*
X533657Y203073D01*
X533448Y203215D01*
X533215Y203336D01*
X532957Y203434D01*
X532675Y203510D01*
X532368Y203565D01*
X532037Y203598D01*
X531681Y203609D01*
X531323Y203601D01*
X530990Y203577D01*
X530682Y203538D01*
X530399Y203483D01*
X530142Y203412D01*
X529910Y203326D01*
X529704Y203224D01*
X529522Y203106D01*
X529362Y202971D01*
X529219Y202817D01*
X529092Y202644D01*
X528982Y202452D01*
X528890Y202242D01*
X528814Y202013D01*
X528755Y201765D01*
X528713Y201499D01*
X526406Y201707D01*
X526493Y202141D01*
X526613Y202547D01*
X526765Y202925D01*
X526951Y203274D01*
X527169Y203596D01*
X527419Y203890D01*
X527703Y204156D01*
X528019Y204394D01*
X528369Y204604D01*
X528751Y204786D01*
X529165Y204940D01*
X529613Y205066D01*
X530093Y205163D01*
X530606Y205233D01*
X531152Y205275D01*
X531731Y205289D01*
X532337Y205271D01*
X532904Y205218D01*
X533433Y205128D01*
X533923Y205003D01*
X534375Y204841D01*
X534788Y204644D01*
X535162Y204411D01*
X535497Y204142D01*
X535793Y203840D01*
X536050Y203505D01*
X536267Y203138D01*
X536445Y202739D01*
X536583Y202308D01*
X536681Y201846D01*
X536741Y201351D01*
X536760Y200824D01*
X536760Y195107D01*
X536777Y194646D01*
X536825Y194247D01*
X536905Y193907D01*
X537018Y193629D01*
X537090Y193512D01*
X537176Y193411D01*
X537277Y193326D01*
X537392Y193256D01*
X537522Y193202D01*
X537667Y193163D01*
X537826Y193140D01*
X538000Y193132D01*
X538340Y193153D01*
X538723Y193218D01*
X538723Y191844D01*
X538304Y191758D01*
X537880Y191696D01*
X537451Y191660D01*
X537018Y191647D01*
X536722Y191657D01*
X536446Y191688D01*
X536192Y191738D01*
X535958Y191808D01*
X535746Y191899D01*
X535554Y192010D01*
X535383Y192140D01*
X535233Y192291D01*
X535101Y192464D01*
X534984Y192659D01*
X534883Y192877D01*
X534796Y193118D01*
X534725Y193382D01*
X534668Y193668D01*
X534627Y193977D01*
X534601Y194309D01*
X534528Y194309D01*
X534312Y193943D01*
X534087Y193604D01*
X533854Y193294D01*
X533612Y193011D01*
X533362Y192755D01*
X533103Y192528D01*
X532835Y192328D01*
X532559Y192156D01*
X532270Y192008D01*
X531967Y191880D01*
X531649Y191771D01*
X531315Y191683D01*
X530966Y191614D01*
X530602Y191564D01*
X530223Y191535D01*
X529829Y191525D01*
G37*
%LPC*%
G36*
X530332Y193181D02*
X530631Y193189D01*
X530922Y193215D01*
X531205Y193258D01*
X531479Y193319D01*
X531745Y193396D01*
X532002Y193491D01*
X532251Y193604D01*
X532491Y193733D01*
X532721Y193877D01*
X532939Y194035D01*
X533144Y194205D01*
X533336Y194388D01*
X533516Y194584D01*
X533684Y194792D01*
X533839Y195014D01*
X533982Y195248D01*
X534110Y195490D01*
X534221Y195733D01*
X534314Y195978D01*
X534391Y196225D01*
X534451Y196473D01*
X534494Y196724D01*
X534519Y196976D01*
X534528Y197229D01*
X534528Y198321D01*
X532111Y198272D01*
X531379Y198243D01*
X530741Y198180D01*
X530198Y198083D01*
X529962Y198022D01*
X529749Y197953D01*
X529371Y197786D01*
X529039Y197579D01*
X528754Y197332D01*
X528516Y197045D01*
X528416Y196886D01*
X528328Y196715D01*
X528255Y196532D01*
X528194Y196337D01*
X528147Y196130D01*
X528114Y195911D01*
X528094Y195681D01*
X528087Y195438D01*
X528096Y195176D01*
X528123Y194929D01*
X528169Y194697D01*
X528233Y194481D01*
X528315Y194280D01*
X528415Y194095D01*
X528533Y193925D01*
X528670Y193770D01*
X528823Y193632D01*
X528992Y193512D01*
X529177Y193411D01*
X529377Y193328D01*
X529592Y193264D01*
X529823Y193218D01*
X530070Y193190D01*
X530332Y193181D01*
G37*
%LPD*%
G36*
X573110Y164855D02*
X572626Y164871D01*
X572172Y164921D01*
X571750Y165003D01*
X571359Y165118D01*
X570999Y165267D01*
X570670Y165448D01*
X570372Y165662D01*
X570105Y165910D01*
X569869Y166186D01*
X569664Y166486D01*
X569492Y166811D01*
X569350Y167161D01*
X569240Y167535D01*
X569161Y167934D01*
X569114Y168357D01*
X569099Y168805D01*
X569120Y169305D01*
X569183Y169776D01*
X569289Y170216D01*
X569437Y170627D01*
X569628Y171007D01*
X569861Y171358D01*
X570136Y171679D01*
X570454Y171970D01*
X570819Y172230D01*
X571236Y172458D01*
X571705Y172653D01*
X572225Y172817D01*
X572798Y172948D01*
X573423Y173047D01*
X574099Y173113D01*
X574828Y173148D01*
X577809Y173197D01*
X577809Y173921D01*
X577798Y174311D01*
X577766Y174673D01*
X577712Y175006D01*
X577637Y175310D01*
X577541Y175586D01*
X577422Y175832D01*
X577283Y176050D01*
X577122Y176239D01*
X576938Y176403D01*
X576729Y176545D01*
X576496Y176666D01*
X576239Y176764D01*
X575956Y176840D01*
X575650Y176895D01*
X575318Y176928D01*
X574963Y176939D01*
X574604Y176931D01*
X574271Y176907D01*
X573963Y176868D01*
X573681Y176813D01*
X573423Y176742D01*
X573192Y176656D01*
X572985Y176554D01*
X572804Y176436D01*
X572643Y176301D01*
X572500Y176147D01*
X572373Y175974D01*
X572264Y175782D01*
X572171Y175572D01*
X572095Y175343D01*
X572036Y175095D01*
X571994Y174829D01*
X569687Y175037D01*
X569774Y175471D01*
X569894Y175877D01*
X570047Y176255D01*
X570232Y176604D01*
X570450Y176926D01*
X570701Y177220D01*
X570984Y177486D01*
X571301Y177724D01*
X571650Y177934D01*
X572032Y178116D01*
X572447Y178270D01*
X572894Y178396D01*
X573374Y178493D01*
X573887Y178563D01*
X574433Y178605D01*
X575012Y178619D01*
X575618Y178601D01*
X576186Y178548D01*
X576715Y178458D01*
X577205Y178333D01*
X577656Y178171D01*
X578069Y177974D01*
X578443Y177741D01*
X578778Y177472D01*
X579074Y177170D01*
X579331Y176835D01*
X579548Y176468D01*
X579726Y176069D01*
X579864Y175638D01*
X579963Y175176D01*
X580022Y174681D01*
X580042Y174154D01*
X580042Y168437D01*
X580058Y167976D01*
X580106Y167577D01*
X580187Y167237D01*
X580299Y166959D01*
X580371Y166842D01*
X580457Y166741D01*
X580558Y166656D01*
X580673Y166586D01*
X580803Y166532D01*
X580948Y166493D01*
X581107Y166470D01*
X581281Y166462D01*
X581621Y166483D01*
X582005Y166548D01*
X582005Y165174D01*
X581585Y165088D01*
X581161Y165026D01*
X580733Y164990D01*
X580299Y164977D01*
X580003Y164987D01*
X579728Y165018D01*
X579473Y165068D01*
X579240Y165138D01*
X579027Y165229D01*
X578835Y165340D01*
X578664Y165470D01*
X578514Y165621D01*
X578382Y165794D01*
X578266Y165989D01*
X578164Y166207D01*
X578077Y166448D01*
X578006Y166712D01*
X577950Y166998D01*
X577908Y167307D01*
X577883Y167639D01*
X577809Y167639D01*
X577593Y167273D01*
X577368Y166934D01*
X577135Y166624D01*
X576893Y166341D01*
X576643Y166085D01*
X576384Y165858D01*
X576116Y165658D01*
X575840Y165486D01*
X575552Y165338D01*
X575248Y165210D01*
X574930Y165101D01*
X574596Y165013D01*
X574247Y164944D01*
X573884Y164894D01*
X573504Y164865D01*
X573110Y164855D01*
G37*
%LPC*%
G36*
X573613Y166511D02*
X573913Y166519D01*
X574204Y166545D01*
X574486Y166588D01*
X574760Y166649D01*
X575026Y166726D01*
X575283Y166821D01*
X575532Y166934D01*
X575772Y167063D01*
X576002Y167207D01*
X576220Y167365D01*
X576425Y167535D01*
X576617Y167718D01*
X576797Y167914D01*
X576965Y168122D01*
X577120Y168344D01*
X577263Y168578D01*
X577391Y168820D01*
X577502Y169063D01*
X577596Y169308D01*
X577672Y169555D01*
X577732Y169803D01*
X577775Y170054D01*
X577800Y170306D01*
X577809Y170559D01*
X577809Y171651D01*
X575392Y171602D01*
X574660Y171573D01*
X574023Y171510D01*
X573479Y171413D01*
X573243Y171352D01*
X573030Y171283D01*
X572652Y171116D01*
X572320Y170909D01*
X572036Y170662D01*
X571798Y170375D01*
X571697Y170216D01*
X571610Y170045D01*
X571536Y169862D01*
X571476Y169667D01*
X571429Y169460D01*
X571395Y169241D01*
X571375Y169011D01*
X571368Y168768D01*
X571377Y168506D01*
X571405Y168259D01*
X571450Y168027D01*
X571514Y167811D01*
X571596Y167610D01*
X571696Y167425D01*
X571814Y167255D01*
X571951Y167100D01*
X572104Y166962D01*
X572273Y166842D01*
X572458Y166741D01*
X572658Y166658D01*
X572873Y166594D01*
X573104Y166548D01*
X573351Y166520D01*
X573613Y166511D01*
G37*
%LPD*%
G36*
X616423Y191525D02*
X615938Y191541D01*
X615485Y191591D01*
X615063Y191673D01*
X614671Y191788D01*
X614311Y191937D01*
X613982Y192118D01*
X613684Y192332D01*
X613417Y192580D01*
X613181Y192856D01*
X612977Y193156D01*
X612804Y193481D01*
X612663Y193831D01*
X612553Y194205D01*
X612474Y194604D01*
X612427Y195027D01*
X612411Y195475D01*
X612432Y195975D01*
X612496Y196446D01*
X612602Y196886D01*
X612750Y197297D01*
X612941Y197677D01*
X613174Y198028D01*
X613449Y198349D01*
X613767Y198640D01*
X614132Y198900D01*
X614548Y199128D01*
X615017Y199323D01*
X615538Y199487D01*
X616111Y199618D01*
X616735Y199717D01*
X617412Y199783D01*
X618140Y199818D01*
X621121Y199867D01*
X621121Y200591D01*
X621111Y200981D01*
X621078Y201343D01*
X621025Y201676D01*
X620950Y201980D01*
X620853Y202256D01*
X620735Y202502D01*
X620595Y202720D01*
X620434Y202909D01*
X620250Y203073D01*
X620042Y203215D01*
X619809Y203336D01*
X619551Y203434D01*
X619269Y203510D01*
X618962Y203565D01*
X618631Y203598D01*
X618275Y203609D01*
X617917Y203601D01*
X617584Y203577D01*
X617276Y203538D01*
X616993Y203483D01*
X616736Y203412D01*
X616504Y203326D01*
X616297Y203224D01*
X616116Y203106D01*
X615956Y202971D01*
X615812Y202817D01*
X615686Y202644D01*
X615576Y202452D01*
X615483Y202242D01*
X615408Y202013D01*
X615349Y201765D01*
X615306Y201499D01*
X613000Y201707D01*
X613087Y202141D01*
X613207Y202547D01*
X613359Y202925D01*
X613544Y203274D01*
X613762Y203596D01*
X614013Y203890D01*
X614297Y204156D01*
X614613Y204394D01*
X614962Y204604D01*
X615344Y204786D01*
X615759Y204940D01*
X616207Y205066D01*
X616687Y205163D01*
X617200Y205233D01*
X617746Y205275D01*
X618324Y205289D01*
X618931Y205271D01*
X619498Y205218D01*
X620027Y205128D01*
X620517Y205003D01*
X620969Y204841D01*
X621381Y204644D01*
X621755Y204411D01*
X622091Y204142D01*
X622387Y203840D01*
X622643Y203505D01*
X622861Y203138D01*
X623038Y202739D01*
X623176Y202308D01*
X623275Y201846D01*
X623334Y201351D01*
X623354Y200824D01*
X623354Y195107D01*
X623370Y194646D01*
X623419Y194247D01*
X623499Y193907D01*
X623612Y193629D01*
X623684Y193512D01*
X623770Y193411D01*
X623871Y193326D01*
X623986Y193256D01*
X624116Y193202D01*
X624260Y193163D01*
X624420Y193140D01*
X624593Y193132D01*
X624934Y193153D01*
X625317Y193218D01*
X625317Y191844D01*
X624898Y191758D01*
X624474Y191696D01*
X624045Y191660D01*
X623612Y191647D01*
X623316Y191657D01*
X623040Y191688D01*
X622786Y191738D01*
X622552Y191808D01*
X622339Y191899D01*
X622148Y192010D01*
X621977Y192140D01*
X621827Y192291D01*
X621695Y192464D01*
X621578Y192659D01*
X621476Y192877D01*
X621390Y193118D01*
X621318Y193382D01*
X621262Y193668D01*
X621221Y193977D01*
X621195Y194309D01*
X621121Y194309D01*
X620905Y193943D01*
X620681Y193604D01*
X620448Y193294D01*
X620206Y193011D01*
X619955Y192755D01*
X619696Y192528D01*
X619429Y192328D01*
X619152Y192156D01*
X618864Y192008D01*
X618561Y191880D01*
X618242Y191771D01*
X617909Y191683D01*
X617560Y191614D01*
X617196Y191564D01*
X616817Y191535D01*
X616423Y191525D01*
G37*
%LPC*%
G36*
X616926Y193181D02*
X617225Y193189D01*
X617516Y193215D01*
X617799Y193258D01*
X618073Y193319D01*
X618338Y193396D01*
X618596Y193491D01*
X618845Y193604D01*
X619085Y193733D01*
X619315Y193877D01*
X619532Y194035D01*
X619737Y194205D01*
X619930Y194388D01*
X620110Y194584D01*
X620278Y194792D01*
X620433Y195014D01*
X620575Y195248D01*
X620703Y195490D01*
X620814Y195733D01*
X620908Y195978D01*
X620985Y196225D01*
X621045Y196473D01*
X621087Y196724D01*
X621113Y196976D01*
X621121Y197229D01*
X621121Y198321D01*
X618705Y198272D01*
X617973Y198243D01*
X617335Y198180D01*
X616792Y198083D01*
X616556Y198022D01*
X616343Y197953D01*
X615965Y197786D01*
X615633Y197579D01*
X615348Y197332D01*
X615110Y197045D01*
X615009Y196886D01*
X614922Y196715D01*
X614848Y196532D01*
X614788Y196337D01*
X614741Y196130D01*
X614708Y195911D01*
X614687Y195681D01*
X614681Y195438D01*
X614690Y195176D01*
X614717Y194929D01*
X614763Y194697D01*
X614826Y194481D01*
X614908Y194280D01*
X615008Y194095D01*
X615127Y193925D01*
X615263Y193770D01*
X615417Y193632D01*
X615586Y193512D01*
X615770Y193411D01*
X615970Y193328D01*
X616186Y193264D01*
X616417Y193218D01*
X616664Y193190D01*
X616926Y193181D01*
G37*
%LPD*%
G36*
X629251Y191770D02*
X627055Y191770D01*
X627055Y202210D01*
X627036Y204078D01*
X627013Y204674D01*
X626981Y205044D01*
X629067Y205044D01*
X629091Y204713D01*
X629122Y204093D01*
X629165Y202774D01*
X629201Y202774D01*
X629383Y203114D01*
X629570Y203426D01*
X629764Y203712D01*
X629965Y203971D01*
X630172Y204203D01*
X630386Y204408D01*
X630606Y204586D01*
X630833Y204737D01*
X631069Y204867D01*
X631318Y204979D01*
X631580Y205074D01*
X631854Y205151D01*
X632141Y205212D01*
X632441Y205255D01*
X632753Y205281D01*
X633078Y205289D01*
X633446Y205280D01*
X633793Y205252D01*
X634121Y205205D01*
X634429Y205139D01*
X634718Y205055D01*
X634986Y204951D01*
X635235Y204829D01*
X635464Y204688D01*
X635675Y204527D01*
X635870Y204343D01*
X636047Y204137D01*
X636208Y203909D01*
X636352Y203659D01*
X636480Y203386D01*
X636591Y203092D01*
X636685Y202774D01*
X636722Y202774D01*
X636898Y203097D01*
X637083Y203396D01*
X637278Y203672D01*
X637481Y203925D01*
X637693Y204154D01*
X637914Y204359D01*
X638145Y204542D01*
X638384Y204701D01*
X638634Y204839D01*
X638897Y204958D01*
X639173Y205059D01*
X639462Y205142D01*
X639764Y205207D01*
X640078Y205253D01*
X640406Y205280D01*
X640746Y205289D01*
X641232Y205272D01*
X641683Y205221D01*
X642100Y205136D01*
X642483Y205016D01*
X642832Y204863D01*
X643146Y204675D01*
X643426Y204453D01*
X643672Y204198D01*
X643886Y203903D01*
X644072Y203564D01*
X644229Y203182D01*
X644357Y202756D01*
X644457Y202286D01*
X644529Y201773D01*
X644571Y201216D01*
X644586Y200615D01*
X644586Y191770D01*
X642402Y191770D01*
X642402Y200186D01*
X642394Y200649D01*
X642369Y201075D01*
X642328Y201463D01*
X642270Y201814D01*
X642196Y202129D01*
X642105Y202406D01*
X641998Y202645D01*
X641874Y202848D01*
X641729Y203021D01*
X641558Y203170D01*
X641360Y203297D01*
X641135Y203400D01*
X640884Y203481D01*
X640607Y203538D01*
X640303Y203573D01*
X639973Y203584D01*
X639621Y203567D01*
X639289Y203517D01*
X638978Y203433D01*
X638686Y203316D01*
X638415Y203165D01*
X638164Y202980D01*
X637933Y202762D01*
X637722Y202511D01*
X637533Y202228D01*
X637370Y201918D01*
X637232Y201579D01*
X637119Y201212D01*
X637031Y200817D01*
X636968Y200393D01*
X636931Y199942D01*
X636918Y199462D01*
X636918Y191770D01*
X634734Y191770D01*
X634734Y200186D01*
X634726Y200649D01*
X634701Y201075D01*
X634660Y201463D01*
X634602Y201814D01*
X634528Y202129D01*
X634438Y202406D01*
X634330Y202645D01*
X634207Y202848D01*
X634062Y203021D01*
X633890Y203170D01*
X633692Y203297D01*
X633468Y203400D01*
X633217Y203481D01*
X632939Y203538D01*
X632636Y203573D01*
X632305Y203584D01*
X631962Y203567D01*
X631637Y203517D01*
X631330Y203432D01*
X631042Y203314D01*
X630772Y203162D01*
X630520Y202977D01*
X630287Y202758D01*
X630073Y202505D01*
X629880Y202221D01*
X629713Y201910D01*
X629572Y201571D01*
X629456Y201204D01*
X629366Y200810D01*
X629302Y200388D01*
X629263Y199939D01*
X629251Y199462D01*
X629251Y191770D01*
G37*
G36*
X597466Y164855D02*
X597103Y164862D01*
X596752Y164882D01*
X596411Y164916D01*
X596082Y164964D01*
X595763Y165026D01*
X595455Y165101D01*
X595159Y165190D01*
X594873Y165293D01*
X594598Y165410D01*
X594334Y165540D01*
X594081Y165684D01*
X593840Y165841D01*
X593609Y166013D01*
X593389Y166198D01*
X593180Y166397D01*
X592982Y166609D01*
X592796Y166835D01*
X592621Y167074D01*
X592459Y167327D01*
X592308Y167593D01*
X592170Y167872D01*
X592044Y168165D01*
X591929Y168470D01*
X591827Y168790D01*
X591737Y169122D01*
X591659Y169468D01*
X591593Y169827D01*
X591539Y170200D01*
X591496Y170586D01*
X591466Y170985D01*
X591448Y171397D01*
X591442Y171823D01*
X591448Y172228D01*
X591466Y172621D01*
X591496Y173002D01*
X591539Y173371D01*
X591593Y173728D01*
X591659Y174073D01*
X591737Y174406D01*
X591827Y174727D01*
X591929Y175037D01*
X592044Y175334D01*
X592170Y175619D01*
X592308Y175892D01*
X592459Y176153D01*
X592621Y176403D01*
X592796Y176640D01*
X592982Y176865D01*
X593180Y177078D01*
X593387Y177276D01*
X593606Y177461D01*
X593834Y177633D01*
X594073Y177790D01*
X594322Y177934D01*
X594582Y178064D01*
X594851Y178181D01*
X595131Y178284D01*
X595422Y178373D01*
X595722Y178448D01*
X596033Y178510D01*
X596355Y178558D01*
X596686Y178592D01*
X597028Y178613D01*
X597380Y178619D01*
X597740Y178613D01*
X598089Y178592D01*
X598426Y178557D01*
X598752Y178509D01*
X599066Y178447D01*
X599369Y178371D01*
X599660Y178282D01*
X599940Y178179D01*
X600209Y178061D01*
X600466Y177931D01*
X600712Y177786D01*
X600946Y177627D01*
X601169Y177455D01*
X601380Y177269D01*
X601580Y177069D01*
X601769Y176856D01*
X601946Y176629D01*
X602112Y176387D01*
X602266Y176133D01*
X602409Y175864D01*
X602540Y175581D01*
X602660Y175285D01*
X602769Y174975D01*
X602866Y174651D01*
X602952Y174314D01*
X603026Y173963D01*
X603089Y173597D01*
X603140Y173219D01*
X603209Y172419D01*
X603232Y171565D01*
X603232Y171271D01*
X593761Y171271D01*
X593776Y170717D01*
X593820Y170195D01*
X593894Y169706D01*
X593997Y169250D01*
X594130Y168826D01*
X594292Y168435D01*
X594484Y168076D01*
X594706Y167750D01*
X594955Y167459D01*
X595232Y167208D01*
X595537Y166995D01*
X595868Y166821D01*
X596227Y166685D01*
X596613Y166588D01*
X597026Y166530D01*
X597466Y166511D01*
X597816Y166520D01*
X598148Y166547D01*
X598462Y166592D01*
X598759Y166655D01*
X599037Y166736D01*
X599298Y166835D01*
X599541Y166952D01*
X599766Y167087D01*
X599974Y167236D01*
X600164Y167395D01*
X600336Y167563D01*
X600492Y167741D01*
X600629Y167928D01*
X600750Y168125D01*
X600852Y168331D01*
X600938Y168547D01*
X602876Y167995D01*
X602716Y167615D01*
X602531Y167259D01*
X602323Y166928D01*
X602092Y166621D01*
X601836Y166339D01*
X601558Y166081D01*
X601255Y165848D01*
X600929Y165640D01*
X600579Y165456D01*
X600205Y165296D01*
X599808Y165161D01*
X599387Y165051D01*
X598942Y164965D01*
X598474Y164904D01*
X597982Y164867D01*
X597466Y164855D01*
G37*
%LPC*%
G36*
X600950Y172964D02*
X600893Y173471D01*
X600814Y173942D01*
X600714Y174378D01*
X600591Y174778D01*
X600447Y175143D01*
X600281Y175472D01*
X600093Y175766D01*
X599883Y176025D01*
X599650Y176250D01*
X599393Y176446D01*
X599112Y176612D01*
X598806Y176747D01*
X598477Y176852D01*
X598123Y176928D01*
X597745Y176973D01*
X597343Y176988D01*
X596952Y176971D01*
X596581Y176921D01*
X596232Y176837D01*
X595903Y176719D01*
X595596Y176568D01*
X595309Y176384D01*
X595043Y176166D01*
X594798Y175914D01*
X594577Y175633D01*
X594382Y175327D01*
X594215Y174996D01*
X594075Y174640D01*
X593962Y174259D01*
X593876Y173852D01*
X593817Y173421D01*
X593786Y172964D01*
X600950Y172964D01*
G37*
%LPD*%
G36*
X604435Y191525D02*
X604072Y191532D01*
X603721Y191552D01*
X603380Y191586D01*
X603050Y191634D01*
X602732Y191696D01*
X602424Y191771D01*
X602127Y191860D01*
X601842Y191963D01*
X601567Y192080D01*
X601303Y192210D01*
X601050Y192354D01*
X600808Y192511D01*
X600577Y192683D01*
X600358Y192868D01*
X600149Y193067D01*
X599951Y193279D01*
X599764Y193505D01*
X599590Y193744D01*
X599427Y193997D01*
X599277Y194263D01*
X599139Y194542D01*
X599012Y194835D01*
X598898Y195140D01*
X598796Y195460D01*
X598706Y195792D01*
X598628Y196138D01*
X598561Y196497D01*
X598507Y196870D01*
X598465Y197256D01*
X598435Y197655D01*
X598417Y198067D01*
X598411Y198493D01*
X598417Y198898D01*
X598435Y199291D01*
X598465Y199672D01*
X598507Y200041D01*
X598561Y200398D01*
X598628Y200743D01*
X598706Y201076D01*
X598796Y201397D01*
X598898Y201707D01*
X599012Y202004D01*
X599139Y202289D01*
X599277Y202562D01*
X599427Y202823D01*
X599590Y203073D01*
X599764Y203310D01*
X599951Y203535D01*
X600148Y203748D01*
X600356Y203946D01*
X600574Y204131D01*
X600803Y204303D01*
X601042Y204460D01*
X601291Y204604D01*
X601550Y204734D01*
X601820Y204851D01*
X602100Y204954D01*
X602390Y205043D01*
X602691Y205118D01*
X603002Y205180D01*
X603323Y205228D01*
X603655Y205262D01*
X603997Y205283D01*
X604349Y205289D01*
X604709Y205283D01*
X605057Y205262D01*
X605395Y205227D01*
X605720Y205179D01*
X606035Y205117D01*
X606338Y205041D01*
X606629Y204952D01*
X606909Y204849D01*
X607178Y204731D01*
X607435Y204601D01*
X607680Y204456D01*
X607915Y204297D01*
X608138Y204125D01*
X608349Y203939D01*
X608549Y203739D01*
X608738Y203526D01*
X608915Y203299D01*
X609081Y203057D01*
X609235Y202803D01*
X609378Y202534D01*
X609509Y202251D01*
X609629Y201955D01*
X609738Y201645D01*
X609835Y201321D01*
X609921Y200984D01*
X609995Y200633D01*
X610058Y200267D01*
X610109Y199889D01*
X610178Y199089D01*
X610201Y198235D01*
X610201Y197941D01*
X600730Y197941D01*
X600744Y197387D01*
X600789Y196865D01*
X600863Y196376D01*
X600966Y195920D01*
X601099Y195496D01*
X601261Y195105D01*
X601453Y194746D01*
X601674Y194420D01*
X601924Y194129D01*
X602201Y193878D01*
X602505Y193665D01*
X602837Y193491D01*
X603195Y193355D01*
X603581Y193258D01*
X603994Y193200D01*
X604435Y193181D01*
X604785Y193190D01*
X605117Y193217D01*
X605431Y193262D01*
X605727Y193325D01*
X606006Y193406D01*
X606267Y193505D01*
X606510Y193622D01*
X606735Y193757D01*
X606942Y193906D01*
X607133Y194065D01*
X607305Y194233D01*
X607460Y194411D01*
X607598Y194598D01*
X607718Y194795D01*
X607821Y195001D01*
X607907Y195217D01*
X609845Y194665D01*
X609684Y194285D01*
X609500Y193929D01*
X609292Y193598D01*
X609061Y193291D01*
X608805Y193009D01*
X608526Y192751D01*
X608224Y192518D01*
X607897Y192310D01*
X607547Y192126D01*
X607174Y191966D01*
X606776Y191831D01*
X606355Y191721D01*
X605911Y191635D01*
X605442Y191574D01*
X604950Y191537D01*
X604435Y191525D01*
G37*
%LPC*%
G36*
X607919Y199634D02*
X607862Y200141D01*
X607783Y200612D01*
X607682Y201048D01*
X607560Y201448D01*
X607416Y201813D01*
X607249Y202142D01*
X607061Y202436D01*
X606852Y202695D01*
X606619Y202920D01*
X606362Y203116D01*
X606080Y203282D01*
X605775Y203417D01*
X605445Y203522D01*
X605092Y203598D01*
X604714Y203643D01*
X604312Y203658D01*
X603921Y203641D01*
X603550Y203591D01*
X603201Y203507D01*
X602872Y203389D01*
X602564Y203238D01*
X602277Y203054D01*
X602011Y202836D01*
X601766Y202584D01*
X601545Y202303D01*
X601351Y201997D01*
X601184Y201666D01*
X601044Y201310D01*
X600931Y200929D01*
X600845Y200522D01*
X600786Y200091D01*
X600754Y199634D01*
X607919Y199634D01*
G37*
%LPD*%
G36*
X559610Y164855D02*
X558968Y164872D01*
X558348Y164923D01*
X557750Y165007D01*
X557174Y165126D01*
X556619Y165279D01*
X556087Y165465D01*
X555577Y165686D01*
X555090Y165940D01*
X554627Y166226D01*
X554192Y166541D01*
X553786Y166886D01*
X553409Y167259D01*
X553060Y167662D01*
X552739Y168093D01*
X552446Y168554D01*
X552182Y169044D01*
X551948Y169560D01*
X551745Y170100D01*
X551573Y170662D01*
X551432Y171248D01*
X551323Y171857D01*
X551245Y172489D01*
X551198Y173144D01*
X551182Y173823D01*
X551191Y174332D01*
X551217Y174828D01*
X551261Y175310D01*
X551322Y175778D01*
X551400Y176232D01*
X551496Y176671D01*
X551609Y177097D01*
X551740Y177509D01*
X551889Y177907D01*
X552054Y178291D01*
X552237Y178661D01*
X552438Y179017D01*
X552656Y179358D01*
X552892Y179686D01*
X553145Y180000D01*
X553415Y180300D01*
X553701Y180584D01*
X554000Y180849D01*
X554313Y181096D01*
X554639Y181325D01*
X554978Y181536D01*
X555331Y181728D01*
X555697Y181902D01*
X556077Y182058D01*
X556470Y182195D01*
X556877Y182314D01*
X557297Y182415D01*
X557730Y182497D01*
X558177Y182561D01*
X558637Y182607D01*
X559111Y182634D01*
X559598Y182643D01*
X560274Y182626D01*
X560921Y182576D01*
X561541Y182492D01*
X562131Y182373D01*
X562694Y182222D01*
X563228Y182036D01*
X563734Y181817D01*
X564211Y181564D01*
X564659Y181278D01*
X565076Y180959D01*
X565462Y180607D01*
X565818Y180223D01*
X566143Y179807D01*
X566437Y179358D01*
X566701Y178876D01*
X566934Y178362D01*
X564714Y177626D01*
X564552Y177992D01*
X564368Y178336D01*
X564160Y178657D01*
X563930Y178957D01*
X563677Y179234D01*
X563402Y179489D01*
X563103Y179722D01*
X562782Y179932D01*
X562441Y180119D01*
X562085Y180281D01*
X561713Y180418D01*
X561326Y180530D01*
X560924Y180617D01*
X560505Y180680D01*
X560072Y180717D01*
X559623Y180730D01*
X559269Y180722D01*
X558925Y180701D01*
X558591Y180665D01*
X558267Y180614D01*
X557953Y180549D01*
X557649Y180470D01*
X557355Y180376D01*
X557071Y180268D01*
X556797Y180145D01*
X556533Y180008D01*
X556278Y179857D01*
X556034Y179691D01*
X555800Y179511D01*
X555576Y179316D01*
X555361Y179107D01*
X555157Y178883D01*
X554783Y178400D01*
X554615Y178143D01*
X554459Y177875D01*
X554316Y177596D01*
X554185Y177306D01*
X554067Y177006D01*
X553961Y176695D01*
X553867Y176373D01*
X553786Y176041D01*
X553718Y175698D01*
X553662Y175344D01*
X553618Y174980D01*
X553587Y174605D01*
X553568Y174219D01*
X553562Y173823D01*
X553569Y173430D01*
X553588Y173048D01*
X553621Y172675D01*
X553666Y172312D01*
X553724Y171958D01*
X553796Y171615D01*
X553880Y171281D01*
X553978Y170956D01*
X554088Y170642D01*
X554211Y170337D01*
X554348Y170042D01*
X554497Y169757D01*
X554660Y169481D01*
X554835Y169215D01*
X555224Y168713D01*
X555437Y168479D01*
X555658Y168260D01*
X555889Y168056D01*
X556129Y167868D01*
X556378Y167694D01*
X556636Y167535D01*
X556903Y167392D01*
X557180Y167264D01*
X557465Y167151D01*
X557760Y167052D01*
X558064Y166969D01*
X558377Y166901D01*
X558699Y166849D01*
X559031Y166811D01*
X559371Y166788D01*
X559721Y166781D01*
X560168Y166795D01*
X560600Y166837D01*
X561019Y166907D01*
X561424Y167005D01*
X561814Y167132D01*
X562191Y167286D01*
X562553Y167469D01*
X562901Y167679D01*
X563235Y167918D01*
X563555Y168185D01*
X563861Y168480D01*
X564153Y168803D01*
X564431Y169154D01*
X564695Y169533D01*
X564944Y169940D01*
X565180Y170375D01*
X567094Y169418D01*
X566813Y168877D01*
X566506Y168369D01*
X566172Y167894D01*
X565810Y167452D01*
X565422Y167044D01*
X565006Y166670D01*
X564564Y166328D01*
X564094Y166020D01*
X563602Y165747D01*
X563089Y165510D01*
X562558Y165310D01*
X562007Y165146D01*
X561437Y165019D01*
X560847Y164928D01*
X560239Y164873D01*
X559610Y164855D01*
G37*
G36*
X697943Y191525D02*
X697303Y191543D01*
X696696Y191599D01*
X696123Y191691D01*
X695582Y191821D01*
X695075Y191987D01*
X694601Y192191D01*
X694161Y192431D01*
X693753Y192709D01*
X693382Y193022D01*
X693050Y193371D01*
X692758Y193756D01*
X692506Y194176D01*
X692294Y194632D01*
X692121Y195123D01*
X691988Y195649D01*
X691894Y196211D01*
X694176Y196420D01*
X694243Y196048D01*
X694332Y195701D01*
X694443Y195377D01*
X694577Y195078D01*
X694734Y194802D01*
X694913Y194551D01*
X695115Y194323D01*
X695339Y194119D01*
X695585Y193940D01*
X695855Y193784D01*
X696146Y193652D01*
X696460Y193544D01*
X696797Y193460D01*
X697156Y193401D01*
X697538Y193365D01*
X697943Y193353D01*
X698348Y193365D01*
X698732Y193404D01*
X699093Y193468D01*
X699432Y193558D01*
X699748Y193674D01*
X700042Y193815D01*
X700313Y193982D01*
X700562Y194175D01*
X700785Y194392D01*
X700978Y194635D01*
X701141Y194903D01*
X701275Y195196D01*
X701379Y195513D01*
X701453Y195856D01*
X701498Y196223D01*
X701513Y196616D01*
X701496Y196959D01*
X701445Y197283D01*
X701360Y197587D01*
X701241Y197872D01*
X701088Y198137D01*
X700902Y198384D01*
X700681Y198611D01*
X700427Y198818D01*
X700140Y199003D01*
X699824Y199164D01*
X699477Y199300D01*
X699100Y199411D01*
X698694Y199498D01*
X698257Y199560D01*
X697790Y199597D01*
X697292Y199609D01*
X696041Y199609D01*
X696041Y201523D01*
X697243Y201523D01*
X697684Y201535D01*
X698100Y201573D01*
X698490Y201634D01*
X698855Y201721D01*
X699194Y201832D01*
X699508Y201968D01*
X699796Y202129D01*
X700059Y202314D01*
X700293Y202522D01*
X700496Y202748D01*
X700668Y202993D01*
X700809Y203258D01*
X700918Y203541D01*
X700996Y203843D01*
X701043Y204164D01*
X701059Y204504D01*
X701046Y204842D01*
X701008Y205161D01*
X700944Y205462D01*
X700855Y205745D01*
X700740Y206009D01*
X700600Y206256D01*
X700434Y206484D01*
X700243Y206694D01*
X700027Y206882D01*
X699785Y207046D01*
X699520Y207184D01*
X699229Y207297D01*
X698914Y207385D01*
X698574Y207447D01*
X698209Y207485D01*
X697820Y207498D01*
X697464Y207486D01*
X697125Y207451D01*
X696803Y207392D01*
X696500Y207311D01*
X696213Y207205D01*
X695944Y207077D01*
X695692Y206925D01*
X695458Y206749D01*
X695245Y206553D01*
X695055Y206337D01*
X694888Y206102D01*
X694745Y205848D01*
X694626Y205574D01*
X694530Y205282D01*
X694458Y204970D01*
X694409Y204639D01*
X692189Y204811D01*
X692270Y205327D01*
X692391Y205814D01*
X692551Y206272D01*
X692752Y206700D01*
X692992Y207100D01*
X693271Y207470D01*
X693590Y207811D01*
X693949Y208123D01*
X694342Y208402D01*
X694761Y208644D01*
X695207Y208848D01*
X695681Y209016D01*
X696181Y209146D01*
X696708Y209239D01*
X697263Y209295D01*
X697844Y209313D01*
X698477Y209294D01*
X699072Y209238D01*
X699632Y209143D01*
X700155Y209011D01*
X700643Y208841D01*
X701094Y208634D01*
X701508Y208388D01*
X701887Y208105D01*
X702225Y207788D01*
X702517Y207441D01*
X702765Y207065D01*
X702968Y206659D01*
X703126Y206223D01*
X703238Y205758D01*
X703306Y205262D01*
X703328Y204737D01*
X703314Y204333D01*
X703270Y203948D01*
X703198Y203582D01*
X703097Y203236D01*
X702966Y202909D01*
X702807Y202602D01*
X702619Y202313D01*
X702402Y202045D01*
X702157Y201796D01*
X701886Y201568D01*
X701589Y201361D01*
X701266Y201175D01*
X700916Y201010D01*
X700540Y200866D01*
X700138Y200742D01*
X699709Y200640D01*
X699709Y200591D01*
X700180Y200525D01*
X700625Y200431D01*
X701042Y200310D01*
X701433Y200161D01*
X701797Y199985D01*
X702134Y199781D01*
X702444Y199549D01*
X702727Y199290D01*
X702980Y199009D01*
X703199Y198709D01*
X703385Y198392D01*
X703537Y198057D01*
X703655Y197705D01*
X703739Y197335D01*
X703790Y196948D01*
X703807Y196542D01*
X703801Y196247D01*
X703783Y195961D01*
X703712Y195414D01*
X703593Y194900D01*
X703426Y194420D01*
X703212Y193974D01*
X702951Y193561D01*
X702642Y193182D01*
X702285Y192837D01*
X701885Y192530D01*
X701444Y192263D01*
X700962Y192037D01*
X700439Y191853D01*
X699876Y191709D01*
X699272Y191607D01*
X698628Y191545D01*
X697943Y191525D01*
G37*
G36*
X662812Y191770D02*
X660383Y191770D01*
X653329Y209056D01*
X655795Y209056D01*
X660580Y196886D01*
X661610Y193831D01*
X662641Y196886D01*
X667401Y209056D01*
X669867Y209056D01*
X662812Y191770D01*
G37*
G36*
X606687Y159886D02*
X606251Y159895D01*
X605853Y159920D01*
X605491Y159962D01*
X605166Y160021D01*
X605166Y161677D01*
X605656Y161622D01*
X606196Y161604D01*
X606451Y161615D01*
X606698Y161651D01*
X606939Y161710D01*
X607173Y161793D01*
X607401Y161900D01*
X607621Y162030D01*
X607835Y162184D01*
X608043Y162361D01*
X608243Y162562D01*
X608437Y162787D01*
X608624Y163036D01*
X608805Y163308D01*
X608978Y163604D01*
X609146Y163924D01*
X609306Y164267D01*
X609460Y164634D01*
X609668Y165161D01*
X604405Y178374D01*
X606761Y178374D01*
X609558Y171038D01*
X609705Y170627D01*
X610257Y169026D01*
X610616Y167965D01*
X610760Y167505D01*
X611619Y169921D01*
X614526Y178374D01*
X616857Y178374D01*
X611754Y165100D01*
X611350Y164107D01*
X610959Y163249D01*
X610583Y162527D01*
X610220Y161941D01*
X609855Y161456D01*
X609470Y161036D01*
X609067Y160683D01*
X608858Y160531D01*
X608644Y160395D01*
X608424Y160276D01*
X608197Y160172D01*
X607963Y160085D01*
X607722Y160013D01*
X607474Y159958D01*
X607219Y159918D01*
X606956Y159894D01*
X606687Y159886D01*
G37*
G36*
X532888Y165100D02*
X530680Y165100D01*
X530680Y175540D01*
X530661Y177408D01*
X530638Y178004D01*
X530606Y178374D01*
X532692Y178374D01*
X532716Y178043D01*
X532747Y177423D01*
X532790Y176104D01*
X532826Y176104D01*
X533020Y176435D01*
X533222Y176741D01*
X533431Y177022D01*
X533647Y177278D01*
X533871Y177508D01*
X534102Y177713D01*
X534341Y177894D01*
X534587Y178049D01*
X534844Y178183D01*
X535117Y178299D01*
X535405Y178397D01*
X535708Y178477D01*
X536026Y178539D01*
X536359Y178584D01*
X536708Y178610D01*
X537071Y178619D01*
X537599Y178602D01*
X538090Y178552D01*
X538544Y178467D01*
X538962Y178348D01*
X539343Y178195D01*
X539688Y178009D01*
X539996Y177788D01*
X540267Y177534D01*
X540504Y177240D01*
X540710Y176902D01*
X540884Y176520D01*
X541026Y176094D01*
X541137Y175623D01*
X541216Y175108D01*
X541263Y174549D01*
X541279Y173945D01*
X541279Y165100D01*
X539059Y165100D01*
X539059Y173516D01*
X539043Y174135D01*
X538994Y174681D01*
X538914Y175154D01*
X538801Y175552D01*
X538653Y175889D01*
X538467Y176175D01*
X538242Y176410D01*
X537979Y176595D01*
X537830Y176670D01*
X537664Y176735D01*
X537283Y176834D01*
X536836Y176894D01*
X536323Y176914D01*
X535935Y176897D01*
X535568Y176846D01*
X535222Y176761D01*
X534897Y176641D01*
X534593Y176488D01*
X534310Y176300D01*
X534048Y176078D01*
X533808Y175822D01*
X533592Y175536D01*
X533405Y175223D01*
X533247Y174884D01*
X533118Y174519D01*
X533017Y174127D01*
X532945Y173708D01*
X532902Y173263D01*
X532888Y172792D01*
X532888Y165100D01*
G37*
G36*
X682715Y191770D02*
X671883Y191770D01*
X671883Y193647D01*
X676287Y193647D01*
X676287Y206946D01*
X672386Y204161D01*
X672386Y206246D01*
X676471Y209056D01*
X678507Y209056D01*
X678507Y193647D01*
X682715Y193647D01*
X682715Y191770D01*
G37*
G36*
X512662Y165100D02*
X510319Y165100D01*
X510319Y182386D01*
X512662Y182386D01*
X512662Y165100D01*
G37*
G36*
X542620Y191770D02*
X540412Y191770D01*
X540412Y209976D01*
X542620Y209976D01*
X542620Y191770D01*
G37*
G36*
X548214Y191770D02*
X546005Y191770D01*
X546005Y209976D01*
X548214Y209976D01*
X548214Y191770D01*
G37*
G36*
X585950Y165100D02*
X583742Y165100D01*
X583742Y175282D01*
X583724Y176755D01*
X583668Y178374D01*
X585754Y178374D01*
X585828Y176568D01*
X585852Y175663D01*
X585901Y175663D01*
X586036Y176072D01*
X586175Y176448D01*
X586319Y176790D01*
X586469Y177098D01*
X586623Y177373D01*
X586782Y177613D01*
X586947Y177820D01*
X587116Y177994D01*
X587296Y178140D01*
X587495Y178267D01*
X587710Y178375D01*
X587944Y178463D01*
X588195Y178531D01*
X588464Y178580D01*
X588750Y178610D01*
X589054Y178619D01*
X589276Y178612D01*
X589499Y178589D01*
X589724Y178550D01*
X589950Y178497D01*
X589950Y176472D01*
X589710Y176526D01*
X589434Y176565D01*
X589122Y176588D01*
X588772Y176595D01*
X588439Y176577D01*
X588126Y176521D01*
X587833Y176429D01*
X587561Y176299D01*
X587308Y176133D01*
X587077Y175929D01*
X586865Y175689D01*
X586674Y175411D01*
X586504Y175099D01*
X586357Y174755D01*
X586233Y174379D01*
X586131Y173971D01*
X586052Y173531D01*
X585996Y173059D01*
X585962Y172555D01*
X585950Y172019D01*
X585950Y165100D01*
G37*
G36*
X688624Y191770D02*
X686232Y191770D01*
X686232Y194457D01*
X688624Y194457D01*
X688624Y191770D01*
G37*
G36*
X207178Y253755D02*
X206524Y253772D01*
X205893Y253822D01*
X205284Y253906D01*
X204698Y254025D01*
X204136Y254176D01*
X203595Y254362D01*
X203078Y254581D01*
X202584Y254834D01*
X202115Y255119D01*
X201675Y255434D01*
X201263Y255779D01*
X200880Y256155D01*
X200525Y256560D01*
X200199Y256995D01*
X199902Y257461D01*
X199633Y257956D01*
X199395Y258478D01*
X199188Y259020D01*
X199013Y259584D01*
X198870Y260169D01*
X198758Y260776D01*
X198679Y261403D01*
X198631Y262052D01*
X198615Y262723D01*
X198624Y263234D01*
X198650Y263731D01*
X198695Y264214D01*
X198757Y264683D01*
X198837Y265138D01*
X198934Y265578D01*
X199049Y266005D01*
X199182Y266417D01*
X199333Y266815D01*
X199502Y267199D01*
X199688Y267569D01*
X199892Y267925D01*
X200113Y268266D01*
X200353Y268594D01*
X200610Y268907D01*
X200885Y269206D01*
X201175Y269489D01*
X201480Y269754D01*
X201798Y270001D01*
X202131Y270229D01*
X202477Y270439D01*
X202837Y270630D01*
X203211Y270804D01*
X203599Y270959D01*
X204001Y271096D01*
X204416Y271215D01*
X204846Y271315D01*
X205290Y271397D01*
X205747Y271461D01*
X206218Y271507D01*
X206704Y271534D01*
X207203Y271543D01*
X207851Y271527D01*
X208478Y271478D01*
X209083Y271396D01*
X209665Y271281D01*
X210227Y271134D01*
X210766Y270953D01*
X211283Y270740D01*
X211779Y270494D01*
X212249Y270217D01*
X212691Y269911D01*
X213104Y269574D01*
X213488Y269208D01*
X213845Y268812D01*
X214172Y268386D01*
X214471Y267931D01*
X214741Y267446D01*
X214981Y266935D01*
X215190Y266401D01*
X215366Y265844D01*
X215510Y265265D01*
X215622Y264663D01*
X215702Y264039D01*
X215750Y263392D01*
X215766Y262723D01*
X215750Y262055D01*
X215701Y261409D01*
X215620Y260784D01*
X215507Y260180D01*
X215361Y259597D01*
X215183Y259035D01*
X214972Y258495D01*
X214729Y257975D01*
X214456Y257480D01*
X214154Y257016D01*
X213825Y256580D01*
X213467Y256175D01*
X213081Y255798D01*
X212667Y255451D01*
X212225Y255134D01*
X211754Y254846D01*
X211259Y254591D01*
X210741Y254369D01*
X210202Y254181D01*
X209641Y254028D01*
X209058Y253908D01*
X208453Y253823D01*
X207827Y253772D01*
X207178Y253755D01*
G37*
%LPC*%
G36*
X207178Y255656D02*
X207547Y255663D01*
X207905Y255685D01*
X208252Y255721D01*
X208588Y255772D01*
X208913Y255836D01*
X209227Y255916D01*
X209531Y256010D01*
X209823Y256118D01*
X210105Y256240D01*
X210376Y256377D01*
X210636Y256529D01*
X210885Y256695D01*
X211123Y256875D01*
X211351Y257070D01*
X211567Y257279D01*
X211773Y257503D01*
X211966Y257739D01*
X212148Y257988D01*
X212317Y258249D01*
X212473Y258521D01*
X212617Y258806D01*
X212748Y259102D01*
X212867Y259410D01*
X212973Y259731D01*
X213067Y260063D01*
X213148Y260407D01*
X213217Y260763D01*
X213273Y261131D01*
X213317Y261511D01*
X213348Y261903D01*
X213367Y262307D01*
X213373Y262723D01*
X213367Y263120D01*
X213348Y263508D01*
X213317Y263884D01*
X213273Y264249D01*
X213216Y264604D01*
X213147Y264948D01*
X213065Y265280D01*
X212970Y265603D01*
X212863Y265914D01*
X212743Y266214D01*
X212611Y266504D01*
X212466Y266783D01*
X212308Y267050D01*
X212138Y267308D01*
X211956Y267554D01*
X211760Y267789D01*
X211553Y268012D01*
X211336Y268221D01*
X211108Y268415D01*
X210870Y268594D01*
X210622Y268760D01*
X210363Y268911D01*
X210094Y269047D01*
X209814Y269169D01*
X209524Y269277D01*
X209224Y269371D01*
X208913Y269450D01*
X208592Y269515D01*
X208260Y269565D01*
X207918Y269601D01*
X207565Y269622D01*
X207203Y269630D01*
X206837Y269622D01*
X206482Y269601D01*
X206137Y269566D01*
X205803Y269516D01*
X205479Y269452D01*
X205166Y269374D01*
X204863Y269282D01*
X204571Y269176D01*
X204290Y269055D01*
X204019Y268920D01*
X203758Y268771D01*
X203508Y268608D01*
X203269Y268431D01*
X203040Y268239D01*
X202822Y268034D01*
X202614Y267814D01*
X202418Y267581D01*
X202235Y267337D01*
X202064Y267082D01*
X201906Y266815D01*
X201760Y266536D01*
X201628Y266247D01*
X201507Y265946D01*
X201400Y265633D01*
X201305Y265309D01*
X201223Y264974D01*
X201153Y264627D01*
X201096Y264269D01*
X201052Y263900D01*
X201020Y263519D01*
X201001Y263126D01*
X200995Y262723D01*
X201001Y262321D01*
X201021Y261931D01*
X201053Y261551D01*
X201097Y261181D01*
X201155Y260822D01*
X201225Y260473D01*
X201308Y260135D01*
X201404Y259807D01*
X201513Y259490D01*
X201635Y259184D01*
X201769Y258887D01*
X201916Y258602D01*
X202076Y258326D01*
X202249Y258062D01*
X202434Y257808D01*
X202633Y257564D01*
X202842Y257333D01*
X203062Y257117D01*
X203292Y256916D01*
X203531Y256729D01*
X203780Y256558D01*
X204040Y256401D01*
X204309Y256260D01*
X204588Y256133D01*
X204877Y256021D01*
X205176Y255924D01*
X205485Y255842D01*
X205804Y255775D01*
X206132Y255723D01*
X206471Y255686D01*
X206820Y255664D01*
X207178Y255656D01*
G37*
%LPD*%
G36*
X81831Y253755D02*
X81522Y253761D01*
X81224Y253781D01*
X80935Y253814D01*
X80657Y253860D01*
X80390Y253920D01*
X80132Y253993D01*
X79886Y254079D01*
X79649Y254178D01*
X79423Y254290D01*
X79208Y254416D01*
X79003Y254555D01*
X78808Y254707D01*
X78623Y254872D01*
X78449Y255051D01*
X78133Y255448D01*
X77855Y255898D01*
X77615Y256403D01*
X77411Y256962D01*
X77245Y257576D01*
X77115Y258244D01*
X77023Y258967D01*
X76967Y259744D01*
X76949Y260576D01*
X76968Y261417D01*
X77025Y262203D01*
X77120Y262935D01*
X77254Y263614D01*
X77426Y264237D01*
X77635Y264807D01*
X77883Y265322D01*
X78169Y265783D01*
X78494Y266190D01*
X78856Y266543D01*
X79052Y266699D01*
X79257Y266841D01*
X79471Y266970D01*
X79695Y267085D01*
X79929Y267187D01*
X80172Y267275D01*
X80425Y267350D01*
X80687Y267411D01*
X80959Y267458D01*
X81240Y267492D01*
X81531Y267513D01*
X81831Y267519D01*
X82201Y267511D01*
X82555Y267485D01*
X82892Y267442D01*
X83215Y267381D01*
X83521Y267304D01*
X83812Y267209D01*
X84087Y267097D01*
X84346Y266967D01*
X84592Y266819D01*
X84825Y266651D01*
X85046Y266462D01*
X85254Y266253D01*
X85451Y266023D01*
X85635Y265774D01*
X85806Y265503D01*
X85966Y265213D01*
X85990Y265213D01*
X85966Y266697D01*
X85966Y272206D01*
X88174Y272206D01*
X88174Y256736D01*
X88192Y255015D01*
X88215Y254419D01*
X88248Y254000D01*
X86138Y254000D01*
X86099Y254325D01*
X86058Y254908D01*
X86026Y255570D01*
X86015Y256135D01*
X85966Y256135D01*
X85806Y255827D01*
X85634Y255542D01*
X85450Y255280D01*
X85253Y255040D01*
X85043Y254823D01*
X84821Y254628D01*
X84587Y254456D01*
X84340Y254307D01*
X84080Y254177D01*
X83804Y254065D01*
X83513Y253970D01*
X83207Y253893D01*
X82886Y253832D01*
X82550Y253789D01*
X82198Y253763D01*
X81831Y253755D01*
G37*
%LPC*%
G36*
X82396Y255460D02*
X82849Y255480D01*
X83270Y255541D01*
X83659Y255643D01*
X84015Y255785D01*
X84340Y255968D01*
X84632Y256191D01*
X84892Y256456D01*
X85092Y256724D01*
X85119Y256760D01*
X85318Y257108D01*
X85490Y257500D01*
X85635Y257937D01*
X85754Y258420D01*
X85847Y258947D01*
X85913Y259518D01*
X85953Y260135D01*
X85966Y260797D01*
X85953Y261434D01*
X85913Y262027D01*
X85847Y262576D01*
X85754Y263081D01*
X85635Y263542D01*
X85490Y263959D01*
X85318Y264332D01*
X85119Y264661D01*
X84892Y264948D01*
X84633Y265198D01*
X84343Y265409D01*
X84021Y265581D01*
X83668Y265715D01*
X83284Y265811D01*
X82868Y265869D01*
X82420Y265888D01*
X82018Y265868D01*
X81644Y265811D01*
X81299Y265714D01*
X80983Y265580D01*
X80697Y265406D01*
X80439Y265194D01*
X80210Y264944D01*
X80010Y264655D01*
X79836Y264323D01*
X79685Y263942D01*
X79557Y263514D01*
X79453Y263037D01*
X79372Y262512D01*
X79314Y261939D01*
X79279Y261318D01*
X79267Y260649D01*
X79279Y259978D01*
X79313Y259356D01*
X79371Y258783D01*
X79451Y258260D01*
X79555Y257786D01*
X79682Y257362D01*
X79831Y256987D01*
X80004Y256662D01*
X80202Y256380D01*
X80429Y256136D01*
X80685Y255930D01*
X80970Y255760D01*
X81283Y255629D01*
X81625Y255535D01*
X81996Y255479D01*
X82396Y255460D01*
G37*
%LPD*%
G36*
X130356Y253755D02*
X129999Y253762D01*
X129652Y253782D01*
X129316Y253817D01*
X128992Y253865D01*
X128678Y253928D01*
X128376Y254004D01*
X128085Y254094D01*
X127805Y254198D01*
X127536Y254316D01*
X127278Y254447D01*
X127031Y254593D01*
X126796Y254752D01*
X126571Y254925D01*
X126358Y255112D01*
X126156Y255313D01*
X125964Y255527D01*
X125785Y255755D01*
X125617Y255995D01*
X125460Y256248D01*
X125315Y256512D01*
X125182Y256789D01*
X125060Y257079D01*
X124950Y257380D01*
X124851Y257694D01*
X124764Y258020D01*
X124689Y258359D01*
X124573Y259073D01*
X124503Y259837D01*
X124480Y260649D01*
X124503Y261481D01*
X124532Y261877D01*
X124573Y262259D01*
X124625Y262628D01*
X124689Y262984D01*
X124765Y263326D01*
X124852Y263655D01*
X124951Y263970D01*
X125061Y264272D01*
X125183Y264561D01*
X125317Y264836D01*
X125462Y265097D01*
X125619Y265346D01*
X125787Y265580D01*
X125968Y265802D01*
X126159Y266010D01*
X126363Y266204D01*
X126578Y266386D01*
X126804Y266553D01*
X127043Y266708D01*
X127292Y266848D01*
X127554Y266976D01*
X127827Y267090D01*
X128112Y267191D01*
X128408Y267278D01*
X128716Y267352D01*
X129036Y267412D01*
X129367Y267459D01*
X129710Y267493D01*
X130064Y267513D01*
X130430Y267519D01*
X130804Y267513D01*
X131166Y267493D01*
X131514Y267461D01*
X131851Y267415D01*
X132175Y267356D01*
X132486Y267284D01*
X132785Y267199D01*
X133071Y267101D01*
X133344Y266990D01*
X133605Y266865D01*
X133854Y266728D01*
X134090Y266577D01*
X134313Y266414D01*
X134524Y266237D01*
X134722Y266048D01*
X134908Y265845D01*
X135082Y265628D01*
X135244Y265397D01*
X135396Y265152D01*
X135536Y264892D01*
X135665Y264618D01*
X135783Y264329D01*
X135889Y264026D01*
X135984Y263709D01*
X136069Y263377D01*
X136141Y263030D01*
X136254Y262294D01*
X136321Y261501D01*
X136343Y260649D01*
X136337Y260221D01*
X136319Y259806D01*
X136289Y259405D01*
X136247Y259018D01*
X136194Y258645D01*
X136128Y258286D01*
X136050Y257941D01*
X135960Y257610D01*
X135858Y257292D01*
X135744Y256989D01*
X135618Y256699D01*
X135481Y256424D01*
X135331Y256162D01*
X135169Y255914D01*
X134995Y255680D01*
X134810Y255460D01*
X134613Y255253D01*
X134405Y255060D01*
X134186Y254880D01*
X133956Y254714D01*
X133716Y254561D01*
X133465Y254421D01*
X133203Y254294D01*
X132930Y254181D01*
X132646Y254081D01*
X132351Y253994D01*
X132046Y253921D01*
X131730Y253861D01*
X131403Y253815D01*
X131065Y253781D01*
X130716Y253761D01*
X130356Y253755D01*
G37*
%LPC*%
G36*
X130332Y255386D02*
X130811Y255406D01*
X131255Y255466D01*
X131663Y255566D01*
X132036Y255705D01*
X132373Y255885D01*
X132675Y256104D01*
X132941Y256363D01*
X133172Y256662D01*
X133372Y257004D01*
X133545Y257390D01*
X133692Y257821D01*
X133811Y258297D01*
X133905Y258818D01*
X133971Y259383D01*
X134011Y259994D01*
X134025Y260649D01*
X134012Y261313D01*
X133974Y261929D01*
X133910Y262499D01*
X133821Y263022D01*
X133706Y263497D01*
X133566Y263926D01*
X133400Y264308D01*
X133209Y264643D01*
X132987Y264934D01*
X132731Y265187D01*
X132441Y265401D01*
X132115Y265576D01*
X131755Y265713D01*
X131361Y265810D01*
X130931Y265868D01*
X130467Y265888D01*
X129999Y265868D01*
X129565Y265808D01*
X129164Y265709D01*
X128797Y265570D01*
X128463Y265392D01*
X128163Y265174D01*
X127897Y264916D01*
X127664Y264618D01*
X127461Y264278D01*
X127285Y263894D01*
X127137Y263465D01*
X127015Y262991D01*
X126920Y262473D01*
X126853Y261909D01*
X126812Y261302D01*
X126799Y260649D01*
X126812Y260013D01*
X126852Y259418D01*
X126919Y258864D01*
X127012Y258351D01*
X127132Y257878D01*
X127278Y257446D01*
X127452Y257055D01*
X127651Y256705D01*
X127880Y256396D01*
X128139Y256128D01*
X128428Y255901D01*
X128748Y255716D01*
X129098Y255572D01*
X129479Y255469D01*
X129890Y255407D01*
X130332Y255386D01*
G37*
%LPD*%
G36*
X53278Y254000D02*
X50849Y254000D01*
X57903Y271286D01*
X60565Y271286D01*
X67509Y254000D01*
X65117Y254000D01*
X63142Y259054D01*
X55266Y259054D01*
X53278Y254000D01*
G37*
%LPC*%
G36*
X62442Y260882D02*
X60222Y266587D01*
X59878Y267489D01*
X59535Y268501D01*
X59204Y269519D01*
X59093Y269176D01*
X58713Y268013D01*
X58185Y266563D01*
X55977Y260882D01*
X62442Y260882D01*
G37*
%LPD*%
G36*
X164997Y254000D02*
X162568Y254000D01*
X169622Y271286D01*
X172284Y271286D01*
X179228Y254000D01*
X176836Y254000D01*
X174860Y259054D01*
X166984Y259054D01*
X164997Y254000D01*
G37*
%LPC*%
G36*
X174161Y260882D02*
X171941Y266587D01*
X171597Y267489D01*
X171254Y268501D01*
X170922Y269519D01*
X170812Y269176D01*
X170432Y268013D01*
X169904Y266563D01*
X167696Y260882D01*
X174161Y260882D01*
G37*
%LPD*%
G36*
X148509Y254000D02*
X146424Y254000D01*
X146424Y271286D01*
X149147Y271286D01*
X158495Y256466D01*
X158385Y258539D01*
X158357Y259327D01*
X158348Y259950D01*
X158348Y271286D01*
X160458Y271286D01*
X160458Y254000D01*
X157637Y254000D01*
X148386Y268722D01*
X148448Y267532D01*
X148509Y265483D01*
X148509Y254000D01*
G37*
G36*
X183415Y254000D02*
X181330Y254000D01*
X181330Y271286D01*
X184053Y271286D01*
X193402Y256466D01*
X193291Y258539D01*
X193264Y259327D01*
X193254Y259950D01*
X193254Y271286D01*
X195364Y271286D01*
X195364Y254000D01*
X192543Y254000D01*
X183293Y268722D01*
X183354Y267532D01*
X183415Y265483D01*
X183415Y254000D01*
G37*
G36*
X95733Y253755D02*
X95206Y253772D01*
X94715Y253823D01*
X94260Y253907D01*
X93843Y254026D01*
X93461Y254179D01*
X93117Y254365D01*
X92809Y254586D01*
X92538Y254840D01*
X92300Y255134D01*
X92095Y255472D01*
X91921Y255854D01*
X91778Y256280D01*
X91668Y256751D01*
X91589Y257266D01*
X91541Y257825D01*
X91525Y258429D01*
X91525Y267274D01*
X93746Y267274D01*
X93746Y258858D01*
X93762Y258239D01*
X93810Y257693D01*
X93891Y257220D01*
X94004Y256822D01*
X94152Y256485D01*
X94338Y256199D01*
X94563Y255964D01*
X94826Y255779D01*
X94975Y255704D01*
X95141Y255639D01*
X95522Y255540D01*
X95969Y255480D01*
X96482Y255460D01*
X96870Y255477D01*
X97237Y255528D01*
X97583Y255613D01*
X97908Y255733D01*
X98212Y255886D01*
X98494Y256074D01*
X98756Y256296D01*
X98997Y256552D01*
X99212Y256838D01*
X99399Y257151D01*
X99557Y257490D01*
X99687Y257855D01*
X99787Y258247D01*
X99859Y258666D01*
X99902Y259111D01*
X99917Y259582D01*
X99917Y267274D01*
X102125Y267274D01*
X102125Y256834D01*
X102143Y254966D01*
X102166Y254370D01*
X102199Y254000D01*
X100113Y254000D01*
X100089Y254331D01*
X100058Y254951D01*
X100015Y256270D01*
X99978Y256270D01*
X99784Y255939D01*
X99583Y255633D01*
X99374Y255352D01*
X99158Y255096D01*
X98934Y254866D01*
X98703Y254661D01*
X98464Y254480D01*
X98218Y254325D01*
X97960Y254191D01*
X97687Y254076D01*
X97400Y253978D01*
X97097Y253897D01*
X96779Y253835D01*
X96445Y253790D01*
X96097Y253764D01*
X95733Y253755D01*
G37*
G36*
X113375Y254000D02*
X111167Y254000D01*
X111167Y264440D01*
X111149Y266308D01*
X111126Y266904D01*
X111093Y267274D01*
X113179Y267274D01*
X113204Y266943D01*
X113234Y266323D01*
X113277Y265004D01*
X113314Y265004D01*
X113508Y265335D01*
X113709Y265641D01*
X113918Y265922D01*
X114134Y266178D01*
X114358Y266408D01*
X114589Y266613D01*
X114828Y266794D01*
X115074Y266949D01*
X115332Y267083D01*
X115605Y267199D01*
X115892Y267297D01*
X116195Y267377D01*
X116514Y267439D01*
X116847Y267484D01*
X117195Y267510D01*
X117559Y267519D01*
X118086Y267502D01*
X118577Y267452D01*
X119032Y267367D01*
X119450Y267248D01*
X119831Y267095D01*
X120175Y266909D01*
X120483Y266688D01*
X120755Y266434D01*
X120992Y266140D01*
X121197Y265802D01*
X121371Y265420D01*
X121514Y264994D01*
X121624Y264523D01*
X121703Y264008D01*
X121751Y263449D01*
X121767Y262845D01*
X121767Y254000D01*
X119546Y254000D01*
X119546Y262416D01*
X119530Y263035D01*
X119482Y263581D01*
X119401Y264054D01*
X119289Y264452D01*
X119141Y264789D01*
X118954Y265075D01*
X118730Y265310D01*
X118467Y265495D01*
X118317Y265570D01*
X118151Y265635D01*
X117770Y265734D01*
X117323Y265794D01*
X116810Y265814D01*
X116422Y265797D01*
X116055Y265746D01*
X115709Y265661D01*
X115384Y265541D01*
X115080Y265388D01*
X114798Y265200D01*
X114536Y264978D01*
X114295Y264722D01*
X114080Y264436D01*
X113893Y264123D01*
X113735Y263784D01*
X113605Y263419D01*
X113505Y263027D01*
X113433Y262608D01*
X113390Y262163D01*
X113375Y261692D01*
X113375Y254000D01*
G37*
G36*
X71500Y254000D02*
X69292Y254000D01*
X69292Y264182D01*
X69274Y265655D01*
X69218Y267274D01*
X71304Y267274D01*
X71378Y265468D01*
X71402Y264563D01*
X71451Y264563D01*
X71586Y264972D01*
X71725Y265348D01*
X71869Y265690D01*
X72019Y265998D01*
X72173Y266273D01*
X72332Y266513D01*
X72497Y266720D01*
X72666Y266894D01*
X72846Y267040D01*
X73045Y267167D01*
X73260Y267275D01*
X73494Y267363D01*
X73745Y267431D01*
X74014Y267480D01*
X74300Y267510D01*
X74604Y267519D01*
X74826Y267512D01*
X75049Y267489D01*
X75274Y267450D01*
X75500Y267397D01*
X75500Y265372D01*
X75260Y265426D01*
X74984Y265465D01*
X74672Y265488D01*
X74322Y265495D01*
X73989Y265477D01*
X73676Y265421D01*
X73383Y265329D01*
X73111Y265199D01*
X72858Y265033D01*
X72627Y264829D01*
X72415Y264589D01*
X72224Y264311D01*
X72054Y263999D01*
X71907Y263655D01*
X71783Y263279D01*
X71681Y262871D01*
X71602Y262431D01*
X71546Y261959D01*
X71512Y261455D01*
X71500Y260919D01*
X71500Y254000D01*
G37*
G36*
X107751Y254000D02*
X105543Y254000D01*
X105543Y267274D01*
X107751Y267274D01*
X107751Y254000D01*
G37*
G36*
X107751Y270096D02*
X105543Y270096D01*
X105543Y272206D01*
X107751Y272206D01*
X107751Y270096D01*
G37*
G36*
X457200Y510061D02*
X439914Y510061D01*
X439914Y515778D01*
X439923Y516319D01*
X439949Y516845D01*
X439992Y517354D01*
X440052Y517849D01*
X440129Y518327D01*
X440224Y518790D01*
X440336Y519237D01*
X440465Y519668D01*
X440611Y520084D01*
X440775Y520484D01*
X440955Y520869D01*
X441153Y521238D01*
X441368Y521591D01*
X441600Y521928D01*
X441850Y522250D01*
X442116Y522556D01*
X442399Y522845D01*
X442696Y523115D01*
X443008Y523367D01*
X443334Y523600D01*
X443674Y523814D01*
X444029Y524010D01*
X444399Y524187D01*
X444783Y524346D01*
X445182Y524485D01*
X445595Y524607D01*
X446023Y524709D01*
X446465Y524793D01*
X446922Y524858D01*
X447393Y524905D01*
X447879Y524933D01*
X448379Y524942D01*
X449037Y524926D01*
X449675Y524877D01*
X450291Y524796D01*
X450887Y524682D01*
X451461Y524535D01*
X452015Y524356D01*
X452548Y524144D01*
X453060Y523899D01*
X453546Y523625D01*
X454004Y523324D01*
X454432Y522995D01*
X454831Y522639D01*
X455200Y522256D01*
X455540Y521845D01*
X455851Y521408D01*
X456133Y520943D01*
X456383Y520455D01*
X456600Y519949D01*
X456783Y519425D01*
X456933Y518882D01*
X457050Y518321D01*
X457133Y517741D01*
X457183Y517143D01*
X457200Y516526D01*
X457200Y510061D01*
G37*
%LPC*%
G36*
X455323Y512404D02*
X455323Y516256D01*
X455310Y516725D01*
X455271Y517178D01*
X455206Y517618D01*
X455114Y518043D01*
X454997Y518454D01*
X454854Y518850D01*
X454684Y519232D01*
X454489Y519599D01*
X454269Y519949D01*
X454026Y520278D01*
X453760Y520587D01*
X453471Y520874D01*
X453158Y521140D01*
X452823Y521386D01*
X452465Y521610D01*
X452084Y521814D01*
X451683Y521995D01*
X451264Y522152D01*
X450827Y522285D01*
X450373Y522394D01*
X449901Y522478D01*
X449411Y522538D01*
X448904Y522575D01*
X448379Y522587D01*
X447983Y522580D01*
X447600Y522559D01*
X447228Y522525D01*
X446868Y522477D01*
X446520Y522415D01*
X446183Y522339D01*
X445859Y522250D01*
X445547Y522147D01*
X445247Y522030D01*
X444958Y521899D01*
X444682Y521755D01*
X444417Y521596D01*
X444164Y521425D01*
X443924Y521239D01*
X443695Y521039D01*
X443478Y520826D01*
X443274Y520600D01*
X443083Y520362D01*
X442905Y520111D01*
X442740Y519848D01*
X442589Y519572D01*
X442450Y519284D01*
X442325Y518984D01*
X442213Y518672D01*
X442114Y518347D01*
X442029Y518010D01*
X441956Y517661D01*
X441897Y517299D01*
X441851Y516925D01*
X441818Y516538D01*
X441798Y516140D01*
X441791Y515729D01*
X441791Y512404D01*
X455323Y512404D01*
G37*
%LPD*%
G36*
X452403Y561654D02*
X451988Y561670D01*
X451590Y561715D01*
X451209Y561791D01*
X450845Y561897D01*
X450498Y562033D01*
X450167Y562200D01*
X449854Y562396D01*
X449557Y562624D01*
X449283Y562874D01*
X449037Y563142D01*
X448820Y563426D01*
X448631Y563728D01*
X448470Y564046D01*
X448338Y564381D01*
X448234Y564733D01*
X448158Y565102D01*
X448109Y565102D01*
X448015Y564758D01*
X447895Y564433D01*
X447752Y564127D01*
X447585Y563840D01*
X447393Y563571D01*
X447178Y563320D01*
X446938Y563088D01*
X446674Y562875D01*
X446392Y562684D01*
X446098Y562518D01*
X445792Y562378D01*
X445475Y562263D01*
X445145Y562174D01*
X444804Y562110D01*
X444451Y562072D01*
X444085Y562059D01*
X443603Y562082D01*
X443145Y562152D01*
X442709Y562267D01*
X442297Y562429D01*
X441909Y562637D01*
X441544Y562891D01*
X441202Y563191D01*
X440884Y563538D01*
X440596Y563923D01*
X440347Y564340D01*
X440136Y564789D01*
X439963Y565269D01*
X439829Y565781D01*
X439733Y566324D01*
X439676Y566899D01*
X439657Y567506D01*
X439675Y568127D01*
X439732Y568715D01*
X439826Y569269D01*
X439957Y569790D01*
X440126Y570277D01*
X440333Y570730D01*
X440577Y571150D01*
X440859Y571536D01*
X441173Y571883D01*
X441513Y572183D01*
X441880Y572437D01*
X442273Y572645D01*
X442692Y572807D01*
X443139Y572922D01*
X443611Y572991D01*
X444110Y573015D01*
X444475Y573002D01*
X444828Y572963D01*
X445170Y572899D01*
X445499Y572809D01*
X445817Y572694D01*
X446123Y572552D01*
X446417Y572385D01*
X446699Y572193D01*
X446962Y571978D01*
X447199Y571744D01*
X447220Y571719D01*
X447411Y571492D01*
X447597Y571220D01*
X447758Y570930D01*
X447892Y570622D01*
X448001Y570294D01*
X448085Y569948D01*
X448134Y569948D01*
X448215Y570350D01*
X448323Y570730D01*
X448458Y571086D01*
X448620Y571420D01*
X448809Y571730D01*
X449025Y572018D01*
X449268Y572282D01*
X449486Y572477D01*
X449539Y572524D01*
X449831Y572740D01*
X450142Y572926D01*
X450470Y573085D01*
X450816Y573214D01*
X451180Y573315D01*
X451562Y573386D01*
X451961Y573430D01*
X452379Y573444D01*
X452674Y573438D01*
X452960Y573420D01*
X453509Y573349D01*
X454025Y573230D01*
X454507Y573064D01*
X454957Y572850D01*
X455374Y572588D01*
X455757Y572279D01*
X456108Y571923D01*
X456422Y571522D01*
X456693Y571079D01*
X456923Y570595D01*
X457111Y570070D01*
X457257Y569504D01*
X457362Y568896D01*
X457424Y568246D01*
X457445Y567555D01*
X457425Y566881D01*
X457363Y566245D01*
X457261Y565646D01*
X457117Y565085D01*
X456933Y564562D01*
X456707Y564076D01*
X456440Y563628D01*
X456133Y563219D01*
X455787Y562852D01*
X455407Y562534D01*
X454993Y562265D01*
X454544Y562045D01*
X454061Y561874D01*
X453543Y561752D01*
X453271Y561709D01*
X452990Y561679D01*
X452701Y561660D01*
X452403Y561654D01*
G37*
%LPC*%
G36*
X452219Y563936D02*
X452652Y563950D01*
X453056Y563993D01*
X453432Y564064D01*
X453781Y564164D01*
X454102Y564292D01*
X454395Y564449D01*
X454660Y564634D01*
X454897Y564847D01*
X455106Y565089D01*
X455287Y565360D01*
X455441Y565658D01*
X455566Y565986D01*
X455664Y566342D01*
X455733Y566726D01*
X455775Y567139D01*
X455789Y567580D01*
X455776Y568016D01*
X455735Y568424D01*
X455668Y568803D01*
X455573Y569153D01*
X455451Y569475D01*
X455303Y569767D01*
X455127Y570031D01*
X454924Y570267D01*
X454692Y570474D01*
X454428Y570653D01*
X454132Y570805D01*
X453803Y570929D01*
X453443Y571026D01*
X453051Y571095D01*
X452626Y571136D01*
X452170Y571150D01*
X451781Y571135D01*
X451416Y571090D01*
X451076Y571015D01*
X450761Y570911D01*
X450470Y570776D01*
X450205Y570612D01*
X449964Y570417D01*
X449747Y570193D01*
X449556Y569942D01*
X449390Y569666D01*
X449250Y569367D01*
X449135Y569043D01*
X449046Y568695D01*
X448982Y568323D01*
X448944Y567927D01*
X448931Y567506D01*
X448945Y567098D01*
X448986Y566712D01*
X449055Y566349D01*
X449151Y566010D01*
X449274Y565693D01*
X449425Y565399D01*
X449603Y565129D01*
X449809Y564881D01*
X450038Y564659D01*
X450288Y564468D01*
X450559Y564305D01*
X450850Y564172D01*
X451161Y564069D01*
X451493Y563995D01*
X451846Y563951D01*
X452219Y563936D01*
G37*
G36*
X444233Y564317D02*
X444593Y564330D01*
X444931Y564369D01*
X445247Y564435D01*
X445541Y564527D01*
X445813Y564645D01*
X446063Y564789D01*
X446290Y564960D01*
X446496Y565157D01*
X446679Y565378D01*
X446837Y565620D01*
X446971Y565885D01*
X447080Y566171D01*
X447166Y566478D01*
X447226Y566807D01*
X447263Y567158D01*
X447275Y567531D01*
X447264Y567909D01*
X447230Y568263D01*
X447174Y568595D01*
X447096Y568903D01*
X446995Y569188D01*
X446871Y569450D01*
X446726Y569689D01*
X446557Y569905D01*
X446364Y570096D01*
X446143Y570262D01*
X445894Y570402D01*
X445617Y570517D01*
X445313Y570606D01*
X444981Y570669D01*
X444621Y570708D01*
X444233Y570720D01*
X443878Y570708D01*
X443545Y570670D01*
X443236Y570607D01*
X442950Y570520D01*
X442686Y570407D01*
X442446Y570268D01*
X442228Y570105D01*
X442034Y569917D01*
X441862Y569703D01*
X441713Y569465D01*
X441587Y569201D01*
X441484Y568912D01*
X441404Y568599D01*
X441346Y568260D01*
X441312Y567895D01*
X441301Y567506D01*
X441312Y567128D01*
X441347Y566774D01*
X441404Y566442D01*
X441485Y566134D01*
X441588Y565849D01*
X441715Y565587D01*
X441864Y565348D01*
X442037Y565132D01*
X442232Y564941D01*
X442450Y564775D01*
X442691Y564635D01*
X442954Y564520D01*
X443240Y564431D01*
X443548Y564368D01*
X443879Y564329D01*
X444233Y564317D01*
G37*
%LPD*%
G36*
X452403Y575654D02*
X451988Y575670D01*
X451590Y575715D01*
X451209Y575791D01*
X450845Y575897D01*
X450498Y576033D01*
X450167Y576200D01*
X449854Y576396D01*
X449557Y576624D01*
X449283Y576874D01*
X449037Y577142D01*
X448820Y577426D01*
X448631Y577728D01*
X448470Y578046D01*
X448338Y578381D01*
X448234Y578733D01*
X448158Y579102D01*
X448109Y579102D01*
X448015Y578758D01*
X447895Y578433D01*
X447752Y578127D01*
X447585Y577840D01*
X447393Y577571D01*
X447178Y577320D01*
X446938Y577088D01*
X446674Y576875D01*
X446392Y576684D01*
X446098Y576518D01*
X445792Y576378D01*
X445475Y576263D01*
X445145Y576174D01*
X444804Y576110D01*
X444451Y576072D01*
X444085Y576059D01*
X443603Y576082D01*
X443145Y576152D01*
X442709Y576267D01*
X442297Y576429D01*
X441909Y576637D01*
X441544Y576891D01*
X441202Y577191D01*
X440884Y577538D01*
X440596Y577923D01*
X440347Y578340D01*
X440136Y578789D01*
X439963Y579269D01*
X439829Y579781D01*
X439733Y580324D01*
X439676Y580899D01*
X439657Y581506D01*
X439675Y582127D01*
X439732Y582715D01*
X439826Y583269D01*
X439957Y583790D01*
X440126Y584277D01*
X440333Y584730D01*
X440577Y585150D01*
X440859Y585536D01*
X441173Y585883D01*
X441513Y586183D01*
X441880Y586437D01*
X442273Y586645D01*
X442692Y586807D01*
X443139Y586922D01*
X443611Y586991D01*
X444110Y587015D01*
X444475Y587002D01*
X444828Y586963D01*
X445170Y586899D01*
X445499Y586809D01*
X445817Y586694D01*
X446123Y586552D01*
X446417Y586385D01*
X446699Y586193D01*
X446962Y585978D01*
X447199Y585744D01*
X447220Y585719D01*
X447411Y585492D01*
X447597Y585220D01*
X447758Y584930D01*
X447892Y584622D01*
X448001Y584294D01*
X448085Y583948D01*
X448134Y583948D01*
X448215Y584350D01*
X448323Y584730D01*
X448458Y585086D01*
X448620Y585420D01*
X448809Y585730D01*
X449025Y586018D01*
X449268Y586282D01*
X449486Y586477D01*
X449539Y586524D01*
X449831Y586740D01*
X450142Y586926D01*
X450470Y587085D01*
X450816Y587214D01*
X451180Y587315D01*
X451562Y587386D01*
X451961Y587430D01*
X452379Y587444D01*
X452674Y587438D01*
X452960Y587420D01*
X453509Y587349D01*
X454025Y587230D01*
X454507Y587064D01*
X454957Y586850D01*
X455374Y586588D01*
X455757Y586279D01*
X456108Y585923D01*
X456422Y585522D01*
X456693Y585079D01*
X456923Y584595D01*
X457111Y584070D01*
X457257Y583504D01*
X457362Y582896D01*
X457424Y582246D01*
X457445Y581555D01*
X457425Y580881D01*
X457363Y580245D01*
X457261Y579646D01*
X457117Y579085D01*
X456933Y578562D01*
X456707Y578076D01*
X456440Y577628D01*
X456133Y577219D01*
X455787Y576852D01*
X455407Y576534D01*
X454993Y576265D01*
X454544Y576045D01*
X454061Y575874D01*
X453543Y575752D01*
X453271Y575709D01*
X452990Y575679D01*
X452701Y575660D01*
X452403Y575654D01*
G37*
%LPC*%
G36*
X452219Y577936D02*
X452652Y577950D01*
X453056Y577993D01*
X453432Y578064D01*
X453781Y578164D01*
X454102Y578292D01*
X454395Y578449D01*
X454660Y578634D01*
X454897Y578847D01*
X455106Y579089D01*
X455287Y579360D01*
X455441Y579658D01*
X455566Y579986D01*
X455664Y580342D01*
X455733Y580726D01*
X455775Y581139D01*
X455789Y581580D01*
X455776Y582016D01*
X455735Y582424D01*
X455668Y582803D01*
X455573Y583153D01*
X455451Y583475D01*
X455303Y583767D01*
X455127Y584031D01*
X454924Y584267D01*
X454692Y584474D01*
X454428Y584653D01*
X454132Y584805D01*
X453803Y584929D01*
X453443Y585026D01*
X453051Y585095D01*
X452626Y585136D01*
X452170Y585150D01*
X451781Y585135D01*
X451416Y585090D01*
X451076Y585015D01*
X450761Y584911D01*
X450470Y584776D01*
X450205Y584612D01*
X449964Y584417D01*
X449747Y584193D01*
X449556Y583942D01*
X449390Y583666D01*
X449250Y583367D01*
X449135Y583043D01*
X449046Y582695D01*
X448982Y582323D01*
X448944Y581927D01*
X448931Y581506D01*
X448945Y581098D01*
X448986Y580712D01*
X449055Y580349D01*
X449151Y580010D01*
X449274Y579693D01*
X449425Y579399D01*
X449603Y579129D01*
X449809Y578881D01*
X450038Y578659D01*
X450288Y578468D01*
X450559Y578305D01*
X450850Y578172D01*
X451161Y578069D01*
X451493Y577995D01*
X451846Y577951D01*
X452219Y577936D01*
G37*
G36*
X444233Y578317D02*
X444593Y578330D01*
X444931Y578369D01*
X445247Y578435D01*
X445541Y578527D01*
X445813Y578645D01*
X446063Y578789D01*
X446290Y578960D01*
X446496Y579157D01*
X446679Y579378D01*
X446837Y579620D01*
X446971Y579885D01*
X447080Y580171D01*
X447166Y580478D01*
X447226Y580807D01*
X447263Y581158D01*
X447275Y581531D01*
X447264Y581909D01*
X447230Y582263D01*
X447174Y582595D01*
X447096Y582903D01*
X446995Y583188D01*
X446871Y583450D01*
X446726Y583689D01*
X446557Y583905D01*
X446364Y584096D01*
X446143Y584262D01*
X445894Y584402D01*
X445617Y584517D01*
X445313Y584606D01*
X444981Y584669D01*
X444621Y584708D01*
X444233Y584720D01*
X443878Y584708D01*
X443545Y584670D01*
X443236Y584607D01*
X442950Y584520D01*
X442686Y584407D01*
X442446Y584268D01*
X442228Y584105D01*
X442034Y583917D01*
X441862Y583703D01*
X441713Y583465D01*
X441587Y583201D01*
X441484Y582912D01*
X441404Y582599D01*
X441346Y582260D01*
X441312Y581895D01*
X441301Y581506D01*
X441312Y581128D01*
X441347Y580774D01*
X441404Y580442D01*
X441485Y580134D01*
X441588Y579849D01*
X441715Y579587D01*
X441864Y579348D01*
X442037Y579132D01*
X442232Y578941D01*
X442450Y578775D01*
X442691Y578635D01*
X442954Y578520D01*
X443240Y578431D01*
X443548Y578368D01*
X443879Y578329D01*
X444233Y578317D01*
G37*
%LPD*%
G36*
X457200Y528186D02*
X439914Y528186D01*
X439914Y536320D01*
X439935Y537029D01*
X439996Y537696D01*
X440098Y538322D01*
X440241Y538907D01*
X440425Y539450D01*
X440649Y539951D01*
X440915Y540410D01*
X441221Y540828D01*
X441564Y541201D01*
X441938Y541523D01*
X442345Y541796D01*
X442784Y542020D01*
X443254Y542194D01*
X443757Y542318D01*
X444020Y542361D01*
X444292Y542392D01*
X444571Y542411D01*
X444858Y542417D01*
X445330Y542399D01*
X445783Y542347D01*
X446217Y542259D01*
X446631Y542136D01*
X447026Y541979D01*
X447402Y541786D01*
X447759Y541558D01*
X448097Y541294D01*
X448410Y541001D01*
X448693Y540680D01*
X448945Y540333D01*
X449038Y540177D01*
X449168Y539959D01*
X449359Y539558D01*
X449521Y539131D01*
X449652Y538677D01*
X449753Y538197D01*
X452923Y540286D01*
X457200Y543104D01*
X457200Y540405D01*
X450023Y535915D01*
X450023Y530529D01*
X457200Y530529D01*
X457200Y528186D01*
G37*
%LPC*%
G36*
X448171Y530529D02*
X448171Y536185D01*
X448157Y536635D01*
X448117Y537059D01*
X448049Y537456D01*
X447955Y537827D01*
X447833Y538172D01*
X447684Y538491D01*
X447509Y538783D01*
X447306Y539049D01*
X447079Y539287D01*
X446830Y539492D01*
X446560Y539666D01*
X446268Y539808D01*
X445954Y539919D01*
X445619Y539998D01*
X445262Y540046D01*
X444883Y540062D01*
X444517Y540046D01*
X444173Y539997D01*
X443852Y539917D01*
X443553Y539805D01*
X443277Y539661D01*
X443023Y539485D01*
X442792Y539277D01*
X442583Y539037D01*
X442397Y538767D01*
X442236Y538469D01*
X442100Y538142D01*
X441989Y537787D01*
X441903Y537404D01*
X441841Y536993D01*
X441804Y536554D01*
X441791Y536087D01*
X441791Y530529D01*
X448171Y530529D01*
G37*
%LPD*%
G36*
X453336Y603506D02*
X453078Y605739D01*
X453388Y605835D01*
X453679Y605948D01*
X453949Y606078D01*
X454200Y606226D01*
X454430Y606390D01*
X454640Y606572D01*
X454831Y606771D01*
X455001Y606987D01*
X455151Y607220D01*
X455281Y607471D01*
X455392Y607738D01*
X455482Y608023D01*
X455552Y608325D01*
X455602Y608644D01*
X455632Y608980D01*
X455642Y609333D01*
X455625Y609766D01*
X455575Y610174D01*
X455491Y610559D01*
X455374Y610919D01*
X455223Y611255D01*
X455038Y611567D01*
X454820Y611855D01*
X454569Y612118D01*
X454288Y612354D01*
X453982Y612558D01*
X453650Y612731D01*
X453294Y612873D01*
X452913Y612983D01*
X452506Y613061D01*
X452075Y613108D01*
X451618Y613124D01*
X451220Y613108D01*
X450841Y613061D01*
X450482Y612982D01*
X450143Y612871D01*
X449823Y612729D01*
X449523Y612555D01*
X449242Y612349D01*
X448980Y612112D01*
X448745Y611848D01*
X448540Y611562D01*
X448367Y611254D01*
X448226Y610924D01*
X448116Y610571D01*
X448037Y610197D01*
X447990Y609801D01*
X447974Y609382D01*
X447992Y608942D01*
X448045Y608517D01*
X448133Y608108D01*
X448257Y607714D01*
X448422Y607327D01*
X448637Y606941D01*
X448901Y606555D01*
X449214Y606168D01*
X449214Y604009D01*
X439914Y604586D01*
X439914Y614412D01*
X441791Y614412D01*
X441791Y606598D01*
X447275Y606266D01*
X447016Y606636D01*
X446792Y607028D01*
X446602Y607441D01*
X446447Y607876D01*
X446326Y608334D01*
X446240Y608813D01*
X446188Y609314D01*
X446171Y609836D01*
X446194Y610458D01*
X446265Y611047D01*
X446382Y611604D01*
X446545Y612129D01*
X446756Y612621D01*
X447013Y613081D01*
X447317Y613508D01*
X447668Y613903D01*
X448056Y614258D01*
X448473Y614566D01*
X448918Y614826D01*
X449391Y615039D01*
X449893Y615205D01*
X450423Y615324D01*
X450982Y615395D01*
X451569Y615418D01*
X451906Y615412D01*
X452235Y615393D01*
X452554Y615361D01*
X452864Y615317D01*
X453165Y615260D01*
X453457Y615190D01*
X453740Y615107D01*
X454013Y615012D01*
X454533Y614783D01*
X455017Y614504D01*
X455464Y614174D01*
X455875Y613793D01*
X456243Y613367D01*
X456562Y612901D01*
X456832Y612397D01*
X457053Y611853D01*
X457225Y611270D01*
X457292Y610963D01*
X457347Y610647D01*
X457390Y610321D01*
X457421Y609985D01*
X457439Y609640D01*
X457445Y609284D01*
X457429Y608695D01*
X457379Y608134D01*
X457297Y607603D01*
X457182Y607101D01*
X457033Y606627D01*
X456852Y606183D01*
X456638Y605769D01*
X456390Y605383D01*
X456112Y605029D01*
X455804Y604709D01*
X455466Y604423D01*
X455099Y604172D01*
X454703Y603954D01*
X454276Y603771D01*
X453821Y603621D01*
X453336Y603506D01*
G37*
G36*
X439914Y543923D02*
X439914Y546389D01*
X452084Y551173D01*
X455139Y552204D01*
X452084Y553234D01*
X439914Y557994D01*
X439914Y560460D01*
X457200Y553406D01*
X457200Y550977D01*
X439914Y543923D01*
G37*
G36*
X457200Y589795D02*
X455642Y589795D01*
X454945Y590125D01*
X454291Y590490D01*
X453679Y590889D01*
X453109Y591322D01*
X452573Y591779D01*
X452063Y592247D01*
X451579Y592727D01*
X451121Y593218D01*
X450264Y594207D01*
X449471Y595187D01*
X448711Y596114D01*
X447950Y596947D01*
X447565Y597321D01*
X447171Y597657D01*
X446768Y597956D01*
X446355Y598217D01*
X446143Y598330D01*
X445924Y598429D01*
X445698Y598512D01*
X445466Y598580D01*
X445226Y598633D01*
X444980Y598671D01*
X444726Y598694D01*
X444466Y598701D01*
X444120Y598688D01*
X443794Y598649D01*
X443488Y598584D01*
X443202Y598493D01*
X442936Y598376D01*
X442690Y598232D01*
X442464Y598063D01*
X442258Y597867D01*
X442074Y597649D01*
X441914Y597409D01*
X441779Y597150D01*
X441669Y596870D01*
X441583Y596570D01*
X441521Y596250D01*
X441485Y595910D01*
X441472Y595549D01*
X441484Y595204D01*
X441520Y594874D01*
X441580Y594560D01*
X441664Y594262D01*
X441772Y593979D01*
X441904Y593712D01*
X442059Y593460D01*
X442239Y593224D01*
X442440Y593007D01*
X442661Y592814D01*
X442901Y592644D01*
X443161Y592498D01*
X443440Y592376D01*
X443738Y592277D01*
X444055Y592202D01*
X444392Y592150D01*
X444184Y589893D01*
X443679Y589974D01*
X443200Y590095D01*
X442748Y590256D01*
X442322Y590456D01*
X441923Y590696D01*
X441550Y590975D01*
X441203Y591295D01*
X440884Y591653D01*
X440596Y592046D01*
X440347Y592465D01*
X440136Y592911D01*
X439963Y593385D01*
X439829Y593885D01*
X439733Y594413D01*
X439676Y594967D01*
X439657Y595549D01*
X439676Y596183D01*
X439734Y596780D01*
X439830Y597338D01*
X439965Y597860D01*
X440138Y598343D01*
X440350Y598789D01*
X440601Y599196D01*
X440890Y599566D01*
X441214Y599896D01*
X441571Y600181D01*
X441960Y600422D01*
X442382Y600620D01*
X442836Y600774D01*
X443322Y600883D01*
X443841Y600949D01*
X444392Y600971D01*
X444643Y600964D01*
X444894Y600942D01*
X445145Y600906D01*
X445395Y600856D01*
X445894Y600712D01*
X446392Y600511D01*
X446889Y600253D01*
X447386Y599939D01*
X447882Y599569D01*
X448379Y599143D01*
X448944Y598586D01*
X449646Y597821D01*
X450484Y596850D01*
X451459Y595671D01*
X452021Y595002D01*
X452555Y594405D01*
X453061Y593879D01*
X453538Y593426D01*
X453997Y593038D01*
X454447Y592709D01*
X454889Y592437D01*
X455323Y592224D01*
X455323Y601241D01*
X457200Y601241D01*
X457200Y589795D01*
G37*
G36*
X457257Y685660D02*
X456855Y685676D01*
X456478Y685723D01*
X456126Y685802D01*
X455800Y685913D01*
X455500Y686055D01*
X455224Y686229D01*
X454974Y686435D01*
X454750Y686672D01*
X454551Y686939D01*
X454379Y687234D01*
X454233Y687558D01*
X454114Y687909D01*
X454021Y688289D01*
X453955Y688696D01*
X453916Y689132D01*
X453902Y689596D01*
X453916Y690071D01*
X453955Y690515D01*
X454022Y690929D01*
X454115Y691312D01*
X454234Y691664D01*
X454380Y691986D01*
X454553Y692277D01*
X454752Y692538D01*
X454977Y692767D01*
X455229Y692967D01*
X455508Y693135D01*
X455813Y693273D01*
X456145Y693380D01*
X456503Y693457D01*
X456888Y693503D01*
X457299Y693518D01*
X457719Y693503D01*
X458110Y693458D01*
X458473Y693384D01*
X458807Y693279D01*
X459112Y693145D01*
X459388Y692980D01*
X459636Y692786D01*
X459856Y692562D01*
X460048Y692307D01*
X460214Y692018D01*
X460355Y691697D01*
X460470Y691343D01*
X460560Y690955D01*
X460624Y690535D01*
X460662Y690082D01*
X460675Y689596D01*
X460661Y689115D01*
X460620Y688665D01*
X460552Y688247D01*
X460456Y687861D01*
X460333Y687506D01*
X460183Y687184D01*
X460005Y686893D01*
X459800Y686633D01*
X459568Y686405D01*
X459312Y686208D01*
X459032Y686040D01*
X458726Y685903D01*
X458396Y685797D01*
X458041Y685721D01*
X457661Y685675D01*
X457257Y685660D01*
G37*
%LPC*%
G36*
X457243Y686591D02*
X457517Y686603D01*
X457770Y686637D01*
X458003Y686694D01*
X458216Y686774D01*
X458408Y686876D01*
X458581Y687001D01*
X458733Y687149D01*
X458865Y687320D01*
X458979Y687515D01*
X459077Y687735D01*
X459161Y687981D01*
X459230Y688253D01*
X459283Y688550D01*
X459321Y688873D01*
X459344Y689222D01*
X459351Y689596D01*
X459344Y689975D01*
X459322Y690327D01*
X459286Y690652D01*
X459235Y690950D01*
X459169Y691222D01*
X459089Y691467D01*
X458995Y691685D01*
X458886Y691876D01*
X458759Y692042D01*
X458613Y692187D01*
X458447Y692309D01*
X458261Y692409D01*
X458056Y692487D01*
X457830Y692542D01*
X457585Y692576D01*
X457320Y692587D01*
X457053Y692575D01*
X456805Y692541D01*
X456576Y692485D01*
X456367Y692405D01*
X456176Y692304D01*
X456005Y692179D01*
X455853Y692032D01*
X455720Y691862D01*
X455604Y691668D01*
X455504Y691448D01*
X455419Y691203D01*
X455349Y690933D01*
X455295Y690637D01*
X455257Y690315D01*
X455234Y689969D01*
X455226Y689596D01*
X455234Y689233D01*
X455256Y688893D01*
X455294Y688577D01*
X455348Y688284D01*
X455416Y688014D01*
X455500Y687767D01*
X455599Y687544D01*
X455713Y687344D01*
X455843Y687168D01*
X455991Y687015D01*
X456156Y686886D01*
X456339Y686780D01*
X456539Y686697D01*
X456756Y686638D01*
X456991Y686603D01*
X457243Y686591D01*
G37*
%LPD*%
G36*
X443611Y685800D02*
X442357Y685800D01*
X442357Y691760D01*
X442347Y692827D01*
X442333Y693167D01*
X442315Y693378D01*
X443506Y693378D01*
X443520Y693189D01*
X443537Y692835D01*
X443562Y692082D01*
X443583Y692082D01*
X443793Y692454D01*
X444019Y692765D01*
X444259Y693015D01*
X444514Y693203D01*
X444791Y693341D01*
X445097Y693439D01*
X445432Y693498D01*
X445796Y693518D01*
X446204Y693497D01*
X446567Y693432D01*
X446885Y693325D01*
X447158Y693175D01*
X447389Y692978D01*
X447583Y692730D01*
X447738Y692432D01*
X447855Y692082D01*
X447876Y692082D01*
X448082Y692437D01*
X448309Y692739D01*
X448557Y692987D01*
X448825Y693182D01*
X449118Y693329D01*
X449440Y693434D01*
X449792Y693497D01*
X450173Y693518D01*
X450451Y693508D01*
X450708Y693479D01*
X450947Y693431D01*
X451165Y693362D01*
X451364Y693275D01*
X451544Y693168D01*
X451703Y693041D01*
X451844Y692895D01*
X451966Y692727D01*
X452072Y692533D01*
X452162Y692315D01*
X452235Y692072D01*
X452292Y691804D01*
X452333Y691511D01*
X452357Y691193D01*
X452365Y690850D01*
X452365Y685800D01*
X451119Y685800D01*
X451119Y690605D01*
X451100Y691112D01*
X451043Y691534D01*
X451001Y691714D01*
X450949Y691872D01*
X450888Y692009D01*
X450818Y692124D01*
X450735Y692223D01*
X450637Y692308D01*
X450524Y692380D01*
X450396Y692440D01*
X450252Y692486D01*
X450094Y692518D01*
X449921Y692538D01*
X449732Y692545D01*
X449531Y692535D01*
X449342Y692506D01*
X449164Y692458D01*
X448998Y692391D01*
X448843Y692305D01*
X448699Y692200D01*
X448567Y692075D01*
X448447Y691932D01*
X448339Y691771D01*
X448246Y691593D01*
X448167Y691400D01*
X448103Y691190D01*
X448053Y690965D01*
X448017Y690723D01*
X447995Y690465D01*
X447988Y690191D01*
X447988Y685800D01*
X446741Y685800D01*
X446741Y690605D01*
X446723Y691112D01*
X446666Y691534D01*
X446624Y691714D01*
X446572Y691872D01*
X446511Y692009D01*
X446440Y692124D01*
X446357Y692223D01*
X446259Y692308D01*
X446146Y692380D01*
X446018Y692440D01*
X445875Y692486D01*
X445717Y692518D01*
X445543Y692538D01*
X445355Y692545D01*
X445159Y692535D01*
X444973Y692506D01*
X444798Y692458D01*
X444633Y692391D01*
X444479Y692304D01*
X444336Y692198D01*
X444203Y692073D01*
X444080Y691928D01*
X443970Y691766D01*
X443875Y691589D01*
X443794Y691395D01*
X443728Y691186D01*
X443677Y690961D01*
X443640Y690720D01*
X443618Y690464D01*
X443611Y690191D01*
X443611Y685800D01*
G37*
G36*
X437277Y685800D02*
X435890Y685800D01*
X431863Y695668D01*
X433271Y695668D01*
X436002Y688721D01*
X436591Y686977D01*
X437179Y688721D01*
X439896Y695668D01*
X441304Y695668D01*
X437277Y685800D01*
G37*
G36*
X463874Y685688D02*
X463691Y685695D01*
X463520Y685715D01*
X463360Y685748D01*
X463212Y685795D01*
X463076Y685856D01*
X462952Y685929D01*
X462840Y686016D01*
X462740Y686117D01*
X462651Y686231D01*
X462574Y686358D01*
X462509Y686499D01*
X462456Y686653D01*
X462415Y686821D01*
X462385Y687002D01*
X462367Y687196D01*
X462361Y687404D01*
X462361Y692461D01*
X461486Y692461D01*
X461486Y693378D01*
X462410Y693378D01*
X462782Y695073D01*
X463622Y695073D01*
X463622Y693378D01*
X465023Y693378D01*
X465023Y692461D01*
X463622Y692461D01*
X463622Y687677D01*
X463633Y687424D01*
X463667Y687212D01*
X463722Y687041D01*
X463801Y686910D01*
X463906Y686814D01*
X464045Y686745D01*
X464216Y686703D01*
X464420Y686689D01*
X464729Y686714D01*
X465149Y686788D01*
X465149Y685856D01*
X464835Y685783D01*
X464519Y685730D01*
X464198Y685698D01*
X463874Y685688D01*
G37*
G36*
X315294Y254574D02*
X315147Y255849D01*
X315490Y255968D01*
X315787Y256127D01*
X316039Y256325D01*
X316245Y256562D01*
X316405Y256838D01*
X316519Y257153D01*
X316588Y257507D01*
X316611Y257901D01*
X316601Y258148D01*
X316572Y258381D01*
X316524Y258601D01*
X316457Y258806D01*
X316371Y258998D01*
X316266Y259176D01*
X316141Y259340D01*
X315998Y259491D01*
X315837Y259626D01*
X315663Y259742D01*
X315474Y259841D01*
X315270Y259922D01*
X315052Y259985D01*
X314820Y260029D01*
X314574Y260056D01*
X314313Y260065D01*
X314086Y260056D01*
X313870Y260029D01*
X313665Y259984D01*
X313471Y259921D01*
X313288Y259840D01*
X313117Y259740D01*
X312957Y259623D01*
X312807Y259487D01*
X312673Y259337D01*
X312556Y259173D01*
X312458Y258997D01*
X312377Y258809D01*
X312314Y258608D01*
X312269Y258394D01*
X312242Y258168D01*
X312233Y257929D01*
X312243Y257678D01*
X312273Y257435D01*
X312324Y257202D01*
X312394Y256977D01*
X312489Y256756D01*
X312611Y256535D01*
X312762Y256315D01*
X312941Y256094D01*
X312941Y254861D01*
X307632Y255191D01*
X307632Y260801D01*
X308703Y260801D01*
X308703Y256339D01*
X311834Y256150D01*
X311686Y256361D01*
X311558Y256585D01*
X311450Y256821D01*
X311361Y257069D01*
X311292Y257330D01*
X311243Y257604D01*
X311213Y257890D01*
X311204Y258188D01*
X311217Y258543D01*
X311257Y258880D01*
X311324Y259198D01*
X311417Y259497D01*
X311537Y259778D01*
X311684Y260041D01*
X311858Y260285D01*
X312058Y260510D01*
X312280Y260713D01*
X312518Y260888D01*
X312772Y261037D01*
X313042Y261159D01*
X313329Y261253D01*
X313631Y261321D01*
X313950Y261361D01*
X314285Y261375D01*
X314665Y261360D01*
X315025Y261317D01*
X315363Y261244D01*
X315681Y261143D01*
X315978Y261012D01*
X316254Y260853D01*
X316509Y260664D01*
X316744Y260447D01*
X316954Y260204D01*
X317136Y259938D01*
X317290Y259650D01*
X317416Y259340D01*
X317514Y259007D01*
X317584Y258651D01*
X317626Y258273D01*
X317640Y257873D01*
X317631Y257536D01*
X317602Y257216D01*
X317555Y256913D01*
X317490Y256626D01*
X317405Y256356D01*
X317301Y256103D01*
X317179Y255866D01*
X317038Y255646D01*
X316879Y255444D01*
X316703Y255261D01*
X316510Y255098D01*
X316301Y254954D01*
X316074Y254830D01*
X315831Y254725D01*
X315571Y254640D01*
X315294Y254574D01*
G37*
G36*
X309922Y262018D02*
X309922Y263363D01*
X314853Y265029D01*
X316512Y265513D01*
X315693Y265758D01*
X314867Y266031D01*
X309922Y267754D01*
X309922Y269092D01*
X317500Y266262D01*
X317500Y264770D01*
X309922Y262018D01*
G37*
G36*
X419795Y393700D02*
X412957Y393700D01*
X412957Y401379D01*
X419795Y401379D01*
X419795Y393700D01*
G37*
G36*
X342900Y705057D02*
X335221Y705057D01*
X335221Y711895D01*
X342900Y711895D01*
X342900Y705057D01*
G37*
G36*
X518494Y343474D02*
X518347Y344749D01*
X518690Y344868D01*
X518987Y345027D01*
X519239Y345225D01*
X519445Y345462D01*
X519605Y345738D01*
X519719Y346053D01*
X519788Y346407D01*
X519811Y346801D01*
X519801Y347048D01*
X519772Y347281D01*
X519724Y347501D01*
X519657Y347706D01*
X519571Y347898D01*
X519466Y348076D01*
X519341Y348240D01*
X519198Y348391D01*
X519037Y348526D01*
X518863Y348642D01*
X518674Y348741D01*
X518470Y348822D01*
X518252Y348885D01*
X518020Y348929D01*
X517774Y348956D01*
X517513Y348965D01*
X517286Y348956D01*
X517070Y348929D01*
X516865Y348884D01*
X516671Y348821D01*
X516488Y348740D01*
X516317Y348640D01*
X516157Y348523D01*
X516007Y348387D01*
X515873Y348237D01*
X515756Y348073D01*
X515658Y347897D01*
X515577Y347709D01*
X515514Y347508D01*
X515469Y347294D01*
X515442Y347068D01*
X515433Y346829D01*
X515443Y346578D01*
X515473Y346335D01*
X515524Y346102D01*
X515594Y345877D01*
X515689Y345656D01*
X515811Y345435D01*
X515962Y345215D01*
X516141Y344994D01*
X516141Y343761D01*
X510832Y344091D01*
X510832Y349701D01*
X511903Y349701D01*
X511903Y345239D01*
X515034Y345050D01*
X514886Y345261D01*
X514758Y345485D01*
X514650Y345721D01*
X514561Y345969D01*
X514492Y346230D01*
X514443Y346504D01*
X514413Y346790D01*
X514404Y347088D01*
X514417Y347443D01*
X514457Y347780D01*
X514524Y348098D01*
X514617Y348397D01*
X514737Y348678D01*
X514884Y348941D01*
X515058Y349185D01*
X515258Y349410D01*
X515480Y349613D01*
X515718Y349788D01*
X515972Y349937D01*
X516242Y350059D01*
X516529Y350153D01*
X516831Y350221D01*
X517150Y350261D01*
X517485Y350275D01*
X517865Y350260D01*
X518225Y350217D01*
X518563Y350144D01*
X518881Y350043D01*
X519178Y349912D01*
X519454Y349753D01*
X519709Y349564D01*
X519944Y349347D01*
X520154Y349104D01*
X520336Y348838D01*
X520490Y348550D01*
X520616Y348240D01*
X520714Y347907D01*
X520784Y347551D01*
X520826Y347173D01*
X520840Y346773D01*
X520831Y346436D01*
X520802Y346116D01*
X520755Y345813D01*
X520690Y345526D01*
X520605Y345256D01*
X520501Y345003D01*
X520379Y344766D01*
X520238Y344546D01*
X520079Y344344D01*
X519903Y344161D01*
X519710Y343998D01*
X519501Y343854D01*
X519274Y343730D01*
X519031Y343625D01*
X518771Y343540D01*
X518494Y343474D01*
G37*
G36*
X513122Y350918D02*
X513122Y352263D01*
X518053Y353929D01*
X519712Y354413D01*
X518893Y354658D01*
X518067Y354931D01*
X513122Y356654D01*
X513122Y357992D01*
X520700Y355162D01*
X520700Y353670D01*
X513122Y350918D01*
G37*
G36*
X609600Y546128D02*
X599732Y550155D01*
X599732Y551675D01*
X609600Y555639D01*
X609600Y554273D01*
X606714Y553146D01*
X606714Y548649D01*
X609600Y547515D01*
X609600Y546128D01*
G37*
%LPC*%
G36*
X605671Y549056D02*
X605671Y552747D01*
X602414Y551479D01*
X601899Y551283D01*
X601322Y551087D01*
X600740Y550898D01*
X600936Y550835D01*
X601600Y550617D01*
X602428Y550316D01*
X605671Y549056D01*
G37*
%LPD*%
G36*
X609600Y556755D02*
X608528Y556755D01*
X608528Y559269D01*
X600936Y559269D01*
X602526Y557042D01*
X601336Y557042D01*
X599732Y559375D01*
X599732Y560537D01*
X608528Y560537D01*
X608528Y562939D01*
X609600Y562939D01*
X609600Y556755D01*
G37*
G36*
X609600Y596928D02*
X599732Y600955D01*
X599732Y602475D01*
X609600Y606439D01*
X609600Y605073D01*
X606714Y603946D01*
X606714Y599449D01*
X609600Y598315D01*
X609600Y596928D01*
G37*
%LPC*%
G36*
X605671Y599856D02*
X605671Y603547D01*
X602414Y602279D01*
X601899Y602083D01*
X601322Y601887D01*
X600740Y601698D01*
X600936Y601635D01*
X601600Y601417D01*
X602428Y601116D01*
X605671Y599856D01*
G37*
%LPD*%
G36*
X609600Y607184D02*
X608711Y607184D01*
X608313Y607372D01*
X607939Y607580D01*
X607590Y607808D01*
X607264Y608056D01*
X606667Y608584D01*
X606130Y609138D01*
X605640Y609703D01*
X605188Y610262D01*
X604753Y610792D01*
X604319Y611267D01*
X604099Y611480D01*
X603874Y611672D01*
X603644Y611843D01*
X603409Y611992D01*
X603163Y612113D01*
X602901Y612199D01*
X602623Y612251D01*
X602330Y612269D01*
X602133Y612261D01*
X601947Y612239D01*
X601772Y612202D01*
X601609Y612150D01*
X601457Y612083D01*
X601316Y612001D01*
X601187Y611904D01*
X601069Y611792D01*
X600964Y611668D01*
X600873Y611531D01*
X600796Y611383D01*
X600733Y611223D01*
X600684Y611052D01*
X600649Y610869D01*
X600628Y610675D01*
X600621Y610469D01*
X600628Y610272D01*
X600649Y610084D01*
X600683Y609904D01*
X600731Y609734D01*
X600792Y609573D01*
X600867Y609420D01*
X601059Y609141D01*
X601174Y609018D01*
X601300Y608907D01*
X601437Y608811D01*
X601585Y608727D01*
X601744Y608657D01*
X601914Y608601D01*
X602096Y608558D01*
X602288Y608529D01*
X602169Y607240D01*
X601881Y607286D01*
X601607Y607355D01*
X601349Y607447D01*
X601106Y607561D01*
X600878Y607698D01*
X600665Y607858D01*
X600468Y608040D01*
X600285Y608245D01*
X600121Y608469D01*
X599979Y608708D01*
X599858Y608963D01*
X599760Y609233D01*
X599683Y609519D01*
X599628Y609820D01*
X599596Y610137D01*
X599585Y610469D01*
X599596Y610831D01*
X599629Y611171D01*
X599684Y611491D01*
X599761Y611788D01*
X599860Y612064D01*
X599981Y612318D01*
X600124Y612551D01*
X600289Y612762D01*
X600474Y612950D01*
X600677Y613113D01*
X600900Y613251D01*
X601140Y613364D01*
X601400Y613452D01*
X601677Y613514D01*
X601973Y613552D01*
X602288Y613564D01*
X602575Y613548D01*
X602861Y613499D01*
X603146Y613417D01*
X603430Y613302D01*
X603713Y613154D01*
X603997Y612975D01*
X604281Y612764D01*
X604564Y612521D01*
X604887Y612203D01*
X605287Y611766D01*
X605766Y611212D01*
X606322Y610539D01*
X606948Y609816D01*
X607237Y609516D01*
X607509Y609257D01*
X607771Y609036D01*
X608029Y608847D01*
X608281Y608692D01*
X608528Y608571D01*
X608528Y613718D01*
X609600Y613718D01*
X609600Y607184D01*
G37*
G36*
X609600Y572677D02*
X599732Y572677D01*
X599732Y576263D01*
X599741Y576683D01*
X599769Y577077D01*
X599816Y577443D01*
X599881Y577782D01*
X599966Y578095D01*
X600069Y578379D01*
X600190Y578637D01*
X600331Y578868D01*
X600490Y579072D01*
X600667Y579248D01*
X600864Y579397D01*
X601079Y579519D01*
X601313Y579614D01*
X601566Y579682D01*
X601837Y579723D01*
X602127Y579736D01*
X602341Y579729D01*
X602547Y579706D01*
X602744Y579668D01*
X602932Y579614D01*
X603112Y579545D01*
X603283Y579461D01*
X603445Y579361D01*
X603598Y579246D01*
X603740Y579117D01*
X603814Y579038D01*
X603871Y578976D01*
X603989Y578821D01*
X604095Y578654D01*
X604189Y578475D01*
X604270Y578282D01*
X604339Y578077D01*
X604396Y577859D01*
X604439Y578145D01*
X604498Y578414D01*
X604573Y578666D01*
X604663Y578901D01*
X604770Y579120D01*
X604892Y579321D01*
X605030Y579506D01*
X605101Y579583D01*
X605184Y579673D01*
X605351Y579823D01*
X605529Y579952D01*
X605718Y580062D01*
X605917Y580151D01*
X606127Y580221D01*
X606347Y580271D01*
X606578Y580301D01*
X606820Y580311D01*
X607140Y580296D01*
X607441Y580251D01*
X607725Y580176D01*
X607990Y580071D01*
X608237Y579936D01*
X608466Y579771D01*
X608676Y579576D01*
X608868Y579351D01*
X609040Y579100D01*
X609188Y578825D01*
X609314Y578526D01*
X609417Y578204D01*
X609497Y577859D01*
X609554Y577490D01*
X609589Y577098D01*
X609600Y576683D01*
X609600Y572677D01*
G37*
%LPC*%
G36*
X608528Y574014D02*
X608528Y576613D01*
X608521Y576909D01*
X608500Y577184D01*
X608464Y577438D01*
X608415Y577672D01*
X608351Y577885D01*
X608272Y578077D01*
X608180Y578248D01*
X608073Y578399D01*
X607952Y578530D01*
X607818Y578644D01*
X607669Y578740D01*
X607506Y578819D01*
X607329Y578880D01*
X607138Y578924D01*
X606933Y578950D01*
X606714Y578959D01*
X606503Y578949D01*
X606306Y578921D01*
X606122Y578873D01*
X605951Y578806D01*
X605795Y578720D01*
X605652Y578614D01*
X605522Y578490D01*
X605407Y578346D01*
X605304Y578183D01*
X605216Y578001D01*
X605141Y577800D01*
X605080Y577580D01*
X605032Y577341D01*
X604998Y577082D01*
X604977Y576805D01*
X604971Y576508D01*
X604971Y574014D01*
X608528Y574014D01*
G37*
G36*
X603927Y574014D02*
X603927Y576263D01*
X603921Y576522D01*
X603902Y576764D01*
X603870Y576990D01*
X603826Y577198D01*
X603770Y577390D01*
X603700Y577565D01*
X603619Y577722D01*
X603524Y577863D01*
X603417Y577987D01*
X603296Y578094D01*
X603162Y578185D01*
X603014Y578260D01*
X602853Y578317D01*
X602678Y578359D01*
X602490Y578383D01*
X602288Y578392D01*
X602096Y578383D01*
X601917Y578358D01*
X601753Y578315D01*
X601603Y578255D01*
X601468Y578178D01*
X601347Y578084D01*
X601239Y577973D01*
X601146Y577845D01*
X601066Y577701D01*
X600996Y577542D01*
X600937Y577367D01*
X600889Y577177D01*
X600825Y576750D01*
X600803Y576263D01*
X600803Y574014D01*
X603927Y574014D01*
G37*
%LPD*%
G36*
X609600Y582155D02*
X608528Y582155D01*
X608528Y584669D01*
X600936Y584669D01*
X602526Y582442D01*
X601336Y582442D01*
X599732Y584775D01*
X599732Y585937D01*
X608528Y585937D01*
X608528Y588339D01*
X609600Y588339D01*
X609600Y582155D01*
G37*
G36*
X609600Y623477D02*
X599732Y623477D01*
X599732Y627063D01*
X599741Y627483D01*
X599769Y627877D01*
X599816Y628243D01*
X599881Y628582D01*
X599966Y628895D01*
X600069Y629179D01*
X600190Y629437D01*
X600331Y629668D01*
X600490Y629872D01*
X600667Y630048D01*
X600864Y630197D01*
X601079Y630319D01*
X601313Y630414D01*
X601566Y630482D01*
X601837Y630523D01*
X602127Y630536D01*
X602341Y630529D01*
X602547Y630506D01*
X602744Y630468D01*
X602932Y630414D01*
X603112Y630345D01*
X603283Y630261D01*
X603445Y630161D01*
X603598Y630046D01*
X603740Y629917D01*
X603814Y629838D01*
X603871Y629776D01*
X603989Y629621D01*
X604095Y629454D01*
X604189Y629275D01*
X604270Y629082D01*
X604339Y628877D01*
X604396Y628659D01*
X604439Y628945D01*
X604498Y629214D01*
X604573Y629466D01*
X604663Y629701D01*
X604770Y629920D01*
X604892Y630121D01*
X605030Y630306D01*
X605101Y630383D01*
X605184Y630473D01*
X605351Y630623D01*
X605529Y630752D01*
X605718Y630862D01*
X605917Y630951D01*
X606127Y631021D01*
X606347Y631071D01*
X606578Y631101D01*
X606820Y631111D01*
X607140Y631096D01*
X607441Y631051D01*
X607725Y630976D01*
X607990Y630871D01*
X608237Y630736D01*
X608466Y630571D01*
X608676Y630376D01*
X608868Y630151D01*
X609040Y629900D01*
X609188Y629625D01*
X609314Y629326D01*
X609417Y629004D01*
X609497Y628659D01*
X609554Y628290D01*
X609589Y627898D01*
X609600Y627483D01*
X609600Y623477D01*
G37*
%LPC*%
G36*
X608528Y624814D02*
X608528Y627413D01*
X608521Y627709D01*
X608500Y627984D01*
X608464Y628238D01*
X608415Y628472D01*
X608351Y628685D01*
X608272Y628877D01*
X608180Y629048D01*
X608073Y629199D01*
X607952Y629330D01*
X607818Y629444D01*
X607669Y629540D01*
X607506Y629619D01*
X607329Y629680D01*
X607138Y629724D01*
X606933Y629750D01*
X606714Y629759D01*
X606503Y629749D01*
X606306Y629721D01*
X606122Y629673D01*
X605951Y629606D01*
X605795Y629520D01*
X605652Y629414D01*
X605522Y629290D01*
X605407Y629146D01*
X605304Y628983D01*
X605216Y628801D01*
X605141Y628600D01*
X605080Y628380D01*
X605032Y628141D01*
X604998Y627882D01*
X604977Y627605D01*
X604971Y627308D01*
X604971Y624814D01*
X608528Y624814D01*
G37*
G36*
X603927Y624814D02*
X603927Y627063D01*
X603921Y627322D01*
X603902Y627564D01*
X603870Y627790D01*
X603826Y627998D01*
X603770Y628190D01*
X603700Y628365D01*
X603619Y628522D01*
X603524Y628663D01*
X603417Y628787D01*
X603296Y628894D01*
X603162Y628985D01*
X603014Y629060D01*
X602853Y629117D01*
X602678Y629159D01*
X602490Y629183D01*
X602288Y629192D01*
X602096Y629183D01*
X601917Y629158D01*
X601753Y629115D01*
X601603Y629055D01*
X601468Y628978D01*
X601347Y628884D01*
X601239Y628773D01*
X601146Y628645D01*
X601066Y628501D01*
X600996Y628342D01*
X600937Y628167D01*
X600889Y627977D01*
X600825Y627550D01*
X600803Y627063D01*
X600803Y624814D01*
X603927Y624814D01*
G37*
%LPD*%
G36*
X609600Y632584D02*
X608711Y632584D01*
X608313Y632772D01*
X607939Y632980D01*
X607590Y633208D01*
X607264Y633456D01*
X606667Y633984D01*
X606130Y634538D01*
X605640Y635103D01*
X605188Y635662D01*
X604753Y636192D01*
X604319Y636667D01*
X604099Y636880D01*
X603874Y637072D01*
X603644Y637243D01*
X603409Y637392D01*
X603163Y637513D01*
X602901Y637599D01*
X602623Y637651D01*
X602330Y637669D01*
X602133Y637661D01*
X601947Y637639D01*
X601772Y637602D01*
X601609Y637550D01*
X601457Y637483D01*
X601316Y637401D01*
X601187Y637304D01*
X601069Y637192D01*
X600964Y637068D01*
X600873Y636931D01*
X600796Y636783D01*
X600733Y636623D01*
X600684Y636452D01*
X600649Y636269D01*
X600628Y636075D01*
X600621Y635869D01*
X600628Y635672D01*
X600649Y635484D01*
X600683Y635304D01*
X600731Y635134D01*
X600792Y634973D01*
X600867Y634820D01*
X601059Y634541D01*
X601174Y634418D01*
X601300Y634307D01*
X601437Y634211D01*
X601585Y634127D01*
X601744Y634057D01*
X601914Y634001D01*
X602096Y633958D01*
X602288Y633929D01*
X602169Y632640D01*
X601881Y632686D01*
X601607Y632755D01*
X601349Y632847D01*
X601106Y632961D01*
X600878Y633098D01*
X600665Y633258D01*
X600468Y633440D01*
X600285Y633645D01*
X600121Y633869D01*
X599979Y634108D01*
X599858Y634363D01*
X599760Y634633D01*
X599683Y634919D01*
X599628Y635220D01*
X599596Y635537D01*
X599585Y635869D01*
X599596Y636231D01*
X599629Y636571D01*
X599684Y636891D01*
X599761Y637188D01*
X599860Y637464D01*
X599981Y637718D01*
X600124Y637951D01*
X600289Y638162D01*
X600474Y638350D01*
X600677Y638513D01*
X600900Y638651D01*
X601140Y638764D01*
X601400Y638852D01*
X601677Y638914D01*
X601973Y638952D01*
X602288Y638964D01*
X602575Y638948D01*
X602861Y638899D01*
X603146Y638817D01*
X603430Y638702D01*
X603713Y638554D01*
X603997Y638375D01*
X604281Y638164D01*
X604564Y637921D01*
X604887Y637603D01*
X605287Y637166D01*
X605766Y636612D01*
X606322Y635939D01*
X606948Y635216D01*
X607237Y634916D01*
X607509Y634657D01*
X607771Y634436D01*
X608029Y634247D01*
X608281Y634092D01*
X608528Y633971D01*
X608528Y639118D01*
X609600Y639118D01*
X609600Y632584D01*
G37*
G36*
X685896Y583163D02*
X685329Y583183D01*
X684794Y583243D01*
X684291Y583342D01*
X683819Y583482D01*
X683380Y583661D01*
X682972Y583880D01*
X682596Y584140D01*
X682251Y584439D01*
X681943Y584773D01*
X681676Y585139D01*
X681451Y585536D01*
X681266Y585965D01*
X681122Y586424D01*
X681019Y586915D01*
X680958Y587437D01*
X680937Y587991D01*
X680947Y588355D01*
X680974Y588707D01*
X681020Y589047D01*
X681085Y589375D01*
X681168Y589691D01*
X681269Y589994D01*
X681389Y590285D01*
X681527Y590563D01*
X681683Y590828D01*
X681855Y591076D01*
X682044Y591308D01*
X682250Y591524D01*
X682473Y591725D01*
X682712Y591909D01*
X682968Y592077D01*
X683241Y592229D01*
X683528Y592364D01*
X683828Y592481D01*
X684141Y592580D01*
X684467Y592661D01*
X684805Y592724D01*
X685156Y592769D01*
X685520Y592796D01*
X685896Y592805D01*
X686271Y592796D01*
X686635Y592768D01*
X686986Y592723D01*
X687326Y592659D01*
X687653Y592577D01*
X687969Y592477D01*
X688273Y592359D01*
X688565Y592222D01*
X688843Y592068D01*
X689105Y591899D01*
X689349Y591714D01*
X689578Y591512D01*
X689789Y591295D01*
X689984Y591063D01*
X690162Y590814D01*
X690324Y590549D01*
X690468Y590271D01*
X690593Y589980D01*
X690698Y589677D01*
X690785Y589361D01*
X690852Y589034D01*
X690900Y588694D01*
X690928Y588341D01*
X690938Y587977D01*
X690928Y587609D01*
X690900Y587254D01*
X690853Y586912D01*
X690786Y586583D01*
X690701Y586266D01*
X690597Y585963D01*
X690473Y585672D01*
X690331Y585394D01*
X690171Y585130D01*
X689994Y584883D01*
X689800Y584651D01*
X689589Y584436D01*
X689361Y584237D01*
X689116Y584054D01*
X688854Y583886D01*
X688576Y583735D01*
X688283Y583601D01*
X687978Y583485D01*
X687661Y583386D01*
X687332Y583306D01*
X686991Y583243D01*
X686638Y583199D01*
X686273Y583172D01*
X685896Y583163D01*
G37*
%LPC*%
G36*
X685896Y584501D02*
X686341Y584515D01*
X686763Y584558D01*
X687161Y584630D01*
X687535Y584731D01*
X687886Y584860D01*
X688213Y585019D01*
X688517Y585206D01*
X688796Y585422D01*
X689048Y585663D01*
X689266Y585927D01*
X689450Y586212D01*
X689601Y586521D01*
X689718Y586851D01*
X689802Y587204D01*
X689852Y587579D01*
X689869Y587977D01*
X689853Y588385D01*
X689804Y588769D01*
X689723Y589129D01*
X689609Y589464D01*
X689463Y589775D01*
X689285Y590061D01*
X689074Y590323D01*
X688831Y590560D01*
X688558Y590771D01*
X688258Y590954D01*
X687932Y591108D01*
X687578Y591235D01*
X687198Y591333D01*
X686791Y591404D01*
X686357Y591446D01*
X685896Y591460D01*
X685455Y591446D01*
X685038Y591403D01*
X684645Y591332D01*
X684277Y591233D01*
X683933Y591106D01*
X683614Y590950D01*
X683319Y590765D01*
X683048Y590553D01*
X682805Y590314D01*
X682595Y590053D01*
X682417Y589767D01*
X682272Y589459D01*
X682159Y589127D01*
X682078Y588772D01*
X682029Y588393D01*
X682013Y587991D01*
X682029Y587585D01*
X682077Y587204D01*
X682157Y586846D01*
X682268Y586511D01*
X682412Y586201D01*
X682587Y585914D01*
X682795Y585651D01*
X683034Y585411D01*
X683302Y585198D01*
X683596Y585013D01*
X683915Y584856D01*
X684260Y584728D01*
X684631Y584629D01*
X685027Y584558D01*
X685449Y584515D01*
X685896Y584501D01*
G37*
%LPD*%
G36*
X685896Y602538D02*
X685329Y602558D01*
X684794Y602618D01*
X684291Y602717D01*
X683819Y602857D01*
X683380Y603036D01*
X682972Y603255D01*
X682596Y603515D01*
X682251Y603814D01*
X681943Y604148D01*
X681676Y604514D01*
X681451Y604911D01*
X681266Y605340D01*
X681122Y605799D01*
X681019Y606290D01*
X680958Y606812D01*
X680937Y607366D01*
X680947Y607730D01*
X680974Y608082D01*
X681020Y608422D01*
X681085Y608750D01*
X681168Y609066D01*
X681269Y609369D01*
X681389Y609660D01*
X681527Y609938D01*
X681683Y610203D01*
X681855Y610451D01*
X682044Y610683D01*
X682250Y610899D01*
X682473Y611100D01*
X682712Y611284D01*
X682968Y611452D01*
X683241Y611604D01*
X683528Y611739D01*
X683828Y611856D01*
X684141Y611955D01*
X684467Y612036D01*
X684805Y612099D01*
X685156Y612144D01*
X685520Y612171D01*
X685896Y612180D01*
X686271Y612171D01*
X686635Y612143D01*
X686986Y612098D01*
X687326Y612034D01*
X687653Y611952D01*
X687969Y611852D01*
X688273Y611734D01*
X688565Y611597D01*
X688843Y611443D01*
X689105Y611274D01*
X689349Y611089D01*
X689578Y610887D01*
X689789Y610670D01*
X689984Y610438D01*
X690162Y610189D01*
X690324Y609924D01*
X690468Y609646D01*
X690593Y609355D01*
X690698Y609052D01*
X690785Y608736D01*
X690852Y608409D01*
X690900Y608069D01*
X690928Y607716D01*
X690938Y607352D01*
X690928Y606984D01*
X690900Y606629D01*
X690853Y606287D01*
X690786Y605958D01*
X690701Y605641D01*
X690597Y605338D01*
X690473Y605047D01*
X690331Y604769D01*
X690171Y604505D01*
X689994Y604258D01*
X689800Y604026D01*
X689589Y603811D01*
X689361Y603612D01*
X689116Y603429D01*
X688854Y603261D01*
X688576Y603110D01*
X688283Y602976D01*
X687978Y602860D01*
X687661Y602761D01*
X687332Y602681D01*
X686991Y602618D01*
X686638Y602574D01*
X686273Y602547D01*
X685896Y602538D01*
G37*
%LPC*%
G36*
X685896Y603876D02*
X686341Y603890D01*
X686763Y603933D01*
X687161Y604005D01*
X687535Y604106D01*
X687886Y604235D01*
X688213Y604394D01*
X688517Y604581D01*
X688796Y604797D01*
X689048Y605038D01*
X689266Y605302D01*
X689450Y605587D01*
X689601Y605896D01*
X689718Y606226D01*
X689802Y606579D01*
X689852Y606954D01*
X689869Y607352D01*
X689853Y607760D01*
X689804Y608144D01*
X689723Y608504D01*
X689609Y608839D01*
X689463Y609150D01*
X689285Y609436D01*
X689074Y609698D01*
X688831Y609935D01*
X688558Y610146D01*
X688258Y610329D01*
X687932Y610483D01*
X687578Y610610D01*
X687198Y610708D01*
X686791Y610779D01*
X686357Y610821D01*
X685896Y610835D01*
X685455Y610821D01*
X685038Y610778D01*
X684645Y610707D01*
X684277Y610608D01*
X683933Y610481D01*
X683614Y610325D01*
X683319Y610140D01*
X683048Y609928D01*
X682805Y609689D01*
X682595Y609428D01*
X682417Y609142D01*
X682272Y608834D01*
X682159Y608502D01*
X682078Y608147D01*
X682029Y607768D01*
X682013Y607366D01*
X682029Y606960D01*
X682077Y606579D01*
X682157Y606221D01*
X682268Y605886D01*
X682412Y605576D01*
X682587Y605289D01*
X682795Y605026D01*
X683034Y604786D01*
X683302Y604573D01*
X683596Y604388D01*
X683915Y604231D01*
X684260Y604103D01*
X684631Y604004D01*
X685027Y603933D01*
X685449Y603890D01*
X685896Y603876D01*
G37*
%LPD*%
G36*
X690800Y613996D02*
X681082Y613996D01*
X681082Y618569D01*
X681094Y618968D01*
X681128Y619343D01*
X681185Y619695D01*
X681266Y620023D01*
X681369Y620328D01*
X681495Y620610D01*
X681645Y620869D01*
X681817Y621104D01*
X682009Y621313D01*
X682220Y621494D01*
X682449Y621648D01*
X682695Y621773D01*
X682960Y621871D01*
X683242Y621941D01*
X683543Y621983D01*
X683862Y621997D01*
X684127Y621987D01*
X684382Y621957D01*
X684625Y621908D01*
X684858Y621839D01*
X685081Y621750D01*
X685292Y621642D01*
X685493Y621514D01*
X685682Y621366D01*
X685858Y621200D01*
X686017Y621020D01*
X686159Y620825D01*
X686211Y620738D01*
X686284Y620615D01*
X686392Y620390D01*
X686483Y620149D01*
X686557Y619894D01*
X686614Y619624D01*
X688396Y620799D01*
X690800Y622383D01*
X690800Y620866D01*
X686765Y618341D01*
X686765Y615314D01*
X690800Y615314D01*
X690800Y613996D01*
G37*
%LPC*%
G36*
X685724Y615314D02*
X685724Y618493D01*
X685716Y618746D01*
X685693Y618984D01*
X685655Y619208D01*
X685602Y619416D01*
X685534Y619610D01*
X685450Y619789D01*
X685352Y619954D01*
X685238Y620103D01*
X685110Y620237D01*
X684970Y620352D01*
X684818Y620450D01*
X684654Y620530D01*
X684478Y620592D01*
X684289Y620637D01*
X684088Y620664D01*
X683875Y620672D01*
X683670Y620663D01*
X683477Y620636D01*
X683296Y620591D01*
X683128Y620528D01*
X682973Y620448D01*
X682830Y620349D01*
X682700Y620232D01*
X682582Y620097D01*
X682478Y619945D01*
X682388Y619777D01*
X682311Y619593D01*
X682249Y619394D01*
X682200Y619179D01*
X682165Y618948D01*
X682144Y618701D01*
X682137Y618438D01*
X682137Y615314D01*
X685724Y615314D01*
G37*
%LPD*%
G36*
X690800Y571902D02*
X681082Y571902D01*
X681082Y573634D01*
X687821Y576220D01*
X688693Y576485D01*
X689365Y576654D01*
X689018Y576740D01*
X688527Y576886D01*
X687821Y577123D01*
X681082Y579662D01*
X681082Y581351D01*
X690800Y581351D01*
X690800Y580165D01*
X684317Y580165D01*
X683262Y580181D01*
X682248Y580227D01*
X683348Y579906D01*
X684179Y579620D01*
X690800Y577110D01*
X690800Y576185D01*
X684179Y573640D01*
X683006Y573254D01*
X682248Y573027D01*
X683013Y573047D01*
X684317Y573075D01*
X690800Y573075D01*
X690800Y571902D01*
G37*
G36*
X682158Y593811D02*
X681082Y593811D01*
X681082Y601798D01*
X682158Y601798D01*
X682158Y598460D01*
X690800Y598460D01*
X690800Y597149D01*
X682158Y597149D01*
X682158Y593811D01*
G37*
G36*
X559737Y298020D02*
X558967Y298036D01*
X558247Y298085D01*
X557577Y298166D01*
X556956Y298279D01*
X556386Y298425D01*
X555865Y298604D01*
X555394Y298815D01*
X554973Y299058D01*
X554601Y299336D01*
X554279Y299652D01*
X554007Y300006D01*
X553784Y300397D01*
X553610Y300826D01*
X553542Y301054D01*
X553486Y301292D01*
X553443Y301539D01*
X553412Y301796D01*
X553394Y302062D01*
X553387Y302338D01*
X553394Y302606D01*
X553412Y302865D01*
X553444Y303116D01*
X553487Y303357D01*
X553544Y303589D01*
X553613Y303813D01*
X553788Y304233D01*
X554013Y304618D01*
X554289Y304966D01*
X554614Y305279D01*
X554990Y305557D01*
X555415Y305800D01*
X555888Y306011D01*
X556409Y306189D01*
X556978Y306335D01*
X557596Y306449D01*
X558261Y306530D01*
X558975Y306578D01*
X559737Y306595D01*
X560487Y306578D01*
X561192Y306526D01*
X561850Y306441D01*
X562463Y306322D01*
X563031Y306169D01*
X563552Y305981D01*
X564028Y305760D01*
X564458Y305504D01*
X564840Y305215D01*
X565171Y304894D01*
X565451Y304540D01*
X565680Y304154D01*
X565858Y303736D01*
X565985Y303285D01*
X566030Y303047D01*
X566062Y302801D01*
X566081Y302547D01*
X566087Y302285D01*
X566081Y302023D01*
X566062Y301770D01*
X566030Y301524D01*
X565986Y301287D01*
X565859Y300838D01*
X565682Y300422D01*
X565454Y300039D01*
X565176Y299689D01*
X564847Y299372D01*
X564467Y299088D01*
X564039Y298838D01*
X563564Y298621D01*
X563042Y298437D01*
X562474Y298287D01*
X561860Y298170D01*
X561199Y298087D01*
X560491Y298037D01*
X559737Y298020D01*
G37*
%LPC*%
G36*
X559737Y299614D02*
X560372Y299624D01*
X560963Y299654D01*
X561510Y299705D01*
X562012Y299775D01*
X562471Y299865D01*
X562885Y299976D01*
X563256Y300107D01*
X563582Y300258D01*
X563868Y300431D01*
X564115Y300627D01*
X564324Y300847D01*
X564495Y301091D01*
X564628Y301358D01*
X564724Y301650D01*
X564781Y301964D01*
X564800Y302303D01*
X564780Y302639D01*
X564722Y302953D01*
X564625Y303243D01*
X564489Y303509D01*
X564314Y303753D01*
X564100Y303973D01*
X563847Y304170D01*
X563556Y304344D01*
X563224Y304496D01*
X562851Y304627D01*
X562436Y304739D01*
X561979Y304830D01*
X561481Y304901D01*
X560942Y304951D01*
X560360Y304982D01*
X559737Y304992D01*
X559092Y304982D01*
X558494Y304953D01*
X557941Y304905D01*
X557434Y304837D01*
X556973Y304751D01*
X556558Y304644D01*
X556189Y304519D01*
X555866Y304374D01*
X555585Y304207D01*
X555341Y304015D01*
X555135Y303798D01*
X554966Y303556D01*
X554835Y303289D01*
X554741Y302997D01*
X554685Y302680D01*
X554666Y302338D01*
X554685Y301987D01*
X554740Y301662D01*
X554832Y301363D01*
X554962Y301089D01*
X555128Y300840D01*
X555331Y300618D01*
X555571Y300421D01*
X555848Y300249D01*
X556168Y300100D01*
X556535Y299971D01*
X556950Y299862D01*
X557412Y299773D01*
X557922Y299703D01*
X558479Y299654D01*
X559084Y299624D01*
X559737Y299614D01*
G37*
%LPD*%
G36*
X565912Y285853D02*
X553571Y285853D01*
X553571Y291660D01*
X553586Y292166D01*
X553630Y292643D01*
X553702Y293090D01*
X553804Y293507D01*
X553936Y293895D01*
X554096Y294252D01*
X554285Y294580D01*
X554504Y294879D01*
X554749Y295145D01*
X555016Y295375D01*
X555306Y295570D01*
X555620Y295730D01*
X555956Y295854D01*
X556315Y295942D01*
X556696Y295995D01*
X557101Y296013D01*
X557438Y296001D01*
X557761Y295963D01*
X558071Y295900D01*
X558367Y295813D01*
X558649Y295700D01*
X558917Y295562D01*
X559172Y295400D01*
X559413Y295212D01*
X559637Y295002D01*
X559839Y294773D01*
X560019Y294525D01*
X560085Y294414D01*
X560177Y294258D01*
X560314Y293972D01*
X560430Y293667D01*
X560523Y293343D01*
X560596Y293000D01*
X562859Y294492D01*
X565912Y296504D01*
X565912Y294577D01*
X560788Y291371D01*
X560788Y287526D01*
X565912Y287526D01*
X565912Y285853D01*
G37*
%LPC*%
G36*
X559466Y287526D02*
X559466Y291564D01*
X559456Y291885D01*
X559427Y292188D01*
X559379Y292471D01*
X559311Y292736D01*
X559225Y292983D01*
X559118Y293210D01*
X558993Y293419D01*
X558848Y293609D01*
X558686Y293778D01*
X558509Y293925D01*
X558316Y294049D01*
X558107Y294151D01*
X557883Y294230D01*
X557644Y294286D01*
X557389Y294320D01*
X557118Y294331D01*
X556857Y294320D01*
X556612Y294286D01*
X556383Y294229D01*
X556169Y294149D01*
X555972Y294046D01*
X555791Y293920D01*
X555625Y293772D01*
X555476Y293600D01*
X555344Y293407D01*
X555229Y293194D01*
X555132Y292961D01*
X555053Y292708D01*
X554991Y292434D01*
X554947Y292141D01*
X554920Y291827D01*
X554911Y291494D01*
X554911Y287526D01*
X559466Y287526D01*
G37*
%LPD*%
G36*
X563118Y307700D02*
X561892Y307700D01*
X553571Y313349D01*
X553571Y315004D01*
X561874Y315004D01*
X561874Y316738D01*
X563118Y316738D01*
X563118Y315004D01*
X565912Y315004D01*
X565912Y313515D01*
X563118Y313515D01*
X563118Y307700D01*
G37*
%LPC*%
G36*
X561874Y309154D02*
X561874Y313515D01*
X555349Y313515D01*
X555813Y313270D01*
X556391Y312929D01*
X561051Y309767D01*
X561699Y309294D01*
X561874Y309154D01*
G37*
%LPD*%
G36*
X565912Y242009D02*
X553571Y242009D01*
X553571Y243682D01*
X558791Y243682D01*
X558791Y250356D01*
X553571Y250356D01*
X553571Y252029D01*
X565912Y252029D01*
X565912Y250356D01*
X560193Y250356D01*
X560193Y243682D01*
X565912Y243682D01*
X565912Y242009D01*
G37*
G36*
X562952Y273228D02*
X562628Y274848D01*
X562896Y274928D01*
X563147Y275027D01*
X563379Y275147D01*
X563592Y275286D01*
X563787Y275445D01*
X563964Y275623D01*
X564122Y275821D01*
X564261Y276039D01*
X564383Y276277D01*
X564489Y276536D01*
X564579Y276815D01*
X564652Y277114D01*
X564709Y277434D01*
X564750Y277775D01*
X564774Y278136D01*
X564782Y278518D01*
X564773Y278911D01*
X564747Y279282D01*
X564704Y279629D01*
X564643Y279953D01*
X564565Y280254D01*
X564469Y280532D01*
X564356Y280787D01*
X564226Y281018D01*
X564079Y281225D01*
X563915Y281403D01*
X563736Y281555D01*
X563540Y281678D01*
X563327Y281775D01*
X563099Y281843D01*
X562854Y281885D01*
X562593Y281899D01*
X562305Y281881D01*
X562045Y281830D01*
X561814Y281743D01*
X561612Y281623D01*
X561431Y281471D01*
X561268Y281291D01*
X561121Y281083D01*
X560990Y280847D01*
X560872Y280586D01*
X560764Y280300D01*
X560666Y279990D01*
X560578Y279656D01*
X560219Y278124D01*
X560057Y277436D01*
X559895Y276837D01*
X559733Y276326D01*
X559571Y275903D01*
X559404Y275544D01*
X559228Y275226D01*
X559043Y274947D01*
X558848Y274708D01*
X558641Y274502D01*
X558416Y274321D01*
X558174Y274167D01*
X557915Y274038D01*
X557638Y273936D01*
X557342Y273864D01*
X557025Y273820D01*
X556689Y273806D01*
X556304Y273825D01*
X555942Y273881D01*
X555603Y273976D01*
X555286Y274109D01*
X554992Y274279D01*
X554720Y274488D01*
X554472Y274734D01*
X554246Y275019D01*
X554044Y275338D01*
X553870Y275691D01*
X553723Y276076D01*
X553602Y276493D01*
X553508Y276944D01*
X553441Y277427D01*
X553401Y277943D01*
X553387Y278491D01*
X553397Y279001D01*
X553428Y279481D01*
X553478Y279929D01*
X553548Y280346D01*
X553639Y280732D01*
X553749Y281088D01*
X553880Y281412D01*
X554031Y281706D01*
X554206Y281973D01*
X554410Y282220D01*
X554641Y282446D01*
X554901Y282652D01*
X555190Y282836D01*
X555507Y283000D01*
X555852Y283143D01*
X556225Y283265D01*
X556514Y281618D01*
X556277Y281543D01*
X556057Y281452D01*
X555854Y281346D01*
X555668Y281224D01*
X555498Y281087D01*
X555346Y280935D01*
X555210Y280768D01*
X555091Y280585D01*
X554987Y280385D01*
X554897Y280167D01*
X554821Y279931D01*
X554759Y279676D01*
X554711Y279403D01*
X554676Y279112D01*
X554655Y278802D01*
X554649Y278474D01*
X554656Y278115D01*
X554679Y277778D01*
X554718Y277462D01*
X554771Y277169D01*
X554840Y276897D01*
X554924Y276648D01*
X555024Y276420D01*
X555139Y276214D01*
X555269Y276032D01*
X555414Y275873D01*
X555575Y275739D01*
X555750Y275630D01*
X555940Y275544D01*
X556146Y275483D01*
X556366Y275447D01*
X556602Y275435D01*
X556874Y275454D01*
X557122Y275510D01*
X557345Y275605D01*
X557543Y275737D01*
X557722Y275905D01*
X557887Y276106D01*
X558038Y276340D01*
X558174Y276608D01*
X558310Y276964D01*
X558462Y277460D01*
X558628Y278098D01*
X558809Y278877D01*
X559076Y280011D01*
X559225Y280564D01*
X559400Y281093D01*
X559605Y281593D01*
X559842Y282061D01*
X559976Y282279D01*
X560125Y282482D01*
X560287Y282671D01*
X560464Y282844D01*
X560656Y283002D01*
X560865Y283141D01*
X561090Y283262D01*
X561331Y283366D01*
X561592Y283448D01*
X561874Y283507D01*
X562179Y283542D01*
X562505Y283554D01*
X562920Y283533D01*
X563311Y283470D01*
X563678Y283366D01*
X564020Y283220D01*
X564339Y283032D01*
X564633Y282803D01*
X564904Y282531D01*
X565150Y282218D01*
X565370Y281867D01*
X565560Y281482D01*
X565721Y281063D01*
X565853Y280610D01*
X565955Y280123D01*
X566029Y279601D01*
X566073Y279046D01*
X566087Y278456D01*
X566075Y277907D01*
X566038Y277388D01*
X565977Y276898D01*
X565891Y276438D01*
X565781Y276008D01*
X565646Y275607D01*
X565487Y275235D01*
X565303Y274894D01*
X565095Y274582D01*
X564862Y274300D01*
X564605Y274047D01*
X564323Y273824D01*
X564017Y273630D01*
X563687Y273466D01*
X563331Y273332D01*
X562952Y273228D01*
G37*
G36*
X559685Y254386D02*
X559321Y254393D01*
X558967Y254411D01*
X558623Y254442D01*
X558289Y254486D01*
X557965Y254542D01*
X557651Y254611D01*
X557347Y254692D01*
X557053Y254785D01*
X556769Y254891D01*
X556495Y255009D01*
X555977Y255283D01*
X555498Y255607D01*
X555060Y255980D01*
X554668Y256398D01*
X554328Y256854D01*
X554178Y257096D01*
X554041Y257348D01*
X553917Y257610D01*
X553806Y257881D01*
X553708Y258162D01*
X553623Y258452D01*
X553551Y258752D01*
X553492Y259061D01*
X553446Y259380D01*
X553413Y259709D01*
X553394Y260047D01*
X553387Y260395D01*
X553399Y260877D01*
X553435Y261340D01*
X553496Y261782D01*
X553580Y262203D01*
X553688Y262605D01*
X553821Y262986D01*
X553977Y263347D01*
X554158Y263688D01*
X554362Y264008D01*
X554590Y264305D01*
X554841Y264581D01*
X555115Y264835D01*
X555412Y265067D01*
X555733Y265278D01*
X556077Y265466D01*
X556444Y265632D01*
X556970Y264047D01*
X556708Y263932D01*
X556463Y263800D01*
X556233Y263652D01*
X556019Y263488D01*
X555821Y263307D01*
X555639Y263110D01*
X555473Y262897D01*
X555323Y262668D01*
X555190Y262424D01*
X555074Y262170D01*
X554976Y261905D01*
X554896Y261629D01*
X554834Y261341D01*
X554789Y261043D01*
X554763Y260733D01*
X554754Y260412D01*
X554774Y259914D01*
X554836Y259444D01*
X554939Y259003D01*
X555083Y258590D01*
X555269Y258206D01*
X555495Y257850D01*
X555763Y257523D01*
X556072Y257224D01*
X556417Y256957D01*
X556792Y256726D01*
X557198Y256530D01*
X557634Y256370D01*
X558101Y256246D01*
X558598Y256157D01*
X559126Y256103D01*
X559685Y256086D01*
X560238Y256104D01*
X560763Y256160D01*
X561261Y256252D01*
X561731Y256382D01*
X562173Y256549D01*
X562587Y256753D01*
X562974Y256994D01*
X563333Y257272D01*
X563656Y257582D01*
X563936Y257918D01*
X564173Y258280D01*
X564367Y258668D01*
X564518Y259083D01*
X564626Y259523D01*
X564691Y259990D01*
X564712Y260482D01*
X564702Y260801D01*
X564672Y261110D01*
X564622Y261409D01*
X564552Y261698D01*
X564461Y261977D01*
X564351Y262246D01*
X564221Y262504D01*
X564071Y262753D01*
X563900Y262992D01*
X563710Y263220D01*
X563499Y263439D01*
X563269Y263647D01*
X563018Y263845D01*
X562747Y264034D01*
X562457Y264212D01*
X562146Y264380D01*
X562829Y265746D01*
X563216Y265546D01*
X563578Y265327D01*
X563917Y265088D01*
X564233Y264830D01*
X564524Y264553D01*
X564791Y264256D01*
X565035Y263940D01*
X565255Y263605D01*
X565450Y263253D01*
X565619Y262887D01*
X565762Y262508D01*
X565879Y262115D01*
X565970Y261708D01*
X566035Y261287D01*
X566074Y260852D01*
X566087Y260404D01*
X566075Y259945D01*
X566039Y259502D01*
X565978Y259075D01*
X565893Y258664D01*
X565784Y258268D01*
X565651Y257888D01*
X565494Y257524D01*
X565312Y257176D01*
X565108Y256846D01*
X564883Y256536D01*
X564637Y256246D01*
X564371Y255976D01*
X564083Y255727D01*
X563775Y255498D01*
X563446Y255289D01*
X563096Y255100D01*
X562728Y254933D01*
X562343Y254788D01*
X561941Y254665D01*
X561523Y254565D01*
X561088Y254487D01*
X560637Y254431D01*
X560169Y254398D01*
X559685Y254386D01*
G37*
G36*
X561848Y267241D02*
X560447Y267241D01*
X560447Y271621D01*
X561848Y271621D01*
X561848Y267241D01*
G37*
G36*
X279523Y701216D02*
X279159Y701222D01*
X278805Y701241D01*
X278461Y701272D01*
X278127Y701316D01*
X277803Y701372D01*
X277489Y701440D01*
X277185Y701521D01*
X276891Y701614D01*
X276607Y701720D01*
X276333Y701839D01*
X275815Y702113D01*
X275336Y702436D01*
X274898Y702810D01*
X274506Y703228D01*
X274166Y703684D01*
X274016Y703926D01*
X273879Y704178D01*
X273755Y704439D01*
X273644Y704711D01*
X273546Y704991D01*
X273461Y705281D01*
X273389Y705581D01*
X273330Y705891D01*
X273284Y706210D01*
X273251Y706538D01*
X273232Y706877D01*
X273225Y707224D01*
X273237Y707707D01*
X273273Y708169D01*
X273334Y708611D01*
X273418Y709033D01*
X273526Y709434D01*
X273659Y709816D01*
X273815Y710177D01*
X273996Y710517D01*
X274200Y710837D01*
X274428Y711135D01*
X274679Y711411D01*
X274953Y711665D01*
X275250Y711897D01*
X275571Y712107D01*
X275915Y712295D01*
X276282Y712462D01*
X276808Y710877D01*
X276546Y710761D01*
X276301Y710629D01*
X276071Y710481D01*
X275857Y710317D01*
X275659Y710137D01*
X275477Y709940D01*
X275311Y709727D01*
X275161Y709497D01*
X275028Y709254D01*
X274912Y709000D01*
X274814Y708734D01*
X274734Y708458D01*
X274672Y708171D01*
X274627Y707872D01*
X274601Y707562D01*
X274592Y707242D01*
X274612Y706744D01*
X274674Y706274D01*
X274777Y705833D01*
X274921Y705420D01*
X275107Y705036D01*
X275333Y704680D01*
X275601Y704353D01*
X275910Y704054D01*
X276255Y703787D01*
X276630Y703556D01*
X277036Y703360D01*
X277472Y703200D01*
X277939Y703075D01*
X278436Y702986D01*
X278964Y702933D01*
X279523Y702915D01*
X280076Y702934D01*
X280601Y702989D01*
X281099Y703082D01*
X281569Y703212D01*
X282011Y703379D01*
X282425Y703583D01*
X282812Y703824D01*
X283171Y704102D01*
X283494Y704412D01*
X283774Y704747D01*
X284011Y705110D01*
X284205Y705498D01*
X284356Y705912D01*
X284464Y706353D01*
X284529Y706819D01*
X284550Y707312D01*
X284540Y707631D01*
X284510Y707940D01*
X284460Y708239D01*
X284390Y708528D01*
X284299Y708806D01*
X284189Y709075D01*
X284059Y709334D01*
X283909Y709582D01*
X283738Y709821D01*
X283548Y710050D01*
X283337Y710268D01*
X283107Y710476D01*
X282856Y710675D01*
X282585Y710863D01*
X282295Y711041D01*
X281984Y711209D01*
X282667Y712576D01*
X283054Y712376D01*
X283416Y712156D01*
X283755Y711917D01*
X284071Y711659D01*
X284362Y711382D01*
X284629Y711085D01*
X284873Y710769D01*
X285093Y710434D01*
X285288Y710082D01*
X285457Y709717D01*
X285600Y709337D01*
X285717Y708944D01*
X285808Y708537D01*
X285873Y708116D01*
X285912Y707682D01*
X285925Y707233D01*
X285913Y706774D01*
X285877Y706332D01*
X285816Y705905D01*
X285731Y705493D01*
X285622Y705098D01*
X285489Y704718D01*
X285332Y704354D01*
X285150Y704005D01*
X284946Y703675D01*
X284721Y703365D01*
X284475Y703075D01*
X284209Y702806D01*
X283921Y702556D01*
X283613Y702327D01*
X283284Y702118D01*
X282934Y701930D01*
X282566Y701762D01*
X282181Y701617D01*
X281779Y701495D01*
X281361Y701394D01*
X280926Y701316D01*
X280475Y701261D01*
X280007Y701227D01*
X279523Y701216D01*
G37*
G36*
X285750Y714609D02*
X284410Y714609D01*
X284410Y717753D01*
X274916Y717753D01*
X276904Y714968D01*
X275415Y714968D01*
X273409Y717885D01*
X273409Y719338D01*
X284410Y719338D01*
X284410Y722343D01*
X285750Y722343D01*
X285750Y714609D01*
G37*
G36*
X87134Y726000D02*
X78962Y726000D01*
X78962Y727112D01*
X79198Y727610D01*
X79458Y728077D01*
X79743Y728514D01*
X80053Y728921D01*
X80379Y729304D01*
X80713Y729668D01*
X81055Y730013D01*
X81406Y730340D01*
X82112Y730952D01*
X82812Y731518D01*
X83474Y732061D01*
X84068Y732604D01*
X84335Y732879D01*
X84575Y733160D01*
X84788Y733448D01*
X84975Y733743D01*
X85126Y734050D01*
X85234Y734378D01*
X85299Y734725D01*
X85321Y735091D01*
X85312Y735338D01*
X85284Y735571D01*
X85237Y735789D01*
X85172Y735993D01*
X85088Y736183D01*
X84986Y736359D01*
X84865Y736521D01*
X84725Y736668D01*
X84569Y736799D01*
X84398Y736913D01*
X84213Y737009D01*
X84014Y737088D01*
X83799Y737150D01*
X83571Y737193D01*
X83328Y737220D01*
X83070Y737228D01*
X82824Y737220D01*
X82588Y737194D01*
X82364Y737151D01*
X82151Y737092D01*
X81949Y737015D01*
X81759Y736921D01*
X81579Y736809D01*
X81410Y736681D01*
X81255Y736537D01*
X81118Y736380D01*
X80997Y736208D01*
X80892Y736023D01*
X80805Y735824D01*
X80734Y735611D01*
X80681Y735384D01*
X80644Y735144D01*
X79032Y735293D01*
X79090Y735653D01*
X79176Y735995D01*
X79291Y736318D01*
X79434Y736622D01*
X79605Y736907D01*
X79805Y737173D01*
X80033Y737420D01*
X80289Y737649D01*
X80569Y737854D01*
X80868Y738032D01*
X81187Y738183D01*
X81525Y738306D01*
X81882Y738402D01*
X82259Y738470D01*
X82655Y738511D01*
X83070Y738525D01*
X83523Y738511D01*
X83949Y738470D01*
X84348Y738401D01*
X84720Y738305D01*
X85065Y738181D01*
X85383Y738030D01*
X85674Y737851D01*
X85938Y737644D01*
X86173Y737413D01*
X86377Y737158D01*
X86549Y736880D01*
X86690Y736579D01*
X86800Y736255D01*
X86878Y735908D01*
X86925Y735537D01*
X86941Y735144D01*
X86921Y734785D01*
X86859Y734428D01*
X86756Y734072D01*
X86613Y733716D01*
X86429Y733362D01*
X86204Y733007D01*
X85940Y732652D01*
X85636Y732297D01*
X85238Y731894D01*
X84692Y731393D01*
X83999Y730795D01*
X83157Y730099D01*
X82680Y729697D01*
X82253Y729316D01*
X81878Y728955D01*
X81555Y728614D01*
X81278Y728287D01*
X81042Y727965D01*
X80849Y727650D01*
X80696Y727340D01*
X87134Y727340D01*
X87134Y726000D01*
G37*
G36*
X147160Y686000D02*
X139426Y686000D01*
X139426Y687340D01*
X142571Y687340D01*
X142571Y696834D01*
X139785Y694846D01*
X139785Y696335D01*
X142702Y698341D01*
X144156Y698341D01*
X144156Y687340D01*
X147160Y687340D01*
X147160Y686000D01*
G37*
G36*
X85561Y660825D02*
X85104Y660838D01*
X84671Y660878D01*
X84262Y660944D01*
X83876Y661036D01*
X83514Y661155D01*
X83176Y661300D01*
X82861Y661472D01*
X82570Y661670D01*
X82305Y661894D01*
X82068Y662143D01*
X81860Y662418D01*
X81680Y662718D01*
X81528Y663043D01*
X81405Y663394D01*
X81310Y663769D01*
X81243Y664171D01*
X82872Y664319D01*
X82920Y664054D01*
X82983Y663806D01*
X83063Y663575D01*
X83159Y663362D01*
X83270Y663165D01*
X83398Y662985D01*
X83542Y662823D01*
X83702Y662677D01*
X83878Y662549D01*
X84070Y662438D01*
X84279Y662344D01*
X84503Y662267D01*
X84743Y662207D01*
X85000Y662164D01*
X85272Y662138D01*
X85561Y662130D01*
X85851Y662139D01*
X86125Y662167D01*
X86382Y662212D01*
X86624Y662277D01*
X86850Y662359D01*
X87060Y662460D01*
X87253Y662579D01*
X87431Y662717D01*
X87590Y662872D01*
X87728Y663046D01*
X87845Y663237D01*
X87940Y663446D01*
X88014Y663673D01*
X88067Y663917D01*
X88099Y664179D01*
X88110Y664460D01*
X88098Y664705D01*
X88061Y664936D01*
X88001Y665153D01*
X87916Y665356D01*
X87807Y665546D01*
X87674Y665722D01*
X87516Y665884D01*
X87335Y666032D01*
X87130Y666164D01*
X86904Y666279D01*
X86657Y666376D01*
X86388Y666455D01*
X86097Y666517D01*
X85785Y666561D01*
X85452Y666588D01*
X85097Y666597D01*
X84204Y666597D01*
X84204Y667963D01*
X85062Y667963D01*
X85377Y667972D01*
X85674Y667998D01*
X85952Y668042D01*
X86213Y668104D01*
X86455Y668184D01*
X86679Y668281D01*
X86884Y668396D01*
X87072Y668528D01*
X87239Y668676D01*
X87384Y668838D01*
X87507Y669013D01*
X87607Y669201D01*
X87685Y669403D01*
X87741Y669619D01*
X87775Y669849D01*
X87786Y670091D01*
X87777Y670332D01*
X87749Y670560D01*
X87704Y670775D01*
X87640Y670977D01*
X87558Y671166D01*
X87458Y671342D01*
X87340Y671505D01*
X87203Y671655D01*
X87049Y671789D01*
X86877Y671906D01*
X86687Y672004D01*
X86480Y672085D01*
X86255Y672148D01*
X86012Y672193D01*
X85752Y672219D01*
X85474Y672228D01*
X85219Y672220D01*
X84977Y672195D01*
X84748Y672153D01*
X84531Y672095D01*
X84326Y672020D01*
X84134Y671928D01*
X83955Y671819D01*
X83788Y671694D01*
X83635Y671554D01*
X83499Y671400D01*
X83380Y671232D01*
X83278Y671050D01*
X83193Y670855D01*
X83125Y670646D01*
X83073Y670424D01*
X83039Y670188D01*
X81453Y670310D01*
X81511Y670679D01*
X81598Y671026D01*
X81712Y671353D01*
X81855Y671659D01*
X82026Y671944D01*
X82226Y672209D01*
X82454Y672452D01*
X82710Y672675D01*
X82990Y672874D01*
X83290Y673047D01*
X83608Y673193D01*
X83946Y673312D01*
X84304Y673405D01*
X84680Y673472D01*
X85076Y673511D01*
X85491Y673525D01*
X85942Y673511D01*
X86368Y673471D01*
X86767Y673403D01*
X87141Y673309D01*
X87489Y673188D01*
X87811Y673039D01*
X88107Y672864D01*
X88377Y672662D01*
X88618Y672436D01*
X88827Y672188D01*
X89004Y671920D01*
X89149Y671630D01*
X89261Y671318D01*
X89342Y670986D01*
X89390Y670633D01*
X89406Y670258D01*
X89396Y669969D01*
X89365Y669694D01*
X89313Y669433D01*
X89241Y669186D01*
X89148Y668953D01*
X89034Y668733D01*
X88900Y668527D01*
X88745Y668335D01*
X88570Y668158D01*
X88377Y667995D01*
X88165Y667847D01*
X87934Y667715D01*
X87684Y667597D01*
X87415Y667494D01*
X87128Y667406D01*
X86822Y667332D01*
X86822Y667297D01*
X87159Y667250D01*
X87476Y667184D01*
X87774Y667097D01*
X88053Y666991D01*
X88313Y666865D01*
X88553Y666719D01*
X88775Y666554D01*
X88977Y666369D01*
X89158Y666168D01*
X89314Y665954D01*
X89447Y665728D01*
X89555Y665489D01*
X89639Y665237D01*
X89700Y664973D01*
X89736Y664696D01*
X89748Y664407D01*
X89731Y663992D01*
X89680Y663601D01*
X89595Y663235D01*
X89476Y662892D01*
X89323Y662573D01*
X89137Y662279D01*
X88916Y662008D01*
X88662Y661762D01*
X88376Y661542D01*
X88061Y661352D01*
X87717Y661191D01*
X87343Y661059D01*
X86941Y660957D01*
X86510Y660883D01*
X86050Y660840D01*
X85561Y660825D01*
G37*
G36*
X197065Y758956D02*
X189675Y758956D01*
X189675Y778714D01*
X196209Y778714D01*
X196828Y778704D01*
X197429Y778675D01*
X198011Y778626D01*
X198576Y778557D01*
X199123Y778468D01*
X199652Y778360D01*
X200163Y778232D01*
X200656Y778085D01*
X201132Y777918D01*
X201589Y777731D01*
X202028Y777524D01*
X202450Y777298D01*
X202854Y777052D01*
X203239Y776787D01*
X203607Y776502D01*
X203957Y776197D01*
X204287Y775874D01*
X204596Y775535D01*
X204884Y775178D01*
X205150Y774806D01*
X205395Y774416D01*
X205619Y774010D01*
X205821Y773588D01*
X206003Y773149D01*
X206162Y772693D01*
X206301Y772221D01*
X206418Y771732D01*
X206514Y771226D01*
X206589Y770704D01*
X206642Y770166D01*
X206674Y769610D01*
X206684Y769038D01*
X206666Y768286D01*
X206610Y767558D01*
X206517Y766853D01*
X206386Y766172D01*
X206219Y765516D01*
X206014Y764883D01*
X205772Y764274D01*
X205492Y763689D01*
X205179Y763132D01*
X204834Y762609D01*
X204459Y762120D01*
X204052Y761664D01*
X203614Y761242D01*
X203145Y760853D01*
X202644Y760498D01*
X202113Y760176D01*
X201556Y759890D01*
X200977Y759642D01*
X200378Y759433D01*
X199757Y759261D01*
X199116Y759128D01*
X198453Y759032D01*
X197769Y758975D01*
X197065Y758956D01*
G37*
%LPC*%
G36*
X196756Y761101D02*
X197291Y761116D01*
X197810Y761161D01*
X198312Y761236D01*
X198798Y761340D01*
X199268Y761474D01*
X199721Y761638D01*
X200157Y761832D01*
X200577Y762055D01*
X200977Y762307D01*
X201354Y762584D01*
X201706Y762889D01*
X202034Y763219D01*
X202339Y763576D01*
X202619Y763959D01*
X202876Y764368D01*
X203109Y764804D01*
X203316Y765262D01*
X203495Y765741D01*
X203647Y766240D01*
X203771Y766760D01*
X203868Y767299D01*
X203937Y767859D01*
X203978Y768438D01*
X203992Y769038D01*
X203984Y769491D01*
X203961Y769930D01*
X203921Y770355D01*
X203866Y770766D01*
X203796Y771164D01*
X203709Y771548D01*
X203607Y771919D01*
X203489Y772276D01*
X203355Y772619D01*
X203206Y772949D01*
X203041Y773265D01*
X202860Y773567D01*
X202664Y773856D01*
X202451Y774131D01*
X202223Y774393D01*
X201980Y774641D01*
X201721Y774874D01*
X201449Y775092D01*
X201162Y775296D01*
X200861Y775484D01*
X200546Y775657D01*
X200217Y775815D01*
X199874Y775959D01*
X199517Y776087D01*
X199146Y776200D01*
X198761Y776298D01*
X198361Y776380D01*
X197948Y776448D01*
X197520Y776501D01*
X197079Y776539D01*
X196623Y776561D01*
X196153Y776569D01*
X192353Y776569D01*
X192353Y761101D01*
X196756Y761101D01*
G37*
%LPD*%
G36*
X219161Y758676D02*
X218427Y758695D01*
X217718Y758753D01*
X217034Y758850D01*
X216376Y758986D01*
X215742Y759160D01*
X215134Y759374D01*
X214551Y759626D01*
X213994Y759917D01*
X213465Y760243D01*
X212968Y760604D01*
X212504Y760997D01*
X212072Y761424D01*
X211673Y761884D01*
X211306Y762378D01*
X210972Y762904D01*
X210670Y763464D01*
X210402Y764054D01*
X210170Y764671D01*
X209974Y765314D01*
X209813Y765983D01*
X209688Y766679D01*
X209599Y767402D01*
X209545Y768151D01*
X209527Y768926D01*
X209537Y769509D01*
X209567Y770076D01*
X209617Y770626D01*
X209687Y771161D01*
X209777Y771680D01*
X209886Y772183D01*
X210016Y772669D01*
X210165Y773140D01*
X210335Y773595D01*
X210524Y774034D01*
X210734Y774456D01*
X210963Y774863D01*
X211212Y775254D01*
X211481Y775629D01*
X211770Y775987D01*
X212079Y776330D01*
X212406Y776655D01*
X212748Y776958D01*
X213106Y777241D01*
X213478Y777502D01*
X213866Y777743D01*
X214270Y777962D01*
X214688Y778161D01*
X215122Y778339D01*
X215572Y778496D01*
X216037Y778632D01*
X216517Y778747D01*
X217012Y778841D01*
X217523Y778914D01*
X218049Y778967D01*
X218590Y778998D01*
X219147Y779009D01*
X219920Y778989D01*
X220660Y778932D01*
X221367Y778835D01*
X222043Y778700D01*
X222686Y778527D01*
X223296Y778315D01*
X223874Y778064D01*
X224420Y777775D01*
X224931Y777448D01*
X225408Y777083D01*
X225850Y776682D01*
X226257Y776243D01*
X226628Y775767D01*
X226965Y775253D01*
X227266Y774703D01*
X227533Y774115D01*
X224994Y773273D01*
X224810Y773692D01*
X224599Y774085D01*
X224362Y774453D01*
X224099Y774795D01*
X223810Y775112D01*
X223494Y775403D01*
X223153Y775669D01*
X222786Y775910D01*
X222397Y776123D01*
X221990Y776308D01*
X221565Y776465D01*
X221122Y776593D01*
X220662Y776693D01*
X220184Y776764D01*
X219688Y776807D01*
X219175Y776821D01*
X218771Y776813D01*
X218377Y776788D01*
X217996Y776747D01*
X217625Y776689D01*
X217267Y776615D01*
X216919Y776524D01*
X216583Y776417D01*
X216258Y776293D01*
X215945Y776153D01*
X215643Y775997D01*
X215352Y775824D01*
X215073Y775634D01*
X214806Y775428D01*
X214549Y775205D01*
X214304Y774966D01*
X214071Y774711D01*
X213850Y774441D01*
X213643Y774159D01*
X213451Y773864D01*
X213273Y773558D01*
X213109Y773239D01*
X212960Y772908D01*
X212825Y772565D01*
X212703Y772209D01*
X212597Y771842D01*
X212504Y771462D01*
X212426Y771070D01*
X212362Y770665D01*
X212312Y770249D01*
X212276Y769820D01*
X212255Y769379D01*
X212248Y768926D01*
X212255Y768478D01*
X212277Y768040D01*
X212315Y767614D01*
X212366Y767199D01*
X212433Y766795D01*
X212515Y766402D01*
X212611Y766021D01*
X212723Y765650D01*
X212849Y765291D01*
X212990Y764942D01*
X213146Y764605D01*
X213317Y764279D01*
X213502Y763964D01*
X213702Y763660D01*
X213918Y763367D01*
X214148Y763086D01*
X214391Y762818D01*
X214644Y762568D01*
X214907Y762335D01*
X215182Y762119D01*
X215466Y761921D01*
X215761Y761740D01*
X216067Y761576D01*
X216383Y761429D01*
X216709Y761300D01*
X217046Y761188D01*
X217393Y761093D01*
X217751Y761015D01*
X218120Y760955D01*
X218498Y760912D01*
X218887Y760886D01*
X219287Y760877D01*
X219798Y760893D01*
X220293Y760941D01*
X220771Y761022D01*
X221234Y761134D01*
X221680Y761278D01*
X222110Y761455D01*
X222525Y761664D01*
X222923Y761904D01*
X223305Y762177D01*
X223670Y762482D01*
X224020Y762819D01*
X224354Y763188D01*
X224671Y763590D01*
X224973Y764023D01*
X225258Y764488D01*
X225527Y764986D01*
X227715Y763892D01*
X227394Y763273D01*
X227043Y762692D01*
X226661Y762149D01*
X226248Y761645D01*
X225804Y761178D01*
X225329Y760750D01*
X224823Y760360D01*
X224286Y760008D01*
X223723Y759695D01*
X223138Y759425D01*
X222530Y759196D01*
X221901Y759009D01*
X221249Y758863D01*
X220575Y758759D01*
X219879Y758696D01*
X219161Y758676D01*
G37*
G36*
X171160Y758956D02*
X168383Y758956D01*
X160320Y778714D01*
X163139Y778714D01*
X168608Y764804D01*
X169786Y761312D01*
X170963Y764804D01*
X176404Y778714D01*
X179223Y778714D01*
X171160Y758956D01*
G37*
G36*
X158753Y758956D02*
X145670Y758956D01*
X145670Y760737D01*
X146047Y761533D01*
X146464Y762281D01*
X146920Y762981D01*
X147415Y763633D01*
X147937Y764245D01*
X148472Y764828D01*
X149021Y765381D01*
X149582Y765904D01*
X150712Y766884D01*
X151833Y767790D01*
X152376Y768225D01*
X152893Y768660D01*
X153383Y769095D01*
X153845Y769529D01*
X154272Y769969D01*
X154656Y770420D01*
X154998Y770881D01*
X155296Y771352D01*
X155426Y771595D01*
X155539Y771845D01*
X155634Y772103D01*
X155712Y772369D01*
X155772Y772643D01*
X155815Y772924D01*
X155841Y773214D01*
X155850Y773512D01*
X155835Y773907D01*
X155790Y774279D01*
X155716Y774629D01*
X155612Y774956D01*
X155478Y775260D01*
X155314Y775541D01*
X155120Y775800D01*
X154897Y776036D01*
X154647Y776246D01*
X154373Y776428D01*
X154077Y776583D01*
X153757Y776709D01*
X153414Y776807D01*
X153048Y776877D01*
X152659Y776919D01*
X152246Y776933D01*
X151852Y776920D01*
X151475Y776878D01*
X151117Y776810D01*
X150776Y776714D01*
X150452Y776591D01*
X150147Y776440D01*
X149859Y776262D01*
X149589Y776057D01*
X149341Y775827D01*
X149120Y775574D01*
X148927Y775300D01*
X148760Y775003D01*
X148620Y774685D01*
X148507Y774344D01*
X148421Y773981D01*
X148362Y773596D01*
X145782Y773834D01*
X145874Y774412D01*
X146013Y774959D01*
X146196Y775476D01*
X146425Y775962D01*
X146699Y776419D01*
X147019Y776845D01*
X147384Y777241D01*
X147794Y777606D01*
X148242Y777935D01*
X148722Y778220D01*
X149232Y778461D01*
X149773Y778658D01*
X150345Y778811D01*
X150948Y778921D01*
X151582Y778987D01*
X152246Y779009D01*
X152971Y778987D01*
X153653Y778921D01*
X154292Y778810D01*
X154888Y778656D01*
X155440Y778458D01*
X155950Y778216D01*
X156416Y777930D01*
X156839Y777599D01*
X157215Y777229D01*
X157541Y776821D01*
X157817Y776376D01*
X158043Y775894D01*
X158219Y775375D01*
X158288Y775102D01*
X158344Y774819D01*
X158388Y774527D01*
X158419Y774226D01*
X158438Y773915D01*
X158444Y773596D01*
X158436Y773309D01*
X158411Y773022D01*
X158370Y772735D01*
X158313Y772449D01*
X158239Y772164D01*
X158149Y771879D01*
X158042Y771594D01*
X157918Y771310D01*
X157624Y770742D01*
X157265Y770174D01*
X156842Y769606D01*
X156355Y769038D01*
X155718Y768392D01*
X154844Y767591D01*
X153734Y766633D01*
X152386Y765519D01*
X151621Y764876D01*
X150939Y764265D01*
X150338Y763687D01*
X149820Y763142D01*
X149377Y762617D01*
X149000Y762102D01*
X148690Y761597D01*
X148446Y761101D01*
X158753Y761101D01*
X158753Y758956D01*
G37*
G36*
X142826Y758956D02*
X130444Y758956D01*
X130444Y761101D01*
X135478Y761101D01*
X135478Y776302D01*
X131019Y773119D01*
X131019Y775503D01*
X135689Y778714D01*
X138016Y778714D01*
X138016Y761101D01*
X142826Y761101D01*
X142826Y758956D01*
G37*
G36*
X186044Y765463D02*
X179032Y765463D01*
X179032Y767706D01*
X186044Y767706D01*
X186044Y765463D01*
G37*
G36*
X34549Y435224D02*
X34082Y435236D01*
X33631Y435272D01*
X33197Y435332D01*
X32778Y435417D01*
X32377Y435525D01*
X31991Y435657D01*
X31622Y435814D01*
X31269Y435995D01*
X30934Y436198D01*
X30620Y436423D01*
X30326Y436669D01*
X30052Y436937D01*
X29799Y437227D01*
X29566Y437537D01*
X29354Y437870D01*
X29162Y438224D01*
X28992Y438596D01*
X28844Y438983D01*
X28719Y439386D01*
X28617Y439803D01*
X28537Y440236D01*
X28481Y440685D01*
X28447Y441148D01*
X28435Y441626D01*
X28442Y441991D01*
X28461Y442346D01*
X28492Y442691D01*
X28537Y443026D01*
X28594Y443350D01*
X28663Y443665D01*
X28745Y443969D01*
X28840Y444264D01*
X28948Y444548D01*
X29068Y444822D01*
X29201Y445086D01*
X29347Y445340D01*
X29676Y445818D01*
X30056Y446255D01*
X30481Y446646D01*
X30708Y446822D01*
X30945Y446985D01*
X31192Y447135D01*
X31449Y447272D01*
X31716Y447396D01*
X31993Y447507D01*
X32280Y447604D01*
X32577Y447689D01*
X32884Y447761D01*
X33200Y447819D01*
X33527Y447865D01*
X33864Y447898D01*
X34210Y447917D01*
X34566Y447924D01*
X35029Y447912D01*
X35477Y447877D01*
X35908Y447818D01*
X36325Y447737D01*
X36725Y447631D01*
X37110Y447502D01*
X37479Y447350D01*
X37833Y447175D01*
X38169Y446977D01*
X38484Y446758D01*
X38779Y446518D01*
X39054Y446256D01*
X39308Y445974D01*
X39542Y445670D01*
X39755Y445345D01*
X39948Y444998D01*
X40120Y444633D01*
X40268Y444252D01*
X40394Y443855D01*
X40497Y443442D01*
X40577Y443012D01*
X40634Y442566D01*
X40668Y442104D01*
X40680Y441626D01*
X40668Y441150D01*
X40633Y440689D01*
X40576Y440242D01*
X40495Y439811D01*
X40391Y439395D01*
X40263Y438994D01*
X40113Y438608D01*
X39940Y438237D01*
X39745Y437884D01*
X39529Y437552D01*
X39294Y437241D01*
X39039Y436951D01*
X38763Y436683D01*
X38467Y436435D01*
X38152Y436209D01*
X37816Y436003D01*
X37462Y435821D01*
X37093Y435662D01*
X36708Y435528D01*
X36307Y435419D01*
X35891Y435333D01*
X35459Y435273D01*
X35012Y435236D01*
X34549Y435224D01*
G37*
%LPC*%
G36*
X34549Y436581D02*
X35067Y436602D01*
X35555Y436664D01*
X36012Y436767D01*
X36437Y436911D01*
X36832Y437096D01*
X37195Y437323D01*
X37528Y437591D01*
X37829Y437900D01*
X38097Y438246D01*
X38329Y438627D01*
X38525Y439042D01*
X38686Y439490D01*
X38811Y439973D01*
X38900Y440490D01*
X38954Y441041D01*
X38972Y441626D01*
X38954Y442187D01*
X38900Y442716D01*
X38810Y443215D01*
X38684Y443682D01*
X38522Y444119D01*
X38324Y444525D01*
X38090Y444900D01*
X37820Y445244D01*
X37517Y445552D01*
X37185Y445818D01*
X36823Y446044D01*
X36431Y446229D01*
X36009Y446373D01*
X35558Y446475D01*
X35077Y446537D01*
X34566Y446557D01*
X34051Y446537D01*
X33567Y446476D01*
X33112Y446375D01*
X32688Y446233D01*
X32293Y446051D01*
X31929Y445828D01*
X31595Y445565D01*
X31291Y445261D01*
X31020Y444921D01*
X30785Y444548D01*
X30586Y444142D01*
X30423Y443704D01*
X30297Y443234D01*
X30207Y442730D01*
X30152Y442195D01*
X30134Y441626D01*
X30153Y441061D01*
X30208Y440526D01*
X30299Y440020D01*
X30427Y439545D01*
X30591Y439100D01*
X30792Y438684D01*
X31030Y438299D01*
X31304Y437943D01*
X31610Y437624D01*
X31945Y437348D01*
X32308Y437113D01*
X32700Y436922D01*
X33119Y436773D01*
X33567Y436667D01*
X34044Y436603D01*
X34549Y436581D01*
G37*
%LPD*%
G36*
X73574Y435399D02*
X71901Y435399D01*
X71901Y447740D01*
X77708Y447740D01*
X78214Y447725D01*
X78691Y447681D01*
X79138Y447609D01*
X79555Y447507D01*
X79942Y447375D01*
X80300Y447215D01*
X80628Y447026D01*
X80927Y446807D01*
X81192Y446562D01*
X81423Y446295D01*
X81618Y446005D01*
X81777Y445691D01*
X81901Y445355D01*
X81990Y444996D01*
X82043Y444615D01*
X82061Y444210D01*
X82048Y443873D01*
X82011Y443550D01*
X81948Y443240D01*
X81860Y442944D01*
X81748Y442662D01*
X81610Y442394D01*
X81447Y442139D01*
X81259Y441898D01*
X81050Y441674D01*
X80821Y441473D01*
X80573Y441292D01*
X80462Y441226D01*
X80306Y441134D01*
X80020Y440997D01*
X79715Y440881D01*
X79391Y440788D01*
X79048Y440715D01*
X80539Y438452D01*
X82551Y435399D01*
X80624Y435399D01*
X77419Y440523D01*
X73574Y440523D01*
X73574Y435399D01*
G37*
%LPC*%
G36*
X77611Y441845D02*
X77933Y441855D01*
X78235Y441884D01*
X78519Y441932D01*
X78784Y442000D01*
X79030Y442086D01*
X79258Y442193D01*
X79467Y442318D01*
X79657Y442463D01*
X79826Y442625D01*
X79973Y442802D01*
X80097Y442995D01*
X80198Y443204D01*
X80278Y443428D01*
X80334Y443667D01*
X80368Y443922D01*
X80379Y444193D01*
X80368Y444454D01*
X80333Y444699D01*
X80276Y444929D01*
X80196Y445142D01*
X80093Y445339D01*
X79968Y445520D01*
X79819Y445686D01*
X79648Y445835D01*
X79455Y445967D01*
X79242Y446082D01*
X79009Y446179D01*
X78756Y446259D01*
X78482Y446320D01*
X78189Y446364D01*
X77875Y446391D01*
X77541Y446400D01*
X73574Y446400D01*
X73574Y441845D01*
X77611Y441845D01*
G37*
%LPD*%
G36*
X18793Y435399D02*
X17120Y435399D01*
X17120Y447740D01*
X22313Y447740D01*
X22818Y447725D01*
X23293Y447679D01*
X23738Y447603D01*
X24155Y447497D01*
X24542Y447360D01*
X24900Y447193D01*
X25229Y446995D01*
X25528Y446768D01*
X25795Y446512D01*
X26026Y446232D01*
X26222Y445926D01*
X26382Y445596D01*
X26506Y445241D01*
X26595Y444861D01*
X26649Y444456D01*
X26666Y444026D01*
X26649Y443599D01*
X26595Y443195D01*
X26506Y442813D01*
X26381Y442454D01*
X26220Y442117D01*
X26024Y441803D01*
X25791Y441511D01*
X25523Y441241D01*
X25225Y440999D01*
X24901Y440789D01*
X24551Y440611D01*
X24176Y440466D01*
X23775Y440353D01*
X23348Y440272D01*
X22896Y440224D01*
X22419Y440207D01*
X18793Y440207D01*
X18793Y435399D01*
G37*
%LPC*%
G36*
X22182Y441530D02*
X22521Y441540D01*
X22839Y441569D01*
X23135Y441617D01*
X23408Y441685D01*
X23660Y441772D01*
X23890Y441879D01*
X24098Y442004D01*
X24284Y442150D01*
X24448Y442314D01*
X24591Y442498D01*
X24711Y442702D01*
X24810Y442924D01*
X24886Y443166D01*
X24941Y443428D01*
X24974Y443708D01*
X24985Y444009D01*
X24974Y444298D01*
X24940Y444569D01*
X24884Y444821D01*
X24805Y445055D01*
X24704Y445270D01*
X24581Y445466D01*
X24435Y445643D01*
X24267Y445802D01*
X24076Y445942D01*
X23863Y446063D01*
X23627Y446166D01*
X23369Y446250D01*
X23088Y446316D01*
X22785Y446362D01*
X22460Y446390D01*
X22112Y446400D01*
X18793Y446400D01*
X18793Y441530D01*
X22182Y441530D01*
G37*
%LPD*%
G36*
X47265Y435399D02*
X45268Y435399D01*
X41633Y447740D01*
X43376Y447740D01*
X45592Y439901D01*
X45971Y438408D01*
X46319Y436870D01*
X46805Y438972D01*
X47061Y439947D01*
X47551Y441734D01*
X49236Y447740D01*
X50838Y447740D01*
X52984Y440059D01*
X53422Y438320D01*
X53755Y436870D01*
X53834Y437177D01*
X54219Y438819D01*
X54909Y441367D01*
X56680Y447740D01*
X58423Y447740D01*
X54789Y435399D01*
X52792Y435399D01*
X50655Y443238D01*
X50396Y444265D01*
X50041Y445874D01*
X49656Y444175D01*
X48979Y441639D01*
X47265Y435399D01*
G37*
G36*
X69685Y435399D02*
X59963Y435399D01*
X59963Y447740D01*
X69326Y447740D01*
X69326Y446373D01*
X61636Y446373D01*
X61636Y442415D01*
X68801Y442415D01*
X68801Y441066D01*
X61636Y441066D01*
X61636Y436765D01*
X69685Y436765D01*
X69685Y435399D01*
G37*
D10*
X25400Y393700D02*
X25400Y215900D01*
X406400Y215900D01*
X406400Y393700D01*
X25400Y393700D01*
X342900Y698729D02*
X496112Y698729D01*
X342900Y698729D02*
X342900Y496824D01*
X495300Y496824D01*
X495300Y685217D01*
X496112Y698729D01*
X613200Y658300D02*
X613200Y534300D01*
X670700Y534300D02*
X670700Y658300D01*
X670700Y534300D02*
X613200Y534300D01*
X613200Y658300D02*
X670700Y658300D01*
D11*
X271525Y642125D02*
X236475Y642125D01*
X271525Y642125D02*
X271525Y577075D01*
X236475Y577075D01*
X236475Y642125D01*
D12*
X220000Y649500D02*
X220002Y649563D01*
X220008Y649625D01*
X220018Y649687D01*
X220031Y649749D01*
X220049Y649809D01*
X220070Y649868D01*
X220095Y649926D01*
X220124Y649982D01*
X220156Y650036D01*
X220191Y650088D01*
X220229Y650137D01*
X220271Y650185D01*
X220315Y650229D01*
X220363Y650271D01*
X220412Y650309D01*
X220464Y650344D01*
X220518Y650376D01*
X220574Y650405D01*
X220632Y650430D01*
X220691Y650451D01*
X220751Y650469D01*
X220813Y650482D01*
X220875Y650492D01*
X220937Y650498D01*
X221000Y650500D01*
X221063Y650498D01*
X221125Y650492D01*
X221187Y650482D01*
X221249Y650469D01*
X221309Y650451D01*
X221368Y650430D01*
X221426Y650405D01*
X221482Y650376D01*
X221536Y650344D01*
X221588Y650309D01*
X221637Y650271D01*
X221685Y650229D01*
X221729Y650185D01*
X221771Y650137D01*
X221809Y650088D01*
X221844Y650036D01*
X221876Y649982D01*
X221905Y649926D01*
X221930Y649868D01*
X221951Y649809D01*
X221969Y649749D01*
X221982Y649687D01*
X221992Y649625D01*
X221998Y649563D01*
X222000Y649500D01*
X221998Y649437D01*
X221992Y649375D01*
X221982Y649313D01*
X221969Y649251D01*
X221951Y649191D01*
X221930Y649132D01*
X221905Y649074D01*
X221876Y649018D01*
X221844Y648964D01*
X221809Y648912D01*
X221771Y648863D01*
X221729Y648815D01*
X221685Y648771D01*
X221637Y648729D01*
X221588Y648691D01*
X221536Y648656D01*
X221482Y648624D01*
X221426Y648595D01*
X221368Y648570D01*
X221309Y648549D01*
X221249Y648531D01*
X221187Y648518D01*
X221125Y648508D01*
X221063Y648502D01*
X221000Y648500D01*
X220937Y648502D01*
X220875Y648508D01*
X220813Y648518D01*
X220751Y648531D01*
X220691Y648549D01*
X220632Y648570D01*
X220574Y648595D01*
X220518Y648624D01*
X220464Y648656D01*
X220412Y648691D01*
X220363Y648729D01*
X220315Y648771D01*
X220271Y648815D01*
X220229Y648863D01*
X220191Y648912D01*
X220156Y648964D01*
X220124Y649018D01*
X220095Y649074D01*
X220070Y649132D01*
X220049Y649191D01*
X220031Y649251D01*
X220018Y649313D01*
X220008Y649375D01*
X220002Y649437D01*
X220000Y649500D01*
D10*
X336550Y241300D02*
X349250Y241300D01*
X355600Y234950D01*
X355600Y222250D01*
X349250Y215900D01*
X355600Y234950D02*
X361950Y241300D01*
X374650Y241300D01*
X381000Y234950D01*
X381000Y222250D01*
X374650Y215900D01*
X361950Y215900D01*
X355600Y222250D01*
X311150Y241300D02*
X304800Y234950D01*
X311150Y241300D02*
X323850Y241300D01*
X330200Y234950D01*
X330200Y222250D01*
X323850Y215900D01*
X311150Y215900D01*
X304800Y222250D01*
X330200Y234950D02*
X336550Y241300D01*
X330200Y222250D02*
X336550Y215900D01*
X349250Y215900D01*
X273050Y241300D02*
X260350Y241300D01*
X273050Y241300D02*
X279400Y234950D01*
X279400Y222250D01*
X273050Y215900D01*
X279400Y234950D02*
X285750Y241300D01*
X298450Y241300D01*
X304800Y234950D01*
X304800Y222250D01*
X298450Y215900D01*
X285750Y215900D01*
X279400Y222250D01*
X234950Y241300D02*
X228600Y234950D01*
X234950Y241300D02*
X247650Y241300D01*
X254000Y234950D01*
X254000Y222250D01*
X247650Y215900D01*
X234950Y215900D01*
X228600Y222250D01*
X254000Y234950D02*
X260350Y241300D01*
X254000Y222250D02*
X260350Y215900D01*
X273050Y215900D01*
X196850Y241300D02*
X184150Y241300D01*
X196850Y241300D02*
X203200Y234950D01*
X203200Y222250D01*
X196850Y215900D01*
X203200Y234950D02*
X209550Y241300D01*
X222250Y241300D01*
X228600Y234950D01*
X228600Y222250D01*
X222250Y215900D01*
X209550Y215900D01*
X203200Y222250D01*
X158750Y241300D02*
X152400Y234950D01*
X158750Y241300D02*
X171450Y241300D01*
X177800Y234950D01*
X177800Y222250D01*
X171450Y215900D01*
X158750Y215900D01*
X152400Y222250D01*
X177800Y234950D02*
X184150Y241300D01*
X177800Y222250D02*
X184150Y215900D01*
X196850Y215900D01*
X120650Y241300D02*
X107950Y241300D01*
X120650Y241300D02*
X127000Y234950D01*
X127000Y222250D01*
X120650Y215900D01*
X127000Y234950D02*
X133350Y241300D01*
X146050Y241300D01*
X152400Y234950D01*
X152400Y222250D01*
X146050Y215900D01*
X133350Y215900D01*
X127000Y222250D01*
X82550Y241300D02*
X76200Y234950D01*
X82550Y241300D02*
X95250Y241300D01*
X101600Y234950D01*
X101600Y222250D01*
X95250Y215900D01*
X82550Y215900D01*
X76200Y222250D01*
X101600Y234950D02*
X107950Y241300D01*
X101600Y222250D02*
X107950Y215900D01*
X120650Y215900D01*
X44450Y241300D02*
X31750Y241300D01*
X44450Y241300D02*
X50800Y234950D01*
X50800Y222250D01*
X44450Y215900D01*
X50800Y234950D02*
X57150Y241300D01*
X69850Y241300D01*
X76200Y234950D01*
X76200Y222250D01*
X69850Y215900D01*
X57150Y215900D01*
X50800Y222250D01*
X25400Y222250D02*
X25400Y234950D01*
X31750Y241300D01*
X25400Y222250D02*
X31750Y215900D01*
X44450Y215900D01*
X381000Y234950D02*
X387350Y241300D01*
X400050Y241300D01*
X406400Y234950D01*
X406400Y222250D01*
X400050Y215900D01*
X387350Y215900D01*
X381000Y222250D01*
X95250Y368300D02*
X82550Y368300D01*
X76200Y374650D01*
X76200Y387350D01*
X82550Y393700D01*
X76200Y374650D02*
X69850Y368300D01*
X57150Y368300D01*
X50800Y374650D01*
X50800Y387350D01*
X57150Y393700D01*
X69850Y393700D01*
X76200Y387350D01*
X120650Y368300D02*
X127000Y374650D01*
X120650Y368300D02*
X107950Y368300D01*
X101600Y374650D01*
X101600Y387350D01*
X107950Y393700D01*
X120650Y393700D01*
X127000Y387350D01*
X101600Y374650D02*
X95250Y368300D01*
X101600Y387350D02*
X95250Y393700D01*
X82550Y393700D01*
X158750Y368300D02*
X171450Y368300D01*
X158750Y368300D02*
X152400Y374650D01*
X152400Y387350D01*
X158750Y393700D01*
X152400Y374650D02*
X146050Y368300D01*
X133350Y368300D01*
X127000Y374650D01*
X127000Y387350D01*
X133350Y393700D01*
X146050Y393700D01*
X152400Y387350D01*
X196850Y368300D02*
X203200Y374650D01*
X196850Y368300D02*
X184150Y368300D01*
X177800Y374650D01*
X177800Y387350D01*
X184150Y393700D01*
X196850Y393700D01*
X203200Y387350D01*
X177800Y374650D02*
X171450Y368300D01*
X177800Y387350D02*
X171450Y393700D01*
X158750Y393700D01*
X234950Y368300D02*
X247650Y368300D01*
X234950Y368300D02*
X228600Y374650D01*
X228600Y387350D01*
X234950Y393700D01*
X228600Y374650D02*
X222250Y368300D01*
X209550Y368300D01*
X203200Y374650D01*
X203200Y387350D01*
X209550Y393700D01*
X222250Y393700D01*
X228600Y387350D01*
X273050Y368300D02*
X279400Y374650D01*
X273050Y368300D02*
X260350Y368300D01*
X254000Y374650D01*
X254000Y387350D01*
X260350Y393700D01*
X273050Y393700D01*
X279400Y387350D01*
X254000Y374650D02*
X247650Y368300D01*
X254000Y387350D02*
X247650Y393700D01*
X234950Y393700D01*
X311150Y368300D02*
X323850Y368300D01*
X311150Y368300D02*
X304800Y374650D01*
X304800Y387350D01*
X311150Y393700D01*
X304800Y374650D02*
X298450Y368300D01*
X285750Y368300D01*
X279400Y374650D01*
X279400Y387350D01*
X285750Y393700D01*
X298450Y393700D01*
X304800Y387350D01*
X349250Y368300D02*
X355600Y374650D01*
X349250Y368300D02*
X336550Y368300D01*
X330200Y374650D01*
X330200Y387350D01*
X336550Y393700D01*
X349250Y393700D01*
X355600Y387350D01*
X330200Y374650D02*
X323850Y368300D01*
X330200Y387350D02*
X323850Y393700D01*
X311150Y393700D01*
X387350Y368300D02*
X400050Y368300D01*
X387350Y368300D02*
X381000Y374650D01*
X381000Y387350D01*
X387350Y393700D01*
X381000Y374650D02*
X374650Y368300D01*
X361950Y368300D01*
X355600Y374650D01*
X355600Y387350D01*
X361950Y393700D01*
X374650Y393700D01*
X381000Y387350D01*
X406400Y387350D02*
X406400Y374650D01*
X400050Y368300D01*
X406400Y387350D02*
X400050Y393700D01*
X387350Y393700D01*
X50800Y374650D02*
X44450Y368300D01*
X31750Y368300D01*
X25400Y374650D01*
X25400Y387350D01*
X31750Y393700D01*
X44450Y393700D01*
X50800Y387350D01*
X520700Y298450D02*
X527050Y292100D01*
X520700Y298450D02*
X520700Y311150D01*
X527050Y317500D01*
X539750Y317500D01*
X546100Y311150D01*
X546100Y298450D01*
X539750Y292100D01*
X520700Y260350D02*
X520700Y247650D01*
X520700Y260350D02*
X527050Y266700D01*
X539750Y266700D01*
X546100Y260350D01*
X527050Y266700D02*
X520700Y273050D01*
X520700Y285750D01*
X527050Y292100D01*
X539750Y292100D01*
X546100Y285750D01*
X546100Y273050D01*
X539750Y266700D01*
X539750Y241300D02*
X527050Y241300D01*
X520700Y247650D01*
X539750Y241300D02*
X546100Y247650D01*
X546100Y260350D01*
X520700Y323850D02*
X520700Y336550D01*
X527050Y342900D01*
X539750Y342900D01*
X546100Y336550D01*
X527050Y317500D02*
X520700Y323850D01*
X539750Y317500D02*
X546100Y323850D01*
X546100Y336550D01*
X368300Y527050D02*
X368300Y539750D01*
X368300Y527050D02*
X361950Y520700D01*
X349250Y520700D01*
X342900Y527050D01*
X368300Y565150D02*
X361950Y571500D01*
X368300Y565150D02*
X368300Y552450D01*
X361950Y546100D01*
X349250Y546100D01*
X342900Y552450D01*
X342900Y565150D01*
X349250Y571500D01*
X361950Y546100D02*
X368300Y539750D01*
X349250Y546100D02*
X342900Y539750D01*
X342900Y527050D01*
X368300Y603250D02*
X368300Y615950D01*
X368300Y603250D02*
X361950Y596900D01*
X349250Y596900D01*
X342900Y603250D01*
X361950Y596900D02*
X368300Y590550D01*
X368300Y577850D01*
X361950Y571500D01*
X349250Y571500D01*
X342900Y577850D01*
X342900Y590550D01*
X349250Y596900D01*
X368300Y641350D02*
X361950Y647700D01*
X368300Y641350D02*
X368300Y628650D01*
X361950Y622300D01*
X349250Y622300D01*
X342900Y628650D01*
X342900Y641350D01*
X349250Y647700D01*
X361950Y622300D02*
X368300Y615950D01*
X349250Y622300D02*
X342900Y615950D01*
X342900Y603250D01*
X368300Y679450D02*
X368300Y692150D01*
X368300Y679450D02*
X361950Y673100D01*
X349250Y673100D01*
X342900Y679450D01*
X361950Y673100D02*
X368300Y666750D01*
X368300Y654050D01*
X361950Y647700D01*
X349250Y647700D01*
X342900Y654050D01*
X342900Y666750D01*
X349250Y673100D01*
X349250Y698500D02*
X361950Y698500D01*
X368300Y692150D01*
X349250Y698500D02*
X342900Y692150D01*
X342900Y679450D01*
X368300Y514350D02*
X368300Y501650D01*
X361950Y495300D01*
X349250Y495300D01*
X342900Y501650D01*
X361950Y520700D02*
X368300Y514350D01*
X349250Y520700D02*
X342900Y514350D01*
X342900Y501650D01*
X469900Y654050D02*
X469900Y666750D01*
X476250Y673100D01*
X488950Y673100D01*
X495300Y666750D01*
X469900Y628650D02*
X476250Y622300D01*
X469900Y628650D02*
X469900Y641350D01*
X476250Y647700D01*
X488950Y647700D01*
X495300Y641350D01*
X495300Y628650D01*
X488950Y622300D01*
X476250Y647700D02*
X469900Y654050D01*
X488950Y647700D02*
X495300Y654050D01*
X495300Y666750D01*
X469900Y590550D02*
X469900Y577850D01*
X469900Y590550D02*
X476250Y596900D01*
X488950Y596900D01*
X495300Y590550D01*
X476250Y596900D02*
X469900Y603250D01*
X469900Y615950D01*
X476250Y622300D01*
X488950Y622300D01*
X495300Y615950D01*
X495300Y603250D01*
X488950Y596900D01*
X469900Y552450D02*
X476250Y546100D01*
X469900Y552450D02*
X469900Y565150D01*
X476250Y571500D01*
X488950Y571500D01*
X495300Y565150D01*
X495300Y552450D01*
X488950Y546100D01*
X476250Y571500D02*
X469900Y577850D01*
X488950Y571500D02*
X495300Y577850D01*
X495300Y590550D01*
X469900Y514350D02*
X469900Y501650D01*
X469900Y514350D02*
X476250Y520700D01*
X488950Y520700D01*
X495300Y514350D01*
X476250Y520700D02*
X469900Y527050D01*
X469900Y539750D01*
X476250Y546100D01*
X488950Y546100D01*
X495300Y539750D01*
X495300Y527050D01*
X488950Y520700D01*
X488950Y495300D02*
X476250Y495300D01*
X469900Y501650D01*
X488950Y495300D02*
X495300Y501650D01*
X495300Y514350D01*
X469900Y679450D02*
X469900Y692150D01*
X476250Y698500D01*
X488950Y698500D01*
X495300Y692150D01*
X476250Y673100D02*
X469900Y679450D01*
X488950Y673100D02*
X495300Y679450D01*
X495300Y692150D01*
X279400Y681763D02*
X279400Y674143D01*
X275590Y677699D02*
X283210Y677699D01*
X314706Y697765D02*
X314706Y768377D01*
X291846Y768377D01*
X244094Y768377D02*
X244094Y697765D01*
X266954Y697765D01*
X291846Y697765D02*
X314706Y697765D01*
X266954Y768377D02*
X244094Y768377D01*
D11*
X20061Y653500D02*
X19975Y653496D01*
X19889Y653497D01*
X19802Y653501D01*
X19716Y653510D01*
X19631Y653522D01*
X19546Y653538D01*
X19462Y653558D01*
X19379Y653582D01*
X19297Y653610D01*
X19216Y653641D01*
X19138Y653677D01*
X19060Y653715D01*
X18985Y653757D01*
X18911Y653803D01*
X18840Y653852D01*
X18771Y653904D01*
X18705Y653959D01*
X18641Y654017D01*
X18580Y654078D01*
X18521Y654142D01*
X18466Y654209D01*
X18414Y654277D01*
X18365Y654349D01*
X18319Y654422D01*
X18277Y654497D01*
X18238Y654575D01*
X18203Y654653D01*
X18171Y654734D01*
X18143Y654816D01*
X18119Y654899D01*
X18099Y654983D01*
X18083Y655068D01*
X18070Y655153D01*
X18061Y655239D01*
X18057Y655325D01*
X18056Y655412D01*
X18060Y655498D01*
X18060Y741499D02*
X18056Y741585D01*
X18057Y741671D01*
X18061Y741758D01*
X18070Y741844D01*
X18082Y741929D01*
X18098Y742014D01*
X18118Y742098D01*
X18142Y742181D01*
X18170Y742263D01*
X18201Y742343D01*
X18237Y742422D01*
X18275Y742500D01*
X18317Y742575D01*
X18363Y742649D01*
X18412Y742720D01*
X18464Y742789D01*
X18519Y742855D01*
X18577Y742919D01*
X18638Y742980D01*
X18702Y743039D01*
X18769Y743094D01*
X18837Y743146D01*
X18909Y743195D01*
X18982Y743241D01*
X19057Y743283D01*
X19135Y743322D01*
X19213Y743357D01*
X19294Y743389D01*
X19376Y743417D01*
X19459Y743441D01*
X19543Y743461D01*
X19628Y743477D01*
X19713Y743490D01*
X19799Y743499D01*
X19885Y743503D01*
X19972Y743504D01*
X20058Y743500D01*
X18060Y741600D02*
X18060Y655100D01*
X19960Y743500D02*
X48060Y743500D01*
X123060Y743500D02*
X163060Y743500D01*
X48060Y653500D02*
X19960Y653500D01*
X123060Y653500D02*
X163060Y653500D01*
X163060Y707500D02*
X163060Y743500D01*
X163060Y677500D02*
X163060Y653500D01*
X112350Y454741D02*
X90850Y454741D01*
X90850Y434259D02*
X112350Y434259D01*
X120500Y582300D02*
X133500Y582300D01*
X133500Y560700D02*
X120500Y560700D01*
X133500Y575800D02*
X133500Y582300D01*
X133500Y567300D02*
X133500Y560700D01*
D13*
X106200Y579500D02*
X106202Y579556D01*
X106208Y579613D01*
X106218Y579668D01*
X106232Y579723D01*
X106249Y579777D01*
X106271Y579829D01*
X106296Y579879D01*
X106324Y579928D01*
X106356Y579975D01*
X106391Y580019D01*
X106429Y580061D01*
X106470Y580100D01*
X106514Y580135D01*
X106560Y580168D01*
X106608Y580197D01*
X106658Y580223D01*
X106710Y580246D01*
X106764Y580264D01*
X106818Y580279D01*
X106873Y580290D01*
X106929Y580297D01*
X106986Y580300D01*
X107042Y580299D01*
X107099Y580294D01*
X107154Y580285D01*
X107209Y580272D01*
X107263Y580255D01*
X107316Y580235D01*
X107367Y580211D01*
X107416Y580183D01*
X107463Y580152D01*
X107508Y580118D01*
X107551Y580080D01*
X107590Y580040D01*
X107627Y579997D01*
X107660Y579952D01*
X107690Y579904D01*
X107717Y579854D01*
X107740Y579803D01*
X107760Y579750D01*
X107776Y579696D01*
X107788Y579640D01*
X107796Y579585D01*
X107800Y579528D01*
X107800Y579472D01*
X107796Y579415D01*
X107788Y579360D01*
X107776Y579304D01*
X107760Y579250D01*
X107740Y579197D01*
X107717Y579146D01*
X107690Y579096D01*
X107660Y579048D01*
X107627Y579003D01*
X107590Y578960D01*
X107551Y578920D01*
X107508Y578882D01*
X107463Y578848D01*
X107416Y578817D01*
X107367Y578789D01*
X107316Y578765D01*
X107263Y578745D01*
X107209Y578728D01*
X107154Y578715D01*
X107099Y578706D01*
X107042Y578701D01*
X106986Y578700D01*
X106929Y578703D01*
X106873Y578710D01*
X106818Y578721D01*
X106764Y578736D01*
X106710Y578754D01*
X106658Y578777D01*
X106608Y578803D01*
X106560Y578832D01*
X106514Y578865D01*
X106470Y578900D01*
X106429Y578939D01*
X106391Y578981D01*
X106356Y579025D01*
X106324Y579072D01*
X106296Y579121D01*
X106271Y579171D01*
X106249Y579223D01*
X106232Y579277D01*
X106218Y579332D01*
X106208Y579387D01*
X106202Y579444D01*
X106200Y579500D01*
D11*
X217866Y526200D02*
X217866Y515200D01*
X205146Y515200D02*
X205146Y526200D01*
X183300Y476240D02*
X172300Y476240D01*
X172300Y488960D02*
X183300Y488960D01*
X119800Y552460D02*
X108800Y552460D01*
X108800Y539740D02*
X119800Y539740D01*
X134200Y514340D02*
X145200Y514340D01*
X145200Y527060D02*
X134200Y527060D01*
X184366Y562750D02*
X184366Y580250D01*
X168384Y580250D02*
X168384Y562750D01*
X123050Y512709D02*
X105550Y512709D01*
X105550Y528691D02*
X123050Y528691D01*
D12*
X11160Y517100D02*
X11160Y546000D01*
X-3840Y546000D01*
X-3840Y561000D01*
X11160Y561000D01*
X11160Y575100D01*
X21660Y511600D02*
X29660Y511600D01*
X29660Y580600D02*
X21660Y580600D01*
X40160Y562100D02*
X40160Y545100D01*
X33660Y563100D02*
X33662Y563163D01*
X33668Y563225D01*
X33678Y563287D01*
X33691Y563349D01*
X33709Y563409D01*
X33730Y563468D01*
X33755Y563526D01*
X33784Y563582D01*
X33816Y563636D01*
X33851Y563688D01*
X33889Y563737D01*
X33931Y563785D01*
X33975Y563829D01*
X34023Y563871D01*
X34072Y563909D01*
X34124Y563944D01*
X34178Y563976D01*
X34234Y564005D01*
X34292Y564030D01*
X34351Y564051D01*
X34411Y564069D01*
X34473Y564082D01*
X34535Y564092D01*
X34597Y564098D01*
X34660Y564100D01*
X34723Y564098D01*
X34785Y564092D01*
X34847Y564082D01*
X34909Y564069D01*
X34969Y564051D01*
X35028Y564030D01*
X35086Y564005D01*
X35142Y563976D01*
X35196Y563944D01*
X35248Y563909D01*
X35297Y563871D01*
X35345Y563829D01*
X35389Y563785D01*
X35431Y563737D01*
X35469Y563688D01*
X35504Y563636D01*
X35536Y563582D01*
X35565Y563526D01*
X35590Y563468D01*
X35611Y563409D01*
X35629Y563349D01*
X35642Y563287D01*
X35652Y563225D01*
X35658Y563163D01*
X35660Y563100D01*
X35658Y563037D01*
X35652Y562975D01*
X35642Y562913D01*
X35629Y562851D01*
X35611Y562791D01*
X35590Y562732D01*
X35565Y562674D01*
X35536Y562618D01*
X35504Y562564D01*
X35469Y562512D01*
X35431Y562463D01*
X35389Y562415D01*
X35345Y562371D01*
X35297Y562329D01*
X35248Y562291D01*
X35196Y562256D01*
X35142Y562224D01*
X35086Y562195D01*
X35028Y562170D01*
X34969Y562149D01*
X34909Y562131D01*
X34847Y562118D01*
X34785Y562108D01*
X34723Y562102D01*
X34660Y562100D01*
X34597Y562102D01*
X34535Y562108D01*
X34473Y562118D01*
X34411Y562131D01*
X34351Y562149D01*
X34292Y562170D01*
X34234Y562195D01*
X34178Y562224D01*
X34124Y562256D01*
X34072Y562291D01*
X34023Y562329D01*
X33975Y562371D01*
X33931Y562415D01*
X33889Y562463D01*
X33851Y562512D01*
X33816Y562564D01*
X33784Y562618D01*
X33755Y562674D01*
X33730Y562732D01*
X33709Y562791D01*
X33691Y562851D01*
X33678Y562913D01*
X33668Y562975D01*
X33662Y563037D01*
X33660Y563100D01*
D11*
X173175Y535200D02*
X186175Y535200D01*
X173175Y535200D02*
X173175Y506200D01*
X186175Y506200D01*
X186175Y535200D01*
D14*
X48100Y479849D02*
X21501Y479849D01*
X21501Y459951D01*
X48100Y459951D01*
M02*
