G04 EAGLE Gerber RS-274X export*
G75*
%MOMM*%
%FSLAX34Y34*%
%LPD*%
%INSoldermask Bottom*%
%IPPOS*%
%AMOC8*
5,1,8,0,0,1.08239X$1,22.5*%
G01*
G04 Define Apertures*
%ADD10C,3.203200*%
%ADD11C,1.551200*%
%ADD12C,1.727200*%
%ADD13C,2.003200*%
%ADD14C,1.103200*%
D10*
X25400Y774700D03*
X698500Y774700D03*
X698500Y165100D03*
X25400Y165100D03*
D11*
X647700Y558800D03*
X647700Y583800D03*
X647700Y608800D03*
X647700Y633800D03*
D12*
X38100Y236220D02*
X38100Y220980D01*
X63500Y220980D02*
X63500Y236220D01*
X88900Y236220D02*
X88900Y220980D01*
X114300Y220980D02*
X114300Y236220D01*
X139700Y236220D02*
X139700Y220980D01*
X165100Y220980D02*
X165100Y236220D01*
X190500Y236220D02*
X190500Y220980D01*
X215900Y220980D02*
X215900Y236220D01*
X241300Y236220D02*
X241300Y220980D01*
X266700Y220980D02*
X266700Y236220D01*
X292100Y236220D02*
X292100Y220980D01*
X317500Y220980D02*
X317500Y236220D01*
X342900Y236220D02*
X342900Y220980D01*
X368300Y220980D02*
X368300Y236220D01*
X393700Y236220D02*
X393700Y220980D01*
X38100Y373380D02*
X38100Y388620D01*
X63500Y388620D02*
X63500Y373380D01*
X88900Y373380D02*
X88900Y388620D01*
X114300Y388620D02*
X114300Y373380D01*
X139700Y373380D02*
X139700Y388620D01*
X165100Y388620D02*
X165100Y373380D01*
X190500Y373380D02*
X190500Y388620D01*
X215900Y388620D02*
X215900Y373380D01*
X241300Y373380D02*
X241300Y388620D01*
X266700Y388620D02*
X266700Y373380D01*
X292100Y373380D02*
X292100Y388620D01*
X317500Y388620D02*
X317500Y373380D01*
X342900Y373380D02*
X342900Y388620D01*
X368300Y388620D02*
X368300Y373380D01*
X393700Y373380D02*
X393700Y388620D01*
X525780Y254000D02*
X541020Y254000D01*
X541020Y279400D02*
X525780Y279400D01*
X525780Y304800D02*
X541020Y304800D01*
X541020Y330200D02*
X525780Y330200D01*
X337820Y508000D02*
X322580Y508000D01*
X322580Y533400D02*
X337820Y533400D01*
X337820Y558800D02*
X322580Y558800D01*
X322580Y584200D02*
X337820Y584200D01*
X337820Y609600D02*
X322580Y609600D01*
X322580Y635000D02*
X337820Y635000D01*
X337820Y660400D02*
X322580Y660400D01*
X322580Y685800D02*
X337820Y685800D01*
X474980Y685800D02*
X490220Y685800D01*
X490220Y660400D02*
X474980Y660400D01*
X474980Y635000D02*
X490220Y635000D01*
X490220Y609600D02*
X474980Y609600D01*
X474980Y584200D02*
X490220Y584200D01*
X490220Y558800D02*
X474980Y558800D01*
X474980Y533400D02*
X490220Y533400D01*
X490220Y508000D02*
X474980Y508000D01*
D13*
X53060Y723500D03*
X53060Y673500D03*
D14*
X25660Y531100D03*
X25660Y561100D03*
M02*
