G04 EAGLE Gerber RS-274X export*
G75*
%MOMM*%
%FSLAX34Y34*%
%LPD*%
%INSoldermask Top*%
%IPPOS*%
%AMOC8*
5,1,8,0,0,1.08239X$1,22.5*%
G01*
G04 Define Apertures*
%ADD10C,3.203200*%
%ADD11C,1.551200*%
%ADD12C,0.339959*%
%ADD13C,0.393431*%
%ADD14C,1.727200*%
%ADD15R,2.006600X3.505200*%
%ADD16R,4.203200X2.703200*%
%ADD17R,7.203200X4.203200*%
%ADD18C,2.003200*%
%ADD19R,1.234400X1.623400*%
%ADD20R,1.283200X0.633200*%
%ADD21R,0.847200X0.738300*%
%ADD22R,0.738300X0.847200*%
%ADD23R,1.173400X1.124100*%
%ADD24R,1.124100X1.173400*%
%ADD25R,1.303200X0.903200*%
%ADD26R,1.003200X1.203200*%
%ADD27C,1.103200*%
%ADD28R,1.203200X1.603200*%
%ADD29R,0.965000X1.565000*%
D10*
X25400Y774700D03*
X698500Y774700D03*
X698500Y165100D03*
X25400Y165100D03*
D11*
X647700Y558800D03*
X647700Y583800D03*
X647700Y608800D03*
X647700Y633800D03*
D12*
X214684Y636466D02*
X214684Y628534D01*
X214684Y636466D02*
X226416Y636466D01*
X226416Y628534D01*
X214684Y628534D01*
X214684Y631764D02*
X226416Y631764D01*
X226416Y634994D02*
X214684Y634994D01*
X214684Y613566D02*
X214684Y605634D01*
X214684Y613566D02*
X226416Y613566D01*
X226416Y605634D01*
X214684Y605634D01*
X214684Y608864D02*
X226416Y608864D01*
X226416Y612094D02*
X214684Y612094D01*
X214684Y590666D02*
X214684Y582734D01*
X214684Y590666D02*
X226416Y590666D01*
X226416Y582734D01*
X214684Y582734D01*
X214684Y585964D02*
X226416Y585964D01*
X226416Y589194D02*
X214684Y589194D01*
D13*
X281851Y594351D02*
X281851Y624849D01*
X293049Y624849D01*
X293049Y594351D01*
X281851Y594351D01*
X281851Y598088D02*
X293049Y598088D01*
X293049Y601825D02*
X281851Y601825D01*
X281851Y605562D02*
X293049Y605562D01*
X293049Y609299D02*
X281851Y609299D01*
X281851Y613036D02*
X293049Y613036D01*
X293049Y616773D02*
X281851Y616773D01*
X281851Y620510D02*
X293049Y620510D01*
X293049Y624247D02*
X281851Y624247D01*
D14*
X38100Y236220D02*
X38100Y220980D01*
X63500Y220980D02*
X63500Y236220D01*
X88900Y236220D02*
X88900Y220980D01*
X114300Y220980D02*
X114300Y236220D01*
X139700Y236220D02*
X139700Y220980D01*
X165100Y220980D02*
X165100Y236220D01*
X190500Y236220D02*
X190500Y220980D01*
X215900Y220980D02*
X215900Y236220D01*
X241300Y236220D02*
X241300Y220980D01*
X266700Y220980D02*
X266700Y236220D01*
X292100Y236220D02*
X292100Y220980D01*
X317500Y220980D02*
X317500Y236220D01*
X342900Y236220D02*
X342900Y220980D01*
X368300Y220980D02*
X368300Y236220D01*
X393700Y236220D02*
X393700Y220980D01*
X38100Y373380D02*
X38100Y388620D01*
X63500Y388620D02*
X63500Y373380D01*
X88900Y373380D02*
X88900Y388620D01*
X114300Y388620D02*
X114300Y373380D01*
X139700Y373380D02*
X139700Y388620D01*
X165100Y388620D02*
X165100Y373380D01*
X190500Y373380D02*
X190500Y388620D01*
X215900Y388620D02*
X215900Y373380D01*
X241300Y373380D02*
X241300Y388620D01*
X266700Y388620D02*
X266700Y373380D01*
X292100Y373380D02*
X292100Y388620D01*
X317500Y388620D02*
X317500Y373380D01*
X342900Y373380D02*
X342900Y388620D01*
X368300Y388620D02*
X368300Y373380D01*
X393700Y373380D02*
X393700Y388620D01*
X525780Y254000D02*
X541020Y254000D01*
X541020Y279400D02*
X525780Y279400D01*
X525780Y304800D02*
X541020Y304800D01*
X541020Y330200D02*
X525780Y330200D01*
X337820Y508000D02*
X322580Y508000D01*
X322580Y533400D02*
X337820Y533400D01*
X337820Y558800D02*
X322580Y558800D01*
X322580Y584200D02*
X337820Y584200D01*
X337820Y609600D02*
X322580Y609600D01*
X322580Y635000D02*
X337820Y635000D01*
X337820Y660400D02*
X322580Y660400D01*
X322580Y685800D02*
X337820Y685800D01*
X474980Y685800D02*
X490220Y685800D01*
X490220Y660400D02*
X474980Y660400D01*
X474980Y635000D02*
X490220Y635000D01*
X490220Y609600D02*
X474980Y609600D01*
X474980Y584200D02*
X490220Y584200D01*
X490220Y558800D02*
X474980Y558800D01*
X474980Y533400D02*
X490220Y533400D01*
X490220Y508000D02*
X474980Y508000D01*
D15*
X279400Y705512D03*
X279400Y760630D03*
D16*
X173060Y692500D03*
D17*
X85560Y763500D03*
X85560Y633500D03*
D18*
X53060Y723500D03*
X53060Y673500D03*
D19*
X92405Y444500D03*
X110795Y444500D03*
D20*
X136300Y571500D03*
X117700Y578000D03*
X117700Y565000D03*
D21*
X173406Y551175D03*
X173406Y541025D03*
D22*
X198125Y558800D03*
X208275Y558800D03*
X109225Y546100D03*
X119375Y546100D03*
X144775Y520700D03*
X134625Y520700D03*
D23*
X176375Y591946D03*
X176375Y576454D03*
D24*
X122046Y520700D03*
X106554Y520700D03*
D25*
X46160Y568600D03*
X46160Y538600D03*
X46160Y523600D03*
D26*
X14160Y508600D03*
X14160Y583600D03*
X37160Y583600D03*
X37160Y508600D03*
D27*
X25660Y531100D03*
X25660Y561100D03*
D28*
X177800Y498875D03*
X187300Y520875D03*
X168300Y520875D03*
D29*
X27850Y469900D03*
X48350Y469900D03*
M02*
